<svg width="84" height="80" viewBox="0 0 84 80" fill="none" xmlns="http://www.w3.org/2000/svg">
<path d="M83 14C82.8333 7.33333 79.3167 4 72.45 4H13.5C6.66667 4 3.16667 7.33333 3 14V69.95C3.16667 76.65 6.66667 80 13.5 80H72.45C79.3167 80 82.8333 76.65 83 69.95V14Z" fill="url(#paint0_linear_36_19055)"/>
<path d="M83 10.5C83 3.5 79.4833 0 72.45 0H13.5C6.5 0 3 3.5 3 10.5V14C3.16667 7.33333 6.66667 4 13.5 4H72.45C79.3167 4 82.8333 7.33333 83 14V10.5Z" fill="url(#paint1_linear_36_19055)"/>
<mask id="path-3-outside-1_36_19055" maskUnits="userSpaceOnUse" x="51" y="21" width="15" height="22" fill="black">
<rect fill="white" x="51" y="21" width="15" height="22"/>
<path d="M64.7737 23.7383C64.883 23.7383 64.9768 23.7617 65.0549 23.8086C65.1409 23.8555 65.1838 23.9375 65.1838 24.0547C65.1838 24.1953 65.1565 24.3438 65.1018 24.5C65.0471 24.6484 64.9807 24.8008 64.9026 24.957C64.8245 25.1133 64.7463 25.2656 64.6682 25.4141C64.5901 25.5625 64.5237 25.7031 64.469 25.8359C64.008 27.0156 63.6682 28.2305 63.4495 29.4805C63.2307 30.7227 63.1213 31.9883 63.1213 33.2773C63.1213 34.0195 63.1565 34.7773 63.2268 35.5508C63.2971 36.3242 63.4143 37.0938 63.5784 37.8594C63.7424 38.6172 63.9534 39.3594 64.2112 40.0859C64.4768 40.8203 64.801 41.5156 65.1838 42.1719L64.9495 42.2422C64.1916 41.4375 63.551 40.5469 63.0276 39.5703C62.5041 38.6016 62.1057 37.582 61.8323 36.5117C61.6213 37.1992 61.3713 37.8789 61.0823 38.5508C60.7932 39.2227 60.4377 39.8242 60.0159 40.3555C59.6018 40.8945 59.1135 41.3281 58.551 41.6562C57.9963 41.9844 57.344 42.1484 56.594 42.1484C56.0237 42.1484 55.5198 42.0312 55.0823 41.7969C54.6448 41.5703 54.262 41.2617 53.9338 40.8711C53.6057 40.4883 53.3284 40.0469 53.1018 39.5469C52.883 39.0547 52.7034 38.543 52.5627 38.0117C52.4221 37.4805 52.3205 36.9531 52.258 36.4297C52.2034 35.8984 52.176 35.4141 52.176 34.9766C52.176 33.8594 52.262 32.7344 52.4338 31.6016C52.6057 30.4688 52.8596 29.3594 53.1955 28.2734C53.5393 27.1797 53.9651 26.125 54.4729 25.1094C54.9807 24.0859 55.5745 23.125 56.2541 22.2266L56.5002 22.3555C56.2112 22.8711 55.9455 23.4336 55.7034 24.043C55.469 24.6523 55.258 25.2891 55.0705 25.9531C54.883 26.6094 54.719 27.2852 54.5784 27.9805C54.4377 28.668 54.3205 29.3555 54.2268 30.043C54.1409 30.7305 54.0745 31.4023 54.0276 32.0586C53.9807 32.7148 53.9573 33.3359 53.9573 33.9219C53.9573 34.2812 53.9651 34.7031 53.9807 35.1875C54.0041 35.6641 54.051 36.1602 54.1213 36.6758C54.1916 37.1914 54.2971 37.6992 54.4377 38.1992C54.5784 38.6992 54.7698 39.1445 55.012 39.5352C55.2541 39.9336 55.5549 40.2539 55.9143 40.4961C56.2737 40.7383 56.7073 40.8594 57.2151 40.8594C57.7151 40.8594 58.1643 40.7695 58.5627 40.5898C58.9612 40.418 59.3127 40.1797 59.6174 39.875C59.9221 39.5703 60.1838 39.2148 60.4026 38.8086C60.6291 38.4102 60.8166 37.9844 60.9651 37.5312C61.1135 37.0781 61.2307 36.6133 61.3166 36.1367C61.4104 35.6602 61.4768 35.1953 61.5159 34.7422C61.469 34.2891 61.4455 33.832 61.4455 33.3711C61.4455 32.7305 61.4768 32.0469 61.5393 31.3203C61.6096 30.5859 61.7112 29.8516 61.844 29.1172C61.9846 28.3828 62.1604 27.668 62.3713 26.9727C62.5823 26.2695 62.8323 25.625 63.1213 25.0391C63.2151 24.8672 63.3127 24.7031 63.4143 24.5469C63.5237 24.3906 63.6409 24.2539 63.7659 24.1367C63.8987 24.0117 64.0471 23.9141 64.2112 23.8438C64.3752 23.7734 64.5627 23.7383 64.7737 23.7383Z"/>
</mask>
<path d="M64.7737 23.7383C64.883 23.7383 64.9768 23.7617 65.0549 23.8086C65.1409 23.8555 65.1838 23.9375 65.1838 24.0547C65.1838 24.1953 65.1565 24.3438 65.1018 24.5C65.0471 24.6484 64.9807 24.8008 64.9026 24.957C64.8245 25.1133 64.7463 25.2656 64.6682 25.4141C64.5901 25.5625 64.5237 25.7031 64.469 25.8359C64.008 27.0156 63.6682 28.2305 63.4495 29.4805C63.2307 30.7227 63.1213 31.9883 63.1213 33.2773C63.1213 34.0195 63.1565 34.7773 63.2268 35.5508C63.2971 36.3242 63.4143 37.0938 63.5784 37.8594C63.7424 38.6172 63.9534 39.3594 64.2112 40.0859C64.4768 40.8203 64.801 41.5156 65.1838 42.1719L64.9495 42.2422C64.1916 41.4375 63.551 40.5469 63.0276 39.5703C62.5041 38.6016 62.1057 37.582 61.8323 36.5117C61.6213 37.1992 61.3713 37.8789 61.0823 38.5508C60.7932 39.2227 60.4377 39.8242 60.0159 40.3555C59.6018 40.8945 59.1135 41.3281 58.551 41.6562C57.9963 41.9844 57.344 42.1484 56.594 42.1484C56.0237 42.1484 55.5198 42.0312 55.0823 41.7969C54.6448 41.5703 54.262 41.2617 53.9338 40.8711C53.6057 40.4883 53.3284 40.0469 53.1018 39.5469C52.883 39.0547 52.7034 38.543 52.5627 38.0117C52.4221 37.4805 52.3205 36.9531 52.258 36.4297C52.2034 35.8984 52.176 35.4141 52.176 34.9766C52.176 33.8594 52.262 32.7344 52.4338 31.6016C52.6057 30.4688 52.8596 29.3594 53.1955 28.2734C53.5393 27.1797 53.9651 26.125 54.4729 25.1094C54.9807 24.0859 55.5745 23.125 56.2541 22.2266L56.5002 22.3555C56.2112 22.8711 55.9455 23.4336 55.7034 24.043C55.469 24.6523 55.258 25.2891 55.0705 25.9531C54.883 26.6094 54.719 27.2852 54.5784 27.9805C54.4377 28.668 54.3205 29.3555 54.2268 30.043C54.1409 30.7305 54.0745 31.4023 54.0276 32.0586C53.9807 32.7148 53.9573 33.3359 53.9573 33.9219C53.9573 34.2812 53.9651 34.7031 53.9807 35.1875C54.0041 35.6641 54.051 36.1602 54.1213 36.6758C54.1916 37.1914 54.2971 37.6992 54.4377 38.1992C54.5784 38.6992 54.7698 39.1445 55.012 39.5352C55.2541 39.9336 55.5549 40.2539 55.9143 40.4961C56.2737 40.7383 56.7073 40.8594 57.2151 40.8594C57.7151 40.8594 58.1643 40.7695 58.5627 40.5898C58.9612 40.418 59.3127 40.1797 59.6174 39.875C59.9221 39.5703 60.1838 39.2148 60.4026 38.8086C60.6291 38.4102 60.8166 37.9844 60.9651 37.5312C61.1135 37.0781 61.2307 36.6133 61.3166 36.1367C61.4104 35.6602 61.4768 35.1953 61.5159 34.7422C61.469 34.2891 61.4455 33.832 61.4455 33.3711C61.4455 32.7305 61.4768 32.0469 61.5393 31.3203C61.6096 30.5859 61.7112 29.8516 61.844 29.1172C61.9846 28.3828 62.1604 27.668 62.3713 26.9727C62.5823 26.2695 62.8323 25.625 63.1213 25.0391C63.2151 24.8672 63.3127 24.7031 63.4143 24.5469C63.5237 24.3906 63.6409 24.2539 63.7659 24.1367C63.8987 24.0117 64.0471 23.9141 64.2112 23.8438C64.3752 23.7734 64.5627 23.7383 64.7737 23.7383Z" fill="#242020"/>
<path d="M65.0549 23.8086L64.7977 24.2373L64.8065 24.2426L64.8155 24.2475L65.0549 23.8086ZM65.1018 24.5L65.571 24.6729L65.5737 24.6652L65.1018 24.5ZM64.469 25.8359L64.0066 25.6455L64.0033 25.654L64.469 25.8359ZM63.4495 29.4805L63.9419 29.5672L63.942 29.5667L63.4495 29.4805ZM63.5784 37.8594L63.0895 37.9641L63.0897 37.9652L63.5784 37.8594ZM64.2112 40.0859L63.7399 40.2531L63.741 40.256L64.2112 40.0859ZM65.1838 42.1719L65.3275 42.6508L65.9356 42.4684L65.6157 41.9199L65.1838 42.1719ZM64.9495 42.2422L64.5855 42.585L64.7972 42.8099L65.0931 42.7211L64.9495 42.2422ZM63.0276 39.5703L63.4683 39.3341L63.4675 39.3326L63.0276 39.5703ZM61.8323 36.5117L62.3167 36.388L61.8762 34.6638L61.3543 36.3651L61.8323 36.5117ZM60.0159 40.3555L59.6243 40.0445L59.6193 40.0509L60.0159 40.3555ZM58.551 41.6562L58.2991 41.2244L58.2964 41.2259L58.551 41.6562ZM55.0823 41.7969L55.3184 41.3561L55.3122 41.3529L55.0823 41.7969ZM53.9338 40.8711L54.3167 40.5495L54.3135 40.5457L53.9338 40.8711ZM53.1018 39.5469L52.6449 39.75L52.6464 39.7532L53.1018 39.5469ZM52.258 36.4297L51.7606 36.4809L51.7616 36.489L52.258 36.4297ZM53.1955 28.2734L52.7185 28.1235L52.7179 28.1257L53.1955 28.2734ZM54.4729 25.1094L54.9201 25.333L54.9208 25.3316L54.4729 25.1094ZM56.2541 22.2266L56.4861 21.7836L56.1109 21.5871L55.8554 21.9249L56.2541 22.2266ZM56.5002 22.3555L56.9364 22.6L57.1879 22.1512L56.7322 21.9126L56.5002 22.3555ZM55.7034 24.043L55.2387 23.8583L55.2367 23.8635L55.7034 24.043ZM55.0705 25.9531L55.5513 26.0905L55.5517 26.089L55.0705 25.9531ZM54.5784 27.9805L55.0682 28.0807L55.0684 28.0796L54.5784 27.9805ZM54.2268 30.043L53.7313 29.9754L53.7307 29.981L54.2268 30.043ZM53.9807 35.1875L53.4809 35.2036L53.4813 35.2121L53.9807 35.1875ZM55.012 39.5352L55.4392 39.2754L55.4369 39.2717L55.012 39.5352ZM58.5627 40.5898L58.3647 40.1307L58.3572 40.1341L58.5627 40.5898ZM60.4026 38.8086L59.9678 38.5614L59.9623 38.5715L60.4026 38.8086ZM60.9651 37.5312L60.4899 37.3756L60.9651 37.5312ZM61.3166 36.1367L60.826 36.0402L60.8246 36.048L61.3166 36.1367ZM61.5159 34.7422L62.014 34.7851L62.0181 34.7379L62.0132 34.6907L61.5159 34.7422ZM61.5393 31.3203L61.0415 31.2727L61.0411 31.2775L61.5393 31.3203ZM61.844 29.1172L61.3529 29.0231L61.352 29.0282L61.844 29.1172ZM62.3713 26.9727L62.8498 27.1178L62.8502 27.1163L62.3713 26.9727ZM63.1213 25.0391L62.6824 24.7996L62.6775 24.8086L62.6729 24.8179L63.1213 25.0391ZM63.4143 24.5469L63.0047 24.2601L62.9998 24.2672L62.9951 24.2744L63.4143 24.5469ZM63.7659 24.1367L64.1078 24.5015L64.1085 24.5008L63.7659 24.1367ZM64.7737 24.2383C64.7927 24.2383 64.8023 24.2403 64.8047 24.2409C64.8067 24.2414 64.8034 24.2408 64.7977 24.2373L65.3122 23.3798C65.1421 23.2778 64.9554 23.2383 64.7737 23.2383V24.2383ZM64.8155 24.2475C64.7769 24.2265 64.7358 24.189 64.7087 24.1373C64.684 24.0902 64.6838 24.056 64.6838 24.0547H65.6838C65.6838 23.7976 65.5755 23.523 65.2943 23.3696L64.8155 24.2475ZM64.6838 24.0547C64.6838 24.1301 64.6692 24.2225 64.6299 24.3348L65.5737 24.6652C65.6438 24.465 65.6838 24.2605 65.6838 24.0547H64.6838ZM64.6326 24.3271C64.5849 24.4566 64.5261 24.592 64.4554 24.7334L65.3498 25.1806C65.4353 25.0096 65.5093 24.8403 65.571 24.6729L64.6326 24.3271ZM64.4554 24.7334C64.3787 24.8867 64.3022 25.0359 64.2257 25.1812L65.1107 25.6469C65.1905 25.4953 65.2702 25.3399 65.3498 25.1806L64.4554 24.7334ZM64.2257 25.1812C64.1415 25.3412 64.0682 25.4961 64.0066 25.6456L64.9313 26.0263C64.9792 25.9101 65.0387 25.7838 65.1107 25.6469L64.2257 25.1812ZM64.0033 25.654C63.5302 26.8647 63.1814 28.1116 62.9569 29.3943L63.942 29.5667C64.155 28.3493 64.4859 27.1666 64.9347 26.0179L64.0033 25.654ZM62.957 29.3938C62.7331 30.6652 62.6213 31.9599 62.6213 33.2773H63.6213C63.6213 32.0167 63.7283 30.7801 63.9419 29.5672L62.957 29.3938ZM62.6213 33.2773C62.6213 34.0353 62.6572 34.8083 62.7288 35.596L63.7247 35.5055C63.6557 34.7464 63.6213 34.0037 63.6213 33.2773H62.6213ZM62.7288 35.596C62.801 36.3896 62.9212 37.179 63.0895 37.9641L64.0673 37.7546C63.9074 37.0085 63.7932 36.2588 63.7247 35.5055L62.7288 35.596ZM63.0897 37.9652C63.2582 38.7437 63.475 39.5064 63.74 40.2531L64.6824 39.9187C64.4317 39.2124 64.2266 38.4907 64.067 37.7536L63.0897 37.9652ZM63.741 40.256C64.0166 41.018 64.3535 41.7408 64.7519 42.4238L65.6157 41.9199C65.2485 41.2905 64.937 40.6226 64.6814 39.9159L63.741 40.256ZM65.0402 41.693L64.8058 41.7633L65.0931 42.7211L65.3275 42.6508L65.0402 41.693ZM65.3134 41.8994C64.5858 41.1268 63.971 40.272 63.4683 39.3341L62.5869 39.8065C63.131 40.8217 63.7974 41.7482 64.5855 42.585L65.3134 41.8994ZM63.4675 39.3326C62.9636 38.4 62.58 37.4187 62.3167 36.388L61.3478 36.6355C61.6314 37.7453 62.0447 38.8031 62.5877 39.808L63.4675 39.3326ZM61.3543 36.3651C61.1487 37.035 60.905 37.6976 60.623 38.3532L61.5416 38.7484C61.8377 38.0602 62.0939 37.3635 62.3103 36.6584L61.3543 36.3651ZM60.623 38.3532C60.35 38.9876 60.0166 39.5505 59.6243 40.0445L60.4074 40.6664C60.8588 40.098 61.2364 39.4577 61.5416 38.7484L60.623 38.3532ZM59.6193 40.0509C59.243 40.5408 58.8031 40.9303 58.2991 41.2244L58.803 42.0881C59.4239 41.7259 59.9606 41.2482 60.4124 40.66L59.6193 40.0509ZM58.2964 41.2259C57.8307 41.5014 57.2693 41.6484 56.594 41.6484V42.6484C57.4187 42.6484 58.162 42.4673 58.8056 42.0866L58.2964 41.2259ZM56.594 41.6484C56.0937 41.6484 55.6731 41.5462 55.3184 41.3561L54.8462 42.2376C55.3665 42.5163 55.9537 42.6484 56.594 42.6484V41.6484ZM55.3122 41.3529C54.9353 41.1577 54.6039 40.8915 54.3167 40.5495L53.551 41.1927C53.92 41.632 54.3542 41.9829 54.8523 42.2409L55.3122 41.3529ZM54.3135 40.5457C54.0187 40.2018 53.766 39.8012 53.5572 39.3405L52.6464 39.7532C52.8907 40.2925 53.1927 40.7748 53.5542 41.1965L54.3135 40.5457ZM53.5587 39.3438C53.351 38.8764 53.18 38.3898 53.0461 37.8838L52.0794 38.1397C52.2267 38.6961 52.4151 39.233 52.6449 39.7499L53.5587 39.3438ZM53.0461 37.8838C52.9112 37.3741 52.8141 36.8697 52.7545 36.3704L51.7616 36.489C51.827 37.0365 51.933 37.5868 52.0794 38.1397L53.0461 37.8838ZM52.7554 36.3785C52.7021 35.8607 52.676 35.3937 52.676 34.9766H51.676C51.676 35.4344 51.7046 35.9362 51.7607 36.4809L52.7554 36.3785ZM52.676 34.9766C52.676 33.8851 52.76 32.7852 52.9282 31.6766L51.9395 31.5266C51.7639 32.6836 51.676 33.8336 51.676 34.9766H52.676ZM52.9282 31.6766C53.0963 30.5682 53.3447 29.4831 53.6732 28.4212L52.7179 28.1257C52.3745 29.2356 52.1151 30.3693 51.9395 31.5266L52.9282 31.6766ZM53.6725 28.4234C54.0084 27.3547 54.4243 26.3246 54.9201 25.333L54.0257 24.8858C53.5059 25.9254 53.0702 27.0047 52.7185 28.1235L53.6725 28.4234ZM54.9208 25.3316C55.4149 24.3357 55.9923 23.4014 56.6529 22.5282L55.8554 21.9249C55.1566 22.8486 54.5465 23.8361 54.025 24.8871L54.9208 25.3316ZM56.0221 22.6695L56.2682 22.7984L56.7322 21.9126L56.4861 21.7836L56.0221 22.6695ZM56.0641 22.111C55.7631 22.6478 55.4882 23.2306 55.2387 23.8583L56.168 24.2276C56.4029 23.6366 56.6592 23.0943 56.9364 22.6L56.0641 22.111ZM55.2367 23.8635C54.9965 24.4879 54.7808 25.1393 54.5894 25.8173L55.5517 26.089C55.7353 25.4389 55.9415 24.8167 56.17 24.2225L55.2367 23.8635ZM54.5898 25.8158C54.3985 26.4851 54.2314 27.1737 54.0883 27.8814L55.0684 28.0796C55.2066 27.3966 55.3676 26.7336 55.5513 26.0905L54.5898 25.8158ZM54.0885 27.8803C53.9457 28.5785 53.8266 29.2768 53.7314 29.9754L54.7222 30.1105C54.8145 29.4341 54.9298 28.7575 55.0682 28.0807L54.0885 27.8803ZM53.7307 29.981C53.6437 30.6768 53.5764 31.3575 53.5288 32.023L54.5263 32.0942C54.5725 31.4472 54.638 30.7842 54.7229 30.105L53.7307 29.981ZM53.5288 32.023C53.4812 32.6897 53.4573 33.3227 53.4573 33.9219H54.4573C54.4573 33.3492 54.4802 32.74 54.5263 32.0942L53.5288 32.023ZM53.4573 33.9219C53.4573 34.2881 53.4652 34.7156 53.481 35.2036L54.4804 35.1714C54.4649 34.6907 54.4573 34.2744 54.4573 33.9219H53.4573ZM53.4813 35.2121C53.5055 35.7042 53.5538 36.2147 53.6259 36.7433L54.6167 36.6082C54.5482 36.1056 54.5028 35.6239 54.4801 35.1629L53.4813 35.2121ZM53.6259 36.7433C53.6993 37.2818 53.8095 37.8123 53.9564 38.3346L54.9191 38.0638C54.7847 37.5861 54.6839 37.101 54.6167 36.6082L53.6259 36.7433ZM53.9564 38.3346C54.1081 38.874 54.3171 39.3634 54.587 39.7986L55.4369 39.2717C55.2224 38.9257 55.0486 38.5245 54.9191 38.0638L53.9564 38.3346ZM54.5847 39.7949C54.8615 40.2503 55.2112 40.6252 55.6349 40.9107L56.1937 40.0815C55.8987 39.8826 55.6468 39.6169 55.4392 39.2754L54.5847 39.7949ZM55.6349 40.9107C56.0902 41.2176 56.6252 41.3594 57.2151 41.3594V40.3594C56.7893 40.3594 56.4571 40.259 56.1937 40.0815L55.6349 40.9107ZM57.2151 41.3594C57.7758 41.3594 58.2966 41.2584 58.7683 41.0456L58.3572 40.1341C58.032 40.2807 57.6544 40.3594 57.2151 40.3594V41.3594ZM58.7608 41.049C59.2168 40.8522 59.6213 40.5783 59.971 40.2286L59.2639 39.5214C59.0042 39.7811 58.7055 39.9837 58.3647 40.1307L58.7608 41.049ZM59.971 40.2286C60.3124 39.8871 60.6026 39.4917 60.8428 39.0456L59.9623 38.5715C59.765 38.938 59.5318 39.2535 59.2639 39.5214L59.971 40.2286ZM60.8372 39.0557C61.081 38.6271 61.2818 38.1705 61.4402 37.6869L60.4899 37.3756C60.3515 37.7982 60.1773 38.1932 59.9679 38.5614L60.8372 39.0557ZM61.4402 37.6869C61.596 37.2115 61.7187 36.7243 61.8087 36.2255L60.8246 36.048C60.7427 36.5022 60.6311 36.9447 60.4899 37.3756L61.4402 37.6869ZM61.8072 36.2332C61.9042 35.7401 61.9733 35.2574 62.014 34.7851L61.0177 34.6992C60.9803 35.1332 60.9165 35.5802 60.826 36.0402L61.8072 36.2332ZM62.0132 34.6907C61.9681 34.2549 61.9455 33.8151 61.9455 33.3711H60.9455C60.9455 33.849 60.9698 34.3232 61.0185 34.7936L62.0132 34.6907ZM61.9455 33.3711C61.9455 32.7466 61.976 32.0774 62.0375 31.3632L61.0411 31.2775C60.9776 32.0164 60.9455 32.7144 60.9455 33.3711H61.9455ZM62.037 31.368C62.106 30.6476 62.2056 29.927 62.336 29.2062L61.352 29.0282C61.2167 29.7761 61.1132 30.5243 61.0416 31.2727L62.037 31.368ZM62.3351 29.2112C62.4725 28.4936 62.6441 27.7958 62.8498 27.1178L61.8929 26.8275C61.6767 27.5401 61.4967 28.272 61.3529 29.0232L62.3351 29.2112ZM62.8502 27.1163C63.0541 26.4366 63.2944 25.8184 63.5697 25.2603L62.6729 24.8179C62.3702 25.4316 62.1104 26.1024 61.8924 26.829L62.8502 27.1163ZM63.5603 25.2785C63.6482 25.1173 63.7393 24.9643 63.8335 24.8194L62.9951 24.2744C62.8862 24.4419 62.782 24.6171 62.6824 24.7996L63.5603 25.2785ZM63.8239 24.8336C63.9157 24.7025 64.0107 24.5926 64.1078 24.5015L63.4239 23.772C63.2711 23.9152 63.1317 24.0788 63.0047 24.2601L63.8239 24.8336ZM64.1085 24.5008C64.1997 24.415 64.299 24.3501 64.4081 24.3033L64.0142 23.3842C63.7952 23.478 63.5977 23.6084 63.4232 23.7726L64.1085 24.5008ZM64.4081 24.3033C64.4997 24.2641 64.6183 24.2383 64.7737 24.2383V23.2383C64.5071 23.2383 64.2508 23.2828 64.0142 23.3842L64.4081 24.3033Z" fill="#242020" mask="url(#path-3-outside-1_36_19055)"/>
<mask id="path-5-outside-2_36_19055" maskUnits="userSpaceOnUse" x="20" y="21" width="15" height="22" fill="black">
<rect fill="white" x="20" y="21" width="15" height="22"/>
<path d="M33.7737 23.7383C33.883 23.7383 33.9768 23.7617 34.0549 23.8086C34.1409 23.8555 34.1838 23.9375 34.1838 24.0547C34.1838 24.1953 34.1565 24.3438 34.1018 24.5C34.0471 24.6484 33.9807 24.8008 33.9026 24.957C33.8245 25.1133 33.7463 25.2656 33.6682 25.4141C33.5901 25.5625 33.5237 25.7031 33.469 25.8359C33.008 27.0156 32.6682 28.2305 32.4495 29.4805C32.2307 30.7227 32.1213 31.9883 32.1213 33.2773C32.1213 34.0195 32.1565 34.7773 32.2268 35.5508C32.2971 36.3242 32.4143 37.0938 32.5784 37.8594C32.7424 38.6172 32.9534 39.3594 33.2112 40.0859C33.4768 40.8203 33.801 41.5156 34.1838 42.1719L33.9495 42.2422C33.1916 41.4375 32.551 40.5469 32.0276 39.5703C31.5041 38.6016 31.1057 37.582 30.8323 36.5117C30.6213 37.1992 30.3713 37.8789 30.0823 38.5508C29.7932 39.2227 29.4377 39.8242 29.0159 40.3555C28.6018 40.8945 28.1135 41.3281 27.551 41.6562C26.9963 41.9844 26.344 42.1484 25.594 42.1484C25.0237 42.1484 24.5198 42.0312 24.0823 41.7969C23.6448 41.5703 23.262 41.2617 22.9338 40.8711C22.6057 40.4883 22.3284 40.0469 22.1018 39.5469C21.883 39.0547 21.7034 38.543 21.5627 38.0117C21.4221 37.4805 21.3205 36.9531 21.258 36.4297C21.2034 35.8984 21.176 35.4141 21.176 34.9766C21.176 33.8594 21.262 32.7344 21.4338 31.6016C21.6057 30.4688 21.8596 29.3594 22.1955 28.2734C22.5393 27.1797 22.9651 26.125 23.4729 25.1094C23.9807 24.0859 24.5745 23.125 25.2541 22.2266L25.5002 22.3555C25.2112 22.8711 24.9455 23.4336 24.7034 24.043C24.469 24.6523 24.258 25.2891 24.0705 25.9531C23.883 26.6094 23.719 27.2852 23.5784 27.9805C23.4377 28.668 23.3205 29.3555 23.2268 30.043C23.1409 30.7305 23.0745 31.4023 23.0276 32.0586C22.9807 32.7148 22.9573 33.3359 22.9573 33.9219C22.9573 34.2812 22.9651 34.7031 22.9807 35.1875C23.0041 35.6641 23.051 36.1602 23.1213 36.6758C23.1916 37.1914 23.2971 37.6992 23.4377 38.1992C23.5784 38.6992 23.7698 39.1445 24.012 39.5352C24.2541 39.9336 24.5549 40.2539 24.9143 40.4961C25.2737 40.7383 25.7073 40.8594 26.2151 40.8594C26.7151 40.8594 27.1643 40.7695 27.5627 40.5898C27.9612 40.418 28.3127 40.1797 28.6174 39.875C28.9221 39.5703 29.1838 39.2148 29.4026 38.8086C29.6291 38.4102 29.8166 37.9844 29.9651 37.5312C30.1135 37.0781 30.2307 36.6133 30.3166 36.1367C30.4104 35.6602 30.4768 35.1953 30.5159 34.7422C30.469 34.2891 30.4455 33.832 30.4455 33.3711C30.4455 32.7305 30.4768 32.0469 30.5393 31.3203C30.6096 30.5859 30.7112 29.8516 30.844 29.1172C30.9846 28.3828 31.1604 27.668 31.3713 26.9727C31.5823 26.2695 31.8323 25.625 32.1213 25.0391C32.2151 24.8672 32.3127 24.7031 32.4143 24.5469C32.5237 24.3906 32.6409 24.2539 32.7659 24.1367C32.8987 24.0117 33.0471 23.9141 33.2112 23.8438C33.3752 23.7734 33.5627 23.7383 33.7737 23.7383Z"/>
</mask>
<path d="M33.7737 23.7383C33.883 23.7383 33.9768 23.7617 34.0549 23.8086C34.1409 23.8555 34.1838 23.9375 34.1838 24.0547C34.1838 24.1953 34.1565 24.3438 34.1018 24.5C34.0471 24.6484 33.9807 24.8008 33.9026 24.957C33.8245 25.1133 33.7463 25.2656 33.6682 25.4141C33.5901 25.5625 33.5237 25.7031 33.469 25.8359C33.008 27.0156 32.6682 28.2305 32.4495 29.4805C32.2307 30.7227 32.1213 31.9883 32.1213 33.2773C32.1213 34.0195 32.1565 34.7773 32.2268 35.5508C32.2971 36.3242 32.4143 37.0938 32.5784 37.8594C32.7424 38.6172 32.9534 39.3594 33.2112 40.0859C33.4768 40.8203 33.801 41.5156 34.1838 42.1719L33.9495 42.2422C33.1916 41.4375 32.551 40.5469 32.0276 39.5703C31.5041 38.6016 31.1057 37.582 30.8323 36.5117C30.6213 37.1992 30.3713 37.8789 30.0823 38.5508C29.7932 39.2227 29.4377 39.8242 29.0159 40.3555C28.6018 40.8945 28.1135 41.3281 27.551 41.6562C26.9963 41.9844 26.344 42.1484 25.594 42.1484C25.0237 42.1484 24.5198 42.0312 24.0823 41.7969C23.6448 41.5703 23.262 41.2617 22.9338 40.8711C22.6057 40.4883 22.3284 40.0469 22.1018 39.5469C21.883 39.0547 21.7034 38.543 21.5627 38.0117C21.4221 37.4805 21.3205 36.9531 21.258 36.4297C21.2034 35.8984 21.176 35.4141 21.176 34.9766C21.176 33.8594 21.262 32.7344 21.4338 31.6016C21.6057 30.4688 21.8596 29.3594 22.1955 28.2734C22.5393 27.1797 22.9651 26.125 23.4729 25.1094C23.9807 24.0859 24.5745 23.125 25.2541 22.2266L25.5002 22.3555C25.2112 22.8711 24.9455 23.4336 24.7034 24.043C24.469 24.6523 24.258 25.2891 24.0705 25.9531C23.883 26.6094 23.719 27.2852 23.5784 27.9805C23.4377 28.668 23.3205 29.3555 23.2268 30.043C23.1409 30.7305 23.0745 31.4023 23.0276 32.0586C22.9807 32.7148 22.9573 33.3359 22.9573 33.9219C22.9573 34.2812 22.9651 34.7031 22.9807 35.1875C23.0041 35.6641 23.051 36.1602 23.1213 36.6758C23.1916 37.1914 23.2971 37.6992 23.4377 38.1992C23.5784 38.6992 23.7698 39.1445 24.012 39.5352C24.2541 39.9336 24.5549 40.2539 24.9143 40.4961C25.2737 40.7383 25.7073 40.8594 26.2151 40.8594C26.7151 40.8594 27.1643 40.7695 27.5627 40.5898C27.9612 40.418 28.3127 40.1797 28.6174 39.875C28.9221 39.5703 29.1838 39.2148 29.4026 38.8086C29.6291 38.4102 29.8166 37.9844 29.9651 37.5312C30.1135 37.0781 30.2307 36.6133 30.3166 36.1367C30.4104 35.6602 30.4768 35.1953 30.5159 34.7422C30.469 34.2891 30.4455 33.832 30.4455 33.3711C30.4455 32.7305 30.4768 32.0469 30.5393 31.3203C30.6096 30.5859 30.7112 29.8516 30.844 29.1172C30.9846 28.3828 31.1604 27.668 31.3713 26.9727C31.5823 26.2695 31.8323 25.625 32.1213 25.0391C32.2151 24.8672 32.3127 24.7031 32.4143 24.5469C32.5237 24.3906 32.6409 24.2539 32.7659 24.1367C32.8987 24.0117 33.0471 23.9141 33.2112 23.8438C33.3752 23.7734 33.5627 23.7383 33.7737 23.7383Z" fill="#242020"/>
<path d="M34.0549 23.8086L33.7977 24.2373L33.8065 24.2426L33.8155 24.2475L34.0549 23.8086ZM34.1018 24.5L34.571 24.6729L34.5737 24.6652L34.1018 24.5ZM33.469 25.8359L33.0066 25.6455L33.0033 25.654L33.469 25.8359ZM32.4495 29.4805L32.9419 29.5672L32.942 29.5667L32.4495 29.4805ZM32.5784 37.8594L32.0895 37.9641L32.0897 37.9652L32.5784 37.8594ZM33.2112 40.0859L32.7399 40.2531L32.741 40.256L33.2112 40.0859ZM34.1838 42.1719L34.3275 42.6508L34.9356 42.4684L34.6157 41.9199L34.1838 42.1719ZM33.9495 42.2422L33.5855 42.585L33.7972 42.8099L34.0931 42.7211L33.9495 42.2422ZM32.0276 39.5703L32.4683 39.3341L32.4675 39.3326L32.0276 39.5703ZM30.8323 36.5117L31.3167 36.388L30.8762 34.6638L30.3543 36.3651L30.8323 36.5117ZM29.0159 40.3555L28.6243 40.0445L28.6193 40.0509L29.0159 40.3555ZM27.551 41.6562L27.2991 41.2244L27.2964 41.2259L27.551 41.6562ZM24.0823 41.7969L24.3184 41.3561L24.3122 41.3529L24.0823 41.7969ZM22.9338 40.8711L23.3167 40.5495L23.3135 40.5457L22.9338 40.8711ZM22.1018 39.5469L21.6449 39.75L21.6464 39.7532L22.1018 39.5469ZM21.258 36.4297L20.7606 36.4809L20.7616 36.489L21.258 36.4297ZM22.1955 28.2734L21.7185 28.1235L21.7179 28.1257L22.1955 28.2734ZM23.4729 25.1094L23.9201 25.333L23.9208 25.3316L23.4729 25.1094ZM25.2541 22.2266L25.4861 21.7836L25.1109 21.5871L24.8554 21.9249L25.2541 22.2266ZM25.5002 22.3555L25.9364 22.6L26.1879 22.1512L25.7322 21.9126L25.5002 22.3555ZM24.7034 24.043L24.2387 23.8583L24.2367 23.8635L24.7034 24.043ZM24.0705 25.9531L24.5513 26.0905L24.5517 26.089L24.0705 25.9531ZM23.5784 27.9805L24.0682 28.0807L24.0684 28.0796L23.5784 27.9805ZM23.2268 30.043L22.7313 29.9754L22.7307 29.981L23.2268 30.043ZM22.9807 35.1875L22.4809 35.2036L22.4813 35.2121L22.9807 35.1875ZM24.012 39.5352L24.4392 39.2754L24.4369 39.2717L24.012 39.5352ZM27.5627 40.5898L27.3647 40.1307L27.3572 40.1341L27.5627 40.5898ZM29.4026 38.8086L28.9678 38.5614L28.9623 38.5715L29.4026 38.8086ZM29.9651 37.5312L29.4899 37.3756L29.9651 37.5312ZM30.3166 36.1367L29.826 36.0402L29.8246 36.048L30.3166 36.1367ZM30.5159 34.7422L31.014 34.7851L31.0181 34.7379L31.0132 34.6907L30.5159 34.7422ZM30.5393 31.3203L30.0415 31.2727L30.0411 31.2775L30.5393 31.3203ZM30.844 29.1172L30.3529 29.0231L30.352 29.0282L30.844 29.1172ZM31.3713 26.9727L31.8498 27.1178L31.8502 27.1163L31.3713 26.9727ZM32.1213 25.0391L31.6824 24.7996L31.6775 24.8086L31.6729 24.8179L32.1213 25.0391ZM32.4143 24.5469L32.0047 24.2601L31.9998 24.2672L31.9951 24.2744L32.4143 24.5469ZM32.7659 24.1367L33.1078 24.5015L33.1085 24.5008L32.7659 24.1367ZM33.7737 24.2383C33.7927 24.2383 33.8023 24.2403 33.8047 24.2409C33.8067 24.2414 33.8034 24.2408 33.7977 24.2373L34.3122 23.3798C34.1421 23.2778 33.9554 23.2383 33.7737 23.2383V24.2383ZM33.8155 24.2475C33.7769 24.2265 33.7358 24.189 33.7087 24.1373C33.684 24.0902 33.6838 24.056 33.6838 24.0547H34.6838C34.6838 23.7976 34.5755 23.523 34.2943 23.3696L33.8155 24.2475ZM33.6838 24.0547C33.6838 24.1301 33.6692 24.2225 33.6299 24.3348L34.5737 24.6652C34.6438 24.465 34.6838 24.2605 34.6838 24.0547H33.6838ZM33.6326 24.3271C33.5849 24.4566 33.5261 24.592 33.4554 24.7334L34.3498 25.1806C34.4353 25.0096 34.5093 24.8403 34.571 24.6729L33.6326 24.3271ZM33.4554 24.7334C33.3787 24.8867 33.3022 25.0359 33.2257 25.1812L34.1107 25.6469C34.1905 25.4953 34.2702 25.3399 34.3498 25.1806L33.4554 24.7334ZM33.2257 25.1812C33.1415 25.3412 33.0682 25.4961 33.0066 25.6456L33.9313 26.0263C33.9792 25.9101 34.0387 25.7838 34.1107 25.6469L33.2257 25.1812ZM33.0033 25.654C32.5302 26.8647 32.1814 28.1116 31.9569 29.3943L32.942 29.5667C33.155 28.3493 33.4859 27.1666 33.9347 26.0179L33.0033 25.654ZM31.957 29.3938C31.7331 30.6652 31.6213 31.9599 31.6213 33.2773H32.6213C32.6213 32.0167 32.7283 30.7801 32.9419 29.5672L31.957 29.3938ZM31.6213 33.2773C31.6213 34.0353 31.6572 34.8083 31.7288 35.596L32.7247 35.5055C32.6557 34.7464 32.6213 34.0037 32.6213 33.2773H31.6213ZM31.7288 35.596C31.801 36.3896 31.9212 37.179 32.0895 37.9641L33.0673 37.7546C32.9074 37.0085 32.7932 36.2588 32.7247 35.5055L31.7288 35.596ZM32.0897 37.9652C32.2582 38.7437 32.475 39.5064 32.74 40.2531L33.6824 39.9187C33.4317 39.2124 33.2266 38.4907 33.067 37.7536L32.0897 37.9652ZM32.741 40.256C33.0166 41.018 33.3535 41.7408 33.7519 42.4238L34.6157 41.9199C34.2485 41.2905 33.937 40.6226 33.6814 39.9159L32.741 40.256ZM34.0402 41.693L33.8058 41.7633L34.0931 42.7211L34.3275 42.6508L34.0402 41.693ZM34.3134 41.8994C33.5858 41.1268 32.971 40.272 32.4683 39.3341L31.5869 39.8065C32.131 40.8217 32.7974 41.7482 33.5855 42.585L34.3134 41.8994ZM32.4675 39.3326C31.9636 38.4 31.58 37.4187 31.3167 36.388L30.3478 36.6355C30.6314 37.7453 31.0447 38.8031 31.5877 39.808L32.4675 39.3326ZM30.3543 36.3651C30.1487 37.035 29.905 37.6976 29.623 38.3532L30.5416 38.7484C30.8377 38.0602 31.0939 37.3635 31.3103 36.6584L30.3543 36.3651ZM29.623 38.3532C29.35 38.9876 29.0166 39.5505 28.6243 40.0445L29.4074 40.6664C29.8588 40.098 30.2364 39.4577 30.5416 38.7484L29.623 38.3532ZM28.6193 40.0509C28.243 40.5408 27.8031 40.9303 27.2991 41.2244L27.803 42.0881C28.4239 41.7259 28.9606 41.2482 29.4124 40.66L28.6193 40.0509ZM27.2964 41.2259C26.8307 41.5014 26.2693 41.6484 25.594 41.6484V42.6484C26.4187 42.6484 27.162 42.4673 27.8056 42.0866L27.2964 41.2259ZM25.594 41.6484C25.0937 41.6484 24.6731 41.5462 24.3184 41.3561L23.8462 42.2376C24.3665 42.5163 24.9537 42.6484 25.594 42.6484V41.6484ZM24.3122 41.3529C23.9353 41.1577 23.6039 40.8915 23.3167 40.5495L22.551 41.1927C22.92 41.632 23.3542 41.9829 23.8523 42.2409L24.3122 41.3529ZM23.3135 40.5457C23.0187 40.2018 22.766 39.8012 22.5572 39.3405L21.6464 39.7532C21.8907 40.2925 22.1927 40.7748 22.5542 41.1965L23.3135 40.5457ZM22.5587 39.3438C22.351 38.8764 22.18 38.3898 22.0461 37.8838L21.0794 38.1397C21.2267 38.6961 21.4151 39.233 21.6449 39.7499L22.5587 39.3438ZM22.0461 37.8838C21.9112 37.3741 21.8141 36.8697 21.7545 36.3704L20.7616 36.489C20.827 37.0365 20.933 37.5868 21.0794 38.1397L22.0461 37.8838ZM21.7554 36.3785C21.7021 35.8607 21.676 35.3937 21.676 34.9766H20.676C20.676 35.4344 20.7046 35.9362 20.7607 36.4809L21.7554 36.3785ZM21.676 34.9766C21.676 33.8851 21.76 32.7852 21.9282 31.6766L20.9395 31.5266C20.7639 32.6836 20.676 33.8336 20.676 34.9766H21.676ZM21.9282 31.6766C22.0963 30.5682 22.3447 29.4831 22.6732 28.4212L21.7179 28.1257C21.3745 29.2356 21.1151 30.3693 20.9395 31.5266L21.9282 31.6766ZM22.6725 28.4234C23.0084 27.3547 23.4243 26.3246 23.9201 25.333L23.0257 24.8858C22.5059 25.9254 22.0702 27.0047 21.7185 28.1235L22.6725 28.4234ZM23.9208 25.3316C24.4149 24.3357 24.9923 23.4014 25.6529 22.5282L24.8554 21.9249C24.1566 22.8486 23.5465 23.8361 23.025 24.8871L23.9208 25.3316ZM25.0221 22.6695L25.2682 22.7984L25.7322 21.9126L25.4861 21.7836L25.0221 22.6695ZM25.0641 22.111C24.7631 22.6478 24.4882 23.2306 24.2387 23.8583L25.168 24.2276C25.4029 23.6366 25.6592 23.0943 25.9364 22.6L25.0641 22.111ZM24.2367 23.8635C23.9965 24.4879 23.7808 25.1393 23.5894 25.8173L24.5517 26.089C24.7353 25.4389 24.9415 24.8167 25.17 24.2225L24.2367 23.8635ZM23.5898 25.8158C23.3985 26.4851 23.2314 27.1737 23.0883 27.8814L24.0684 28.0796C24.2066 27.3966 24.3676 26.7336 24.5513 26.0905L23.5898 25.8158ZM23.0885 27.8803C22.9457 28.5785 22.8266 29.2768 22.7314 29.9754L23.7222 30.1105C23.8145 29.4341 23.9298 28.7575 24.0682 28.0807L23.0885 27.8803ZM22.7307 29.981C22.6437 30.6768 22.5764 31.3575 22.5288 32.023L23.5263 32.0942C23.5725 31.4472 23.638 30.7842 23.7229 30.105L22.7307 29.981ZM22.5288 32.023C22.4812 32.6897 22.4573 33.3227 22.4573 33.9219H23.4573C23.4573 33.3492 23.4802 32.74 23.5263 32.0942L22.5288 32.023ZM22.4573 33.9219C22.4573 34.2881 22.4652 34.7156 22.481 35.2036L23.4804 35.1714C23.4649 34.6907 23.4573 34.2744 23.4573 33.9219H22.4573ZM22.4813 35.2121C22.5055 35.7042 22.5538 36.2147 22.6259 36.7433L23.6167 36.6082C23.5482 36.1056 23.5028 35.6239 23.4801 35.1629L22.4813 35.2121ZM22.6259 36.7433C22.6993 37.2818 22.8095 37.8123 22.9564 38.3346L23.9191 38.0638C23.7847 37.5861 23.6839 37.101 23.6167 36.6082L22.6259 36.7433ZM22.9564 38.3346C23.1081 38.874 23.3171 39.3634 23.587 39.7986L24.4369 39.2717C24.2224 38.9257 24.0486 38.5245 23.9191 38.0638L22.9564 38.3346ZM23.5847 39.7949C23.8615 40.2503 24.2112 40.6252 24.6349 40.9107L25.1937 40.0815C24.8987 39.8826 24.6468 39.6169 24.4392 39.2754L23.5847 39.7949ZM24.6349 40.9107C25.0902 41.2176 25.6252 41.3594 26.2151 41.3594V40.3594C25.7893 40.3594 25.4571 40.259 25.1937 40.0815L24.6349 40.9107ZM26.2151 41.3594C26.7758 41.3594 27.2966 41.2584 27.7683 41.0456L27.3572 40.1341C27.032 40.2807 26.6544 40.3594 26.2151 40.3594V41.3594ZM27.7608 41.049C28.2168 40.8522 28.6213 40.5783 28.971 40.2286L28.2639 39.5214C28.0042 39.7811 27.7055 39.9837 27.3647 40.1307L27.7608 41.049ZM28.971 40.2286C29.3124 39.8871 29.6026 39.4917 29.8428 39.0456L28.9623 38.5715C28.765 38.938 28.5318 39.2535 28.2639 39.5214L28.971 40.2286ZM29.8372 39.0557C30.081 38.6271 30.2818 38.1705 30.4402 37.6869L29.4899 37.3756C29.3515 37.7982 29.1773 38.1932 28.9679 38.5614L29.8372 39.0557ZM30.4402 37.6869C30.596 37.2115 30.7187 36.7243 30.8087 36.2255L29.8246 36.048C29.7427 36.5022 29.6311 36.9447 29.4899 37.3756L30.4402 37.6869ZM30.8072 36.2332C30.9042 35.7401 30.9733 35.2574 31.014 34.7851L30.0177 34.6992C29.9803 35.1332 29.9165 35.5802 29.826 36.0402L30.8072 36.2332ZM31.0132 34.6907C30.9681 34.2549 30.9455 33.8151 30.9455 33.3711H29.9455C29.9455 33.849 29.9698 34.3232 30.0185 34.7936L31.0132 34.6907ZM30.9455 33.3711C30.9455 32.7466 30.976 32.0774 31.0375 31.3632L30.0411 31.2775C29.9776 32.0164 29.9455 32.7144 29.9455 33.3711H30.9455ZM31.037 31.368C31.106 30.6476 31.2056 29.927 31.336 29.2062L30.352 29.0282C30.2167 29.7761 30.1132 30.5243 30.0416 31.2727L31.037 31.368ZM31.3351 29.2112C31.4725 28.4936 31.6441 27.7958 31.8498 27.1178L30.8929 26.8275C30.6767 27.5401 30.4967 28.272 30.3529 29.0232L31.3351 29.2112ZM31.8502 27.1163C32.0541 26.4366 32.2944 25.8184 32.5697 25.2603L31.6729 24.8179C31.3702 25.4316 31.1104 26.1024 30.8924 26.829L31.8502 27.1163ZM32.5603 25.2785C32.6482 25.1173 32.7393 24.9643 32.8335 24.8194L31.9951 24.2744C31.8862 24.4419 31.782 24.6171 31.6824 24.7996L32.5603 25.2785ZM32.8239 24.8336C32.9157 24.7025 33.0107 24.5926 33.1078 24.5015L32.4239 23.772C32.2711 23.9152 32.1317 24.0788 32.0047 24.2601L32.8239 24.8336ZM33.1085 24.5008C33.1997 24.415 33.299 24.3501 33.4081 24.3033L33.0142 23.3842C32.7952 23.478 32.5977 23.6084 32.4232 23.7726L33.1085 24.5008ZM33.4081 24.3033C33.4997 24.2641 33.6183 24.2383 33.7737 24.2383V23.2383C33.5071 23.2383 33.2508 23.2828 33.0142 23.3842L33.4081 24.3033Z" fill="#242020" mask="url(#path-5-outside-2_36_19055)"/>
<mask id="path-7-outside-3_36_19055" maskUnits="userSpaceOnUse" x="36.6567" y="45.3117" width="13" height="11" fill="black">
<rect fill="white" x="36.6567" y="45.3117" width="13" height="11"/>
<path d="M49.5002 48.3742C49.5002 48.8039 49.4572 49.2883 49.3713 49.8273C49.2853 50.3586 49.1603 50.8976 48.9963 51.4445C48.84 51.9914 48.6486 52.5226 48.422 53.0383C48.2033 53.5539 47.9533 54.0148 47.672 54.4211C47.3986 54.8195 47.1017 55.1398 46.7814 55.382C46.4689 55.6242 46.1408 55.7453 45.797 55.7453C45.5939 55.7453 45.3947 55.6242 45.1994 55.382C45.0119 55.1476 44.8283 54.839 44.6486 54.4562C44.4767 54.0734 44.3166 53.6476 44.1681 53.1789C44.0197 52.7101 43.883 52.2453 43.758 51.7843C43.6408 52.214 43.5119 52.6633 43.3713 53.132C43.2306 53.6008 43.0588 54.0304 42.8556 54.4211C42.6525 54.8039 42.4142 55.1203 42.1408 55.3703C41.8674 55.6203 41.5431 55.7453 41.1681 55.7453C40.926 55.7453 40.7033 55.632 40.5002 55.4054C40.3049 55.1789 40.1252 54.8937 39.9611 54.55C39.8049 54.1984 39.6603 53.8117 39.5275 53.3898C39.4025 52.9601 39.2931 52.5461 39.1994 52.1476C39.1135 51.7414 39.0392 51.3742 38.9767 51.0461C38.9142 50.7179 38.8674 50.4758 38.8361 50.3195C38.8283 50.2961 38.8166 50.2375 38.801 50.1437C38.7853 50.05 38.7658 49.9523 38.7424 49.8508C38.7189 49.7492 38.6877 49.6593 38.6486 49.5812C38.6174 49.4953 38.5861 49.4523 38.5549 49.4523C38.422 49.4523 38.2658 49.4953 38.0861 49.5812C37.9142 49.6593 37.7736 49.7297 37.6642 49.7922L37.5939 49.675C37.7033 49.5578 37.8361 49.4367 37.9924 49.3117C38.1564 49.1789 38.3283 49.0578 38.508 48.9484C38.6955 48.839 38.883 48.7492 39.0705 48.6789C39.2658 48.6086 39.4455 48.5734 39.6095 48.5734C39.7502 48.5734 39.8752 48.6359 39.9845 48.7609C40.1017 48.8781 40.1994 49.0304 40.2775 49.2179C40.3556 49.4054 40.422 49.6164 40.4767 49.8508C40.5392 50.0773 40.5861 50.3039 40.6174 50.5304C40.6564 50.7492 40.6838 50.9484 40.6994 51.1281C40.7228 51.3078 40.7424 51.4445 40.758 51.5383C40.7658 51.6008 40.7853 51.7297 40.8166 51.925C40.8478 52.1125 40.8869 52.3351 40.9338 52.5929C40.9806 52.8429 41.0314 53.1086 41.0861 53.3898C41.1486 53.6633 41.215 53.9172 41.2853 54.1515C41.3556 54.3781 41.426 54.5695 41.4963 54.7258C41.5744 54.8742 41.6486 54.9484 41.7189 54.9484C41.9377 54.9484 42.1408 54.8117 42.3283 54.5383C42.5158 54.257 42.6838 53.9093 42.8322 53.4953C42.9885 53.0812 43.1252 52.6398 43.2424 52.1711C43.3595 51.7023 43.4533 51.2726 43.5236 50.882C43.4455 50.5695 43.3791 50.2922 43.3244 50.05C43.2697 49.8 43.2228 49.6008 43.1838 49.4523C43.1681 49.4211 43.1603 49.3664 43.1603 49.2883C43.1603 49.1789 43.1994 49.0773 43.2775 48.9836C43.3556 48.8898 43.4533 48.8078 43.5705 48.7375C43.6877 48.6672 43.8088 48.6125 43.9338 48.5734C44.0588 48.5343 44.1681 48.5148 44.2619 48.5148C44.4181 48.5148 44.547 48.589 44.6486 48.7375C44.7502 48.8781 44.8322 49.0461 44.8947 49.2414C44.9572 49.4367 45.0041 49.6359 45.0353 49.839C45.0744 50.0343 45.1056 50.1867 45.1291 50.2961C45.1369 50.3508 45.1603 50.5031 45.1994 50.7531C45.2463 51.0031 45.3049 51.3 45.3752 51.6437C45.4455 51.9875 45.5197 52.3547 45.5978 52.7453C45.6838 53.1281 45.7697 53.4836 45.8556 53.8117C45.9494 54.1398 46.0392 54.4133 46.1252 54.632C46.2111 54.8429 46.2892 54.9484 46.3595 54.9484C46.5705 54.9484 46.7658 54.8781 46.9455 54.7375C47.1252 54.589 47.2853 54.3976 47.426 54.1633C47.5744 53.9211 47.6994 53.6476 47.801 53.3429C47.9103 53.0304 48.0002 52.7062 48.0705 52.3703C48.1486 52.0343 48.2033 51.7023 48.2345 51.3742C48.2736 51.0383 48.2931 50.7258 48.2931 50.4367C48.2931 50.1945 48.2775 49.9328 48.2463 49.6515C48.215 49.3625 48.1642 49.0773 48.0939 48.7961C48.0236 48.5148 47.9299 48.2453 47.8127 47.9875C47.7033 47.7218 47.5705 47.4953 47.4142 47.3078C47.258 47.1125 47.0783 46.964 46.8752 46.8625C46.672 46.7609 46.4416 46.7258 46.1838 46.757L46.1603 46.6515C46.3635 46.55 46.5783 46.4718 46.8049 46.4172C47.0314 46.3625 47.2658 46.3351 47.508 46.3351C48.172 46.3351 48.6681 46.5187 48.9963 46.8859C49.3322 47.2453 49.5002 47.7414 49.5002 48.3742Z"/>
</mask>
<path d="M49.5002 48.3742C49.5002 48.8039 49.4572 49.2883 49.3713 49.8273C49.2853 50.3586 49.1603 50.8976 48.9963 51.4445C48.84 51.9914 48.6486 52.5226 48.422 53.0383C48.2033 53.5539 47.9533 54.0148 47.672 54.4211C47.3986 54.8195 47.1017 55.1398 46.7814 55.382C46.4689 55.6242 46.1408 55.7453 45.797 55.7453C45.5939 55.7453 45.3947 55.6242 45.1994 55.382C45.0119 55.1476 44.8283 54.839 44.6486 54.4562C44.4767 54.0734 44.3166 53.6476 44.1681 53.1789C44.0197 52.7101 43.883 52.2453 43.758 51.7843C43.6408 52.214 43.5119 52.6633 43.3713 53.132C43.2306 53.6008 43.0588 54.0304 42.8556 54.4211C42.6525 54.8039 42.4142 55.1203 42.1408 55.3703C41.8674 55.6203 41.5431 55.7453 41.1681 55.7453C40.926 55.7453 40.7033 55.632 40.5002 55.4054C40.3049 55.1789 40.1252 54.8937 39.9611 54.55C39.8049 54.1984 39.6603 53.8117 39.5275 53.3898C39.4025 52.9601 39.2931 52.5461 39.1994 52.1476C39.1135 51.7414 39.0392 51.3742 38.9767 51.0461C38.9142 50.7179 38.8674 50.4758 38.8361 50.3195C38.8283 50.2961 38.8166 50.2375 38.801 50.1437C38.7853 50.05 38.7658 49.9523 38.7424 49.8508C38.7189 49.7492 38.6877 49.6593 38.6486 49.5812C38.6174 49.4953 38.5861 49.4523 38.5549 49.4523C38.422 49.4523 38.2658 49.4953 38.0861 49.5812C37.9142 49.6593 37.7736 49.7297 37.6642 49.7922L37.5939 49.675C37.7033 49.5578 37.8361 49.4367 37.9924 49.3117C38.1564 49.1789 38.3283 49.0578 38.508 48.9484C38.6955 48.839 38.883 48.7492 39.0705 48.6789C39.2658 48.6086 39.4455 48.5734 39.6095 48.5734C39.7502 48.5734 39.8752 48.6359 39.9845 48.7609C40.1017 48.8781 40.1994 49.0304 40.2775 49.2179C40.3556 49.4054 40.422 49.6164 40.4767 49.8508C40.5392 50.0773 40.5861 50.3039 40.6174 50.5304C40.6564 50.7492 40.6838 50.9484 40.6994 51.1281C40.7228 51.3078 40.7424 51.4445 40.758 51.5383C40.7658 51.6008 40.7853 51.7297 40.8166 51.925C40.8478 52.1125 40.8869 52.3351 40.9338 52.5929C40.9806 52.8429 41.0314 53.1086 41.0861 53.3898C41.1486 53.6633 41.215 53.9172 41.2853 54.1515C41.3556 54.3781 41.426 54.5695 41.4963 54.7258C41.5744 54.8742 41.6486 54.9484 41.7189 54.9484C41.9377 54.9484 42.1408 54.8117 42.3283 54.5383C42.5158 54.257 42.6838 53.9093 42.8322 53.4953C42.9885 53.0812 43.1252 52.6398 43.2424 52.1711C43.3595 51.7023 43.4533 51.2726 43.5236 50.882C43.4455 50.5695 43.3791 50.2922 43.3244 50.05C43.2697 49.8 43.2228 49.6008 43.1838 49.4523C43.1681 49.4211 43.1603 49.3664 43.1603 49.2883C43.1603 49.1789 43.1994 49.0773 43.2775 48.9836C43.3556 48.8898 43.4533 48.8078 43.5705 48.7375C43.6877 48.6672 43.8088 48.6125 43.9338 48.5734C44.0588 48.5343 44.1681 48.5148 44.2619 48.5148C44.4181 48.5148 44.547 48.589 44.6486 48.7375C44.7502 48.8781 44.8322 49.0461 44.8947 49.2414C44.9572 49.4367 45.0041 49.6359 45.0353 49.839C45.0744 50.0343 45.1056 50.1867 45.1291 50.2961C45.1369 50.3508 45.1603 50.5031 45.1994 50.7531C45.2463 51.0031 45.3049 51.3 45.3752 51.6437C45.4455 51.9875 45.5197 52.3547 45.5978 52.7453C45.6838 53.1281 45.7697 53.4836 45.8556 53.8117C45.9494 54.1398 46.0392 54.4133 46.1252 54.632C46.2111 54.8429 46.2892 54.9484 46.3595 54.9484C46.5705 54.9484 46.7658 54.8781 46.9455 54.7375C47.1252 54.589 47.2853 54.3976 47.426 54.1633C47.5744 53.9211 47.6994 53.6476 47.801 53.3429C47.9103 53.0304 48.0002 52.7062 48.0705 52.3703C48.1486 52.0343 48.2033 51.7023 48.2345 51.3742C48.2736 51.0383 48.2931 50.7258 48.2931 50.4367C48.2931 50.1945 48.2775 49.9328 48.2463 49.6515C48.215 49.3625 48.1642 49.0773 48.0939 48.7961C48.0236 48.5148 47.9299 48.2453 47.8127 47.9875C47.7033 47.7218 47.5705 47.4953 47.4142 47.3078C47.258 47.1125 47.0783 46.964 46.8752 46.8625C46.672 46.7609 46.4416 46.7258 46.1838 46.757L46.1603 46.6515C46.3635 46.55 46.5783 46.4718 46.8049 46.4172C47.0314 46.3625 47.2658 46.3351 47.508 46.3351C48.172 46.3351 48.6681 46.5187 48.9963 46.8859C49.3322 47.2453 49.5002 47.7414 49.5002 48.3742Z" fill="#242020"/>
<path d="M49.3713 49.8273L49.5193 49.8513L49.5194 49.8509L49.3713 49.8273ZM48.9963 51.4445L48.8526 51.4014L48.852 51.4033L48.9963 51.4445ZM48.422 53.0383L48.2847 52.9779L48.284 52.9797L48.422 53.0383ZM47.672 54.4211L47.5487 54.3357L47.5484 54.3362L47.672 54.4211ZM46.7814 55.382L46.691 55.2623L46.6895 55.2634L46.7814 55.382ZM45.1994 55.382L45.0823 55.4757L45.0826 55.4762L45.1994 55.382ZM44.6486 54.4562L44.5118 54.5177L44.5128 54.52L44.6486 54.4562ZM43.758 51.7843L43.9028 51.7451L43.7584 51.2128L43.6133 51.7449L43.758 51.7843ZM42.8556 54.4211L42.9881 54.4914L42.9887 54.4903L42.8556 54.4211ZM40.5002 55.4054L40.3865 55.5034L40.3885 55.5056L40.5002 55.4054ZM39.9611 54.55L39.824 54.6109L39.8257 54.6146L39.9611 54.55ZM39.5275 53.3898L39.3835 53.4317L39.3844 53.4349L39.5275 53.3898ZM39.1994 52.1476L39.0526 52.1787L39.0534 52.182L39.1994 52.1476ZM38.8361 50.3195L38.9832 50.2901L38.9814 50.2809L38.9784 50.2721L38.8361 50.3195ZM38.6486 49.5812L38.5076 49.6325L38.5106 49.6406L38.5144 49.6483L38.6486 49.5812ZM38.0861 49.5812L38.1482 49.7178L38.1508 49.7165L38.0861 49.5812ZM37.6642 49.7922L37.5356 49.8693L37.6112 49.9953L37.7387 49.9224L37.6642 49.7922ZM37.5939 49.675L37.4843 49.5726L37.4072 49.6552L37.4653 49.7521L37.5939 49.675ZM37.9924 49.3117L38.0861 49.4288L38.0867 49.4283L37.9924 49.3117ZM38.508 48.9484L38.4324 48.8188L38.43 48.8203L38.508 48.9484ZM39.0705 48.6789L39.0197 48.5377L39.0178 48.5384L39.0705 48.6789ZM39.9845 48.7609L39.8714 48.8599L39.8785 48.867L39.9845 48.7609ZM40.4767 49.8508L40.3305 49.8849L40.3321 49.8906L40.4767 49.8508ZM40.6174 50.5304L40.4687 50.551L40.4697 50.5568L40.6174 50.5304ZM40.6994 51.1281L40.5498 51.1411L40.5507 51.1475L40.6994 51.1281ZM40.758 51.5383L40.907 51.5196L40.9059 51.5136L40.758 51.5383ZM40.8166 51.925L40.6685 51.9487L40.6686 51.9496L40.8166 51.925ZM40.9338 52.5929L40.7862 52.6198L40.7863 52.6206L40.9338 52.5929ZM41.0861 53.3898L40.9388 53.4185L40.9399 53.4232L41.0861 53.3898ZM41.2853 54.1515L41.1416 54.1946L41.1421 54.196L41.2853 54.1515ZM41.4963 54.7258L41.3592 54.7874L41.3635 54.7956L41.4963 54.7258ZM42.3283 54.5383L42.452 54.6231L42.4531 54.6215L42.3283 54.5383ZM42.8322 53.4953L42.6918 53.4423L42.691 53.4447L42.8322 53.4953ZM43.5236 50.882L43.6712 50.9086L43.6769 50.8769L43.6691 50.8456L43.5236 50.882ZM43.3244 50.05L43.1779 50.082L43.1781 50.083L43.3244 50.05ZM43.1838 49.4523L43.3288 49.4141L43.3249 49.3991L43.3179 49.3852L43.1838 49.4523ZM44.6486 48.7375L44.5248 48.8222L44.527 48.8253L44.6486 48.7375ZM45.0353 49.839L44.8869 49.8619L44.8882 49.8685L45.0353 49.839ZM45.1291 50.2961L45.2779 50.2748L45.2758 50.2646L45.1291 50.2961ZM45.1994 50.7531L45.0511 50.7763L45.052 50.7807L45.1994 50.7531ZM45.5978 52.7453L45.4507 52.7747L45.4515 52.7781L45.5978 52.7453ZM45.8556 53.8117L45.7105 53.8497L45.7114 53.8529L45.8556 53.8117ZM46.1252 54.632L45.9855 54.6869L45.9863 54.6886L46.1252 54.632ZM46.9455 54.7375L47.038 54.8556L47.041 54.8531L46.9455 54.7375ZM47.426 54.1633L47.2981 54.0849L47.2973 54.0861L47.426 54.1633ZM47.801 53.3429L47.6594 53.2934L47.6587 53.2955L47.801 53.3429ZM48.0705 52.3703L47.9243 52.3363L47.9237 52.3396L48.0705 52.3703ZM48.2345 51.3742L48.0855 51.3569L48.0852 51.36L48.2345 51.3742ZM48.2463 49.6515L48.0971 49.6677L48.0972 49.6681L48.2463 49.6515ZM47.8127 47.9875L47.6739 48.0446L47.6761 48.0495L47.8127 47.9875ZM47.4142 47.3078L47.2971 47.4015L47.299 47.4038L47.4142 47.3078ZM46.1838 46.757L46.0373 46.7895L46.0668 46.9223L46.2018 46.9059L46.1838 46.757ZM46.1603 46.6515L46.0932 46.5174L45.9885 46.5697L46.0139 46.6841L46.1603 46.6515ZM48.9963 46.8859L48.8844 46.9859L48.8867 46.9883L48.9963 46.8859ZM49.3502 48.3742C49.3502 48.7942 49.3081 49.2705 49.2231 49.8037L49.5194 49.8509C49.6063 49.306 49.6502 48.8136 49.6502 48.3742H49.3502ZM49.2232 49.8034C49.1384 50.3278 49.0149 50.8604 48.8526 51.4014L49.1399 51.4876C49.3058 50.9348 49.4323 50.3894 49.5193 49.8513L49.2232 49.8034ZM48.852 51.4033C48.6976 51.9437 48.5085 52.4686 48.2847 52.9779L48.5594 53.0986C48.7887 52.5767 48.9824 52.039 49.1405 51.4857L48.852 51.4033ZM48.284 52.9797C48.0687 53.4871 47.8234 53.9389 47.5487 54.3357L47.7954 54.5064C48.0832 54.0908 48.3379 53.6206 48.5601 53.0968L48.284 52.9797ZM47.5484 54.3362C47.2823 54.7239 46.9961 55.0316 46.691 55.2624L46.8719 55.5017C47.2074 55.248 47.515 54.9151 47.7957 54.5059L47.5484 54.3362ZM46.6895 55.2634C46.3992 55.4885 46.1027 55.5953 45.797 55.5953V55.8953C46.1789 55.8953 46.5386 55.7599 46.8733 55.5006L46.6895 55.2634ZM45.797 55.5953C45.6591 55.5953 45.4984 55.5138 45.3162 55.2878L45.0826 55.4762C45.2911 55.7346 45.5287 55.8953 45.797 55.8953V55.5953ZM45.3165 55.2883C45.1387 55.066 44.9609 54.7686 44.7844 54.3925L44.5128 54.52C44.6957 54.9095 44.8851 55.2292 45.0823 55.4757L45.3165 55.2883ZM44.7855 54.3948C44.6163 54.018 44.4581 53.5978 44.3111 53.1336L44.0251 53.2242C44.175 53.6975 44.3372 54.1288 44.5118 54.5177L44.7855 54.3948ZM44.3111 53.1336C44.1633 52.6668 44.0272 52.2039 43.9028 51.7451L43.6132 51.8236C43.7388 52.2866 43.8761 52.7535 44.0251 53.2242L44.3111 53.1336ZM43.6133 51.7449C43.4964 52.1732 43.3679 52.6212 43.2276 53.0889L43.5149 53.1751C43.6559 52.7053 43.7852 52.2548 43.9027 51.8238L43.6133 51.7449ZM43.2276 53.0889C43.0894 53.5496 42.9209 53.9705 42.7226 54.3519L42.9887 54.4903C43.1966 54.0904 43.3719 53.6519 43.5149 53.1751L43.2276 53.0889ZM42.7231 54.3508C42.5267 54.7209 42.2984 55.0229 42.0396 55.2596L42.242 55.481C42.5301 55.2176 42.7783 54.8868 42.9881 54.4914L42.7231 54.3508ZM42.0396 55.2596C41.7942 55.484 41.5062 55.5953 41.1681 55.5953V55.8953C41.5801 55.8953 41.9406 55.7566 42.242 55.481L42.0396 55.2596ZM41.1681 55.5953C40.979 55.5953 40.7944 55.5089 40.6119 55.3053L40.3885 55.5056C40.6122 55.7551 40.8729 55.8953 41.1681 55.8953V55.5953ZM40.6138 55.3075C40.4292 55.0933 40.2563 54.8202 40.0965 54.4854L39.8257 54.6146C39.9941 54.9673 40.1806 55.2644 40.3866 55.5034L40.6138 55.3075ZM40.0982 54.4891C39.9445 54.1434 39.802 53.762 39.6706 53.3448L39.3844 53.4349C39.5187 53.8614 39.6652 54.2535 39.824 54.6109L40.0982 54.4891ZM39.6715 53.3479C39.5472 52.9205 39.4385 52.509 39.3454 52.1133L39.0534 52.182C39.1478 52.5832 39.2578 52.9998 39.3835 53.4317L39.6715 53.3479ZM39.3461 52.1166C39.2604 51.7111 39.1864 51.3449 39.1241 51.018L38.8294 51.0741C38.8921 51.4035 38.9665 51.7717 39.0526 52.1787L39.3461 52.1166ZM39.1241 51.018C39.0616 50.6898 39.0146 50.447 38.9832 50.2901L38.689 50.3489C38.7201 50.5045 38.7669 50.7461 38.8294 51.0741L39.1241 51.018ZM38.9784 50.2721C38.9785 50.2723 38.9775 50.2691 38.9754 50.2606C38.9736 50.2527 38.9713 50.2421 38.9686 50.2286C38.9631 50.2015 38.9566 50.1652 38.9489 50.1191L38.653 50.1684C38.6679 50.2581 38.6815 50.3299 38.6938 50.3669L38.9784 50.2721ZM38.9489 50.1191C38.9327 50.022 38.9126 49.9213 38.8885 49.817L38.5962 49.8845C38.619 49.9833 38.6379 50.0779 38.653 50.1684L38.9489 50.1191ZM38.8885 49.817C38.8629 49.7061 38.828 49.6047 38.7828 49.5141L38.5144 49.6483C38.5473 49.714 38.5749 49.7923 38.5962 49.8845L38.8885 49.817ZM38.7896 49.53C38.7721 49.4818 38.7508 49.4344 38.723 49.3963C38.6987 49.3629 38.6441 49.3023 38.5549 49.3023V49.6023C38.5264 49.6023 38.5051 49.5921 38.4933 49.584C38.4827 49.5767 38.4789 49.5707 38.4804 49.5728C38.4816 49.5744 38.485 49.5796 38.4902 49.5903C38.4953 49.6007 38.5011 49.6146 38.5076 49.6325L38.7896 49.53ZM38.5549 49.3023C38.3913 49.3023 38.2121 49.3547 38.0214 49.4459L38.1508 49.7165C38.3195 49.6359 38.4528 49.6023 38.5549 49.6023V49.3023ZM38.024 49.4447C37.8498 49.5239 37.7047 49.5963 37.5898 49.6619L37.7387 49.9224C37.8426 49.863 37.9787 49.7948 38.1482 49.7178L38.024 49.4447ZM37.7929 49.715L37.7225 49.5978L37.4653 49.7521L37.5356 49.8693L37.7929 49.715ZM37.7036 49.7773C37.807 49.6666 37.9342 49.5503 38.0861 49.4288L37.8987 49.1946C37.7381 49.323 37.5996 49.449 37.4843 49.5726L37.7036 49.7773ZM38.0867 49.4283C38.2456 49.2997 38.412 49.1824 38.586 49.0765L38.43 48.8203C38.2446 48.9331 38.0672 49.0581 37.898 49.1951L38.0867 49.4283ZM38.5836 49.078C38.7644 48.9725 38.9442 48.8864 39.1232 48.8193L39.0178 48.5384C38.8218 48.612 38.6266 48.7056 38.4324 48.8188L38.5836 49.078ZM39.1213 48.82C39.3044 48.7541 39.4667 48.7234 39.6095 48.7234V48.4234C39.4243 48.4234 39.2272 48.4631 39.0197 48.5377L39.1213 48.82ZM39.6095 48.7234C39.699 48.7234 39.7851 48.7608 39.8717 48.8597L40.0974 48.6621C39.9652 48.5111 39.8014 48.4234 39.6095 48.4234V48.7234ZM39.8785 48.867C39.9791 48.9676 40.0668 49.1023 40.1391 49.2756L40.416 49.1602C40.332 48.9586 40.2244 48.7886 40.0906 48.6548L39.8785 48.867ZM40.1391 49.2756C40.2135 49.4542 40.2775 49.6571 40.3307 49.8848L40.6228 49.8167C40.5666 49.5757 40.4978 49.3566 40.416 49.1602L40.1391 49.2756ZM40.3321 49.8906C40.3929 50.111 40.4384 50.3311 40.4688 50.5509L40.766 50.5099C40.7338 50.2767 40.6855 50.0436 40.6213 49.8109L40.3321 49.8906ZM40.4697 50.5568C40.5081 50.7721 40.5348 50.9668 40.55 51.1411L40.8488 51.1151C40.8327 50.93 40.8047 50.7263 40.765 50.5041L40.4697 50.5568ZM40.5507 51.1475C40.5742 51.3277 40.594 51.4665 40.61 51.5629L40.9059 51.5136C40.8908 51.4225 40.8715 51.2879 40.8481 51.1087L40.5507 51.1475ZM40.6091 51.5569C40.6173 51.6224 40.6373 51.7539 40.6685 51.9487L40.9647 51.9013C40.9334 51.7055 40.9143 51.5791 40.9068 51.5196L40.6091 51.5569ZM40.6686 51.9496C40.7 52.1381 40.7392 52.3615 40.7862 52.6198L41.0813 52.5661C41.0346 52.3088 40.9956 52.0869 40.9645 51.9003L40.6686 51.9496ZM40.7863 52.6206C40.8333 52.871 40.8841 53.1369 40.9389 53.4184L41.2334 53.3612C41.1787 53.0802 41.128 52.8149 41.0812 52.5653L40.7863 52.6206ZM40.9399 53.4232C41.003 53.6995 41.0703 53.9566 41.1417 54.1946L41.429 54.1084C41.3598 53.8777 41.2942 53.627 41.2323 53.3564L40.9399 53.4232ZM41.1421 54.196C41.2136 54.4263 41.2859 54.6238 41.3595 54.7873L41.6331 54.6642C41.566 54.5152 41.4977 54.3298 41.4286 54.1071L41.1421 54.196ZM41.3635 54.7956C41.4059 54.8762 41.4523 54.9466 41.5045 54.9988C41.556 55.0503 41.6281 55.0984 41.7189 55.0984V54.7984C41.7395 54.7984 41.7393 54.8094 41.7166 54.7867C41.6946 54.7646 41.6647 54.7237 41.629 54.6559L41.3635 54.7956ZM41.7189 55.0984C42.0089 55.0984 42.2517 54.9153 42.452 54.6231L42.2046 54.4534C42.0299 54.7081 41.8664 54.7984 41.7189 54.7984V55.0984ZM42.4531 54.6215C42.6491 54.3275 42.822 53.9682 42.9734 53.5459L42.691 53.4447C42.5455 53.8505 42.3825 54.1865 42.2035 54.455L42.4531 54.6215ZM42.9725 53.5482C43.131 53.1283 43.2694 52.6813 43.3879 52.2074L43.0968 52.1347C42.9809 52.5983 42.8459 53.0342 42.6919 53.4423L42.9725 53.5482ZM43.3879 52.2074C43.5057 51.7361 43.6002 51.3031 43.6712 50.9086L43.376 50.8554C43.3064 51.2422 43.2134 51.6685 43.0968 52.1347L43.3879 52.2074ZM43.6691 50.8456C43.5912 50.5339 43.5251 50.2577 43.4707 50.0169L43.1781 50.083C43.2331 50.3266 43.2998 50.6051 43.3781 50.9184L43.6691 50.8456ZM43.4709 50.0179C43.416 49.767 43.3687 49.5655 43.3288 49.4141L43.0387 49.4905C43.077 49.636 43.1234 49.8329 43.1779 50.082L43.4709 50.0179ZM43.3179 49.3852C43.3203 49.3899 43.3175 49.3862 43.3147 49.3666C43.3121 49.3485 43.3103 49.3229 43.3103 49.2883H43.0103C43.0103 49.3677 43.0169 49.454 43.0496 49.5194L43.3179 49.3852ZM43.3103 49.2883C43.3103 49.2181 43.3343 49.1497 43.3928 49.0796L43.1623 48.8875C43.0645 49.0049 43.0103 49.1397 43.0103 49.2883H43.3103ZM43.3928 49.0796C43.4589 49.0002 43.5432 48.9288 43.6477 48.8661L43.4933 48.6088C43.3634 48.6868 43.2524 48.7794 43.1623 48.8875L43.3928 49.0796ZM43.6477 48.8661C43.7551 48.8016 43.8653 48.7519 43.9785 48.7166L43.889 48.4302C43.7522 48.473 43.6203 48.5327 43.4933 48.6088L43.6477 48.8661ZM43.9785 48.7166C44.0943 48.6804 44.188 48.6648 44.2619 48.6648V48.3648C44.1483 48.3648 44.0232 48.3883 43.889 48.4302L43.9785 48.7166ZM44.2619 48.6648C44.3606 48.6648 44.4463 48.7074 44.5248 48.8222L44.7724 48.6528C44.6478 48.4706 44.4757 48.3648 44.2619 48.3648V48.6648ZM44.527 48.8253C44.6178 48.951 44.6933 49.1042 44.7518 49.2871L45.0376 49.1957C44.9711 48.988 44.8826 48.8052 44.7702 48.6496L44.527 48.8253ZM44.7518 49.2871C44.8119 49.4749 44.857 49.6665 44.8871 49.8618L45.1836 49.8162C45.1511 49.6054 45.1025 49.3985 45.0376 49.1957L44.7518 49.2871ZM44.8882 49.8685C44.9274 50.064 44.9588 50.2171 44.9824 50.3275L45.2758 50.2646C45.2525 50.1563 45.2214 50.0047 45.1824 49.8096L44.8882 49.8685ZM44.9806 50.3173C44.9886 50.3732 45.0122 50.5267 45.0512 50.7763L45.3476 50.7299C45.3085 50.4795 45.2852 50.3283 45.2776 50.2749L44.9806 50.3173ZM45.052 50.7807C45.099 51.0318 45.1578 51.3295 45.2282 51.6738L45.5221 51.6137C45.4519 51.2704 45.3935 50.9744 45.3468 50.7255L45.052 50.7807ZM45.2282 51.6738C45.2985 52.0173 45.3727 52.3843 45.4507 52.7747L45.7449 52.7159C45.6668 52.3251 45.5925 51.9577 45.5221 51.6137L45.2282 51.6738ZM45.4515 52.7781C45.5377 53.1624 45.6241 53.5196 45.7105 53.8497L46.0007 53.7737C45.9153 53.4475 45.8298 53.0938 45.7442 52.7124L45.4515 52.7781ZM45.7114 53.8529C45.806 54.1838 45.8973 54.4621 45.9856 54.6869L46.2648 54.5772C46.1812 54.3644 46.0928 54.0959 45.9999 53.7705L45.7114 53.8529ZM45.9863 54.6886C46.031 54.7985 46.0776 54.891 46.1277 54.9586C46.172 55.0184 46.2482 55.0984 46.3595 55.0984V54.7984C46.4006 54.7984 46.4026 54.8257 46.3688 54.78C46.3407 54.7421 46.3052 54.6764 46.2641 54.5754L45.9863 54.6886ZM46.3595 55.0984C46.6068 55.0984 46.8342 55.0151 47.0379 54.8556L46.853 54.6193C46.6974 54.7411 46.5342 54.7984 46.3595 54.7984V55.0984ZM47.041 54.8531C47.2359 54.6921 47.4067 54.4869 47.5546 54.2404L47.2973 54.0861C47.164 54.3083 47.0145 54.4859 46.85 54.6218L47.041 54.8531ZM47.5538 54.2416C47.709 53.9885 47.8385 53.7045 47.9433 53.3904L47.6587 53.2955C47.5602 53.5907 47.4398 53.8536 47.2981 54.0849L47.5538 54.2416ZM47.9425 53.3925C48.0541 53.0736 48.1457 52.7431 48.2173 52.401L47.9237 52.3396C47.8546 52.6693 47.7665 52.9873 47.6594 53.2934L47.9425 53.3925ZM48.2166 52.4043C48.2962 52.0621 48.352 51.7235 48.3839 51.3884L48.0852 51.36C48.0546 51.6811 48.0011 52.0066 47.9244 52.3363L48.2166 52.4043ZM48.3835 51.3915C48.4232 51.0508 48.4431 50.7324 48.4431 50.4367H48.1431C48.1431 50.7191 48.1241 51.0257 48.0856 51.3569L48.3835 51.3915ZM48.4431 50.4367C48.4431 50.1881 48.4271 49.9208 48.3954 49.635L48.0972 49.6681C48.1279 49.9447 48.1431 50.2009 48.1431 50.4367H48.4431ZM48.3954 49.6354C48.3634 49.3395 48.3114 49.0476 48.2394 48.7597L47.9484 48.8324C48.017 49.107 48.0666 49.3854 48.0971 49.6677L48.3954 49.6354ZM48.2394 48.7597C48.167 48.4698 48.0703 48.1917 47.9492 47.9254L47.6761 48.0495C47.7895 48.2989 47.8802 48.5598 47.9484 48.8324L48.2394 48.7597ZM47.9514 47.9304C47.8372 47.6531 47.697 47.4128 47.5295 47.2118L47.299 47.4038C47.444 47.5778 47.5694 47.7906 47.674 48.0446L47.9514 47.9304ZM47.5314 47.2141C47.3629 47.0036 47.1667 46.8405 46.9423 46.7283L46.8081 46.9966C46.9899 47.0875 47.153 47.2214 47.2971 47.4015L47.5314 47.2141ZM46.9423 46.7283C46.7092 46.6118 46.4484 46.5738 46.1657 46.6081L46.2018 46.9059C46.4347 46.8777 46.6349 46.9101 46.8081 46.9966L46.9423 46.7283ZM46.3302 46.7245L46.3068 46.619L46.0139 46.6841L46.0373 46.7895L46.3302 46.7245ZM46.2274 46.7857C46.4201 46.6893 46.6242 46.6151 46.8401 46.563L46.7697 46.2713C46.5324 46.3286 46.3068 46.4106 46.0932 46.5174L46.2274 46.7857ZM46.8401 46.563C47.0547 46.5112 47.2772 46.4851 47.508 46.4851V46.1851C47.2544 46.1851 47.0082 46.2138 46.7697 46.2713L46.8401 46.563ZM47.508 46.4851C48.1449 46.4851 48.5937 46.6605 48.8844 46.9859L49.1081 46.786C48.7426 46.3769 48.1992 46.1851 47.508 46.1851V46.4851ZM48.8867 46.9883C49.1899 47.3127 49.3502 47.7681 49.3502 48.3742H49.6502C49.6502 47.7146 49.4746 47.1779 49.1058 46.7835L48.8867 46.9883Z" fill="black" mask="url(#path-7-outside-3_36_19055)"/>
<g filter="url(#filter0_f_36_19055)">
<ellipse cx="66" cy="53" rx="11" ry="8" fill="#FFBEC0"/>
</g>
<g filter="url(#filter1_f_36_19055)">
<ellipse cx="65.5" cy="53.5" rx="5.5" ry="4.5" fill="#FFBEC0"/>
</g>
<path d="M61.9557 49.9778C60.7958 52.0244 60.1026 53.2037 60 54.4667M66.0148 49C64.1994 51.8812 63.1047 53.4466 62.3247 57M70 50.6C69.3857 51.55 68.8854 51.9636 68.9668 53.4444" stroke="#E2636C" stroke-width="0.5" stroke-linecap="round"/>
<g filter="url(#filter2_f_36_19055)">
<ellipse cx="18" cy="53" rx="11" ry="8" fill="#FFBEC0"/>
</g>
<g filter="url(#filter3_f_36_19055)">
<ellipse cx="17.5" cy="53.5" rx="5.5" ry="4.5" fill="#FFBEC0"/>
</g>
<path d="M22 49.3419C21.0908 52.222 20.5681 53.8319 20.0537 56.8632" stroke="#E2636C" stroke-width="0.5" stroke-linecap="round"/>
<path d="M15.0537 49L13.6285 52.4202C13.5719 52.556 13.5132 52.6899 13.4533 52.8243C13.1581 53.4878 12.2274 55.6475 12 57" stroke="#E2636C" stroke-width="0.5" stroke-linecap="round"/>
<path d="M17.2349 50.8462C17.2349 50.8462 16.9161 52.791 16.396 53.4444" stroke="#E2636C" stroke-width="0.5" stroke-linecap="round"/>
<defs>
<filter id="filter0_f_36_19055" x="48" y="38" width="36" height="30" filterUnits="userSpaceOnUse" color-interpolation-filters="sRGB">
<feFlood flood-opacity="0" result="BackgroundImageFix"/>
<feBlend mode="normal" in="SourceGraphic" in2="BackgroundImageFix" result="shape"/>
<feGaussianBlur stdDeviation="3.5" result="effect1_foregroundBlur_36_19055"/>
</filter>
<filter id="filter1_f_36_19055" x="58.6" y="47.6" width="13.8" height="11.8" filterUnits="userSpaceOnUse" color-interpolation-filters="sRGB">
<feFlood flood-opacity="0" result="BackgroundImageFix"/>
<feBlend mode="normal" in="SourceGraphic" in2="BackgroundImageFix" result="shape"/>
<feGaussianBlur stdDeviation="0.7" result="effect1_foregroundBlur_36_19055"/>
</filter>
<filter id="filter2_f_36_19055" x="0" y="38" width="36" height="30" filterUnits="userSpaceOnUse" color-interpolation-filters="sRGB">
<feFlood flood-opacity="0" result="BackgroundImageFix"/>
<feBlend mode="normal" in="SourceGraphic" in2="BackgroundImageFix" result="shape"/>
<feGaussianBlur stdDeviation="3.5" result="effect1_foregroundBlur_36_19055"/>
</filter>
<filter id="filter3_f_36_19055" x="10.6" y="47.6" width="13.8" height="11.8" filterUnits="userSpaceOnUse" color-interpolation-filters="sRGB">
<feFlood flood-opacity="0" result="BackgroundImageFix"/>
<feBlend mode="normal" in="SourceGraphic" in2="BackgroundImageFix" result="shape"/>
<feGaussianBlur stdDeviation="0.7" result="effect1_foregroundBlur_36_19055"/>
</filter>
<linearGradient id="paint0_linear_36_19055" x1="43" y1="-1.09798e-07" x2="43" y2="80" gradientUnits="userSpaceOnUse">
<stop stop-color="#71CF93"/>
<stop offset="1" stop-color="#59B15C"/>
</linearGradient>
<linearGradient id="paint1_linear_36_19055" x1="42.75" y1="-0.25" x2="42.75" y2="43.25" gradientUnits="userSpaceOnUse">
<stop stop-color="#85DFAF"/>
<stop offset="1" stop-color="#69C581"/>
</linearGradient>
</defs>
</svg>
