<svg width="84" height="80" viewBox="0 0 84 80" fill="none" xmlns="http://www.w3.org/2000/svg">
<path d="M83 14C82.8333 7.33333 79.3167 4 72.45 4H13.5C6.66667 4 3.16667 7.33333 3 14V69.95C3.16667 76.65 6.66667 80 13.5 80H72.45C79.3167 80 82.8333 76.65 83 69.95V14Z" fill="url(#paint0_linear_36_19056)"/>
<path d="M83 10.5C83 3.5 79.4833 0 72.45 0H13.5C6.5 0 3 3.5 3 10.5V14C3.16667 7.33333 6.66667 4 13.5 4H72.45C79.3167 4 82.8333 7.33333 83 14V10.5Z" fill="url(#paint1_linear_36_19056)"/>
<g filter="url(#filter0_f_36_19056)">
<ellipse cx="66" cy="54" rx="11" ry="8" fill="#FFBEC0"/>
</g>
<g filter="url(#filter1_f_36_19056)">
<ellipse cx="65.5" cy="54.5" rx="5.5" ry="4.5" fill="#FFBEC0"/>
</g>
<path d="M61.9557 50.9778C60.7958 53.0244 60.1026 54.2037 60 55.4667M66.0148 50C64.1994 52.8812 63.1047 54.4466 62.3247 58M70 51.6C69.3857 52.55 68.8854 52.9636 68.9668 54.4444" stroke="#E2636C" stroke-width="0.5" stroke-linecap="round"/>
<g filter="url(#filter2_f_36_19056)">
<ellipse cx="18" cy="54" rx="11" ry="8" fill="#FFBEC0"/>
</g>
<g filter="url(#filter3_f_36_19056)">
<ellipse cx="17.5" cy="54.5" rx="5.5" ry="4.5" fill="#FFBEC0"/>
</g>
<path d="M22 50.3419C21.0908 53.222 20.5681 54.8319 20.0537 57.8632" stroke="#E2636C" stroke-width="0.5" stroke-linecap="round"/>
<path d="M15.0537 50L13.6285 53.4202C13.5719 53.556 13.5132 53.6899 13.4533 53.8243C13.1581 54.4878 12.2274 56.6475 12 58" stroke="#E2636C" stroke-width="0.5" stroke-linecap="round"/>
<path d="M17.2349 51.8462C17.2349 51.8462 16.9161 53.791 16.396 54.4444" stroke="#E2636C" stroke-width="0.5" stroke-linecap="round"/>
<mask id="path-11-outside-1_36_19056" maskUnits="userSpaceOnUse" x="50" y="21" width="17" height="16" fill="black">
<rect fill="white" x="50" y="21" width="17" height="16"/>
<path d="M65.508 36.224C63.54 36.224 61.692 35.852 59.964 35.108C58.236 34.388 56.712 33.38 55.392 32.084C54.096 30.764 53.076 29.24 52.332 27.512C51.612 25.784 51.252 23.936 51.252 21.968H52.764C52.764 23.744 53.088 25.4 53.736 26.936C54.408 28.472 55.32 29.828 56.472 31.004C57.648 32.156 59.004 33.068 60.54 33.74C62.076 34.388 63.732 34.712 65.508 34.712V36.224Z"/>
</mask>
<path d="M65.508 36.224C63.54 36.224 61.692 35.852 59.964 35.108C58.236 34.388 56.712 33.38 55.392 32.084C54.096 30.764 53.076 29.24 52.332 27.512C51.612 25.784 51.252 23.936 51.252 21.968H52.764C52.764 23.744 53.088 25.4 53.736 26.936C54.408 28.472 55.32 29.828 56.472 31.004C57.648 32.156 59.004 33.068 60.54 33.74C62.076 34.388 63.732 34.712 65.508 34.712V36.224Z" fill="#242020"/>
<path d="M65.508 36.224V36.724H66.008V36.224H65.508ZM59.964 35.108L60.1618 34.6487L60.1563 34.6465L59.964 35.108ZM55.392 32.084L55.0352 32.4344L55.0417 32.4408L55.392 32.084ZM52.332 27.512L51.8704 27.7043L51.8728 27.7097L52.332 27.512ZM51.252 21.968V21.468H50.752V21.968H51.252ZM52.764 21.968H53.264V21.468H52.764V21.968ZM53.736 26.936L53.2753 27.1304L53.2779 27.1364L53.736 26.936ZM56.472 31.004L56.1148 31.354L56.1221 31.3612L56.472 31.004ZM60.54 33.74L60.3396 34.1981L60.3457 34.2007L60.54 33.74ZM65.508 34.712H66.008V34.212H65.508V34.712ZM65.508 35.724C63.6048 35.724 61.8244 35.3646 60.1617 34.6488L59.7663 35.5672C61.5596 36.3394 63.4752 36.724 65.508 36.724V35.724ZM60.1563 34.6465C58.4865 33.9507 57.0163 32.978 55.7423 31.7272L55.0417 32.4408C56.4078 33.782 57.9856 34.8253 59.7717 35.5695L60.1563 34.6465ZM55.7488 31.7337C54.4968 30.4586 53.5112 28.9865 52.7913 27.3143L51.8728 27.7097C52.6408 29.4935 53.6952 31.0694 55.0352 32.4343L55.7488 31.7337ZM52.7936 27.3197C52.1002 25.6557 51.752 23.8734 51.752 21.968H50.752C50.752 23.9986 51.1238 25.9123 51.8705 27.7043L52.7936 27.3197ZM51.252 22.468H52.764V21.468H51.252V22.468ZM52.264 21.968C52.264 23.8063 52.5997 25.5289 53.2753 27.1304L54.1967 26.7416C53.5763 25.2711 53.264 23.6817 53.264 21.968H52.264ZM53.2779 27.1364C53.9738 28.7269 54.9196 30.1338 56.1148 31.3539L56.8292 30.6541C55.7204 29.5222 54.8423 28.2171 54.1941 26.7356L53.2779 27.1364ZM56.1221 31.3612C57.3422 32.5564 58.7491 33.5022 60.3396 34.1981L60.7404 33.2819C59.2589 32.6338 57.9538 31.7556 56.8219 30.6468L56.1221 31.3612ZM60.3457 34.2007C61.9471 34.8763 63.6697 35.212 65.508 35.212V34.212C63.7944 34.212 62.2049 33.8997 60.7344 33.2793L60.3457 34.2007ZM65.008 34.712V36.224H66.008V34.712H65.008Z" fill="#242020" mask="url(#path-11-outside-1_36_19056)"/>
<mask id="path-13-outside-2_36_19056" maskUnits="userSpaceOnUse" x="19" y="21" width="16" height="16" fill="black">
<rect fill="white" x="19" y="21" width="16" height="16"/>
<path d="M19.508 36.224V34.712C21.284 34.712 22.94 34.388 24.476 33.74C26.012 33.068 27.356 32.156 28.508 31.004C29.684 29.828 30.596 28.472 31.244 26.936C31.916 25.4 32.252 23.744 32.252 21.968H33.764C33.764 23.936 33.392 25.784 32.648 27.512C31.928 29.24 30.908 30.764 29.588 32.084C28.292 33.38 26.78 34.388 25.052 35.108C23.348 35.852 21.5 36.224 19.508 36.224Z"/>
</mask>
<path d="M19.508 36.224V34.712C21.284 34.712 22.94 34.388 24.476 33.74C26.012 33.068 27.356 32.156 28.508 31.004C29.684 29.828 30.596 28.472 31.244 26.936C31.916 25.4 32.252 23.744 32.252 21.968H33.764C33.764 23.936 33.392 25.784 32.648 27.512C31.928 29.24 30.908 30.764 29.588 32.084C28.292 33.38 26.78 34.388 25.052 35.108C23.348 35.852 21.5 36.224 19.508 36.224Z" fill="#242020"/>
<path d="M19.508 36.224H19.008V36.724H19.508V36.224ZM19.508 34.712V34.212H19.008V34.712H19.508ZM24.476 33.74L24.6704 34.2007L24.6764 34.1981L24.476 33.74ZM28.508 31.004L28.1545 30.6504L28.508 31.004ZM31.244 26.936L30.7859 26.7356L30.7833 26.7416L31.244 26.936ZM32.252 21.968V21.468H31.752V21.968H32.252ZM33.764 21.968H34.264V21.468H33.764V21.968ZM32.648 27.512L32.1887 27.3143L32.1865 27.3197L32.648 27.512ZM29.588 32.084L29.9416 32.4376L29.588 32.084ZM25.052 35.108L24.8597 34.6464L24.8519 34.6498L25.052 35.108ZM20.008 36.224V34.712H19.008V36.224H20.008ZM19.508 35.212C21.3464 35.212 23.0689 34.8763 24.6704 34.2007L24.2817 33.2793C22.8111 33.8997 21.2217 34.212 19.508 34.212V35.212ZM24.6764 34.1981C26.2679 33.5018 27.6642 32.5549 28.8616 31.3576L28.1545 30.6504C27.0478 31.7571 25.7562 32.6342 24.2756 33.2819L24.6764 34.1981ZM28.8616 31.3576C30.0833 30.1358 31.0317 28.7257 31.7047 27.1304L30.7833 26.7416C30.1604 28.2183 29.2847 29.5202 28.1545 30.6504L28.8616 31.3576ZM31.7021 27.1364C32.4034 25.5335 32.752 23.8088 32.752 21.968H31.752C31.752 23.6792 31.4287 25.2665 30.7859 26.7356L31.7021 27.1364ZM32.252 22.468H33.764V21.468H32.252V22.468ZM33.264 21.968C33.264 23.8712 32.9047 25.6516 32.1888 27.3143L33.1073 27.7097C33.8794 25.9164 34.264 24.0008 34.264 21.968H33.264ZM32.1865 27.3197C31.4915 28.9876 30.5082 30.4568 29.2345 31.7304L29.9416 32.4376C31.3079 31.0712 32.3645 29.4924 33.1096 27.7043L32.1865 27.3197ZM29.2345 31.7304C27.9856 32.9793 26.5287 33.951 24.8597 34.6465L25.2443 35.5695C27.0313 34.825 28.5984 33.7807 29.9416 32.4376L29.2345 31.7304ZM24.8519 34.6498C23.2155 35.3643 21.4361 35.724 19.508 35.724V36.724C21.5639 36.724 23.4806 36.3397 25.2521 35.5662L24.8519 34.6498Z" fill="#242020" mask="url(#path-13-outside-2_36_19056)"/>
<mask id="path-15-outside-3_36_19056" maskUnits="userSpaceOnUse" x="29" y="54" width="26" height="4" fill="black">
<rect fill="white" x="29" y="54" width="26" height="4"/>
<path d="M30.0896 54.304C30.5216 54.304 30.9296 54.392 31.3136 54.568C31.6976 54.744 32.0416 54.92 32.3456 55.096C32.5216 55.192 32.7776 55.312 33.1136 55.456C33.4656 55.6 33.7936 55.672 34.0976 55.672C34.3856 55.672 34.6736 55.616 34.9616 55.504C35.2496 55.408 35.5616 55.272 35.8976 55.096C36.1696 54.936 36.4736 54.768 36.8096 54.592C37.1456 54.4 37.5696 54.304 38.0816 54.304C38.6096 54.304 39.0336 54.4 39.3536 54.592C39.6896 54.768 40.0096 54.936 40.3136 55.096C40.6496 55.272 40.9616 55.408 41.2496 55.504C41.5376 55.616 41.8256 55.672 42.1136 55.672C42.4016 55.672 42.7216 55.6 43.0736 55.456C43.4416 55.312 43.7056 55.192 43.8656 55.096C44.1696 54.92 44.5056 54.744 44.8736 54.568C45.2576 54.392 45.6656 54.304 46.0976 54.304C46.5296 54.304 46.9296 54.392 47.2976 54.568C47.6816 54.744 48.0256 54.92 48.3296 55.096C48.5056 55.192 48.7696 55.312 49.1216 55.456C49.4736 55.6 49.7936 55.672 50.0816 55.672C50.3696 55.672 50.6576 55.616 50.9456 55.504C51.2336 55.408 51.5456 55.272 51.8816 55.096C52.1696 54.936 52.4816 54.768 52.8176 54.592C53.1536 54.4 53.5776 54.304 54.0896 54.304V55.696C53.6736 55.696 53.3216 55.768 53.0336 55.912C52.7616 56.056 52.5456 56.176 52.3856 56.272C51.9856 56.48 51.6096 56.664 51.2576 56.824C50.9216 56.984 50.5296 57.064 50.0816 57.064C49.6336 57.064 49.2176 56.968 48.8336 56.776C48.4496 56.584 48.1216 56.416 47.8496 56.272C47.5136 56.096 47.2016 55.952 46.9136 55.84C46.6416 55.744 46.3696 55.696 46.0976 55.696C45.8256 55.696 45.5456 55.744 45.2576 55.84C44.9856 55.952 44.6816 56.096 44.3456 56.272C44.0736 56.432 43.7456 56.6 43.3616 56.776C42.9776 56.968 42.5616 57.064 42.1136 57.064C41.6656 57.064 41.2656 56.984 40.9136 56.824C40.5776 56.664 40.2016 56.48 39.7856 56.272C39.6256 56.176 39.4016 56.056 39.1136 55.912C38.8416 55.768 38.4976 55.696 38.0816 55.696C37.6656 55.696 37.3216 55.768 37.0496 55.912C36.7776 56.056 36.5616 56.176 36.4016 56.272C36.0016 56.48 35.6256 56.664 35.2736 56.824C34.9216 56.984 34.5296 57.064 34.0976 57.064C33.6496 57.064 33.2336 56.968 32.8496 56.776C32.4656 56.584 32.1376 56.416 31.8656 56.272C31.5296 56.096 31.2176 55.952 30.9296 55.84C30.6576 55.744 30.3776 55.696 30.0896 55.696V54.304Z"/>
</mask>
<path d="M30.0896 54.304C30.5216 54.304 30.9296 54.392 31.3136 54.568C31.6976 54.744 32.0416 54.92 32.3456 55.096C32.5216 55.192 32.7776 55.312 33.1136 55.456C33.4656 55.6 33.7936 55.672 34.0976 55.672C34.3856 55.672 34.6736 55.616 34.9616 55.504C35.2496 55.408 35.5616 55.272 35.8976 55.096C36.1696 54.936 36.4736 54.768 36.8096 54.592C37.1456 54.4 37.5696 54.304 38.0816 54.304C38.6096 54.304 39.0336 54.4 39.3536 54.592C39.6896 54.768 40.0096 54.936 40.3136 55.096C40.6496 55.272 40.9616 55.408 41.2496 55.504C41.5376 55.616 41.8256 55.672 42.1136 55.672C42.4016 55.672 42.7216 55.6 43.0736 55.456C43.4416 55.312 43.7056 55.192 43.8656 55.096C44.1696 54.92 44.5056 54.744 44.8736 54.568C45.2576 54.392 45.6656 54.304 46.0976 54.304C46.5296 54.304 46.9296 54.392 47.2976 54.568C47.6816 54.744 48.0256 54.92 48.3296 55.096C48.5056 55.192 48.7696 55.312 49.1216 55.456C49.4736 55.6 49.7936 55.672 50.0816 55.672C50.3696 55.672 50.6576 55.616 50.9456 55.504C51.2336 55.408 51.5456 55.272 51.8816 55.096C52.1696 54.936 52.4816 54.768 52.8176 54.592C53.1536 54.4 53.5776 54.304 54.0896 54.304V55.696C53.6736 55.696 53.3216 55.768 53.0336 55.912C52.7616 56.056 52.5456 56.176 52.3856 56.272C51.9856 56.48 51.6096 56.664 51.2576 56.824C50.9216 56.984 50.5296 57.064 50.0816 57.064C49.6336 57.064 49.2176 56.968 48.8336 56.776C48.4496 56.584 48.1216 56.416 47.8496 56.272C47.5136 56.096 47.2016 55.952 46.9136 55.84C46.6416 55.744 46.3696 55.696 46.0976 55.696C45.8256 55.696 45.5456 55.744 45.2576 55.84C44.9856 55.952 44.6816 56.096 44.3456 56.272C44.0736 56.432 43.7456 56.6 43.3616 56.776C42.9776 56.968 42.5616 57.064 42.1136 57.064C41.6656 57.064 41.2656 56.984 40.9136 56.824C40.5776 56.664 40.2016 56.48 39.7856 56.272C39.6256 56.176 39.4016 56.056 39.1136 55.912C38.8416 55.768 38.4976 55.696 38.0816 55.696C37.6656 55.696 37.3216 55.768 37.0496 55.912C36.7776 56.056 36.5616 56.176 36.4016 56.272C36.0016 56.48 35.6256 56.664 35.2736 56.824C34.9216 56.984 34.5296 57.064 34.0976 57.064C33.6496 57.064 33.2336 56.968 32.8496 56.776C32.4656 56.584 32.1376 56.416 31.8656 56.272C31.5296 56.096 31.2176 55.952 30.9296 55.84C30.6576 55.744 30.3776 55.696 30.0896 55.696V54.304Z" fill="#242020"/>
<path d="M30.0896 54.304V54.154H29.9396V54.304H30.0896ZM31.3136 54.568L31.3761 54.4316L31.3136 54.568ZM32.3456 55.096L32.2704 55.2259L32.2737 55.2277L32.3456 55.096ZM33.1136 55.456L33.0545 55.5939L33.0568 55.5948L33.1136 55.456ZM34.9616 55.504L34.9141 55.3615L34.9072 55.3642L34.9616 55.504ZM35.8976 55.096L35.9672 55.229L35.9736 55.2253L35.8976 55.096ZM36.8096 54.592L36.8792 54.725L36.884 54.7222L36.8096 54.592ZM39.3536 54.592L39.2762 54.7208L39.284 54.7249L39.3536 54.592ZM40.3136 55.096L40.2437 55.2287L40.244 55.2289L40.3136 55.096ZM41.2496 55.504L41.304 55.364L41.297 55.3617L41.2496 55.504ZM43.0736 55.456L43.0189 55.3163L43.0168 55.3172L43.0736 55.456ZM43.8656 55.096L43.7904 54.9662L43.7884 54.9674L43.8656 55.096ZM44.8736 54.568L44.811 54.4316L44.8088 54.4327L44.8736 54.568ZM47.2976 54.568L47.2328 54.7033L47.2351 54.7044L47.2976 54.568ZM48.3296 55.096L48.2544 55.2259L48.2577 55.2277L48.3296 55.096ZM49.1216 55.456L49.0648 55.5948L49.1216 55.456ZM50.9456 55.504L50.8981 55.3615L50.8912 55.3642L50.9456 55.504ZM51.8816 55.096L51.9512 55.2289L51.9544 55.2271L51.8816 55.096ZM52.8176 54.592L52.8872 54.725L52.892 54.7222L52.8176 54.592ZM54.0896 54.304H54.2396V54.154H54.0896V54.304ZM54.0896 55.696V55.846H54.2396V55.696H54.0896ZM53.0336 55.912L52.9665 55.7778L52.9634 55.7794L53.0336 55.912ZM52.3856 56.272L52.4549 56.4053L52.4627 56.4006L52.3856 56.272ZM51.2576 56.824L51.1955 56.6874L51.1931 56.6886L51.2576 56.824ZM48.8336 56.776L48.7665 56.9102L48.8336 56.776ZM47.8496 56.272L47.9197 56.1394L47.9192 56.1391L47.8496 56.272ZM46.9136 55.84L46.9679 55.7001L46.9635 55.6986L46.9136 55.84ZM45.2576 55.84L45.21 55.6974L45.2004 55.7013L45.2576 55.84ZM44.3456 56.272L44.2759 56.139L44.2695 56.1427L44.3456 56.272ZM43.3616 56.776L43.299 56.6396L43.2945 56.6418L43.3616 56.776ZM40.9136 56.824L40.8491 56.9594L40.8515 56.9606L40.9136 56.824ZM39.7856 56.272L39.7082 56.401L39.7185 56.4062L39.7856 56.272ZM39.1136 55.912L39.0434 56.0446L39.0465 56.0462L39.1136 55.912ZM37.0496 55.912L37.1197 56.0446H37.1197L37.0496 55.912ZM36.4016 56.272L36.4709 56.4053L36.4787 56.4006L36.4016 56.272ZM35.2736 56.824L35.3356 56.9606H35.3356L35.2736 56.824ZM32.8496 56.776L32.7825 56.9102L32.8496 56.776ZM31.8656 56.272L31.9357 56.1394L31.9352 56.1391L31.8656 56.272ZM30.9296 55.84L30.9839 55.7001L30.9795 55.6986L30.9296 55.84ZM30.0896 55.696H29.9396V55.846H30.0896V55.696ZM30.0896 54.454C30.5005 54.454 30.8871 54.5376 31.2511 54.7044L31.3761 54.4316C30.972 54.2464 30.5426 54.154 30.0896 54.154V54.454ZM31.2511 54.7044C31.6316 54.8788 31.9712 55.0526 32.2704 55.2258L32.4207 54.9662C32.1119 54.7874 31.7635 54.6092 31.3761 54.4316L31.2511 54.7044ZM32.2737 55.2277C32.4559 55.3271 32.717 55.4493 33.0545 55.5939L33.1726 55.3181C32.8381 55.1747 32.5872 55.0569 32.4174 54.9643L32.2737 55.2277ZM33.0568 55.5948C33.4224 55.7444 33.7699 55.822 34.0976 55.822V55.522C33.8172 55.522 33.5087 55.4556 33.1703 55.3172L33.0568 55.5948ZM34.0976 55.822C34.4055 55.822 34.7119 55.762 35.0159 55.6438L34.9072 55.3642C34.6352 55.47 34.3656 55.522 34.0976 55.522V55.822ZM35.009 55.6463C35.3062 55.5472 35.6257 55.4077 35.9672 55.2289L35.828 54.9631C35.4974 55.1363 35.1929 55.2688 34.9141 55.3617L35.009 55.6463ZM35.9736 55.2253C36.2431 55.0668 36.5449 54.9 36.8792 54.7249L36.74 54.4591C36.4022 54.636 36.096 54.8052 35.8215 54.9667L35.9736 55.2253ZM36.884 54.7222C37.1911 54.5467 37.5875 54.454 38.0816 54.454V54.154C37.5516 54.154 37.1 54.2533 36.7351 54.4618L36.884 54.7222ZM38.0816 54.454C38.5931 54.454 38.9874 54.5473 39.2764 54.7206L39.4307 54.4634C39.0797 54.2527 38.626 54.154 38.0816 54.154V54.454ZM39.284 54.7249C39.6199 54.9008 39.9398 55.0688 40.2437 55.2287L40.3834 54.9633C40.0793 54.8032 39.7592 54.6352 39.4232 54.4591L39.284 54.7249ZM40.244 55.2289C40.5854 55.4077 40.9049 55.5472 41.2021 55.6463L41.297 55.3617C41.0182 55.2688 40.7137 55.1363 40.3832 54.9631L40.244 55.2289ZM41.1952 55.6438C41.4992 55.762 41.8056 55.822 42.1136 55.822V55.522C41.8455 55.522 41.5759 55.47 41.3039 55.3642L41.1952 55.6438ZM42.1136 55.822C42.4262 55.822 42.7658 55.744 43.1303 55.5948L43.0168 55.3172C42.6773 55.456 42.3769 55.522 42.1136 55.522V55.822ZM43.1282 55.5957C43.4974 55.4512 43.7713 55.3275 43.9427 55.2246L43.7884 54.9674C43.6398 55.0565 43.3857 55.1728 43.0189 55.3163L43.1282 55.5957ZM43.9407 55.2258C44.2408 55.0521 44.5733 54.8779 44.9383 54.7033L44.8088 54.4327C44.4378 54.6101 44.0983 54.7879 43.7904 54.9662L43.9407 55.2258ZM44.9361 54.7044C45.3 54.5376 45.6866 54.454 46.0976 54.454V54.154C45.6445 54.154 45.2151 54.2464 44.8111 54.4316L44.9361 54.7044ZM46.0976 54.454C46.5085 54.454 46.8862 54.5376 47.2328 54.7033L47.3623 54.4327C46.9729 54.2464 46.5506 54.154 46.0976 54.154V54.454ZM47.2351 54.7044C47.6156 54.8788 47.9552 55.0526 48.2544 55.2258L48.4047 54.9662C48.0959 54.7874 47.7475 54.6092 47.3601 54.4316L47.2351 54.7044ZM48.2577 55.2277C48.4412 55.3277 48.7113 55.4502 49.0648 55.5948L49.1783 55.3172C48.8278 55.1738 48.5699 55.0563 48.4014 54.9643L48.2577 55.2277ZM49.0648 55.5948C49.4293 55.744 49.7689 55.822 50.0816 55.822V55.522C49.8182 55.522 49.5178 55.456 49.1783 55.3172L49.0648 55.5948ZM50.0816 55.822C50.3895 55.822 50.6959 55.762 50.9999 55.6438L50.8912 55.3642C50.6192 55.47 50.3496 55.522 50.0816 55.522V55.822ZM50.993 55.6463C51.2902 55.5472 51.6097 55.4077 51.9512 55.2289L51.812 54.9631C51.4814 55.1363 51.1769 55.2688 50.8981 55.3617L50.993 55.6463ZM51.9544 55.2271C52.2412 55.0678 52.5521 54.9004 52.8872 54.7249L52.748 54.4591C52.411 54.6356 52.0979 54.8042 51.8087 54.9649L51.9544 55.2271ZM52.892 54.7222C53.1991 54.5467 53.5955 54.454 54.0896 54.454V54.154C53.5596 54.154 53.108 54.2533 52.7431 54.4618L52.892 54.7222ZM53.9396 54.304V55.696H54.2396V54.304H53.9396ZM54.0896 55.546C53.6568 55.546 53.2805 55.6208 52.9665 55.7778L53.1006 56.0462C53.3626 55.9152 53.6903 55.846 54.0896 55.846V55.546ZM52.9634 55.7794C52.6903 55.924 52.4717 56.0454 52.3084 56.1434L52.4627 56.4006C52.6194 56.3066 52.8328 56.188 53.1037 56.0446L52.9634 55.7794ZM52.3163 56.1389C51.9183 56.3459 51.5447 56.5287 51.1955 56.6874L51.3196 56.9606C51.6744 56.7993 52.0528 56.6141 52.4548 56.4051L52.3163 56.1389ZM51.1931 56.6886C50.8809 56.8372 50.5117 56.914 50.0816 56.914V57.214C50.5474 57.214 50.9622 57.1308 51.322 56.9594L51.1931 56.6886ZM50.0816 56.914C49.6558 56.914 49.2629 56.823 48.9006 56.6418L48.7665 56.9102C49.1722 57.113 49.6113 57.214 50.0816 57.214V56.914ZM48.9006 56.6418C48.5173 56.4502 48.1904 56.2827 47.9197 56.1394L47.7794 56.4046C48.0527 56.5493 48.3818 56.7178 48.7665 56.9102L48.9006 56.6418ZM47.9192 56.1391C47.5793 55.9611 47.2621 55.8146 46.9679 55.7002L46.8592 55.9798C47.141 56.0894 47.4478 56.2309 47.78 56.4049L47.9192 56.1391ZM46.9635 55.6986C46.6764 55.5972 46.3876 55.546 46.0976 55.546V55.846C46.3515 55.846 46.6067 55.8908 46.8636 55.9814L46.9635 55.6986ZM46.0976 55.546C45.8077 55.546 45.5117 55.5972 45.2101 55.6977L45.305 55.9823C45.5795 55.8908 45.8434 55.846 46.0976 55.846V55.546ZM45.2004 55.7013C44.9232 55.8155 44.6149 55.9616 44.276 56.1391L44.4152 56.4049C44.7482 56.2304 45.0479 56.0885 45.3147 55.9787L45.2004 55.7013ZM44.2695 56.1427C44.0031 56.2994 43.6799 56.4651 43.2991 56.6396L43.4241 56.9124C43.8112 56.7349 44.144 56.5646 44.4216 56.4013L44.2695 56.1427ZM43.2945 56.6418C42.9322 56.823 42.5393 56.914 42.1136 56.914V57.214C42.5838 57.214 43.0229 57.113 43.4286 56.9102L43.2945 56.6418ZM42.1136 56.914C41.6836 56.914 41.3053 56.8373 40.9756 56.6874L40.8515 56.9606C41.2258 57.1307 41.6475 57.214 42.1136 57.214V56.914ZM40.978 56.6886C40.6431 56.5291 40.268 56.3455 39.8526 56.1378L39.7185 56.4062C40.1351 56.6145 40.512 56.7989 40.8491 56.9594L40.978 56.6886ZM39.8627 56.1434C39.6979 56.0445 39.47 55.9225 39.1806 55.7778L39.0465 56.0462C39.3331 56.1895 39.5532 56.3075 39.7084 56.4006L39.8627 56.1434ZM39.1837 55.7794C38.8839 55.6207 38.5138 55.546 38.0816 55.546V55.846C38.4813 55.846 38.7992 55.9153 39.0434 56.0446L39.1837 55.7794ZM38.0816 55.546C37.6493 55.546 37.2792 55.6207 36.9794 55.7794L37.1197 56.0446C37.3639 55.9153 37.6818 55.846 38.0816 55.846V55.546ZM36.9794 55.7794C36.7063 55.924 36.4877 56.0454 36.3244 56.1434L36.4787 56.4006C36.6354 56.3066 36.8488 56.188 37.1197 56.0446L36.9794 55.7794ZM36.3323 56.1389C35.9343 56.3459 35.5607 56.5287 35.2115 56.6874L35.3356 56.9606C35.6904 56.7993 36.0688 56.6141 36.4708 56.4051L36.3323 56.1389ZM35.2115 56.6874C34.8811 56.8376 34.5107 56.914 34.0976 56.914V57.214C34.5484 57.214 34.962 57.1304 35.3356 56.9606L35.2115 56.6874ZM34.0976 56.914C33.6718 56.914 33.2789 56.823 32.9166 56.6418L32.7825 56.9102C33.1882 57.113 33.6273 57.214 34.0976 57.214V56.914ZM32.9166 56.6418C32.5333 56.4502 32.2064 56.2827 31.9357 56.1394L31.7954 56.4046C32.0687 56.5493 32.3978 56.7178 32.7825 56.9102L32.9166 56.6418ZM31.9352 56.1391C31.5953 55.9611 31.2781 55.8146 30.9839 55.7002L30.8752 55.9798C31.157 56.0894 31.4638 56.2309 31.796 56.4049L31.9352 56.1391ZM30.9795 55.6986C30.6915 55.5969 30.3946 55.546 30.0896 55.546V55.846C30.3605 55.846 30.6236 55.8911 30.8796 55.9814L30.9795 55.6986ZM30.2396 55.696V54.304H29.9396V55.696H30.2396Z" fill="black" mask="url(#path-15-outside-3_36_19056)"/>
<path d="M62.5516 48.5938C60.8242 48.5938 59.4956 46.6153 59.4956 44.9192C59.4956 43.7259 59.9477 42.3436 60.5853 40.4281C60.6652 40.1458 60.7709 39.8624 60.8775 39.5486C61.1817 38.6508 61.4498 37.6778 61.858 36.8359C62.1365 36.261 62.8429 36.262 63.111 36.844C63.4917 37.6707 63.7512 38.5665 64.1466 39.6116C65.2629 42.564 65.5817 43.7573 65.5817 44.9507C65.6075 46.6153 64.2523 48.5938 62.5516 48.5938Z" fill="url(#paint2_radial_36_19056)"/>
<path d="M64.4198 46.3299C64.0288 47.0429 63.1445 46.9078 63.1445 45.7236C63.1445 44.967 63.2752 41.0781 63.8252 41.6215C64.7198 42.5071 64.975 45.3214 64.4198 46.3299Z" fill="#81D4FA"/>
<defs>
<filter id="filter0_f_36_19056" x="48" y="39" width="36" height="30" filterUnits="userSpaceOnUse" color-interpolation-filters="sRGB">
<feFlood flood-opacity="0" result="BackgroundImageFix"/>
<feBlend mode="normal" in="SourceGraphic" in2="BackgroundImageFix" result="shape"/>
<feGaussianBlur stdDeviation="3.5" result="effect1_foregroundBlur_36_19056"/>
</filter>
<filter id="filter1_f_36_19056" x="58.6" y="48.6" width="13.8" height="11.8" filterUnits="userSpaceOnUse" color-interpolation-filters="sRGB">
<feFlood flood-opacity="0" result="BackgroundImageFix"/>
<feBlend mode="normal" in="SourceGraphic" in2="BackgroundImageFix" result="shape"/>
<feGaussianBlur stdDeviation="0.7" result="effect1_foregroundBlur_36_19056"/>
</filter>
<filter id="filter2_f_36_19056" x="0" y="39" width="36" height="30" filterUnits="userSpaceOnUse" color-interpolation-filters="sRGB">
<feFlood flood-opacity="0" result="BackgroundImageFix"/>
<feBlend mode="normal" in="SourceGraphic" in2="BackgroundImageFix" result="shape"/>
<feGaussianBlur stdDeviation="3.5" result="effect1_foregroundBlur_36_19056"/>
</filter>
<filter id="filter3_f_36_19056" x="10.6" y="48.6" width="13.8" height="11.8" filterUnits="userSpaceOnUse" color-interpolation-filters="sRGB">
<feFlood flood-opacity="0" result="BackgroundImageFix"/>
<feBlend mode="normal" in="SourceGraphic" in2="BackgroundImageFix" result="shape"/>
<feGaussianBlur stdDeviation="0.7" result="effect1_foregroundBlur_36_19056"/>
</filter>
<linearGradient id="paint0_linear_36_19056" x1="43" y1="-1.09798e-07" x2="43" y2="80" gradientUnits="userSpaceOnUse">
<stop stop-color="#71CF93"/>
<stop offset="1" stop-color="#59B15C"/>
</linearGradient>
<linearGradient id="paint1_linear_36_19056" x1="42.75" y1="-0.25" x2="42.75" y2="43.25" gradientUnits="userSpaceOnUse">
<stop stop-color="#85DFAF"/>
<stop offset="1" stop-color="#69C581"/>
</linearGradient>
<radialGradient id="paint2_radial_36_19056" cx="0" cy="0" r="1" gradientUnits="userSpaceOnUse" gradientTransform="translate(62.7699 37.9558) scale(6.8184 12.4095)">
<stop offset="0.46" stop-color="#29B6F6"/>
<stop offset="1" stop-color="#1E88E5"/>
</radialGradient>
</defs>
</svg>
