<svg width="64" height="93" viewBox="0 0 64 93" fill="none" xmlns="http://www.w3.org/2000/svg">
<path d="M45.4455 60.9843C45.4147 60.9308 45.3876 60.877 45.3641 60.8229L59.6494 54.6132C61.028 55.6805 61.409 57.2861 60.7926 59.43L59.7234 59.5274L45.4455 60.9843Z" fill="#E7E2DA"/>
<path d="M44.8861 61.0394L43.9201 58.5974L58.6753 52.1275C59.5954 52.2518 59.92 53.0804 59.6493 54.6131L45.3639 60.8229L44.8861 61.0394Z" fill="#637480"/>
<path d="M59.7233 59.5273C60.5575 62.612 61.15 65.7457 61.5011 68.9286C59.802 71.1401 57.5162 72.8811 54.6437 74.1514C50.7098 70.3914 47.6437 66.0023 45.4454 60.9843L59.7233 59.5273Z" fill="#FFE0B1"/>
<path d="M42.9845 50.1176C43.9146 48.2294 45.404 46.8494 47.4525 45.9776L47.5019 45.9647C47.8863 45.8031 48.2596 45.6748 48.6218 45.5799C51.9312 44.6214 55.2824 46.804 58.6753 52.1276L43.9201 58.5975L42.702 55.6276C41.9655 53.8716 42.0596 52.0349 42.9845 50.1176Z" fill="#7E95A3"/>
<path d="M47.132 76.4812C47.7321 72.9831 48.7088 70.3143 50.062 68.4749L60.046 68.4406C60.8716 68.4267 61.2672 68.7955 61.2326 69.547L61.182 70.1171C60.8346 78.3748 58.2826 82.5193 53.5262 82.5507C51.8419 82.587 50.1357 82.4098 48.4075 82.0189C47.2594 81.7798 46.7131 81.248 46.7688 80.4235L46.7738 80.1691C46.8658 79.1663 46.9637 78.1958 47.0675 77.2574L47.0764 77.3057L47.132 76.4812ZM59.8182 71.993C59.7979 71.6946 59.3678 71.4192 58.5278 71.1669C57.7206 70.9059 56.7219 70.7289 55.5315 70.6358C54.3141 70.5836 53.3015 70.6127 52.4935 70.7232C51.6257 70.8831 51.1989 71.0961 51.2133 71.3623C51.2006 71.6694 51.5979 71.9534 52.405 72.2143C53.218 72.5075 54.2361 72.6963 55.4594 72.7807C56.6498 72.8738 57.6625 72.8447 58.4974 72.6934C59.3653 72.5335 59.8056 72.3001 59.8182 71.993Z" fill="#FFE0B1"/>
<path d="M58.5279 71.167C59.3679 71.4193 59.798 71.6947 59.8183 71.9931C59.8057 72.3002 59.3654 72.5336 58.4975 72.6935C57.6626 72.8448 56.6499 72.8739 55.4595 72.7808C54.2362 72.6964 53.2181 72.5076 52.4051 72.2144C51.598 71.9535 51.2007 71.6695 51.2134 71.3624C51.199 71.0962 51.6258 70.8832 52.4936 70.7233C53.3016 70.6128 54.3142 70.5837 55.5316 70.6359C56.722 70.729 57.7208 70.906 58.5279 71.167ZM47.0676 77.2575C44.512 74.9912 45.5102 72.0637 50.0621 68.475C48.7089 70.3144 47.7322 72.9832 47.1322 76.4813L47.0765 77.3058L47.0676 77.2575Z" fill="#E7CBA0"/>
<path d="M11.509 86.1002L12.1772 83.2002H29.9272L29.4319 85.2002L11.509 86.1002Z" fill="#916B4E"/>
<path d="M9.83713 92.8502L11.509 86.1002L29.4319 85.2002L27.2255 87.8502H28.7755C29.8269 88.4502 30.675 89.4002 31.3196 90.7002L30.7871 92.8502H9.83713Z" fill="#AA7E5C"/>
<path d="M12.1774 83.2L13.0195 79.8H30.7695L29.9274 83.2H12.1774Z" fill="#E0C1A2"/>
<path d="M17.4147 72.3501C19.5608 70.6834 21.8672 69.8501 24.3339 69.8501H24.3839C26.8506 69.8501 28.7275 70.6834 30.0147 72.3501C31.327 74.0501 31.6818 76.1168 31.0791 78.5501L30.7695 79.8001H13.0195L13.3291 78.5501C13.9318 76.1168 15.2936 74.0501 17.4147 72.3501Z" fill="#ECCFB1"/>
<path d="M35.9524 86.1002L35.5881 83.2002H53.3381L53.5548 85.2002L35.9524 86.1002Z" fill="#916B4E"/>
<path d="M36.6838 92.8502L35.9524 86.1002L53.5549 85.2002L52.2921 87.8502H53.8421C55.1071 88.4502 56.2933 89.4002 57.4009 90.7002L57.6338 92.8502H36.6838Z" fill="#AA7E5C"/>
<path d="M35.5881 83.2L35.2197 79.8H52.9697L53.3381 83.2H35.5881Z" fill="#E0C1A2"/>
<path d="M36.9625 72.3501C38.5152 70.6834 40.5249 69.8501 42.9916 69.8501H43.0416C45.5083 69.8501 47.6819 70.6834 49.5625 72.3501C51.48 74.0501 52.5706 76.1168 52.8343 78.5501L52.9697 79.8001H35.2197L35.0843 78.5501C34.8206 76.1168 35.4467 74.0501 36.9625 72.3501Z" fill="#ECCFB1"/>
<path d="M53.3501 78.1499V74.0999H27.7501H16.8001H14.3501V78.1499H53.3501ZM22.2501 49.5499C21.8168 48.7832 21.3168 47.9832 20.7501 47.1499H14.3501V64.5999C22.9501 63.1332 26.1168 59.2499 23.8501 52.9499L21.5501 51.7499C21.6501 50.9832 21.8834 50.2499 22.2501 49.5499ZM53.3501 47.1499H47.2501C48.1834 49.2499 48.3834 51.4499 47.8501 53.7499C47.0501 57.8499 48.8834 60.4666 53.3501 61.5999V47.1499Z" fill="#B8824D"/>
<path d="M35.95 59.0499L47.25 47.1499H24.05L35.95 59.0499Z" fill="#E0C79A"/>
<path d="M47.85 53.7499C48.3834 51.4499 48.1834 49.2499 47.25 47.1499L35.95 59.0499L47.85 53.7499ZM22.25 49.5499C21.8834 50.2499 21.65 50.9832 21.55 51.7499L23.85 52.9499L35.95 59.0499L24.05 47.1499C23.2834 47.8832 22.6834 48.6832 22.25 49.5499Z" fill="#637480"/>
<path d="M23.8501 52.9499C26.1168 59.2499 22.9501 63.1332 14.3501 64.5999V74.0999H16.8001L24.0501 69.0499L27.7501 74.0999H53.3501V61.5999C48.8834 60.4666 47.0501 57.8499 47.8501 53.7499L35.9501 59.0499L23.8501 52.9499ZM37.1001 62.6499C36.7668 62.3499 36.6001 61.9999 36.6001 61.5999C36.6001 61.1999 36.7668 60.8332 37.1001 60.4999C37.4001 60.1999 37.7501 60.0499 38.1501 60.0499C38.5501 60.0499 38.9001 60.1999 39.2001 60.4999C39.5001 60.8332 39.6501 61.1999 39.6501 61.5999C39.6501 61.9999 39.5001 62.3499 39.2001 62.6499C38.9001 62.9499 38.5501 63.0999 38.1501 63.0999C37.7501 63.0999 37.4001 62.9499 37.1001 62.6499ZM35.7501 66.9499C38.1501 66.9499 40.2001 67.1666 41.9001 67.5999C43.4334 68.0332 44.2834 68.5166 44.4501 69.0499H27.1001C27.2334 68.5166 28.0668 68.0332 29.6001 67.5999C31.3001 67.1666 33.3501 66.9499 35.7501 66.9499ZM20.7501 47.1499C21.3168 47.9832 21.8168 48.7832 22.2501 49.5499C22.6834 48.6832 23.2834 47.8832 24.0501 47.1499H20.7501Z" fill="#7E95A3"/>
<path d="M41.9001 67.6C40.2001 67.1666 38.1501 66.95 35.7501 66.95C33.3501 66.95 31.3001 67.1666 29.6001 67.6C28.0668 68.0333 27.2334 68.5166 27.1001 69.05H44.4501C44.2834 68.5166 43.4334 68.0333 41.9001 67.6Z" fill="#738895"/>
<path d="M36.6 61.5998C36.6 61.9998 36.7667 62.3498 37.1 62.6498C37.4 62.9498 37.75 63.0998 38.15 63.0998C38.55 63.0998 38.9 62.9498 39.2 62.6498C39.5 62.3498 39.65 61.9998 39.65 61.5998C39.65 61.1998 39.5 60.8331 39.2 60.4998C38.9 60.1998 38.55 60.0498 38.15 60.0498C37.75 60.0498 37.4 60.1998 37.1 60.4998C36.7667 60.8331 36.6 61.1998 36.6 61.5998ZM24.05 69.0498L16.8 74.0998H27.75L24.05 69.0498Z" fill="#E7E2DA"/>
<path d="M19.4378 61.4832C19.473 61.4296 19.5047 61.3758 19.5327 61.3218L5.76873 55.1175C4.30059 56.1853 3.78475 57.7911 4.22122 59.9348L5.28218 60.0318L19.4378 61.4832Z" fill="#E7E2DA"/>
<path d="M19.9923 61.538L21.1633 59.0956L6.95123 52.6313C6.02073 52.756 5.62651 53.5847 5.76858 55.1174L19.5326 61.3217L19.9923 61.538Z" fill="#637480"/>
<path d="M5.28211 60.0318C4.18899 63.1168 3.33332 66.2509 2.71509 69.434C4.22844 71.6449 6.36807 73.3849 9.13397 74.6542C13.3835 70.8925 16.8181 66.5022 19.4377 61.4833L5.28211 60.0318Z" fill="#FFE0B1"/>
<path d="M22.811 50.6151C22.0393 48.7272 20.6658 47.3478 18.6905 46.4769L18.6422 46.4639C18.2713 46.3025 17.9088 46.1743 17.5546 46.0796C14.3257 45.1224 10.7912 47.3063 6.95132 52.6313L21.1634 59.0955L22.6308 56.1252C23.5148 54.3688 23.5748 52.5321 22.811 50.6151Z" fill="#7E95A3"/>
<path d="M18.5541 70.2448C16.5409 67.3678 14.5557 65.4324 12.5984 64.4385L3.93736 69.3992C3.21639 69.7994 3.0313 70.3321 3.38209 70.9973L3.66932 71.4897C7.49578 78.8156 11.4753 81.3036 15.6079 78.954C17.082 78.1449 18.484 77.1308 19.8138 75.9118C20.706 75.1205 20.9521 74.3644 20.5518 73.6435L20.4388 73.4149C19.9311 72.5502 19.4319 71.7177 18.9414 70.9174L18.9543 70.9657L18.5541 70.2448ZM5.65131 72.5116C5.54147 72.2304 5.79642 71.7652 6.41617 71.1161C7.00372 70.4755 7.79308 69.8154 8.78426 69.1357C9.81625 68.4796 10.7057 67.9997 11.4525 67.696C12.2724 67.4073 12.7329 67.3874 12.8341 67.6364C12.9762 67.9089 12.7534 68.3654 12.1659 69.006C11.587 69.6788 10.7858 70.3593 9.76244 71.0476C8.77127 71.7273 7.88184 72.2072 7.09417 72.4873C6.2743 72.776 5.79335 72.7841 5.65131 72.5116Z" fill="#FFE0B1"/>
<path d="M6.41622 71.116C5.79647 71.7652 5.54151 72.2303 5.65136 72.5115C5.7934 72.784 6.27435 72.7759 7.09422 72.4872C7.88189 72.2071 8.77131 71.7272 9.76249 71.0476C10.7859 70.3592 11.587 69.6787 12.1659 69.0059C12.7535 68.3654 12.9762 67.9088 12.8342 67.6363C12.733 67.3874 12.2724 67.4072 11.4526 67.6959C10.7057 67.9996 9.8163 68.4795 8.7843 69.1356C7.79313 69.8153 7.00377 70.4754 6.41622 71.116ZM18.9415 70.9174C20.1871 67.5813 18.0728 65.4217 12.5985 64.4384C14.5557 65.4323 16.541 67.3678 18.5542 70.2447L18.9544 70.9657L18.9415 70.9174Z" fill="#E7CBA0"/>
<path d="M38.4637 53.2247C39.6503 52.4894 40.4898 51.6448 40.982 50.6909L21.7893 50.1797C22.2301 51.1584 23.0233 52.0465 24.1691 52.8439C26.1004 54.1958 28.4656 54.909 31.2645 54.9836C34.0634 55.0581 36.4632 54.4718 38.4637 53.2247Z" fill="#D7BD93"/>
<path d="M45.8944 42.7691C48.9649 43.9179 50.9383 42.4367 51.8147 38.3253C51.896 36.5269 51.9277 34.7105 51.9098 32.8761C51.8387 30.5401 51.6518 28.1677 51.3492 25.7588C50.995 22.7817 49.3351 21.2537 46.3696 21.1747L16.0312 20.3666C13.099 20.2885 11.3592 21.7593 10.812 24.7791C10.3762 27.3683 10.0733 29.9778 9.90323 32.6074C11.8694 40.1623 14.6064 43.1861 18.1144 41.679C18.8887 41.3996 19.6789 41.1539 20.4848 40.9419C23.8101 40.0302 27.522 39.6289 31.6205 39.7381C37.0851 39.8836 41.843 40.894 45.8944 42.7691Z" fill="#FFE0B1"/>
<path d="M50.9614 45.955C51.3954 43.4324 51.6799 40.8891 51.8149 38.3252C50.9384 42.4366 48.965 43.9179 45.8946 42.769C41.8432 40.8939 37.0852 39.8835 31.6206 39.738C27.5222 39.6288 23.8103 40.0301 20.4849 40.9418C19.679 41.1538 18.8889 41.3995 18.1145 41.679C14.6066 43.186 11.8695 40.1622 9.90337 32.6073C9.62405 36.8346 9.74413 41.0892 10.2636 45.3711C10.3205 45.7394 10.3949 46.0748 10.4869 46.3774C10.5744 46.8465 10.7299 47.2675 10.9534 47.6402C11.7465 49.1618 13.176 49.9502 15.2419 50.0052L21.7894 50.1796L40.982 50.6908L45.5803 50.8133C48.3792 50.8879 50.0974 49.5999 50.7349 46.9493C50.7735 46.7503 50.8117 46.5679 50.8495 46.4022C50.8872 46.2365 50.9245 46.0874 50.9614 45.955Z" fill="#E7E2DA"/>
<path d="M38.8227 28.476L38.9361 31.7301L47.4928 29.7073C45.1732 27.9116 42.2832 27.5011 38.8227 28.476ZM28.9892 29.6145L29.277 26.3211C25.8743 25.1301 22.9665 25.3861 20.5537 27.0891L28.9892 29.6145Z" fill="#544B4B"/>
<path d="M39.7488 44.4058C40.018 44.313 40.2224 44.1517 40.3619 43.922C40.4681 43.6914 40.4914 43.442 40.4319 43.1736C40.339 42.9044 40.1773 42.7167 39.9467 42.6105C39.717 42.471 39.468 42.431 39.1996 42.4906C35.6042 43.5285 32.5129 43.1627 29.9258 41.3933C29.697 41.2205 29.4484 41.1638 29.1801 41.2234C28.9126 41.2496 28.7092 41.3775 28.5697 41.6072C28.3969 41.836 28.3402 42.0846 28.3998 42.353C28.426 42.6204 28.5535 42.8405 28.7823 43.0134C31.8261 45.1618 35.4816 45.6259 39.7488 44.4058Z" fill="#7F7058"/>
<path d="M27.3192 32.221C26.6723 31.4702 25.8324 31.081 24.7995 31.0535C23.7665 31.026 22.8738 31.369 22.1212 32.0825C21.4344 32.8311 21.0772 33.7219 21.0497 34.7548C21.0222 35.7878 21.3319 36.6797 21.9788 37.4305C22.6914 38.2164 23.5642 38.6231 24.5971 38.6506C25.6301 38.6781 26.4899 38.3175 27.1768 37.5689C27.9294 36.8554 28.3194 35.9822 28.3469 34.9492C28.3744 33.9163 28.0319 33.0069 27.3192 32.221ZM45.9121 32.7162C45.2652 31.9654 44.4253 31.5763 43.3924 31.5487C42.3595 31.5212 41.4667 31.8642 40.7141 32.5778C40.0273 33.3264 39.6701 34.2172 39.6426 35.2501C39.6151 36.283 39.9248 37.1749 40.5717 37.9257C41.2843 38.7116 42.1571 39.1183 43.19 39.1458C44.223 39.1734 45.0829 38.8128 45.7697 38.0642C46.5223 37.3506 46.9123 36.4774 46.9398 35.4445C46.9673 34.4115 46.6248 33.5021 45.9121 32.7162Z" fill="white"/>
<path d="M26.889 37.1112C27.3381 36.5229 27.5742 35.7956 27.5973 34.9293C27.6204 34.063 27.4238 33.3075 27.0075 32.6629C26.6236 32.0524 26.1318 31.7392 25.532 31.7233C24.9322 31.7073 24.4078 31.9934 23.9586 32.5816C23.5419 33.2041 23.322 33.9485 23.2989 34.8148C23.2759 35.6811 23.4563 36.4195 23.8401 37.03C24.2564 37.6746 24.7645 38.0049 25.3642 38.0209C25.964 38.0368 26.4723 37.7336 26.889 37.1112ZM43.7325 37.5598C44.1817 36.9716 44.4178 36.2443 44.4409 35.378C44.4639 34.5116 44.2673 33.7561 43.851 33.1115C43.4672 32.5011 42.9753 32.1879 42.3756 32.1719C41.7758 32.1559 41.2513 32.4421 40.8022 33.0303C40.3855 33.6527 40.1656 34.3971 40.1425 35.2635C40.1194 36.1298 40.2998 36.8682 40.6837 37.4786C41.1 38.1232 41.608 38.4535 42.2078 38.4695C42.8076 38.4855 43.3158 38.1823 43.7325 37.5598Z" fill="#7F7058"/>
<path d="M47.3608 2.74492C47.7751 2.32861 48.282 2.07536 48.8815 1.98517C43.1726 0.999495 36.498 1.83871 28.8579 4.50281C28.6904 4.53169 28.5225 4.57723 28.3541 4.63943C24.5254 5.67115 20.1318 7.25468 15.1733 9.39001L13.8412 12.4556L10.7784 11.0235L7.59976 17.6911C5.60067 22.6395 6.42278 29.3302 10.0661 37.7633L16.4605 23.0288C22.6315 12.7418 32.9316 5.98052 47.3608 2.74492ZM46.1787 5.81445L49.7778 24.6665L51.9599 32.8773L53.5055 16.163L46.1787 5.81445Z" fill="#5D5454"/>
<path d="M34.3392 24.0551C39.1158 25.2401 44.2621 25.4439 49.7779 24.6664L46.1788 5.8144C46.3566 4.41386 46.7506 3.39069 47.3609 2.74487C32.9317 5.98046 22.6316 12.7418 16.4606 23.0287C20.0634 21.2918 23.7749 20.9072 27.595 21.8748C29.5919 22.5102 31.2597 23.7384 32.5985 25.5593L34.3392 24.0551Z" fill="#544B4B"/>
</svg>
