<svg width="80" height="96" viewBox="0 0 80 96" fill="none" xmlns="http://www.w3.org/2000/svg">
<path d="M47.2999 86.95L47.4499 81.95H35.5499L35.3999 86.95H47.2499H47.2999Z" fill="#4C4EAA"/>
<path d="M52.9999 92.95L47.2499 86.95H35.3999L35.1499 92.95H52.9999Z" fill="white"/>
<path d="M52.9 95.95L53 92.95H35.15L35 95.95H52.9Z" fill="#EEA160"/>
<path d="M47.9 72.75C47.9 71.15 47.2667 69.7833 46 68.65C44.7667 67.5166 43.25 66.95 41.45 66.95C39.6833 66.95 38.1667 67.5166 36.9 68.65C35.6333 69.7833 35 71.15 35 72.75L35.55 81.95H47.45L47.9 72.75Z" fill="#676AC6"/>
<path d="M20.7001 86.95L20.5501 81.95H32.4501L32.6001 86.95H20.7501H20.7001Z" fill="#4C4EAA"/>
<path d="M15.0001 92.95L20.7501 86.95H32.6001L32.8501 92.95H15.0001Z" fill="white"/>
<path d="M15.1 95.95L15 92.95H32.85L33 95.95H15.1Z" fill="#EEA160"/>
<path d="M20.1 72.75C20.1 71.15 20.7333 69.7833 22 68.65C23.2333 67.5166 24.75 66.95 26.55 66.95C28.3167 66.95 29.8333 67.5166 31.1 68.65C32.3667 69.7833 33 71.15 33 72.75L32.45 81.95H20.55L20.1 72.75Z" fill="#676AC6"/>
<path d="M54.8352 69.2451C52.8293 67.8449 50.9482 66.2366 49.1918 64.4201C51.0274 61.047 53.9079 58.2817 57.8334 56.1242C58.556 56.9045 59.312 57.6247 60.1014 58.2848C61.8946 59.8351 63.9479 61.0582 66.2615 61.9542C67.7638 62.5293 68.8501 63.5623 69.5204 65.0533C70.1498 66.5678 70.1888 68.0966 69.6373 69.6397C69.03 71.1334 67.9648 72.2111 66.4416 72.8728C64.9829 73.5516 63.4702 73.5949 61.9035 73.0026C60.0964 72.2768 58.4044 71.4438 56.8273 70.5036C56.1386 70.112 55.4745 69.6925 54.8352 69.2451Z" fill="#BF7958"/>
<path d="M43.2223 52.3127C43.6772 50.7437 44.6191 49.5467 46.0479 48.7218C47.5004 47.9377 48.9907 47.7849 50.5189 48.2634C52.0965 48.6861 53.2861 49.5915 54.0874 50.9795C55.1544 52.9218 56.403 54.6368 57.8334 56.1243C53.908 58.2818 51.0274 61.0471 49.1919 64.4202C47.1354 62.1783 45.3145 59.6371 43.729 56.7966C43.0006 55.3936 42.8317 53.899 43.2223 52.3127Z" fill="#E7F3FC"/>
<path d="M49.427 67.0196L46.4803 64.1077L57.0634 53.5886L59.9748 56.4392L49.427 67.0196Z" fill="#BFD4E5"/>
<path d="M3.10004 64.4C3.93337 62.1 5.00004 59.8666 6.30004 57.7C10.0334 58.6 13.45 60.6666 16.55 63.9C15.9834 64.8 15.4834 65.7166 15.05 66.65C14.0167 68.7833 13.3667 71.0833 13.1 73.55C12.9334 75.15 12.2167 76.4666 10.95 77.5C9.65004 78.5 8.18337 78.9333 6.55004 78.8C4.95004 78.6 3.63337 77.85 2.60004 76.55C1.56671 75.3166 1.13337 73.8666 1.30004 72.2C1.53337 70.2666 1.90004 68.4166 2.40004 66.65C2.60004 65.8833 2.83337 65.1333 3.10004 64.4Z" fill="#BF7958"/>
<path d="M16.4501 48.8C18.0834 48.8334 19.4834 49.4334 20.6501 50.6C21.7834 51.8 22.3167 53.2 22.2501 54.8C22.2501 56.4334 21.6834 57.8167 20.5501 58.95C18.9501 60.4834 17.6167 62.1334 16.5501 63.9C13.4501 60.6667 10.0334 58.6 6.30006 57.7C7.93339 55.1334 9.91673 52.7167 12.2501 50.45C13.4167 49.3834 14.8167 48.8334 16.4501 48.8Z" fill="#E7F3FC"/>
<path d="M3.85005 58.6L5.90005 55L18.8 62.5L16.8 66.05L3.85005 58.6Z" fill="#BFD4E5"/>
<path d="M48.6 72.8501V67.9001H18.55V72.8501H48.6Z" fill="#BFD4E5"/>
<path d="M47.1 78.0501C48.0334 76.7834 48.5334 75.0501 48.6 72.8501H18.55C18.6167 75.0501 19.1167 76.7834 20.05 78.0501H47.1Z" fill="#676AC6"/>
<path d="M51.8 54.2501C52.5 50.6501 51.6333 48.9168 49.2 49.0501H17.9C15.4667 48.9168 14.6 50.6501 15.3 54.2501L18.55 67.9001H48.6L51.8 54.2501Z" fill="#E7F3FC"/>
<path d="M41.5999 41.6C39.4999 39.9 36.9832 39.05 34.0499 39.05C31.1166 39.05 28.5999 39.9 26.4999 41.6C24.4332 43.4 23.3999 45.55 23.3999 48.05C23.3999 48.2167 23.4166 48.3834 23.4499 48.55C23.5499 50.8167 24.5666 52.75 26.4999 54.35C28.5999 56.15 31.1166 57.05 34.0499 57.05C36.9832 57.05 39.4999 56.15 41.5999 54.35C43.5332 52.75 44.5499 50.8167 44.6499 48.55C44.6832 48.3834 44.6999 48.2167 44.6999 48.05C44.6999 45.55 43.6666 43.4 41.5999 41.6Z" fill="#A8603F"/>
<path d="M30.85 68.1001L16.75 69.3501C17.0167 70.9834 17.3 72.7168 17.6 74.5501L30.05 73.0501C30.3833 71.5168 30.65 69.8668 30.85 68.1001Z" fill="#D78B49"/>
<path d="M30.85 68.1C31.0834 65.7667 31.1667 63.25 31.1 60.55C26.6 57.7167 23.0334 53.4167 20.4 47.65L15.85 46.8C14.4834 49.2667 14.7834 56.7834 16.75 69.35L30.85 68.1Z" fill="#EEA160"/>
<path d="M50.85 69.3501L36.75 68.1001C36.95 69.8668 37.2167 71.5168 37.55 73.0501L50 74.5501C50.3 72.7168 50.5833 70.9834 50.85 69.3501Z" fill="#D78B49"/>
<path d="M36.5 60.55C36.4333 63.25 36.5167 65.7667 36.75 68.1L50.85 69.35C52.8167 56.7834 53.1167 49.2667 51.75 46.8L47.2 47.65C44.5667 53.4167 41 57.7167 36.5 60.55Z" fill="#EEA160"/>
<path d="M20.9499 48.05L18.8999 51.65L31.9999 59.25L34.0499 55.6L20.9499 48.05ZM47.1499 48.05L34.0499 55.6L36.0999 59.25L49.1999 51.65L47.1499 48.05Z" fill="#BFD4E5"/>
<path d="M36.1 59.2501L34.05 55.6001L32 59.2501H36.1Z" fill="#E7F3FC"/>
<path d="M73.1497 57.7L72.1997 57.65C68.0665 57.9834 64.8665 59.2501 62.5999 61.4501C66.8998 55.6501 70.433 54.3834 73.1997 57.65L73.1497 57.7Z" fill="#A8603F"/>
<path d="M63.9 73.9C63 73.8667 62.55 73.3667 62.55 72.4L62.5999 61.4502C64.8665 59.2502 68.0664 57.9835 72.1997 57.6501L73.1496 57.7001L73.1996 57.6501C74.2996 57.6167 75.4663 57.6167 76.6996 57.65H77.0996C78.0329 57.65 78.6329 58.3667 78.8996 59.8C79.3663 61.8999 79.583 63.9499 79.5497 65.9499C79.5164 71.6164 74.5999 74.2665 64.8 73.9H63.9Z" fill="#BF7958"/>
<path d="M16.8501 83.5L16.9001 82.55C16.5668 78.4166 15.3001 75.2166 13.1001 72.95C18.9001 77.25 20.1668 80.7833 16.9001 83.55L16.8501 83.5Z" fill="#A8603F"/>
<path d="M0.650048 74.2499C0.683381 73.3499 1.18338 72.8999 2.15005 72.8999L13.1 72.9499C15.3 75.2166 16.5667 78.4166 16.9 82.5499L16.85 83.4999L16.9 83.5499C16.9334 84.6499 16.9334 85.8166 16.9 87.0499V87.4499C16.9 88.3832 16.1834 88.9832 14.75 89.2499C12.65 89.7166 10.6 89.9332 8.60005 89.8999C2.93338 89.8666 0.283381 84.9499 0.650048 75.1499V74.2499Z" fill="#BF7958"/>
<path d="M48.6449 40.5499C44.7257 37.9499 39.9774 36.6499 34.4001 36.6499C28.8227 36.6499 24.0242 37.9499 20.0045 40.5499C16.0853 43.2166 14.1257 46.3999 14.1257 50.0999C14.1257 53.7999 16.0853 56.9499 20.0045 59.5499C24.0242 62.2166 28.8227 63.5499 34.4001 63.5499C39.9774 63.5499 44.7257 62.2166 48.6449 59.5499C52.6645 56.9499 54.6744 53.7999 54.6744 50.0999C54.6744 46.3999 52.6645 43.2166 48.6449 40.5499Z" fill="url(#paint0_radial_19_19830)"/>
<path d="M45.5616 6.22545L42.2958 1.9306C32.5325 1.9705 23.4719 3.02247 15.114 5.08651C10.4188 6.14459 8.44676 8.58243 9.19798 12.4L9.53771 14.0777C9.97339 11.6668 11.9644 10.0636 15.5107 9.26796C23.8714 7.23714 32.9334 6.20178 42.6966 6.16188L45.5616 6.22545ZM56.389 9.74309L56.4352 8.48499C56.5892 4.69271 54.5915 2.58388 50.4423 2.15848L46.2177 6.27142L50.839 6.33994C53.7399 6.63466 55.5899 7.76905 56.389 9.74309Z" fill="#454A51"/>
<path d="M50.839 6.33985L46.2176 6.27134L45.8438 6.60334L45.5616 6.22537L42.6966 6.1618C32.9334 6.20169 23.8714 7.23705 15.5107 9.26787C11.9644 10.0635 9.97335 11.6667 9.53767 14.0776L13.3823 33.2251C13.9873 36.0849 16.0005 37.373 19.422 37.0894L50.4153 34.5207C53.87 34.2343 55.6437 32.6324 55.7364 29.7148L56.389 9.74301C55.5899 7.76896 53.7399 6.63458 50.839 6.33985Z" fill="#3C3E41"/>
<path d="M10.3553 33.0246C8.92343 34.7153 8.29972 36.6735 8.48418 38.8991C8.66865 41.1248 9.60622 42.9536 11.2969 44.3854C13.0263 45.881 14.9707 46.5393 17.1299 46.3604C19.3223 46.1787 21.1484 45.2079 22.608 43.448C24.0066 41.7601 24.6137 39.8033 24.4293 37.5776C24.2448 35.3519 23.3238 33.5218 21.6664 32.0871C19.9369 30.5916 17.976 29.9346 15.7836 30.1163C13.6243 30.2953 11.8149 31.2647 10.3553 33.0246ZM13.4032 41.9532C12.396 41.1002 11.8359 39.9927 11.723 38.6307C11.6157 37.3351 11.9857 36.1505 12.8333 35.0769C13.6863 34.0697 14.7606 33.5124 16.0561 33.405C17.4181 33.2921 18.6027 33.6622 19.6099 34.5152C20.6226 35.4347 21.1827 36.5422 21.2901 37.8378C21.403 39.1997 21.0329 40.3843 20.1798 41.3916C19.3295 42.432 18.2234 43.0086 16.8614 43.1215C15.5659 43.2289 14.4132 42.8395 13.4032 41.9532ZM47.2283 29.9685C45.7964 31.6592 45.1727 33.6174 45.3572 35.8431C45.5416 38.0687 46.4792 39.8975 48.1699 41.3294C49.8993 42.825 51.8436 43.4833 54.0029 43.3043C56.1953 43.1226 58.0213 42.1518 59.4809 40.3919C60.8796 38.704 61.4867 36.7472 61.3022 34.5215C61.1178 32.2959 60.1968 30.4657 58.5393 29.0311C56.8099 27.5355 54.849 26.8786 52.6565 27.0603C50.4973 27.2392 48.6879 28.2087 47.2283 29.9685ZM49.7062 32.0208C50.5593 31.0136 51.6336 30.4563 52.9291 30.349C54.2579 30.2388 55.4425 30.6089 56.4829 31.4592C57.4956 32.3787 58.0557 33.4862 58.163 34.7817C58.2759 36.1437 57.9058 37.3283 57.0528 38.3355C56.1693 39.3787 55.0632 39.9554 53.7344 40.0655C52.4389 40.1729 51.2861 39.7834 50.2762 38.8972C49.2357 38.0469 48.6591 36.9407 48.5462 35.5788C48.4388 34.2832 48.8255 33.0973 49.7062 32.0208Z" fill="#BF7958"/>
<path d="M11.7231 38.6307C11.836 39.9927 12.396 41.1002 13.4032 41.9532C14.4132 42.8395 15.566 43.2289 16.8615 43.1216C18.2235 43.0087 19.3296 42.432 20.1799 41.3916C21.0329 40.3844 21.403 39.1998 21.2901 37.8378C21.1828 36.5423 20.6227 35.4347 19.61 34.5153C18.6028 33.6622 17.4182 33.2922 16.0562 33.405C14.7607 33.5124 13.6864 34.0697 12.8333 35.0769C11.9858 36.1506 11.6157 37.3352 11.7231 38.6307ZM52.9292 30.349C51.6336 30.4564 50.5594 31.0137 49.7063 32.0209C48.8256 33.0973 48.4389 34.2833 48.5462 35.5788C48.6591 36.9408 49.2358 38.0469 50.2762 38.8972C51.2862 39.7834 52.4389 40.1729 53.7345 40.0655C55.0632 39.9554 56.1694 39.3787 57.0529 38.3355C57.9059 37.3283 58.276 36.1437 58.1631 34.7817C58.0557 33.4862 57.4957 32.3787 56.483 31.4592C55.4425 30.6089 54.2579 30.2389 52.9292 30.349Z" fill="#A8603F"/>
<path d="M48.1705 49.2062C51.7196 48.4438 53.5863 46.3491 53.7705 42.9222L54.2639 16.7926L12.5576 20.2493L18.3732 51.6758L48.1705 49.2062Z" fill="#BF7958"/>
<path d="M22.2712 35.1475C22.3675 36.3102 22.8155 37.2765 23.6152 38.0464C24.4868 38.8772 25.5205 39.2431 26.7164 39.144C27.8458 39.0504 28.7554 38.5234 29.4451 37.5632C30.1403 36.6694 30.4397 35.6412 30.3434 34.4785C30.247 33.3159 29.7824 32.3509 28.9495 31.5838C28.1139 30.7834 27.1314 30.4301 26.0019 30.5237C24.8061 30.6228 23.8453 31.1372 23.1196 32.067C22.4576 32.958 22.1748 33.9849 22.2712 35.1475ZM24.775 35.0905L24.7543 34.8414C24.7297 34.141 24.9127 33.5238 25.3033 32.9898C25.7243 32.4197 26.267 32.1072 26.9313 32.0521C27.6289 31.9943 28.2323 32.2118 28.7414 32.7048C29.2146 33.1673 29.4966 33.746 29.5877 34.4408L29.6083 34.6899C29.6302 35.3571 29.4458 35.9577 29.0553 36.4918C28.6343 37.0618 28.075 37.3757 27.3774 37.4336C26.713 37.4886 26.1262 37.2697 25.6171 36.7767C25.144 36.3142 24.8633 35.7522 24.775 35.0905ZM40.507 36.6464C41.4118 37.4745 42.4455 37.8403 43.6082 37.744C44.7709 37.6476 45.6638 37.1221 46.2871 36.1673C47.0487 35.268 47.3814 34.237 47.285 33.0744C47.1886 31.9117 46.6908 30.9496 45.7915 30.1879C45.0223 29.3821 44.0564 29.0273 42.8937 29.1237C41.7311 29.22 40.7703 29.7345 40.0114 30.667C39.3494 31.558 39.0666 32.5849 39.163 33.7475C39.2593 34.9102 39.7073 35.8765 40.507 36.6464ZM43.6401 31.47C44.1464 31.9297 44.4451 32.507 44.5362 33.2019L44.5568 33.451C44.5787 34.1181 44.3777 34.7201 43.954 35.2569C43.5662 35.8242 43.0401 36.1354 42.3757 36.1905C41.7113 36.2455 41.0913 36.0294 40.5158 35.5419C40.0759 35.0767 39.8118 34.5132 39.7235 33.8516L39.6946 33.5028C39.6755 32.8689 39.8446 32.2863 40.2019 31.755C40.6894 31.1794 41.2653 30.8641 41.9297 30.809C42.5941 30.754 43.1642 30.9743 43.6401 31.47Z" fill="white"/>
<path d="M24.7543 34.8413L24.7749 35.0905C24.8632 35.7521 25.1439 36.3141 25.6171 36.7766C26.1262 37.2696 26.713 37.4885 27.3773 37.4335C28.0749 37.3757 28.6342 37.0617 29.0552 36.4917C29.4458 35.9576 29.6301 35.357 29.6083 34.6899L29.5876 34.4407C29.4966 33.7459 29.2145 33.1672 28.7414 32.7047C28.2323 32.2118 27.6289 31.9942 26.9313 32.052C26.2669 32.1071 25.7242 32.4196 25.3032 32.9897C24.9127 33.5238 24.7297 34.141 24.7543 34.8413ZM44.5361 33.2018C44.4451 32.5069 44.1464 31.9297 43.6401 31.4699C43.1642 30.9742 42.594 30.7539 41.9296 30.8089C41.2653 30.864 40.6893 31.1793 40.2019 31.7549C39.8446 32.2862 39.6755 32.8688 39.6945 33.5027L39.7235 33.8515C39.8117 34.5131 40.0758 35.0766 40.5158 35.5418C41.0913 36.0293 41.7113 36.2455 42.3757 36.1904C43.04 36.1353 43.5661 35.8242 43.9539 35.2569C44.3777 34.72 44.5786 34.1181 44.5568 33.4509L44.5361 33.2018Z" fill="#3C3E41"/>
<path d="M31.5284 31.2196L31.4923 28.3629L20.6881 28.7567L20.774 31.6093L31.5284 31.2196ZM37.5713 27.8591L38.006 30.6828L48.6778 29.2966L48.293 26.4687L37.5713 27.8591Z" fill="#3C3E41"/>
<path d="M34.8798 38.9691C32.5213 39.1646 30.5681 39.8115 29.0202 40.9097C27.5637 41.9001 26.7854 43.0014 26.6852 44.2138C26.6325 44.3854 26.6476 44.5681 26.7306 44.762C26.8108 44.9225 26.9228 45.0638 27.0667 45.1856C27.2106 45.3075 27.3836 45.3768 27.5857 45.3935C30.4783 45.5885 33.1415 45.0333 35.5753 43.7279C38.1575 44.6176 40.8758 44.7268 43.73 44.0554C43.9266 44.0057 44.0858 43.9089 44.2077 43.765C44.3295 43.6211 44.4168 43.4633 44.4695 43.2917C44.5194 43.0869 44.5209 42.9028 44.4739 42.7395C44.1422 41.5629 43.1766 40.6061 41.5769 39.869C39.8361 39.0433 37.8031 38.7269 35.4778 38.9196C35.3781 38.9278 35.2785 38.9361 35.1788 38.9444C35.0791 38.9526 34.9795 38.9609 34.8798 38.9691Z" fill="#3C3E41"/>
<path d="M37.6618 38.6383C38.2876 38.1182 38.5744 37.5425 38.5221 36.9114C38.4725 36.3134 38.0949 35.7929 37.3892 35.3496C36.689 34.9729 35.8573 34.8244 34.8939 34.9042C33.9638 34.9813 33.1845 35.2633 32.5559 35.7502C31.9328 36.3036 31.646 36.8792 31.6956 37.4772C31.7479 38.1083 32.1255 38.6289 32.8284 39.0389C33.5341 39.4821 34.352 39.6652 35.2821 39.5881C36.2455 39.5083 37.0387 39.1917 37.6618 38.6383Z" fill="#955435"/>
<path d="M13.3961 20.6814L13.3463 20.6855C12.6901 20.8402 12.1696 21.2178 11.7845 21.8184C11.394 22.3524 11.2761 22.9475 11.4308 23.6036L14.6458 39.3918C14.7645 40.0174 15.1089 40.5408 15.679 40.9618C16.2435 41.3164 16.8538 41.4163 17.51 41.2616L17.5598 41.2574C18.2187 41.1359 18.7254 40.7929 19.08 40.2284C19.4345 39.6638 19.5497 39.0355 19.4254 38.3434L16.2187 22.6549C16.0612 21.9656 15.7002 21.4436 15.1357 21.0891C14.6044 20.7317 14.0245 20.5958 13.3961 20.6814ZM51.8093 18.0495C51.3441 18.4895 51.0905 19.0624 51.0487 19.7682L50.4685 35.7706C50.4599 36.4737 50.6769 37.0744 51.1196 37.5729C51.5623 38.0714 52.1185 38.3263 52.7884 38.3377L52.8383 38.3335C53.4777 38.3809 54.0466 38.1832 54.5451 37.7405C55.0713 37.2287 55.3414 36.6544 55.3555 36.0177L55.9275 19.9157C55.9721 19.2431 55.7578 18.6755 55.2847 18.213C54.806 17.6841 54.2304 17.3974 53.5577 17.3528L53.5079 17.3569C52.8408 17.3787 52.2746 17.6096 51.8093 18.0495Z" fill="#3C3E41"/>
<path d="M48.8059 21.1584C52.945 19.444 54.9402 17.6899 54.7916 15.8961C54.6456 14.1355 52.3999 12.8667 48.0542 12.0896C43.7751 11.3071 38.636 11.248 32.6372 11.9125C26.7075 12.6046 21.6731 13.8079 17.534 15.5222C13.4308 17.2671 11.4522 19.0198 11.5981 20.7804C11.7468 22.5742 13.9759 23.8444 18.2856 24.591C22.634 25.4013 27.773 25.4603 33.7027 24.7682C39.7015 24.1038 44.7359 22.9005 48.8059 21.1584Z" fill="#3C3E41"/>
<defs>
<radialGradient id="paint0_radial_19_19830" cx="0" cy="0" r="1" gradientUnits="userSpaceOnUse" gradientTransform="translate(34.4001 50.0999) scale(20.4816 13.5875)">
<stop stop-opacity="0.301961"/>
<stop offset="1" stop-opacity="0"/>
</radialGradient>
</defs>
</svg>
