<svg width="80" height="108" viewBox="0 0 80 108" fill="none" xmlns="http://www.w3.org/2000/svg">
<g clip-path="url(#clip0_19_19745)">
<path d="M47.2499 98.95H47.2999L47.4499 93.95H35.5499L35.3999 98.95H47.2499Z" fill="#D78B49"/>
<path d="M53 104.95L47.25 98.95H35.4L35 107.95H52.9L53 104.95Z" fill="#BF7958"/>
<path d="M47.9 84.75C47.9 83.15 47.2667 81.7833 46 80.65C44.7667 79.5166 43.25 78.95 41.45 78.95C39.6833 78.95 38.1667 79.5166 36.9 80.65C35.6333 81.7833 35 83.15 35 84.75L35.55 93.95H47.45L47.9 84.75Z" fill="#EEA160"/>
<path d="M20.7501 98.95H20.7001L20.5501 93.95H32.4501L32.6001 98.95H20.7501Z" fill="#D78B49"/>
<path d="M15 104.95L20.75 98.95H32.6L33 107.95H15.1L15 104.95Z" fill="#BF7958"/>
<path d="M20.1 84.75C20.1 83.15 20.7333 81.7833 22 80.65C23.2333 79.5166 24.75 78.95 26.55 78.95C28.3167 78.95 29.8333 79.5166 31.1 80.65C32.3667 81.7833 33 83.15 33 84.75L32.45 93.95H20.55L20.1 84.75Z" fill="#EEA160"/>
<path d="M49.1916 76.4202C47.1352 74.1783 45.3142 71.6371 43.7287 68.7966C43.0004 67.3936 42.8315 65.899 43.222 64.3127C43.677 62.7437 44.6188 61.5467 46.0477 60.7218C47.5001 59.9377 48.9904 59.7849 50.5186 60.2634C52.0963 60.6861 53.2858 61.5915 54.0872 62.9795C55.1541 64.9218 56.4028 66.6368 57.8332 68.1243C53.9077 70.2818 51.0272 73.0471 49.1916 76.4202Z" fill="#3DBF7B"/>
<path d="M56.8273 82.5036C56.1386 82.112 55.4745 81.6925 54.8352 81.2451C52.8293 79.8449 50.9482 78.2366 49.1918 76.4201C51.0274 73.047 53.9079 70.2817 57.8334 68.1242C58.556 68.9045 59.312 69.6247 60.1014 70.2848L56.8273 82.5036Z" fill="white"/>
<path d="M60.1011 70.2849C61.8942 71.8352 63.9476 73.0583 66.2612 73.9543C67.7635 74.5294 68.8498 75.5624 69.5201 77.0533C70.1495 78.5678 70.1885 80.0967 69.6369 81.6398C69.0296 83.1335 67.9644 84.2112 66.4413 84.8728C64.9826 85.5517 63.4698 85.595 61.9031 85.0026C60.0961 84.2769 58.404 83.4439 56.827 82.5037L60.1011 70.2849Z" fill="#FFD7B1"/>
<path d="M49.4268 79.0196L46.4801 76.1077L57.0632 65.5886L59.9745 68.4392L49.4268 79.0196Z" fill="#25A863"/>
<path d="M6.29982 69.7C7.93315 67.1334 9.91648 64.7167 12.2498 62.45C13.4165 61.3834 14.8165 60.8334 16.4498 60.8C18.0831 60.8334 19.4831 61.4334 20.6498 62.6C21.7831 63.8 22.3165 65.2 22.2498 66.8C22.2498 68.4334 21.6831 69.8167 20.5498 70.95C18.9498 72.4834 17.6165 74.1334 16.5498 75.9C13.4498 72.6667 10.0331 70.6 6.29982 69.7Z" fill="#3DBF7B"/>
<path d="M2.3998 78.65C2.5998 77.8833 2.83314 77.1333 3.0998 76.4C3.93314 74.1 4.9998 71.8666 6.2998 69.7C10.0331 70.6 13.4498 72.6666 16.5498 75.9C15.9831 76.8 15.4831 77.7166 15.0498 78.65H2.3998Z" fill="white"/>
<path d="M15.0498 78.6501C14.0165 80.7835 13.3665 83.0835 13.0998 85.5501C12.9331 87.1501 12.2165 88.4668 10.9498 89.5001C9.64979 90.5001 8.18314 90.9335 6.5498 90.8001C4.9498 90.6001 3.63314 89.8501 2.5998 88.5501C1.56647 87.3168 1.13314 85.8668 1.2998 84.2001C1.53314 82.2668 1.8998 80.4168 2.3998 78.6501H15.0498Z" fill="#FFD7B1"/>
<path d="M3.84979 70.6L5.89979 67L18.7998 74.5L16.7998 78.05L3.84979 70.6Z" fill="#25A863"/>
<path d="M48.55 79.9001H18.5V84.8501H48.55V79.9001Z" fill="#BF7958"/>
<path d="M18.5 84.8501C18.5667 87.0501 19.0667 88.7834 20 90.0501H47.05C47.9833 88.7834 48.4833 87.0501 48.55 84.8501H18.5Z" fill="#EEA160"/>
<path d="M48.5502 79.9001L51.7502 66.2501C52.4502 62.6501 51.5835 60.9168 49.1502 61.0501H17.8502C15.4169 60.9168 14.5502 62.6501 15.2502 66.2501L18.5002 79.9001H48.5502Z" fill="#3DBF7B"/>
<path d="M16.4502 77L21.3502 78.35L25.2502 63.8H20.0002L16.4502 77ZM46.6502 78.35L51.5502 77L48.0002 63.8H42.7502L46.6502 78.35Z" fill="#BF7958"/>
<path d="M44 60.05C44 57.55 42.9833 55.4 40.95 53.6C38.8833 51.9 36.4 51.05 33.5 51.05C30.6 51.05 28.1167 51.9 26.05 53.6C24.0167 55.4 23 57.55 23 60.05C23 60.2167 23.0167 60.3834 23.05 60.55C23.15 62.8167 24.15 64.75 26.05 66.35C28.1167 68.15 30.6 69.05 33.5 69.05C36.4 69.05 38.8833 68.15 40.95 66.35C42.85 64.75 43.85 62.8167 43.95 60.55C43.9833 60.3834 44 60.2167 44 60.05Z" fill="#F0C49A"/>
<path d="M20.9001 60.05L18.8501 63.65L31.9501 71.25L34.0001 67.6L20.9001 60.05ZM47.1001 60.05L34.0001 67.6L36.0501 71.25L49.1501 63.65L47.1001 60.05Z" fill="#25A863"/>
<path d="M36.0502 71.2501L34.0002 67.6001L31.9502 71.2501H36.0502Z" fill="#3DBF7B"/>
<path d="M73.1495 69.7L72.1995 69.65C68.0662 69.9834 64.8663 71.2501 62.5997 73.4501C66.8995 67.6501 70.4328 66.3834 73.1995 69.65L73.1495 69.7Z" fill="#F0C49A"/>
<path d="M63.9 85.9C63 85.8667 62.55 85.3667 62.55 84.4L62.5999 73.4502C64.8665 71.2502 68.0664 69.9835 72.1997 69.6501L73.1496 69.7001L73.1996 69.6501C74.2996 69.6167 75.4663 69.6167 76.6996 69.65H77.0996C78.0329 69.65 78.6329 70.3667 78.8996 71.8C79.3663 73.8999 79.583 75.9499 79.5497 77.9499C79.5164 83.6164 74.5999 86.2665 64.8 85.9H63.9Z" fill="#FFD7B1"/>
<path d="M16.8501 95.5L16.9001 94.55C16.5668 90.4166 15.3001 87.2166 13.1001 84.95C18.9001 89.25 20.1668 92.7833 16.9001 95.55L16.8501 95.5Z" fill="#F0C49A"/>
<path d="M0.650292 86.2499C0.683625 85.3499 1.18363 84.8999 2.15029 84.8999L13.1003 84.9499C15.3003 87.2166 16.567 90.4166 16.9003 94.5499L16.8503 95.4999L16.9003 95.5499C16.9336 96.6499 16.9336 97.8166 16.9003 99.0499V99.4499C16.9003 100.383 16.1836 100.983 14.7503 101.25C12.6503 101.717 10.6003 101.933 8.60029 101.9C2.93363 101.867 0.283626 96.9499 0.650292 87.1499V86.2499Z" fill="#FFD7B1"/>
<path d="M48.6446 52.5499C44.7254 49.9499 39.9771 48.6499 34.3998 48.6499C28.8225 48.6499 24.024 49.9499 20.0043 52.5499C16.0851 55.2166 14.1255 58.3999 14.1255 62.0999C14.1255 65.7999 16.0851 68.9499 20.0043 71.5499C24.024 74.2166 28.8225 75.5499 34.3998 75.5499C39.9771 75.5499 44.7254 74.2166 48.6446 71.5499C52.6643 68.9499 54.6742 65.7999 54.6742 62.0999C54.6742 58.3999 52.6643 55.2166 48.6446 52.5499Z" fill="url(#paint0_radial_19_19745)"/>
<path d="M10.8539 44.9833C9.42198 46.674 8.79827 48.6322 8.98274 50.8579C9.1672 53.0835 10.1048 54.9123 11.7955 56.3442C13.5221 57.8065 15.4651 58.4482 17.6243 58.2693C19.8167 58.0876 21.6441 57.1334 23.1065 55.4067C24.5052 53.7188 25.1123 51.762 24.9278 49.5363C24.7433 47.3107 23.8224 45.4805 22.1649 44.0459C20.4355 42.5503 18.4746 41.8934 16.2821 42.0751C14.1229 42.254 12.3135 43.2234 10.8539 44.9833ZM13.9017 53.9119C12.8945 53.0589 12.3344 51.9514 12.2216 50.5894C12.1142 49.2939 12.4843 48.1093 13.3318 47.0356C14.1516 46.0312 15.2259 45.4739 16.5547 45.3637C17.9166 45.2509 19.1012 45.6209 20.1085 46.474C21.1212 47.3935 21.6812 48.501 21.7886 49.7965C21.9015 51.1585 21.5314 52.3431 20.6784 53.3503C19.8281 54.3907 18.722 54.9674 17.36 55.0803C16.0312 55.1904 14.8785 54.801 13.9017 53.9119ZM53.2049 39.0149C51.0457 39.1939 49.2363 40.1633 47.7767 41.9232C46.3448 43.6138 45.7211 45.572 45.9055 47.7977C46.09 50.0233 47.0276 51.8521 48.7183 53.284C50.4449 54.7464 52.3879 55.3881 54.5471 55.2091C56.7395 55.0274 58.5669 54.0732 60.0293 52.3466C61.428 50.6586 62.0351 48.7018 61.8506 46.4762C61.6661 44.2505 60.7452 42.4203 59.0877 40.9857C57.3583 39.4901 55.3974 38.8332 53.2049 39.0149ZM54.2828 52.0201C52.954 52.1302 51.8013 51.7408 50.8245 50.8518C49.7841 50.0015 49.2074 48.8954 49.0945 47.5334C48.9872 46.2378 49.3739 45.0519 50.2546 43.9755C51.0744 42.971 52.1487 42.4137 53.4775 42.3036C54.8062 42.1934 55.9908 42.5635 57.0313 43.4138C58.044 44.3333 58.604 45.4408 58.7114 46.7363C58.8243 48.0983 58.4542 49.2829 57.6012 50.2901C56.7177 51.3333 55.6115 51.91 54.2828 52.0201Z" fill="#FFD7B1"/>
<path d="M12.2214 50.5895C12.3343 51.9514 12.8943 53.0589 13.9015 53.912C14.8783 54.801 16.031 55.1904 17.3598 55.0803C18.7218 54.9674 19.8279 54.3908 20.6782 53.3503C21.5312 52.3431 21.9013 51.1585 21.7884 49.7965C21.6811 48.501 21.121 47.3935 20.1083 46.474C19.1011 45.621 17.9165 45.2509 16.5545 45.3638C15.2257 45.4739 14.1514 46.0312 13.3316 47.0357C12.4841 48.1093 12.114 49.2939 12.2214 50.5895ZM50.8243 50.8518C51.8011 51.7408 52.9538 52.1303 54.2826 52.0201C55.6114 51.91 56.7175 51.3333 57.601 50.2901C58.454 49.2829 58.8241 48.0983 58.7112 46.7364C58.6039 45.4408 58.0438 44.3333 57.0311 43.4138C55.9906 42.5635 54.806 42.1935 53.4773 42.3036C52.1485 42.4137 51.0743 42.971 50.2544 43.9755C49.3737 45.0519 48.987 46.2379 49.0944 47.5334C49.2072 48.8954 49.7839 50.0015 50.8243 50.8518Z" fill="#E7B687"/>
<path d="M48.723 61.2105C52.2693 60.4149 54.1512 58.3022 54.3687 54.8726L54.8456 28.5437L12.9399 32.0168L18.826 63.6884L48.723 61.2105Z" fill="#FFD7B1"/>
<path d="M52.5129 8.2674L41.0096 21.4123C29.2963 18.1018 18.0094 20.7431 7.1489 29.336L16.0256 40.1898L15.6002 35.0574C16.1235 34.9137 16.6453 34.7534 17.1658 34.5765C17.2682 34.6014 17.3706 34.6264 17.473 34.6514C21.0904 35.9236 25.3905 36.3532 30.3734 35.9402C35.323 35.53 39.4771 34.3997 42.8357 32.5493C43.7632 32.0376 44.5579 31.5369 45.2197 31.0473C48.3366 31.1234 51.4686 31.3823 54.6158 31.8238L55.0907 37.5541L59.2308 27.5782C60.2786 24.4811 60.8377 21.5416 60.9081 18.7596C59.9715 14.7233 57.1731 11.2259 52.5129 8.2674Z" fill="#BF7958"/>
<path d="M41.0096 21.4123L52.5129 8.26745C57.1731 11.2259 59.9715 14.7233 60.9081 18.7597C61.0912 11.6872 58.0836 5.66514 51.8852 0.693542L40.6379 16.9277C28.3549 12.3935 16.6552 15.9052 5.53868 27.4627L7.1489 29.3361C18.0094 20.7431 29.2963 18.1019 41.0096 21.4123Z" fill="#DB855C"/>
<path d="M31.2643 40.0307L30.0326 36.671L21.1621 39.8144L22.4436 43.1699L31.2643 40.0307Z" fill="#BF7958"/>
<path d="M22.8525 48.1028C22.9489 49.2655 23.3982 50.2484 24.2006 51.0515C25.0695 51.8491 26.1018 52.1984 27.2977 52.0993C28.4272 52.0057 29.3381 51.4953 30.0306 50.5683C30.7562 49.6386 31.0709 48.5923 30.9745 47.4297C30.8782 46.267 30.3969 45.3035 29.5308 44.5391C28.698 43.772 27.7168 43.4352 26.5874 43.5288C25.3915 43.6279 24.4294 44.1257 23.7009 45.0223C23.0389 45.9133 22.7561 46.9402 22.8525 48.1028ZM29.2732 45.0622C29.7961 45.7212 30.0974 46.5324 30.1773 47.4958C30.2599 48.4923 30.0962 49.3421 29.6862 50.045C29.2817 50.8144 28.7306 51.2279 28.033 51.2858C27.3686 51.3408 26.7736 51.0222 26.248 50.33C25.7279 49.7041 25.4265 48.8929 25.3439 47.8964C25.2641 46.933 25.4278 46.0833 25.835 45.3471C26.2423 44.611 26.7781 44.2154 27.4425 44.1603C28.1401 44.1025 28.7503 44.4031 29.2732 45.0622ZM43.4792 42.1288C42.3498 42.2224 41.4042 42.7189 40.6426 43.6182C39.9806 44.5092 39.6978 45.536 39.7941 46.6987C39.8905 47.8614 40.3399 48.8443 41.1423 49.6474C42.0443 50.4422 43.0601 50.7929 44.1895 50.6993C45.3522 50.6029 46.2631 50.0926 46.9224 49.1683C47.6812 48.2358 48.0125 47.1882 47.9162 46.0256C47.8198 44.8629 47.322 43.9007 46.4227 43.1391C45.623 42.3692 44.6419 42.0324 43.4792 42.1288ZM40.3422 46.6533C40.2624 45.6899 40.4095 44.8416 40.7835 44.1082C41.2572 43.3665 41.8096 42.9696 42.4408 42.9172C43.1052 42.8622 43.6822 43.1655 44.1718 43.8274C44.7279 44.4837 45.0459 45.2935 45.1258 46.2568C45.2084 47.2534 45.028 48.1045 44.5848 48.8102C44.2136 49.5768 43.6957 49.9876 43.0313 50.0427C42.4002 50.095 41.7886 49.7778 41.1965 49.091C40.7096 48.4624 40.4248 47.6499 40.3422 46.6533Z" fill="white"/>
<path d="M30.1773 47.4959C30.0975 46.5325 29.7961 45.7213 29.2733 45.0623C28.7504 44.4032 28.1401 44.1026 27.4425 44.1604C26.7782 44.2155 26.2424 44.6111 25.8351 45.3472C25.4279 46.0834 25.2642 46.9331 25.344 47.8965C25.4266 48.893 25.728 49.7042 26.2481 50.3301C26.7737 51.0223 27.3687 51.3409 28.0331 51.2859C28.7307 51.228 29.2817 50.8145 29.6862 50.0451C30.0962 49.3422 30.2599 48.4924 30.1773 47.4959ZM40.7836 44.1083C40.4096 44.8417 40.2625 45.69 40.3423 46.6534C40.4249 47.65 40.7097 48.4625 41.1966 49.0911C41.7887 49.7779 42.4003 50.0951 43.0314 50.0428C43.6958 49.9877 44.2136 49.5769 44.5849 48.8103C45.0281 48.1046 45.2084 47.2535 45.1258 46.2569C45.046 45.2936 44.728 44.4838 44.1719 43.8275C43.6823 43.1657 43.1052 42.8623 42.4409 42.9173C41.8097 42.9697 41.2573 43.3666 40.7836 44.1083Z" fill="#BF7958"/>
<path d="M39.532 38.6931L39.3269 42.2722L48.6567 42.8535L48.9614 39.2662L39.532 38.6931Z" fill="#BF7958"/>
<path d="M38.2431 51.5934C38.9021 51.0705 39.2069 50.5101 39.1573 49.9121C39.105 49.281 38.7094 48.7452 37.9705 48.3047C37.2703 47.9279 36.4386 47.7794 35.4752 47.8593C34.5451 47.9364 33.7657 48.2184 33.1371 48.7053C32.5473 49.2559 32.2785 49.8468 32.3308 50.4779C32.3804 51.0759 32.74 51.5812 33.4097 51.994C34.1154 52.4372 34.9333 52.6202 35.8634 52.5432C36.8268 52.4633 37.62 52.1467 38.2431 51.5934Z" fill="#E7B687"/>
<path d="M11.9334 35.6122L15.0904 51.3048C15.2119 51.9637 15.5742 52.5023 16.1775 52.9205C16.7421 53.2751 17.3524 53.375 18.0085 53.2203L18.0583 53.2162C18.7172 53.0947 19.2239 52.7516 19.5785 52.1871C19.9303 51.5893 20.0455 50.961 19.924 50.3022L16.7172 34.6137C16.5598 33.9243 16.1988 33.4024 15.6342 33.0478C15.1029 32.6905 14.5064 32.556 13.8448 32.6442L13.795 32.6484C13.1721 32.8003 12.6681 33.1766 12.2831 33.7771C11.8925 34.3112 11.776 34.9229 11.9334 35.6122ZM52.3577 30.0042C51.8592 30.4468 51.5891 31.0211 51.5472 31.727L51.0169 47.7252C51.0055 48.3951 51.2225 48.9958 51.668 49.5275C52.0774 50.0287 52.6171 50.285 53.287 50.2964L53.3368 50.2923C54.0094 50.3369 54.595 50.1378 55.0934 49.6951C55.6196 49.1833 55.8884 48.5924 55.8998 47.9225L56.48 31.9202C56.5218 31.2143 56.3062 30.6301 55.833 30.1677C55.3544 29.6387 54.7787 29.352 54.1061 29.3074L54.0563 29.3115C53.3891 29.3333 52.8229 29.5642 52.3577 30.0042Z" fill="#BF7958"/>
<path d="M38.8549 57.1619L38.5906 53.9728L30.9668 54.6047C30.7343 54.624 30.5253 54.7249 30.3397 54.9075C30.1154 55.0265 29.9963 55.2036 29.9824 55.4389C29.9297 55.6105 29.9476 55.8264 30.0361 56.0866C30.0968 56.4161 30.242 56.7552 30.4716 57.1041C30.657 57.3229 30.8603 57.5569 31.0817 57.8061L38.8549 57.1619Z" fill="white"/>
<path d="M42.3982 53.9082C42.1851 53.7586 41.9623 53.6935 41.7298 53.7128L38.5906 53.9729L38.8549 57.162L31.0817 57.8062C31.3113 58.1551 31.6018 58.432 31.9533 58.637C33.3534 59.792 34.9836 60.2924 36.8439 60.1382C38.6377 59.9895 40.1481 59.2456 41.375 57.9063L41.4705 57.8482C41.9302 57.3419 42.3 56.7594 42.5799 56.1007C42.7489 55.7187 42.8695 55.3575 42.9416 55.0171C42.9528 54.7486 42.9183 54.5341 42.8381 54.3735C42.7524 54.1464 42.6058 53.9914 42.3982 53.9082Z" fill="#BF7958"/>
</g>
<defs>
<radialGradient id="paint0_radial_19_19745" cx="0" cy="0" r="1" gradientUnits="userSpaceOnUse" gradientTransform="translate(34.3998 62.0999) scale(20.4816 13.5875)">
<stop stop-opacity="0.301961"/>
<stop offset="1" stop-opacity="0"/>
</radialGradient>
<clipPath id="clip0_19_19745">
<rect width="80" height="108" fill="white"/>
</clipPath>
</defs>
</svg>
