<svg width="68" height="97" viewBox="0 0 68 97" fill="none" xmlns="http://www.w3.org/2000/svg">
<path d="M32.7139 96.8262V91.88H14.9874V91.8306C13.8124 92.4571 12.738 93.4134 11.7644 94.6994V96.8262H32.7139Z" fill="#B8824D"/>
<path d="M32.7138 91.88H32.7642V88.5166H14.9873V91.8306V91.88H32.7138Z" fill="#2A7DB4"/>
<path d="M30.1958 76.349C28.45 74.6673 26.3517 73.8264 23.9009 73.8264H23.8505C21.3997 73.8264 19.3182 74.6673 17.606 76.349C15.8602 78.0637 14.9873 80.1246 14.9873 82.5318V88.5167H32.7642V82.5318C32.7642 80.1246 31.908 78.0637 30.1958 76.349Z" fill="#3498DB"/>
<path d="M35.936 96.8262V91.88H53.6625V91.8306C54.8376 92.4571 55.9119 93.4134 56.8855 94.6994V96.8262H35.936Z" fill="#B8824D"/>
<path d="M35.9361 91.88H35.8857V88.5166H53.6626V91.8306V91.88H35.9361Z" fill="#2A7DB4"/>
<path d="M38.4541 76.349C40.1999 74.6673 42.2982 73.8264 44.749 73.8264H44.7994C47.2502 73.8264 49.3317 74.6673 51.0439 76.349C52.7897 78.0637 53.6626 80.1246 53.6626 82.5318V88.5167H35.8857V82.5318C35.8857 80.1246 36.7419 78.0637 38.4541 76.349Z" fill="#3498DB"/>
<path d="M54.35 82.1266V78.0437H15.3501V82.1266H54.35Z" fill="#B8824D"/>
<path d="M54.35 51.1265H15.3501V78.0436H54.35V51.1265Z" fill="#2ECC71"/>
<path d="M2.68787 74.4096C4.22488 76.6416 6.37101 78.3916 9.12625 79.6595C13.4201 75.864 16.8822 71.4182 19.5125 66.3219L7.08642 60.6896C5.07235 65.1162 3.60617 69.6895 2.68787 74.4096Z" fill="#FFE0B1"/>
<path d="M19.9707 66.5387L21.1454 64.0805L6.92351 57.6381C5.99484 57.7652 5.60326 58.5846 5.74878 60.0962L7.08653 60.6897L19.5126 66.322L19.9707 66.5387Z" fill="#25A85C"/>
<path d="M18.6881 51.4845L18.6399 51.4716C18.2832 51.3076 17.9258 51.1649 17.5676 51.0433C14.3241 50.1196 10.776 52.3178 6.92348 57.6381L21.1454 64.0805L22.6056 61.1349C23.4921 59.3671 23.5568 57.5202 22.7998 55.5941C22.0271 53.7265 20.6565 52.3566 18.6881 51.4845Z" fill="#2ECC71"/>
<path d="M14.2571 73.5251C15.4552 75.3645 16.2067 78.0333 16.5118 81.5314L16.4979 82.3559L16.5109 82.3076C19.2577 80.0413 18.5064 77.1138 14.2571 73.5251ZM5.46579 77.7436C6.28798 77.8948 7.29819 77.924 8.49643 77.8309C9.72687 77.7465 10.761 77.5577 11.5987 77.2645C12.4278 77.0035 12.849 76.7195 12.8623 76.4125C12.8991 76.1463 12.4903 75.9332 11.6359 75.7733C10.8373 75.6629 9.82706 75.6338 8.60526 75.686C7.40702 75.779 6.39334 75.9561 5.56421 76.217C4.70289 76.4694 4.24951 76.7448 4.20407 77.0432C4.19082 77.3502 4.61139 77.5837 5.46579 77.7436Z" fill="#E7CBA0"/>
<path d="M16.5118 81.5313C16.2067 78.0332 15.4551 75.3644 14.257 73.525L4.27588 73.4906C3.45137 73.4768 3.02472 73.8456 2.99592 74.5971L2.99847 75.1672C2.64945 83.4248 4.85185 87.5693 9.60568 87.6007C11.2869 87.6371 13.0081 87.4598 14.7692 87.069C15.9376 86.8299 16.5287 86.2981 16.5425 85.4736L16.5589 85.2191C16.5515 84.2164 16.5355 83.2458 16.5108 82.3075L16.4979 82.3558L16.5118 81.5313ZM8.4964 77.8308C7.29817 77.9239 6.28795 77.8947 5.46576 77.7435C4.61137 77.5836 4.19079 77.3501 4.20404 77.0431C4.24948 76.7447 4.70287 76.4693 5.56418 76.2169C6.39331 75.956 7.40699 75.7789 8.60523 75.6859C9.82704 75.6337 10.8373 75.6628 11.6359 75.7732C12.4903 75.9331 12.8991 76.1462 12.8622 76.4124C12.849 76.7194 12.4278 77.0034 11.5987 77.2644C10.7609 77.5576 9.72684 77.7464 8.4964 77.8308Z" fill="#FFE0B1"/>
<path d="M64.462 73.4096C62.925 75.6416 60.7789 77.3916 58.0237 78.6595C53.7298 74.864 50.2677 70.4182 47.6374 65.3219L60.0635 59.6896C62.0776 64.1162 63.5437 68.6895 64.462 73.4096Z" fill="#FFE0B1"/>
<path d="M47.1792 65.5387L46.0045 63.0805L60.2264 56.6381C61.1551 56.7652 61.5467 57.5846 61.4011 59.0962L60.0634 59.6897L47.6373 65.322L47.1792 65.5387Z" fill="#25A85C"/>
<path d="M48.4618 50.4845L48.51 50.4716C48.8667 50.3076 49.2241 50.1649 49.5823 50.0433C52.8258 49.1196 56.3739 51.3178 60.2264 56.6381L46.0045 63.0805L44.5443 60.1349C43.6578 58.3671 43.5931 56.5202 44.3501 54.5941C45.1228 52.7265 46.4934 51.3566 48.4618 50.4845Z" fill="#2ECC71"/>
<path d="M52.9429 72.975C51.7448 74.8144 50.9932 77.4832 50.6882 80.9813L50.702 81.8058L50.6891 81.7575C47.9423 79.4912 48.6936 76.5637 52.9429 72.975ZM61.7342 77.1935C60.912 77.3448 59.9018 77.3739 58.7035 77.2808C57.4731 77.1964 56.439 77.0076 55.6012 76.7144C54.7721 76.4535 54.3509 76.1695 54.3377 75.8624C54.3009 75.5962 54.7097 75.3832 55.564 75.2233C56.3627 75.1128 57.3729 75.0837 58.5947 75.1359C59.7929 75.229 60.8066 75.406 61.6357 75.667C62.4971 75.9193 62.9504 76.1947 62.9959 76.4931C63.0091 76.8002 62.5886 77.0336 61.7342 77.1935Z" fill="#E7CBA0"/>
<path d="M50.6882 80.9812C50.9932 77.4831 51.7448 74.8143 52.9429 72.9749L62.9241 72.9406C63.7486 72.9267 64.1752 73.2955 64.204 74.047L64.2015 74.6171C64.5505 82.8748 62.3481 87.0193 57.5943 87.0507C55.9131 87.087 54.1919 86.9098 52.4307 86.5189C51.2624 86.2798 50.6713 85.748 50.6574 84.9235L50.641 84.6691C50.6484 83.6663 50.6644 82.6958 50.6891 81.7574L50.702 81.8057L50.6882 80.9812ZM58.7035 77.2807C59.9018 77.3738 60.912 77.3447 61.7342 77.1934C62.5886 77.0335 63.0092 76.8001 62.9959 76.493C62.9505 76.1946 62.4971 75.9192 61.6358 75.6669C60.8066 75.4059 59.793 75.2289 58.5947 75.1358C57.3729 75.0836 56.3627 75.1127 55.5641 75.2232C54.7097 75.3831 54.3009 75.5961 54.3377 75.8623C54.351 76.1694 54.7721 76.4534 55.6013 76.7143C56.439 77.0075 57.4731 77.1963 58.7035 77.2807Z" fill="#FFE0B1"/>
<path d="M26.5501 56.2997C28.5168 57.5997 30.9001 58.2497 33.7001 58.2497C36.5001 58.2497 38.8834 57.5997 40.8501 56.2997C42.0168 55.533 42.8334 54.6664 43.3001 53.6997H24.1001C24.5668 54.6664 25.3834 55.533 26.5501 56.2997Z" fill="#D7BD93"/>
<path d="M53.0502 49.1498C54.0835 42.4165 54.0669 35.5331 53.0002 28.4998C52.5669 25.5331 50.8669 24.0498 47.9002 24.0498H17.5502C14.6169 24.0498 12.9169 25.5665 12.4502 28.5998C11.4502 35.4665 11.4502 42.3331 12.4502 49.1998C12.9169 52.1998 14.6169 53.6998 17.5502 53.6998H24.1002H43.3002H47.9002C50.8669 53.6998 52.5835 52.1831 53.0502 49.1498Z" fill="#FFE0B1"/>
<path d="M29.1502 37.05C28.4835 36.3166 27.6335 35.95 26.6002 35.95C25.5669 35.95 24.6835 36.3166 23.9502 37.05C23.2835 37.8166 22.9502 38.7166 22.9502 39.75C22.9502 40.7833 23.2835 41.6666 23.9502 42.4C24.6835 43.1666 25.5669 43.55 26.6002 43.55C27.6335 43.55 28.4835 43.1666 29.1502 42.4C29.8835 41.6666 30.2502 40.7833 30.2502 39.75C30.2502 38.7166 29.8835 37.8166 29.1502 37.05ZM37.3002 47.5V44.5H30.4502C30.2502 44.5 30.0669 44.5666 29.9002 44.7C29.7002 44.8 29.5669 44.9666 29.5002 45.2C29.4335 45.3666 29.4335 45.5666 29.5002 45.8C29.5669 46.1333 29.6835 46.45 29.8502 46.75C29.9835 47.0166 30.1335 47.2666 30.3002 47.5H37.3002ZM47.7502 37.05C47.0835 36.3166 46.2335 35.95 45.2002 35.95C44.1669 35.95 43.2835 36.3166 42.5502 37.05C41.8835 37.8166 41.5502 38.7166 41.5502 39.75C41.5502 40.7833 41.8835 41.6666 42.5502 42.4C43.2835 43.1666 44.1669 43.55 45.2002 43.55C46.2335 43.55 47.0835 43.1666 47.7502 42.4C48.4835 41.6666 48.8502 40.7833 48.8502 39.75C48.8502 38.7166 48.4835 37.8166 47.7502 37.05Z" fill="white"/>
<path d="M29.6002 31.8499C29.8335 31.9499 30.0835 31.9499 30.3502 31.8499C30.5835 31.7166 30.7668 31.5333 30.9002 31.2999C31.0002 31.0333 31.0002 30.7833 30.9002 30.5499C30.7668 30.2833 30.5835 30.0999 30.3502 29.9999C28.8835 29.3666 27.3835 29.3833 25.8502 30.0499C24.8168 30.4833 23.9835 31.1166 23.3502 31.9499C23.1835 32.1499 23.1168 32.3999 23.1502 32.6999C23.1835 32.9666 23.3168 33.1833 23.5502 33.3499C23.7502 33.5166 24.0002 33.5833 24.3002 33.5499C24.5668 33.5166 24.7835 33.3833 24.9502 33.1499C25.3835 32.5833 25.9502 32.1666 26.6502 31.8999C27.6502 31.4666 28.6335 31.4499 29.6002 31.8499ZM45.4502 33.3999C46.1502 33.6666 46.7168 34.0833 47.1502 34.6499C47.3168 34.8833 47.5502 35.0166 47.8502 35.0499C48.1168 35.0833 48.3502 35.0166 48.5502 34.8499C48.7835 34.6833 48.9168 34.4666 48.9502 34.1999C48.9835 33.8999 48.9168 33.6499 48.7502 33.4499C48.1168 32.6166 47.2835 31.9833 46.2502 31.5499C44.7168 30.8833 43.2335 30.8666 41.8002 31.4999C41.5335 31.5999 41.3502 31.7833 41.2502 32.0499C41.1168 32.2833 41.1168 32.5333 41.2502 32.7999C41.3502 33.0333 41.5335 33.2166 41.8002 33.3499C42.0335 33.4499 42.2835 33.4499 42.5502 33.3499C43.4835 32.9499 44.4502 32.9666 45.4502 33.3999Z" fill="#B8824D"/>
<path d="M40.7503 46.75C40.917 46.45 41.0503 46.1333 41.1503 45.8C41.1836 45.5667 41.167 45.3667 41.1003 45.2C41.0336 44.9667 40.917 44.8 40.7503 44.7C40.5503 44.5667 40.3503 44.5 40.1503 44.5H37.3003V47.5H30.3003C30.5003 47.8333 30.7503 48.1333 31.0503 48.4C32.2503 49.6 33.667 50.2 35.3003 50.2C36.9336 50.2 38.3336 49.6167 39.5003 48.45L39.5503 48.4C40.0503 47.9 40.4503 47.35 40.7503 46.75Z" fill="#7F7058"/>
<path d="M45.7 41.9499C46.1334 41.3499 46.35 40.6165 46.35 39.7499C46.35 38.8832 46.1334 38.1332 45.7 37.4999C45.3 36.8999 44.8 36.5999 44.2 36.5999C43.6 36.5999 43.0834 36.8999 42.65 37.4999C42.25 38.1332 42.05 38.8832 42.05 39.7499C42.05 40.6165 42.25 41.3499 42.65 41.9499C43.0834 42.5832 43.6 42.8999 44.2 42.8999C44.8 42.8999 45.3 42.5832 45.7 41.9499Z" fill="#7F7058"/>
<path d="M28.8502 41.9499C29.2835 41.3499 29.5002 40.6165 29.5002 39.7499C29.5002 38.8832 29.2835 38.1332 28.8502 37.4999C28.4502 36.8999 27.9502 36.5999 27.3502 36.5999C26.7502 36.5999 26.2335 36.8999 25.8002 37.4999C25.4002 38.1332 25.2002 38.8832 25.2002 39.7499C25.2002 40.6165 25.4002 41.3499 25.8002 41.9499C26.2335 42.5832 26.7502 42.8999 27.3502 42.8999C27.9502 42.8999 28.4502 42.5832 28.8502 41.9499Z" fill="#7F7058"/>
<path d="M10.7001 21.3999C9.10011 30.0666 9.51678 38.4832 11.9501 46.6499C15.2501 43.5499 17.1168 38.0499 17.5501 30.1499C20.7168 18.4166 33.8834 8.66657 57.0501 0.899902C40.2168 4.46657 27.2668 8.5499 18.2001 13.1499L15.3001 17.8999L10.7001 21.3999Z" fill="#B8824D"/>
<path d="M35.05 28.3999C40.6167 29.9999 46.5334 30.7166 52.8 30.5499L53.8 38.6499C56.8334 29.6499 57.8167 23.3166 56.75 19.6499C55.2834 14.5499 55.3834 8.2999 57.05 0.899902C33.8834 8.66657 20.7167 18.4166 17.55 30.1499C22.35 26.8832 28.1834 26.2999 35.05 28.3999Z" fill="#C48A51"/>
</svg>
