<svg width="100" height="94" viewBox="0 0 100 94" fill="none" xmlns="http://www.w3.org/2000/svg">
<path d="M69 90.95L63.25 84.95H57.45V80.6C57.45 79.7667 57.15 79.05 56.55 78.45C55.95 77.85 55.2333 77.55 54.4 77.55H54.35C53.5167 77.55 52.8 77.85 52.2 78.45C51.9 78.75 51.6667 79.0834 51.5 79.45C51.3667 79.8167 51.3 80.2 51.3 80.6L51 93.95H68.9L69 90.95ZM54.4 79.3C54.8 79.3 55.15 79.45 55.45 79.75C55.75 80.05 55.9 80.4 55.9 80.8C55.9 81.2 55.75 81.55 55.45 81.85C55.15 82.15 54.8 82.3 54.4 82.3C54 82.3 53.65 82.15 53.35 81.85C53.05 81.55 52.9 81.2 52.9 80.8C52.9 80.4 53.05 80.05 53.35 79.75C53.65 79.45 54 79.3 54.4 79.3Z" fill="#334E63"/>
<path d="M55.45 79.75C55.15 79.45 54.8 79.3 54.4 79.3C54 79.3 53.65 79.45 53.35 79.75C53.05 80.05 52.9 80.4 52.9 80.8C52.9 81.2 53.05 81.55 53.35 81.85C53.65 82.15 54 82.3 54.4 82.3C54.8 82.3 55.15 82.15 55.45 81.85C55.75 81.55 55.9 81.2 55.9 80.8C55.9 80.4 55.75 80.05 55.45 79.75ZM63.9 70.75C63.9 69.15 63.2667 67.7833 62 66.65C60.7667 65.5166 59.25 64.95 57.45 64.95C55.6833 64.95 54.1667 65.5166 52.9 66.65C51.6333 67.7833 51 69.15 51 70.75L51.5 79.45C51.6667 79.0833 51.9 78.75 52.2 78.45C52.8 77.85 53.5167 77.55 54.35 77.55H54.4C55.2333 77.55 55.95 77.85 56.55 78.45C57.15 79.05 57.45 79.7666 57.45 80.6V84.95H63.25H63.3L63.9 70.75Z" fill="#477CA6"/>
<path d="M31 90.95L36.75 84.95H42.55V80.6C42.55 79.7667 42.85 79.05 43.45 78.45C44.05 77.85 44.7667 77.55 45.6 77.55H45.65C46.4833 77.55 47.2 77.85 47.8 78.45C48.1 78.75 48.3333 79.0834 48.5 79.45C48.6333 79.8167 48.7 80.2 48.7 80.6L49 93.95H31.1L31 90.95ZM45.6 79.3C45.2 79.3 44.85 79.45 44.55 79.75C44.25 80.05 44.1 80.4 44.1 80.8C44.1 81.2 44.25 81.55 44.55 81.85C44.85 82.15 45.2 82.3 45.6 82.3C46 82.3 46.35 82.15 46.65 81.85C46.95 81.55 47.1 81.2 47.1 80.8C47.1 80.4 46.95 80.05 46.65 79.75C46.35 79.45 46 79.3 45.6 79.3Z" fill="#334E63"/>
<path d="M44.55 79.75C44.85 79.45 45.2 79.3 45.6 79.3C46 79.3 46.35 79.45 46.65 79.75C46.95 80.05 47.1 80.4 47.1 80.8C47.1 81.2 46.95 81.55 46.65 81.85C46.35 82.15 46 82.3 45.6 82.3C45.2 82.3 44.85 82.15 44.55 81.85C44.25 81.55 44.1 81.2 44.1 80.8C44.1 80.4 44.25 80.05 44.55 79.75ZM36.1 70.75C36.1 69.15 36.7333 67.7833 38 66.65C39.2333 65.5166 40.75 64.95 42.55 64.95C44.3167 64.95 45.8333 65.5166 47.1 66.65C48.3667 67.7833 49 69.15 49 70.75L48.5 79.45C48.3333 79.0833 48.1 78.75 47.8 78.45C47.2 77.85 46.4833 77.55 45.65 77.55H45.6C44.7667 77.55 44.05 77.85 43.45 78.45C42.85 79.05 42.55 79.7666 42.55 80.6V84.95H36.75H36.7L36.1 70.75Z" fill="#477CA6"/>
<path d="M77.7923 61.7866C78.0179 60.9443 78.0683 60.1124 77.9434 59.2907C79.6246 60.2532 81.4831 61.0445 83.5189 61.6646C84.5406 61.9729 85.3095 62.6448 85.8257 63.6804C86.327 64.6429 86.4149 65.6672 86.0894 66.7533C85.7638 67.8394 85.1112 68.6652 84.1314 69.2309C83.1367 69.7236 82.1285 69.8157 81.1068 69.5075C78.2059 68.6113 75.5814 67.4594 73.233 66.0518C73.8977 65.9527 74.5486 65.713 75.1856 65.3327C76.5093 64.5141 77.3781 63.3321 77.7923 61.7866ZM66.9257 58.8749C66.7476 59.5397 66.6803 60.1773 66.7238 60.7878C64.2638 58.122 62.3684 54.9569 61.0377 51.2926C60.6353 50.2186 60.6613 49.1557 61.1156 48.1042C61.5699 47.0526 62.2976 46.3331 63.2986 45.9457C64.3169 45.4939 65.3357 45.4908 66.3551 45.9365C67.3337 46.4057 68.0284 47.1613 68.4394 48.2032C69.3375 50.5806 70.5513 52.6831 72.081 54.5105C71.2371 54.5622 70.408 54.8232 69.5936 55.2934C68.2291 56.1356 67.3399 57.3294 66.9257 58.8749ZM70.8007 58.5156C70.964 58.4213 71.1391 58.3474 71.326 58.294C71.8222 58.1164 72.344 58.1009 72.8913 58.2476C73.6318 58.446 74.1907 58.8718 74.5678 59.525C74.9363 60.2104 75.017 60.9394 74.8099 61.7122C74.6546 62.2917 74.3878 62.7723 74.0095 63.1541C73.8462 63.2484 73.6829 63.3426 73.5196 63.4369C73.2252 63.6341 72.9641 63.7712 72.7364 63.8482C72.2983 63.9379 71.8539 63.9223 71.4031 63.8015C70.6626 63.6031 70.1124 63.1451 69.7525 62.4275C69.3754 61.7743 69.2904 61.0614 69.4974 60.2887C69.6268 59.8057 69.8356 59.413 70.1237 59.1106C70.3215 58.8875 70.5472 58.6892 70.8007 58.5156Z" fill="#477CA6"/>
<path d="M73.2331 66.0519C72.4627 66.2251 71.6747 66.2037 70.8692 65.9879C69.3881 65.591 68.2512 64.6825 67.4584 63.2622C67.0201 62.4762 66.7753 61.6514 66.7239 60.7878C66.6804 60.1774 66.7477 59.5398 66.9258 58.8749C67.34 57.3295 68.2292 56.1357 69.5937 55.2935C70.4081 54.8233 71.2372 54.5623 72.0811 54.5106C72.6798 54.464 73.2852 54.5227 73.8973 54.6867C75.3784 55.0836 76.5196 55.976 77.321 57.364C77.6523 58.0024 77.8598 58.6446 77.9435 59.2908C78.0684 60.1124 78.018 60.9444 77.7924 61.7867C77.3782 63.3321 76.5094 64.5142 75.1857 65.3328C74.5487 65.713 73.8978 65.9527 73.2331 66.0519ZM71.3261 58.2941C71.1392 58.3475 70.9641 58.4214 70.8008 58.5157C70.5473 58.6893 70.3216 58.8876 70.1238 59.1107C69.8357 59.4131 69.6269 59.8058 69.4975 60.2887C69.2905 61.0615 69.3755 61.7744 69.7526 62.4276C70.1125 63.1452 70.6627 63.6032 71.4032 63.8016C71.854 63.9224 72.2984 63.938 72.7365 63.8483C72.9642 63.7713 73.2253 63.6342 73.5197 63.437C73.683 63.3427 73.8463 63.2484 74.0096 63.1542C74.3879 62.7724 74.6547 62.2918 74.81 61.7122C75.0171 60.9395 74.9364 60.2104 74.5679 59.5251C74.1908 58.8719 73.6319 58.4461 72.8914 58.2476C72.3441 58.101 71.8223 58.1164 71.3261 58.2941Z" fill="#334E63"/>
<path d="M21.0506 58.1997C21.0506 57.3277 21.2173 56.5111 21.5506 55.7498C19.6776 56.2443 17.6777 56.5276 15.5508 56.5997C14.4841 56.6331 13.5675 57.0831 12.8009 57.9497C12.0675 58.7497 11.7176 59.7163 11.7509 60.8496C11.7842 61.9829 12.2009 62.9496 13.0008 63.7495C13.8342 64.4828 14.7841 64.8328 15.8508 64.7995C18.8847 64.6847 21.7179 64.2513 24.3505 63.4995C23.7341 63.2317 23.1675 62.8317 22.6506 62.2996C21.5839 61.1663 21.0506 59.7997 21.0506 58.1997ZM32.3003 58.1997C32.3003 58.888 32.2003 59.5213 32.0003 60.0996C35.0663 58.1614 37.7162 55.5948 39.95 52.3999C40.6167 51.4666 40.8667 50.4333 40.7 49.3C40.5333 48.1667 40.0167 47.2834 39.15 46.6501C38.2834 45.9501 37.3001 45.6834 36.2001 45.8501C35.1335 46.0501 34.2669 46.6001 33.6002 47.5C32.1175 49.564 30.4008 51.2806 28.4504 52.6499C29.252 52.9182 29.9854 53.3849 30.6503 54.0498C31.7503 55.2165 32.3003 56.5997 32.3003 58.1997ZM28.6504 56.8497C28.517 56.7164 28.367 56.5997 28.2004 56.4998C27.7671 56.1998 27.2671 56.0498 26.7004 56.0498C25.9338 56.0498 25.2838 56.3164 24.7505 56.8497C24.2172 57.4164 23.9505 58.0997 23.9505 58.8997C23.9505 59.4997 24.0838 60.033 24.3505 60.4996C24.4838 60.633 24.6172 60.7663 24.7505 60.8996C24.9838 61.1663 25.2005 61.3663 25.4005 61.4996C25.8005 61.6996 26.2338 61.7996 26.7004 61.7996C27.4671 61.7996 28.1171 61.4996 28.6504 60.8996C29.1837 60.3663 29.4503 59.6997 29.4503 58.8997C29.4503 58.3997 29.3503 57.9664 29.1504 57.5997C29.017 57.3331 28.8504 57.0831 28.6504 56.8497Z" fill="#477CA6"/>
<path d="M24.3505 63.4995C25.0499 63.8662 25.8165 64.0495 26.6505 64.0495C28.1838 64.0495 29.517 63.4662 30.6503 62.2995C31.2771 61.6537 31.7271 60.9204 32.0003 60.0996C32.2003 59.5212 32.3003 58.8879 32.3003 58.1997C32.3003 56.5997 31.7503 55.2164 30.6503 54.0498C29.9854 53.3848 29.2521 52.9182 28.4504 52.6498C27.8842 52.4499 27.2842 52.3499 26.6505 52.3499C25.1172 52.3499 23.7839 52.9165 22.6506 54.0498C22.1653 54.5806 21.7987 55.1473 21.5506 55.7497C21.2173 56.5111 21.0506 57.3277 21.0506 58.1997C21.0506 59.7996 21.584 61.1663 22.6506 62.2995C23.1675 62.8317 23.7341 63.2317 24.3505 63.4995ZM28.2004 56.4997C28.3671 56.5997 28.5171 56.7164 28.6504 56.8497C28.8504 57.083 29.0171 57.333 29.1504 57.5997C29.3504 57.9663 29.4504 58.3997 29.4504 58.8997C29.4504 59.6996 29.1837 60.3663 28.6504 60.8996C28.1171 61.4996 27.4671 61.7996 26.7005 61.7996C26.2338 61.7996 25.8005 61.6996 25.4005 61.4996C25.2005 61.3662 24.9838 61.1663 24.7505 60.8996C24.6172 60.7663 24.4839 60.6329 24.3505 60.4996C24.0839 60.033 23.9505 59.4996 23.9505 58.8997C23.9505 58.0997 24.2172 57.4164 24.7505 56.8497C25.2838 56.3164 25.9338 56.0497 26.7005 56.0497C27.2671 56.0497 27.7671 56.1997 28.2004 56.4997Z" fill="#334E63"/>
<path d="M37.05 53.15C38.35 51.8834 39 50.35 39 48.55C39 46.75 38.35 45.2167 37.05 43.95C35.7833 42.6834 34.25 42.05 32.45 42.05C30.65 42.05 29.1333 42.6834 27.9 43.95C26.6333 45.2167 26 46.75 26 48.55C26 50.35 26.6333 51.8834 27.9 53.15C29.1333 54.4167 30.65 55.05 32.45 55.05C34.25 55.05 35.7833 54.4167 37.05 53.15ZM71.1 53.15C72.3667 51.8834 73 50.35 73 48.55C73 46.75 72.3667 45.2167 71.1 43.95C69.8333 42.6834 68.3 42.05 66.5 42.05C64.7 42.05 63.1833 42.6834 61.95 43.95C60.65 45.2167 60 46.75 60 48.55C60 50.35 60.65 51.8834 61.95 53.15C63.1833 54.4167 64.7 55.05 66.5 55.05C68.3 55.05 69.8333 54.4167 71.1 53.15Z" fill="#334E63"/>
<path d="M62.9 76.05C63.8333 74.75 64.3333 73 64.4 70.8H34.5C34.5667 73 35.0667 74.75 36 76.05H62.9Z" fill="#5393C5"/>
<path d="M57.75 65.8001C58.65 64.3334 59.1 62.6668 59.1 60.8001C59.1 58.1334 58.1667 55.8501 56.3 53.9501C54.4 52.0501 52.1167 51.1001 49.45 51.1001C46.7833 51.1001 44.5 52.0501 42.6 53.9501C40.7 55.8501 39.75 58.1334 39.75 60.8001C39.75 62.6668 40.2167 64.3334 41.15 65.8001H34.5V70.8001H64.4V65.8001H57.75ZM54.5 59.2501L52.85 64.5001C52.8167 64.6334 52.7333 64.7501 52.6 64.8501C52.4667 64.9501 52.3167 65.0001 52.15 65.0001H46.9C46.7667 65.0001 46.6333 64.9501 46.5 64.8501C46.3333 64.7501 46.2333 64.6334 46.2 64.5001L44.55 59.2501C44.5167 59.0834 44.5167 58.9168 44.55 58.7501C44.6167 58.6168 44.7167 58.4834 44.85 58.3501L49.15 55.2001C49.25 55.1001 49.3833 55.0501 49.55 55.0501C49.6833 55.0501 49.8333 55.1001 50 55.2001L54.25 58.3501C54.35 58.4834 54.4333 58.6168 54.5 58.7501C54.5333 58.9168 54.5333 59.0834 54.5 59.2501Z" fill="#334E63"/>
<path d="M52.8504 64.5L54.5004 59.25C54.5337 59.0834 54.5337 58.9167 54.5004 58.75C54.4337 58.6167 54.3504 58.4834 54.2504 58.35L50.0004 55.2C49.8337 55.1 49.6837 55.05 49.5504 55.05C49.3837 55.05 49.2504 55.1 49.1504 55.2L44.8504 58.35C44.7171 58.4834 44.6171 58.6167 44.5504 58.75C44.5171 58.9167 44.5171 59.0834 44.5504 59.25L46.2004 64.5C46.2337 64.6334 46.3337 64.75 46.5004 64.85C46.6337 64.95 46.7671 65 46.9004 65H52.1504C52.3171 65 52.4671 64.95 52.6004 64.85C52.7337 64.75 52.8171 64.6334 52.8504 64.5Z" fill="#FF6699"/>
<path d="M67.6502 52.05C68.4835 48.7167 67.7335 46.9667 65.4002 46.8H60.0502C60.0502 46.7334 60.0502 46.65 60.0502 46.55C60.0835 46.3834 60.1002 46.2167 60.1002 46.05C60.1002 43.55 59.0835 41.4 57.0502 39.6C54.9502 37.9 52.4335 37.05 49.5002 37.05C46.5669 37.05 44.0502 37.9 41.9502 39.6C39.9169 41.4 38.9002 43.55 38.9002 46.05C38.9002 46.2167 38.9169 46.3834 38.9502 46.55C38.9502 46.65 38.9669 46.7334 39.0002 46.8H33.8502C31.4169 46.6667 30.5502 48.4167 31.2502 52.05L34.5002 65.8H41.1502C40.2169 64.3334 39.7502 62.6667 39.7502 60.8C39.7502 58.1334 40.7002 55.85 42.6002 53.95C44.5002 52.05 46.7835 51.1 49.4502 51.1C52.1169 51.1 54.4002 52.05 56.3002 53.95C58.1669 55.85 59.1002 58.1334 59.1002 60.8C59.1002 62.6667 58.6502 64.3334 57.7502 65.8H64.4002L67.6502 52.05Z" fill="#477CA6"/>
<path d="M90.8784 67.7668C90.8424 67.6797 90.8769 67.6399 90.9821 67.6474C91.1 67.6241 91.2269 67.6226 91.3628 67.6429L94.5959 68.9835C94.6883 69.0218 94.7923 69.119 94.908 69.2752C94.9132 69.3496 94.8967 69.4329 94.8584 69.5253C94.1126 71.2368 92.8686 72.4531 91.1263 73.1741L91.1071 73.2203C89.2777 73.9773 87.4265 74.0036 85.5535 73.2991C83.6624 72.5511 82.3256 71.2932 81.5431 69.5253L81.462 69.3293C81.8111 69.4544 82.1754 69.5332 82.5547 69.5659C83.8541 69.737 85.0433 69.4363 86.1223 68.6635C86.3953 68.9571 86.7175 69.1809 87.0889 69.3349C87.8226 69.567 88.5406 69.576 89.2428 69.362C89.2555 69.3312 89.2901 69.2914 89.3464 69.2426C90.0306 68.985 90.5412 68.4931 90.8784 67.7668ZM82.3677 59.3124C82.5297 59.0804 82.6998 58.8442 82.878 58.6038C83.9932 57.0455 85.5557 56.1056 87.5654 55.7842C89.5495 55.5243 91.3516 55.9648 92.9715 57.1056C93.0023 57.1183 93.0331 57.1311 93.0638 57.1439C94.5659 58.3079 95.4787 59.805 95.8024 61.6352C95.8257 61.7532 95.8182 61.8583 95.7799 61.9507C95.7235 61.9995 95.6428 62.0201 95.5377 62.0126L91.9734 62.6457C91.8863 62.6818 91.8119 62.687 91.7503 62.6615C91.6527 62.5489 91.5859 62.449 91.5498 62.3619C91.4101 61.6544 91.0399 61.0679 90.4391 60.6022C90.4083 60.5895 90.3775 60.5767 90.3467 60.5639C89.7331 60.1291 89.0418 59.9688 88.2728 60.0829C87.665 60.1818 87.1577 60.4044 86.7509 60.751C85.8852 59.9829 84.8728 59.5091 83.7138 59.3293C83.2599 59.2799 82.8111 59.2743 82.3677 59.3124Z" fill="#BFD4E5"/>
<path d="M79.0782 67.6374C78.1942 66.5492 77.8139 65.2909 77.937 63.8625C78.0782 62.4776 78.7211 61.3188 79.8656 60.3861C80.6467 59.8029 81.4807 59.445 82.3676 59.3125C82.811 59.2744 83.2598 59.28 83.7137 59.3294C84.8727 59.5092 85.8851 59.983 86.7508 60.7511C86.9152 60.9219 87.0771 61.0972 87.2363 61.2771C88.1075 62.3961 88.4661 63.6635 88.3122 65.0791C88.1274 66.482 87.4909 67.6254 86.4027 68.5093C86.317 68.575 86.2235 68.6264 86.1222 68.6636C85.0432 69.4364 83.854 69.7371 82.5546 69.566C82.1753 69.5333 81.811 69.4545 81.4619 69.3294C80.5258 69.0553 79.7313 68.4913 79.0782 67.6374Z" fill="#5393C5"/>
<path d="M64.6446 38.5499C60.7254 35.9499 55.9771 34.6499 50.3998 34.6499C44.8225 34.6499 40.024 35.9499 36.0043 38.5499C32.0851 41.2166 30.1255 44.3999 30.1255 48.0999C30.1255 51.7999 32.0851 54.9499 36.0043 57.5499C40.024 60.2166 44.8225 61.5499 50.3998 61.5499C55.9771 61.5499 60.7254 60.2166 64.6446 57.5499C68.6643 54.9499 70.6742 51.7999 70.6742 48.0999C70.6742 44.3999 68.6643 41.2166 64.6446 38.5499Z" fill="url(#paint0_radial_19_19663)"/>
<path d="M64.4463 34.5283C68.2522 31.5513 70.4366 27.6626 70.9995 22.8621C71.5623 18.0617 70.3387 13.7566 67.3286 9.94677C64.3184 6.13697 60.4131 3.95064 55.6127 3.38777C50.8123 2.8249 46.5071 4.04854 42.6973 7.05868C38.8875 10.0688 36.7012 13.9741 36.1383 18.7746C35.5755 23.575 36.8011 27.8636 39.8151 31.6403C42.8213 35.4832 46.7247 37.686 51.5251 38.2489C56.3256 38.8118 60.6326 37.5716 64.4463 34.5283ZM63.4512 21.9771C63.1329 24.6918 61.9011 26.8967 59.7557 28.5917C57.5734 30.316 55.1249 31.0189 52.4102 30.7006C49.6954 30.3823 47.4925 29.134 45.8014 26.9555C44.0732 24.8063 43.3683 22.3743 43.6866 19.6596C44.0049 16.9449 45.2533 14.7419 47.4317 13.0508C49.5809 11.3227 52.0129 10.6177 54.7276 10.9361C57.4424 11.2544 59.6619 12.5047 61.3861 14.687C63.0811 16.8323 63.7695 19.2623 63.4512 21.9771Z" fill="#BFD4E5"/>
<path d="M59.7556 28.5917C61.9009 26.8967 63.1327 24.6918 63.4511 21.9771C63.7694 19.2624 63.081 16.8323 61.386 14.687C59.6617 12.5047 57.4422 11.2544 54.7275 10.9361C52.0128 10.6178 49.5808 11.3227 47.4316 13.0508C45.2532 14.742 44.0048 16.9449 43.6865 19.6596C43.3682 22.3744 44.0731 24.8063 45.8012 26.9555C47.4924 29.134 49.6953 30.3823 52.41 30.7006C55.1248 31.019 57.5733 30.316 59.7556 28.5917Z" fill="white"/>
<path d="M39.5051 8.09407C38.8334 8.38449 38.3555 8.88222 38.0715 9.58728L34.9315 17.4753C34.6475 18.1803 34.6468 18.9018 34.9294 19.6398C35.2861 20.3193 35.8169 20.801 36.522 21.0851L36.5716 21.0909C37.2767 21.3749 37.9797 21.3902 38.6806 21.1368C39.3932 20.7841 39.8915 20.2552 40.1756 19.5501L43.2659 11.6563C43.5499 10.9512 43.5321 10.2444 43.2125 9.53562C42.9259 8.83079 42.4467 8.3383 41.7747 8.05814L41.7251 8.05232C41.02 7.76828 40.28 7.7822 39.5051 8.09407Z" fill="#477CA6"/>
<path d="M71.3931 13.4944C71.2799 12.7428 70.9301 12.148 70.3438 11.71C69.662 11.2274 68.9453 11.0426 68.1937 11.1559L68.144 11.1501C67.3924 11.2633 66.7957 11.6296 66.3539 12.2491C65.879 12.8646 65.6981 13.5482 65.8114 14.2998L67.0415 22.7002C67.1547 23.4519 67.5171 24.0817 68.1288 24.5897C68.7521 24.9984 69.4396 25.1461 70.1912 25.0329L70.2409 25.0387C70.9594 24.9216 71.5707 24.5738 72.0749 23.9952C72.5206 23.3427 72.6868 22.6406 72.5736 21.889L71.3931 13.4944Z" fill="#477CA6"/>
<path d="M28.6488 26.4044C26.9103 27.778 25.913 29.5573 25.6568 31.7423C25.4006 33.9273 25.9612 35.8725 27.3386 37.5778C28.7414 39.3533 30.5188 40.3672 32.6707 40.6195C34.8557 40.8757 36.836 40.3024 38.6114 38.8996C40.3129 37.5553 41.2917 35.7906 41.5479 33.6056C41.8041 31.4205 41.262 29.4607 39.9215 27.7262C38.5187 25.9507 36.7248 24.9349 34.5398 24.6787C32.3879 24.4264 30.4242 25.0016 28.6488 26.4044ZM29.8792 35.6607C29.0609 34.625 28.7294 33.445 28.8847 32.1208C29.036 30.8296 29.6315 29.7583 30.6711 28.9069C31.7067 28.0887 32.8702 27.7552 34.1613 27.9066C35.5187 28.0657 36.6065 28.6632 37.4248 29.6988C38.2392 30.7676 38.5707 31.9476 38.4193 33.2387C38.2641 34.563 37.6686 35.6343 36.6329 36.4526C35.5934 37.304 34.3949 37.6501 33.0375 37.4909C31.7464 37.3395 30.6936 36.7294 29.8792 35.6607ZM65.397 30.7132C63.6585 32.0868 62.6612 33.8661 62.405 36.0511C62.1488 38.2362 62.7094 40.1813 64.0868 41.8867C65.4896 43.6621 67.267 44.676 69.4189 44.9283C71.6039 45.1845 73.5842 44.6112 75.3596 43.2084C77.0611 41.8641 78.0399 40.0994 78.2961 37.9144C78.5523 35.7294 78.0102 33.7696 76.6697 32.035C75.2669 30.2596 73.473 29.2438 71.288 28.9875C69.1361 28.7352 67.1724 29.3105 65.397 30.7132ZM67.4193 33.2158C68.455 32.3975 69.6184 32.064 70.9095 32.2154C72.2338 32.3707 73.3216 32.9681 74.173 34.0077C74.9874 35.0765 75.3189 36.2564 75.1675 37.5476C75.0122 38.8718 74.4168 39.9431 73.3811 40.7614C72.3084 41.6089 71.11 41.955 69.7857 41.7998C68.4946 41.6484 67.4418 41.0383 66.6274 39.9695C65.776 38.9299 65.4279 37.748 65.5832 36.4238C65.7346 35.1326 66.3466 34.0633 67.4193 33.2158Z" fill="#5393C5"/>
<path d="M28.8849 32.1208C28.7296 33.4451 29.0611 34.6251 29.8794 35.6607C30.6938 36.7295 31.7466 37.3396 33.0377 37.491C34.3951 37.6502 35.5936 37.304 36.6331 36.4526C37.6688 35.6344 38.2643 34.5631 38.4195 33.2388C38.5709 31.9477 38.2394 30.7677 37.425 29.6989C36.6067 28.6632 35.5189 28.0658 34.1615 27.9067C32.8704 27.7553 31.707 28.0887 30.6713 28.907C29.6317 29.7584 29.0363 30.8297 28.8849 32.1208ZM70.9097 32.2155C69.6186 32.0641 68.4552 32.3976 67.4195 33.2159C66.3468 34.0634 65.7348 35.1327 65.5834 36.4239C65.4281 37.7481 65.7762 38.93 66.6276 39.9696C67.442 41.0384 68.4948 41.6485 69.7859 41.7998C71.1102 41.9551 72.3087 41.609 73.3813 40.7615C74.417 39.9432 75.0125 38.8719 75.1677 37.5477C75.3191 36.2565 74.9876 35.0765 74.1732 34.0078C73.3218 32.9682 72.234 32.3708 70.9097 32.2155Z" fill="#477CA6"/>
<path d="M32.8423 46.0262L40.7878 46.9579C41.5156 40.4651 38.9296 35.8996 33.0301 33.2613L32.8423 46.0262ZM62.5388 49.5083C66.1355 49.4601 68.3763 47.8098 69.2611 44.5574L71.1739 35.9718C64.8206 38.3481 61.1477 42.7671 60.1551 49.2288L62.5388 49.5083Z" fill="#334E63"/>
<path d="M71.174 35.9717L74.8801 19.3905L33.3149 14.5168L33.0301 33.2612C38.9297 35.8995 41.5156 40.465 40.7879 46.9578L60.1551 49.2287C61.1477 42.767 64.8207 38.348 71.174 35.9717Z" fill="#5393C5"/>
<path d="M57.7985 36.2661C59.537 34.8925 60.5343 33.1133 60.7905 30.9282C61.0506 28.7101 60.4919 26.7483 59.1145 25.043C57.7409 23.3046 55.9616 22.3072 53.7766 22.051C51.5585 21.7909 49.5967 22.3496 47.8914 23.7271C46.1568 25.0675 45.1595 26.8468 44.8994 29.0649C44.6432 31.25 45.2019 33.2117 46.5755 34.9502C47.9159 36.6847 49.6952 37.6821 51.9133 37.9421C54.0984 38.1983 56.0601 37.6397 57.7985 36.2661ZM58.1586 30.6196C57.9878 32.0763 57.3125 33.2557 56.1327 34.1578C54.9822 35.0968 53.6786 35.481 52.2219 35.3102C50.7321 35.1355 49.5197 34.4563 48.5845 33.2727C47.6785 32.1261 47.3109 30.8244 47.4817 29.3677C47.6564 27.8779 48.319 26.6635 49.4695 25.7244C50.6454 24.8555 51.9782 24.5083 53.468 24.683C54.9247 24.8538 56.108 25.496 57.0178 26.6095C57.953 27.7931 58.3332 29.1298 58.1586 30.6196Z" fill="#477CA6"/>
<path d="M56.133 34.1578C57.3127 33.2558 57.988 32.0764 58.1588 30.6197C58.3335 29.1299 57.9532 27.7932 57.018 26.6096C56.1082 25.496 54.9249 24.8539 53.4682 24.6831C51.9784 24.5084 50.6456 24.8555 49.4697 25.7245C48.3192 26.6636 47.6566 27.878 47.4819 29.3678C47.3111 30.8245 47.6787 32.1261 48.5847 33.2728C49.5199 34.4564 50.7324 35.1356 52.2222 35.3102C53.6788 35.481 54.9824 35.0969 56.133 34.1578ZM55.9241 30.3577C55.8542 30.9536 55.5808 31.4249 55.1038 31.7718C54.6892 32.1594 54.1839 32.3183 53.588 32.2485C52.9921 32.1786 52.5042 31.9032 52.1243 31.4224C51.7736 30.9785 51.6331 30.4586 51.703 29.8627C51.7729 29.2668 52.0317 28.7769 52.4794 28.3931C52.9564 28.0463 53.4929 27.9079 54.0888 27.9777C54.6847 28.0476 55.1414 28.3025 55.459 28.7425C55.8389 29.2234 55.994 29.7617 55.9241 30.3577Z" fill="#FFCC00"/>
<path d="M55.1036 31.7717C55.5805 31.4249 55.854 30.9535 55.9238 30.3576C55.9937 29.7617 55.8387 29.2233 55.4588 28.7424C55.1412 28.3025 54.6844 28.0475 54.0885 27.9777C53.4926 27.9078 52.9561 28.0463 52.4792 28.3931C52.0314 28.7769 51.7726 29.2667 51.7027 29.8627C51.6329 30.4586 51.7733 30.9785 52.124 31.4223C52.5039 31.9032 52.9918 32.1785 53.5877 32.2484C54.1837 32.3183 54.6889 32.1594 55.1036 31.7717Z" fill="white"/>
<path d="M56.6326 41.9188C56.6559 41.7201 56.6607 41.5361 56.647 41.3667C56.4231 41.2733 56.1786 41.2111 55.9138 41.18L46.5281 40.0795C46.2964 40.0524 46.0607 40.0583 45.8212 40.0973C45.7687 40.259 45.7308 40.4391 45.7075 40.6378L45.7017 40.6874C45.6279 41.3164 45.7645 41.8694 46.1113 42.3464C46.5204 42.8642 47.0395 43.16 47.6685 43.2338L54.0746 43.9849C54.7037 44.0587 55.2605 43.889 55.7453 43.476C56.2592 43.1 56.5531 42.5975 56.6268 41.9684L56.6326 41.9188Z" fill="#BFD4E5"/>
<path d="M58.5002 44.4534C58.5934 43.6589 58.3769 42.9287 57.8509 42.2629C57.5002 41.8191 57.0989 41.5203 56.6471 41.3666C56.6608 41.536 56.656 41.7201 56.6327 41.9187L56.6269 41.9684C56.5531 42.5974 56.2593 43.0999 55.7453 43.476C55.2606 43.889 54.7037 44.0586 54.0747 43.9849L47.6686 43.2337C47.0395 43.16 46.5205 42.8642 46.1113 42.3463C45.7645 41.8694 45.628 41.3164 45.7017 40.6874L45.7075 40.6377C45.7308 40.4391 45.7687 40.2589 45.8213 40.0973C45.313 40.1384 44.837 40.3343 44.3931 40.6849C43.7604 41.2149 43.3975 41.8771 43.3043 42.6717C43.2112 43.4662 43.413 44.1779 43.9098 44.8067C44.4359 45.4725 45.0796 45.85 45.8411 45.9393L55.2267 47.0398C56.0213 47.133 56.7349 46.9146 57.3676 46.3847C58.0295 45.8917 58.407 45.248 58.5002 44.4534Z" fill="#334E63"/>
<path d="M67.8173 34.1181C68.4792 33.6251 68.8567 32.9814 68.9499 32.1868C69.0431 31.3923 68.8266 30.6621 68.3006 29.9963C67.8038 29.3675 67.1581 29.0065 66.3635 28.9134C65.569 28.8202 64.8407 29.0201 64.1788 29.513C63.5461 30.043 63.1832 30.7052 63.0901 31.4997C62.9969 32.2943 63.1987 33.006 63.6955 33.6348C64.2255 34.2675 64.8877 34.6304 65.6823 34.7236C66.4768 34.8167 67.1885 34.6149 67.8173 34.1181Z" fill="#477CA6"/>
<path d="M41.2989 31.0087C41.9608 30.5158 42.3383 29.8721 42.4315 29.0775C42.5247 28.2829 42.3082 27.5528 41.7822 26.887C41.2854 26.2582 40.6562 25.8991 39.8948 25.8099C39.1002 25.7167 38.372 25.9166 37.7101 26.4095C37.0774 26.9394 36.7145 27.6017 36.6213 28.3962C36.5281 29.1908 36.73 29.9025 37.2268 30.5313C37.7567 31.164 38.4189 31.5269 39.2135 31.62C39.975 31.7093 40.6701 31.5056 41.2989 31.0087Z" fill="#477CA6"/>
<path d="M8.22166 63.6667C8.25771 63.5796 8.22316 63.5398 8.11802 63.5473C8.00011 63.524 7.87319 63.5225 7.73726 63.5428L4.50418 64.8834C4.41181 64.9217 4.30779 65.0189 4.19214 65.1751C4.18688 65.2495 4.2034 65.3328 4.2417 65.4252C4.98745 67.1367 6.23149 68.353 7.97382 69.074L7.99297 69.1202C9.82241 69.8772 11.6736 69.9035 13.5466 69.199C15.4377 68.451 16.7745 67.1931 17.557 65.4252L17.6381 65.2292C17.289 65.3543 16.9247 65.4331 16.5454 65.4658C15.246 65.6369 14.0568 65.3362 12.9778 64.5634C12.7048 64.857 12.3826 65.0808 12.0112 65.2348C11.2775 65.4669 10.5595 65.4759 9.85734 65.2619C9.84458 65.2311 9.81003 65.1913 9.7537 65.1425C9.06954 64.8849 8.55886 64.393 8.22166 63.6667ZM16.7324 55.2123C16.5704 54.9803 16.4003 54.7441 16.2221 54.5037C15.1069 52.9454 13.5444 52.0055 11.5347 51.6841C9.55058 51.4242 7.74854 51.8647 6.12862 53.0055C6.09783 53.0182 6.06704 53.031 6.03625 53.0438C4.53424 54.2078 3.62139 55.705 3.2977 57.5351C3.27442 57.6531 3.28193 57.7582 3.32023 57.8506C3.37656 57.8994 3.45729 57.92 3.56243 57.9125L7.1267 58.5456C7.21382 58.5817 7.28817 58.5869 7.34975 58.5614C7.44738 58.4488 7.51422 58.3489 7.55027 58.2618C7.68996 57.5543 8.0602 56.9678 8.66101 56.5022C8.6918 56.4894 8.72259 56.4766 8.75338 56.4639C9.36695 56.029 10.0583 55.8687 10.8273 55.9828C11.435 56.0817 11.9424 56.3043 12.3492 56.6509C13.2149 55.8828 14.2273 55.409 15.3863 55.2292C15.8402 55.1798 16.289 55.1742 16.7324 55.2123Z" fill="#BFD4E5"/>
<path d="M20.0219 63.5373C20.9059 62.4491 21.2862 61.1908 21.1631 59.7624C21.0219 58.3775 20.379 57.2187 19.2345 56.286C18.4534 55.7028 17.6194 55.3449 16.7325 55.2124C16.2891 55.1743 15.8403 55.1799 15.3864 55.2293C14.2274 55.4091 13.215 55.8829 12.3493 56.651C12.1849 56.8218 12.023 56.9971 11.8638 57.177C10.9926 58.296 10.634 59.5634 10.7879 60.979C10.9727 62.3819 11.6092 63.5253 12.6974 64.4092C12.7831 64.4749 12.8766 64.5263 12.9779 64.5635C14.0569 65.3363 15.2461 65.637 16.5455 65.4659C16.9248 65.4332 17.2891 65.3544 17.6382 65.2293C18.5743 64.9552 19.3688 64.3912 20.0219 63.5373Z" fill="#5393C5"/>
<defs>
<radialGradient id="paint0_radial_19_19663" cx="0" cy="0" r="1" gradientUnits="userSpaceOnUse" gradientTransform="translate(50.3998 48.0999) scale(20.4816 13.5875)">
<stop stop-opacity="0.301961"/>
<stop offset="1" stop-opacity="0"/>
</radialGradient>
</defs>
</svg>
