<svg width="64" height="87" viewBox="0 0 64 87" fill="none" xmlns="http://www.w3.org/2000/svg">
<path d="M57.7314 50.939L61.273 61.6311C59.9349 63.6836 58.113 65.4386 55.8074 66.896C53.3298 62.7256 50.1136 59.1339 46.1587 56.1209L57.7314 50.939Z" fill="#FFE0B1"/>
<path d="M46.1587 56.121C45.6722 55.7712 45.1765 55.4222 44.6718 55.0742L56.6477 47.606L57.7315 50.939L46.1587 56.121Z" fill="#FCF7EE"/>
<path d="M44.6716 55.074L44.2307 55.3584L42.9168 53.0846L56.5624 44.519C57.4907 44.507 57.9335 45.2789 57.8907 46.8347L56.6476 47.6058L44.6716 55.074Z" fill="#2E88C4"/>
<path d="M40.7466 44.8341C41.3895 42.8298 42.6601 41.2462 44.5585 40.0832L44.6055 40.0631C44.962 39.8468 45.3124 39.6652 45.6567 39.5181C48.7896 38.0843 52.4249 39.7513 56.5625 44.5191L42.9169 53.0847L41.276 50.3259C40.2897 48.6969 40.1132 46.8663 40.7466 44.8341Z" fill="#3498DB"/>
<path d="M47.0765 70.3058L47.0676 70.2575C44.512 67.9912 45.5102 65.0637 50.0621 61.475C48.7089 63.3144 47.7322 65.9832 47.1322 69.4813L47.0765 70.3058ZM59.8183 64.9931C59.8057 65.3002 59.3654 65.5336 58.4975 65.6935C57.6626 65.8448 56.6499 65.8739 55.4595 65.7808C54.2362 65.6964 53.2181 65.5076 52.4051 65.2144C51.598 64.9535 51.2007 64.6695 51.2134 64.3624C51.199 64.0962 51.6258 63.8832 52.4936 63.7233C53.3016 63.6128 54.3142 63.5837 55.5316 63.6359C56.722 63.729 57.7208 63.906 58.5279 64.167C59.3679 64.4193 59.798 64.6947 59.8183 64.9931Z" fill="#E7CBA0"/>
<path d="M47.0675 70.2574L47.0764 70.3057L47.132 69.4812C47.7321 65.9831 48.7088 63.3143 50.062 61.4749L60.046 61.4406C60.8716 61.4267 61.2672 61.7955 61.2326 62.547L61.182 63.1171C60.8346 71.3748 58.2826 75.5193 53.5262 75.5507C51.8419 75.587 50.1357 75.4098 48.4075 75.0189C47.2594 74.7798 46.7131 74.248 46.7688 73.4235L46.7738 73.1691C46.8658 72.1663 46.9637 71.1958 47.0675 70.2574ZM58.4974 65.6934C59.3653 65.5335 59.8056 65.3001 59.8182 64.993C59.7979 64.6946 59.3678 64.4192 58.5278 64.1669C57.7206 63.9059 56.7219 63.7289 55.5315 63.6358C54.3141 63.5836 53.3015 63.6127 52.4935 63.7232C51.6257 63.8831 51.1989 64.0961 51.2133 64.3623C51.2006 64.6694 51.5979 64.9534 52.405 65.2143C53.218 65.5075 54.2361 65.6963 55.4594 65.7807C56.6498 65.8738 57.6625 65.8447 58.4974 65.6934Z" fill="#FFE0B1"/>
<path d="M13.1898 77.1501L15.2011 71.2501C15.9637 69.0761 17.2762 67.2761 19.1386 65.8501C20.9165 64.5168 22.765 63.8501 24.684 63.8501H24.734C26.6621 63.8501 28.1637 64.5168 29.2386 65.8501C30.353 67.2761 30.7238 69.0761 30.3511 71.2501L29.2898 77.1501H13.1898Z" fill="#B8824D"/>
<path d="M11.8734 80.8501L13.1898 77.1501H29.2898L28.6358 80.8001L28.6234 80.8501H11.9234H11.8734Z" fill="#9F7042"/>
<path d="M9.83717 86.85L11.9233 80.85H28.6233L28.6356 80.8C29.6352 81.5058 30.492 82.6224 31.2059 84.15L30.7872 86.85H9.83717Z" fill="#D4D0C9"/>
<path d="M36.5828 77.1501L36.4935 71.2501C36.482 69.0761 37.1537 67.2761 38.5084 65.8501C39.8116 64.5168 41.4227 63.8501 43.3417 63.8501H43.3917C45.3198 63.8501 47.0587 64.5168 48.6084 65.8501C50.2305 67.2761 51.2422 69.0761 51.6435 71.2501L52.6828 77.1501H36.5828Z" fill="#B8824D"/>
<path d="M36.5835 80.8501L36.5826 77.1501H52.6826L53.3281 80.8001L53.3335 80.8501H36.6335H36.5835Z" fill="#9F7042"/>
<path d="M36.6838 86.85L36.6337 80.85H53.3337L53.3283 80.8C54.5791 81.5058 55.8334 82.6224 57.0913 84.15L57.6338 86.85H36.6838Z" fill="#D4D0C9"/>
<path d="M16.3 68.05C16.9247 69.7964 18.0913 71.163 19.8 72.15C29.3 70.5689 38.8 70.5689 48.3 72.15C49.5666 71.0415 50.4833 69.6749 51.05 68.05C39.6131 66.8518 28.0297 66.8518 16.3 68.05Z" fill="#D9D6BF"/>
<path d="M51.7001 61.4499C50.7722 55.3213 51.3222 48.5546 53.3501 41.1499H14.3501C16.9187 48.3174 17.4854 55.334 16.0501 62.1999C15.6752 64.4776 15.7586 66.4276 16.3001 68.0499C28.0298 66.8517 39.6131 66.8517 51.0501 68.0499C51.7212 66.195 51.9379 63.995 51.7001 61.4499Z" fill="#3498DB"/>
<path d="M47.6001 46.5499C47.3667 46.2832 47.1334 46.0165 46.9001 45.7499C46.8334 45.6499 46.7334 45.5999 46.6001 45.5999C46.5001 45.5999 46.4001 45.6332 46.3001 45.6999C46.2001 45.7665 46.1501 45.8665 46.1501 45.9999C46.0834 46.0999 46.0834 46.2165 46.1501 46.3499C46.5834 47.3165 46.6167 48.3165 46.2501 49.3499V49.2999C45.6834 50.7665 44.5001 51.8165 42.7001 52.4499C40.9001 53.0499 38.9834 53.0832 36.9501 52.5499C36.7834 52.4499 36.6001 52.3832 36.4001 52.3499C36.3001 52.3165 36.2167 52.3332 36.1501 52.3999C36.0167 52.4665 35.9334 52.5499 35.9001 52.6499C35.8667 52.7499 35.8667 52.8665 35.9001 52.9999C35.9001 53.0999 35.9501 53.1832 36.0501 53.2499C36.9167 53.9499 38.0001 54.4999 39.3001 54.8999H39.2501C41.2834 55.5665 43.2167 55.5999 45.0501 54.9999C46.9167 54.3332 48.1167 53.1499 48.6501 51.4499V51.4999C49.1501 49.8999 48.8001 48.2499 47.6001 46.5499ZM21.5001 46.8999C21.4001 46.8999 21.3167 46.9499 21.2501 47.0499C20.9501 47.3499 20.7334 47.6499 20.6001 47.9499C19.3334 49.7165 18.9834 51.3832 19.5501 52.9499V52.8999C20.0167 54.5999 21.2001 55.6665 23.1001 56.0999C24.9334 56.5332 26.8834 56.2999 28.9501 55.3999C30.1501 54.8665 31.2001 54.2165 32.1001 53.4499C32.2001 53.3832 32.2667 53.2999 32.3001 53.1999C32.3001 53.0665 32.2834 52.9499 32.2501 52.8499C32.2167 52.7499 32.1501 52.6665 32.0501 52.5999C31.9167 52.5332 31.8167 52.5165 31.7501 52.5499C31.5501 52.5832 31.3834 52.6499 31.2501 52.7499C29.1834 53.5499 27.2334 53.7332 25.4001 53.2999C23.6334 52.8665 22.4667 51.9665 21.9001 50.5999C21.5334 49.6332 21.5501 48.6332 21.9501 47.5999C21.9834 47.4999 22.0001 47.3999 22.0001 47.2999C21.9667 47.1665 21.9167 47.0665 21.8501 46.9999C21.7501 46.9332 21.6334 46.8999 21.5001 46.8999Z" fill="#2E88C4"/>
<path d="M6.18994 53.1536L3.32471 64.2508C4.79566 66.0841 6.7321 67.5519 9.13403 68.6541C11.3495 64.1644 14.3416 60.1383 18.1103 56.5759L6.18994 53.1536Z" fill="#FFE0B1"/>
<path d="M18.1104 56.5758C18.5754 56.1582 19.0496 55.7401 19.5329 55.3216L7.06299 49.697L6.19009 53.1534L18.1104 56.5758Z" fill="#FCF7EE"/>
<path d="M19.5328 55.3217L19.9925 55.538L21.1635 53.0956L6.95148 46.6313C6.02098 46.756 5.62676 47.5847 5.76882 49.1174L7.06294 49.6971L19.5328 55.3217Z" fill="#2E88C4"/>
<path d="M22.811 44.6151C22.0393 42.7272 20.6658 41.3478 18.6905 40.4769L18.6422 40.4639C18.2713 40.3025 17.9088 40.1743 17.5546 40.0796C14.3257 39.1224 10.7912 41.3063 6.95132 46.6313L21.1634 53.0955L22.6308 50.1252C23.5148 48.3688 23.5748 46.5321 22.811 44.6151Z" fill="#3498DB"/>
<path d="M18.9544 64.9657L18.9415 64.9174C20.1871 61.5813 18.0728 59.4217 12.5985 58.4384C14.5557 59.4323 16.541 61.3678 18.5542 64.2447L18.9544 64.9657ZM5.65136 66.5115C5.7934 66.784 6.27435 66.7759 7.09422 66.4872C7.88189 66.2071 8.77131 65.7272 9.76249 65.0476C10.7859 64.3592 11.587 63.6787 12.1659 63.0059C12.7535 62.3654 12.9762 61.9088 12.8342 61.6363C12.733 61.3874 12.2724 61.4072 11.4526 61.6959C10.7057 61.9996 9.8163 62.4795 8.7843 63.1356C7.79313 63.8153 7.00377 64.4754 6.41622 65.116C5.79647 65.7652 5.54151 66.2303 5.65136 66.5115Z" fill="#E7CBA0"/>
<path d="M18.9414 64.9174L18.9543 64.9657L18.5541 64.2448C16.5409 61.3678 14.5557 59.4324 12.5984 58.4385L3.93736 63.3992C3.21639 63.7994 3.0313 64.3321 3.38209 64.9973L3.66932 65.4897C7.49578 72.8156 11.4753 75.3036 15.6079 72.954C17.082 72.1449 18.484 71.1308 19.8138 69.9118C20.706 69.1205 20.9521 68.3644 20.5518 67.6435L20.4388 67.4149C19.9311 66.5502 19.4319 65.7177 18.9414 64.9174ZM7.09417 66.4873C6.2743 66.776 5.79335 66.7841 5.65131 66.5116C5.54147 66.2304 5.79642 65.7652 6.41617 65.1161C7.00372 64.4755 7.79308 63.8154 8.78426 63.1357C9.81625 62.4796 10.7057 61.9997 11.4525 61.696C12.2724 61.4073 12.7329 61.3874 12.8341 61.6364C12.9762 61.9089 12.7534 62.3654 12.1659 63.006C11.587 63.6788 10.7858 64.3593 9.76244 65.0476C8.77127 65.7273 7.88184 66.2072 7.09417 66.4873Z" fill="#FFE0B1"/>
<path d="M38.4637 45.2247C39.6503 44.4894 40.4898 43.6448 40.982 42.6909L21.7893 42.1797C22.2301 43.1584 23.0233 44.0465 24.1691 44.8439C26.1004 46.1958 28.4656 46.909 31.2645 46.9836C34.0634 47.0581 36.4632 46.4718 38.4637 45.2247Z" fill="#D7BD93"/>
<path d="M51.3493 17.7588C50.9951 14.7817 49.3392 11.8533 46.3816 8.97364C37.383 0.150922 27.2662 1.2819 16.0313 12.3666C13.0991 12.2885 11.3594 13.7593 10.8121 16.779C10.0698 21.0786 9.67095 24.7859 9.61559 27.9008C11.6963 34.2358 15.7542 38.9954 21.7894 42.1797L40.982 42.6909C46.3158 40.1451 49.9298 35.9066 51.8242 29.9754C52.0232 25.9712 51.8649 21.899 51.3493 17.7588Z" fill="#FFE0B1"/>
<path d="M23.5285 16.3174C25.3073 14.6309 26.2296 12.5548 26.2952 10.0891C26.3609 7.62333 25.5505 5.50105 23.864 3.72223C22.1775 1.9434 20.1013 1.02115 17.6356 0.955475C15.1699 0.889797 13.0476 1.70021 11.2688 3.38673C9.48997 5.07325 8.56773 7.14937 8.50205 9.6151C8.43637 12.0808 9.24679 14.2031 10.9333 15.9819C12.6198 17.7608 14.6959 18.683 17.1617 18.7487C19.6274 18.8144 21.7497 18.004 23.5285 16.3174Z" fill="#9F7042"/>
<path d="M23.582 25.5717C24.1995 24.9213 24.959 24.5747 25.8605 24.5321L20.5178 24.1897L22.4392 29.0424C22.413 28.775 22.4035 28.508 22.4106 28.2414C22.4381 27.2085 22.8286 26.3186 23.582 25.5717ZM42.654 24.9794C43.5519 25.07 44.2919 25.4565 44.8739 26.1389C45.5865 26.9248 45.9291 27.8342 45.9016 28.8671C45.8945 29.1337 45.8707 29.3998 45.8303 29.6655L48.0073 24.9219L42.654 24.9794Z" fill="#BFA984"/>
<path d="M26.1603 24.5401C26.0604 24.5374 25.9604 24.5347 25.8604 24.5321C24.959 24.5747 24.1995 24.9213 23.582 25.5717C22.8285 26.3186 22.4381 27.2085 22.4105 28.2414C22.4034 28.508 22.413 28.775 22.4392 29.0424C22.5872 29.7466 22.9206 30.3724 23.4396 30.9197C24.0856 31.7038 24.925 32.1096 25.958 32.1372C26.9909 32.1647 27.8841 31.805 28.6376 31.0582C29.3235 30.3429 29.6802 29.4687 29.7078 28.4358C29.7353 27.4029 29.426 26.4943 28.78 25.7102C28.0665 24.9576 27.1933 24.5676 26.1603 24.5401ZM24.9122 28.208C24.9615 27.6091 25.1919 27.0984 25.6033 26.6759C26.0147 26.2534 26.5202 26.0501 27.12 26.0661C27.7198 26.0821 28.2305 26.3124 28.6521 26.7571C29.0071 27.2001 29.1933 27.7219 29.2106 28.3225L29.2039 28.5724C29.1555 29.138 28.9427 29.6158 28.5656 30.0059C28.12 30.4608 27.5973 30.6803 26.9975 30.6644C26.3978 30.6484 25.9042 30.4018 25.5167 29.9247C25.1275 29.5142 24.9238 29.0253 24.9056 28.4579L24.9122 28.208ZM44.8739 26.1389C44.2919 25.4565 43.5519 25.07 42.654 24.9794C42.5541 24.9767 42.4541 24.9741 42.3541 24.9714C41.3212 24.9439 40.4284 25.2869 39.6759 26.0004C38.989 26.7491 38.6319 27.6398 38.6044 28.6728C38.5768 29.7057 38.8865 30.5976 39.5334 31.3484C40.2461 32.1343 41.1188 32.541 42.1518 32.5685C43.1847 32.596 44.0446 32.2355 44.7314 31.4868C45.2788 30.9679 45.6451 30.3608 45.8303 29.6655C45.8707 29.3998 45.8945 29.1337 45.9016 28.8671C45.9291 27.8342 45.5865 26.9248 44.8739 26.1389ZM43.4052 28.7006L43.3985 28.9505C43.3501 29.5161 43.1207 29.9935 42.7102 30.3827C42.2979 30.8385 41.7919 31.0584 41.1921 31.0425C40.5923 31.0265 40.0821 30.7795 39.6613 30.3015C39.3055 29.8918 39.1184 29.4034 39.1002 28.836L39.1068 28.5861C39.1561 27.9872 39.3698 27.4761 39.7479 27.0527C40.1926 26.6311 40.7148 26.4282 41.3146 26.4442C41.9144 26.4602 42.4084 26.6901 42.7967 27.1339C43.185 27.5777 43.3878 28.1 43.4052 28.7006Z" fill="white"/>
<path d="M25.6034 26.6758C25.192 27.0984 24.9617 27.6091 24.9124 28.2079L24.9057 28.4579C24.9239 29.0252 25.1277 29.5141 25.5169 29.9246C25.9043 30.4017 26.3979 30.6483 26.9976 30.6643C27.5974 30.6803 28.1201 30.4608 28.5657 30.0058C28.9429 29.6157 29.1557 29.1379 29.2041 28.5723L29.2107 28.3224C29.1934 27.7218 29.0072 27.2 28.6522 26.7571C28.2306 26.3124 27.7199 26.082 27.1201 26.066C26.5204 26.0501 26.0148 26.2533 25.6034 26.6758ZM43.3987 28.9504L43.4053 28.7005C43.388 28.0999 43.1851 27.5776 42.7968 27.1338C42.4085 26.69 41.9145 26.4601 41.3147 26.4441C40.7149 26.4282 40.1927 26.631 39.748 27.0526C39.3699 27.476 39.1562 27.9872 39.107 28.586L39.1003 28.836C39.1185 29.4033 39.3056 29.8918 39.6615 30.3014C40.0822 30.7794 40.5925 31.0264 41.1922 31.0424C41.792 31.0584 42.298 30.8384 42.7103 30.3826C43.1208 29.9934 43.3502 29.516 43.3987 28.9504Z" fill="#7F7058"/>
<path d="M44.8594 23.2158C45.8785 23.1773 46.7556 23.19 47.4906 23.2538C45.4427 21.8593 43.0354 21.2535 40.2687 21.4365C39.929 21.4494 39.6936 21.54 39.5626 21.7085C39.3668 21.8925 39.2714 22.1382 39.2765 22.4455C39.3062 22.7125 39.4169 22.9602 39.6087 23.1885C39.7772 23.3195 41.5274 23.3286 44.8594 23.2158Z" fill="#B8824D"/>
<path d="M22.4627 23.1306C23.1717 23.2019 24.031 23.3526 25.0406 23.5826C28.299 24.2016 30.0158 24.4502 30.191 24.3283C30.4491 24.1615 30.6001 23.9456 30.644 23.6804C30.7068 23.3514 30.6566 23.1105 30.4933 22.9578C30.3585 22.7091 30.1585 22.5629 29.8934 22.519C27.1617 21.8824 24.6848 22.0863 22.4627 23.1306Z" fill="#B8824D"/>
<path d="M23.4158 35.5707C23.9605 35.1517 24.2403 34.659 24.2554 34.0925C24.2723 33.4595 24.0199 32.9192 23.4983 32.4719C23.0425 32.0596 22.4814 31.8446 21.815 31.8268C21.1152 31.8082 20.5101 31.9921 19.9997 32.3787C19.5216 32.7994 19.2742 33.3263 19.2573 33.9594C19.2423 34.5259 19.4622 35.0319 19.9171 35.4775C20.4054 35.924 20.9994 36.1565 21.6991 36.1752C22.3656 36.1929 22.9378 35.9914 23.4158 35.5707Z" fill="white" fill-opacity="0.301961"/>
<path d="M47.9566 36.2245C48.5012 35.8055 48.7811 35.3128 48.7962 34.7464C48.8131 34.1133 48.5607 33.573 48.0391 33.1257C47.5833 32.7134 47.0221 32.4984 46.3557 32.4806C45.656 32.462 45.0509 32.6459 44.5404 33.0325C44.0624 33.4532 43.815 33.9801 43.7981 34.6132C43.783 35.1797 44.003 35.6857 44.4579 36.1313C44.9462 36.5778 45.5402 36.8103 46.2399 36.829C46.9063 36.8467 47.4785 36.6452 47.9566 36.2245Z" fill="white" fill-opacity="0.301961"/>
<path d="M29.9505 34.5092C29.7742 34.3761 29.5827 34.3324 29.3759 34.3783C29.1699 34.3985 29.0131 34.4971 28.9056 34.6741C28.7724 34.8504 28.7288 35.0419 28.7747 35.2487C28.7949 35.4547 28.8931 35.6243 29.0694 35.7575C31.4146 37.4128 34.2312 37.7705 37.519 36.8304C37.7265 36.7588 37.8839 36.6346 37.9914 36.4576C38.0732 36.2799 38.0912 36.0877 38.0453 35.881C37.9738 35.6735 37.8492 35.5289 37.6715 35.4471C37.4945 35.3396 37.3027 35.3088 37.0959 35.3547C34.3256 36.1544 31.9438 35.8726 29.9505 34.5092Z" fill="#7F7058"/>
<path d="M39.9479 2.65012C37.798 1.99266 35.968 1.84388 34.458 2.20379C32.4414 1.54988 30.4321 1.24628 28.4302 1.29299C28.2645 1.25523 28.0984 1.23413 27.9318 1.22969C27.5652 1.21993 27.2478 1.24482 26.9795 1.30436C25.6422 1.43546 24.3847 1.70206 23.2069 2.10417C17.9628 3.69838 13.7347 7.20361 10.5228 12.6199C9.23575 14.6196 8.27929 16.7281 7.65337 18.9455C6.96614 20.9612 6.52659 23.0669 6.33473 25.2625C6.32852 25.4957 6.32098 25.779 6.3121 26.1122C6.46265 24.2156 6.86178 22.3756 7.50948 20.5922C8.16783 18.4091 9.14139 16.2843 10.4302 14.2179C14.408 7.58833 19.9107 3.80028 26.9382 2.85377C27.3065 2.79689 27.6735 2.78999 28.0391 2.83307C30.1401 2.82235 32.2655 3.14572 34.4154 3.80318C35.8939 3.37574 37.741 3.5083 39.9566 4.20086C47.2672 6.39625 51.5968 11.5966 52.9454 19.8019C52.9854 20.8032 53.0745 21.8393 53.2127 22.91C53.1945 22.3426 53.1754 21.8086 53.1554 21.3079C53.0856 20.1724 52.9812 19.0859 52.8421 18.0485C51.5574 9.94499 47.2594 4.81219 39.9479 2.65012Z" fill="#C68C53"/>
<path d="M34.6408 14.1126C34.2872 14.8701 33.9502 15.6281 33.63 16.3864L47.4641 20.9063C50.0142 21.8776 50.8031 24.1827 49.8308 27.8216C48.9348 31.4304 49.1857 35.155 50.5835 38.9953C51.8623 38.2921 52.5102 35.8753 52.5272 31.7447L53.2467 23.5111C53.2187 23.3103 53.2073 23.1099 53.2127 22.91C53.0745 21.8393 52.9853 20.8033 52.9453 19.8019C51.5967 11.5966 47.2671 6.39629 39.9565 4.20091C37.7409 3.50835 35.8938 3.37579 34.4153 3.80322C32.2654 3.14576 30.14 2.82239 28.039 2.83312C27.6734 2.79004 27.3064 2.79693 26.9381 2.85381C19.9106 3.80033 14.4079 7.58838 10.4301 14.218C9.14131 16.2843 8.16775 18.4091 7.5094 20.5923C6.8617 22.3756 6.46257 24.2156 6.31202 26.1122C6.30847 26.2455 6.30403 26.4121 6.29871 26.612C6.47387 36.0604 9.68635 41.2643 15.9362 42.2238C15.425 35.4238 17.2217 31.1869 21.3264 29.5131L19.5388 21.5129C25.202 20.4634 30.5265 17.104 35.5124 11.4349C35.5142 11.3683 35.5484 11.3359 35.615 11.3376C35.257 12.2617 34.9322 13.1867 34.6408 14.1126Z" fill="#B8824D"/>
<path d="M33.6299 16.3865C33.9502 15.6281 34.2872 14.8702 34.6408 14.1127C34.9322 13.1868 35.257 12.2618 35.615 11.3377C35.5484 11.3359 35.5142 11.3684 35.5124 11.435C30.5265 17.1041 25.2019 20.4634 19.5388 21.5129L21.3264 29.5132L21.3237 29.6131C26.4181 27.3814 30.5202 22.9725 33.6299 16.3865Z" fill="#AD7A48"/>
</svg>
