<svg width="97" height="99" viewBox="0 0 97 99" fill="none" xmlns="http://www.w3.org/2000/svg">
<path d="M35.8001 34.55L32.1001 34.35C31.7001 34.3166 31.3334 34.45 31.0001 34.75C30.6668 35.05 30.4834 35.4166 30.4501 35.85C30.2168 40.55 28.3501 44.6833 24.8501 48.25C24.5501 48.4833 24.4001 48.8166 24.4001 49.25C24.3668 49.7166 24.4834 50.1 24.7501 50.4V50.45C24.7834 50.4166 24.8168 50.3833 24.8501 50.35C30.0168 45.85 33.4834 40.9 35.2501 35.5C35.3501 35.1666 35.5334 34.85 35.8001 34.55Z" fill="#454A51"/>
<path d="M46.25 35.1501L35.8 34.55C35.5333 34.85 35.35 35.1667 35.25 35.5C33.4833 40.9 30.0167 45.85 24.85 50.35C24.8167 50.3834 24.7833 50.4167 24.75 50.4501C25.05 50.75 25.4 50.9334 25.8 51C36.8 52.1667 44.1 47.6167 47.7 37.35C47.8 36.9834 47.8167 36.6501 47.75 36.3501C47.65 36.0167 47.4667 35.75 47.2 35.55C46.9 35.2834 46.5833 35.1501 46.25 35.1501Z" fill="#3C3E41"/>
<path d="M69.2002 35.5C69.1002 35.1667 68.9168 34.85 68.6502 34.55L58.2002 35.1501C57.8668 35.1501 57.5502 35.2834 57.2502 35.55C56.9835 35.75 56.8002 36.0167 56.7002 36.3501C56.6335 36.6501 56.6502 36.9834 56.7502 37.35C60.3502 47.6167 67.6502 52.1667 78.6502 51C79.0502 50.9334 79.4002 50.75 79.7002 50.4501C79.6668 50.4167 79.6335 50.3834 79.6002 50.35C74.4335 45.85 70.9668 40.9 69.2002 35.5Z" fill="#3C3E41"/>
<path d="M74.0004 35.85C73.9671 35.4166 73.7837 35.05 73.4504 34.75C73.1171 34.45 72.7504 34.3166 72.3504 34.35L68.6504 34.55C68.9171 34.85 69.1004 35.1666 69.2004 35.5C70.9671 40.9 74.4337 45.85 79.6004 50.35C79.6337 50.3833 79.6671 50.4166 79.7004 50.45V50.4C79.9671 50.1 80.0837 49.7166 80.0504 49.25C80.0504 48.8166 79.9004 48.4833 79.6004 48.25C76.1004 44.6833 74.2337 40.55 74.0004 35.85Z" fill="#454A51"/>
<path d="M67.8998 98.95L67.9998 95.95H53.0498V98.95H67.8998Z" fill="white"/>
<path d="M67.9998 95.95C64.7665 95.05 62.8498 93.05 62.2498 89.95H53.0498V95.95H67.9998Z" fill="#BFD4E5"/>
<path d="M62.2498 89.95H62.2998L62.4498 84.95H53.0498V89.95H62.2498Z" fill="#BF7958"/>
<path d="M62.9 75.75C62.9 74.15 62.2667 72.7833 61 71.65C59.7667 70.5166 58.25 69.95 56.45 69.95C54.6833 69.95 53.1667 70.5166 51.9 71.65C50.6333 72.7833 50 74.15 50 75.75C51.9667 77.35 52.9833 80.4166 53.05 84.95H62.45L62.9 75.75Z" fill="#676AC6"/>
<path d="M30.1002 98.95L30.0002 95.95H44.9502V98.95H30.1002Z" fill="white"/>
<path d="M30.0002 95.95C33.2335 95.05 35.1502 93.05 35.7502 89.95H44.9502V95.95H30.0002Z" fill="#BFD4E5"/>
<path d="M35.7502 89.95H35.7002L35.5502 84.95H44.9502V89.95H35.7502Z" fill="#BF7958"/>
<path d="M35.1 75.75C35.1 74.15 35.7333 72.7833 37 71.65C38.2333 70.5166 39.75 69.95 41.55 69.95C43.3167 69.95 44.8333 70.5166 46.1 71.65C47.3667 72.7833 48 74.15 48 75.75C46.0333 77.35 45.0167 80.4166 44.95 84.95H35.55L35.1 75.75Z" fill="#676AC6"/>
<path d="M79.7537 65.9752C81.9275 67.0063 83.6207 67.7706 84.8333 68.268C86.0458 68.7655 86.531 69.7237 86.2888 71.1427C86.0317 72.4886 85.3304 73.5603 84.185 74.3577C83.0396 75.155 81.8057 75.4456 80.4834 75.2292C77.5488 74.719 74.852 73.7721 72.393 72.3885L77.7969 64.7779C78.4598 65.2661 79.1121 65.6652 79.7537 65.9752Z" fill="#BF7958"/>
<path d="M72.6243 59.3544C73.4711 60.444 74.2955 61.4241 75.0975 62.2947L69.0235 70.088C67.8587 69.1548 66.7445 68.097 65.681 66.9148C63.5538 64.5504 61.6613 61.6967 60.0034 58.3537C59.378 57.0818 59.2786 55.7784 59.7054 54.4434C60.1407 53.0761 60.9739 52.0916 62.205 51.4897C63.3975 50.774 64.6613 50.6295 65.9963 51.0563C67.2991 51.4744 68.2472 52.3151 68.8404 53.5783C69.9671 55.8127 71.2284 57.7381 72.6243 59.3544Z" fill="#3DBF7B"/>
<path d="M72.393 72.3885L71.6866 73.2863L68.1559 71.2014L69.0236 70.0881L75.0976 62.2947L75.6686 61.516L78.6163 63.6517L77.7969 64.778L72.393 72.3885Z" fill="#25A863"/>
<path d="M17.4003 61.65C15.0337 62.0833 13.2004 62.3833 11.9004 62.55C10.6005 62.7166 9.88383 63.5166 9.7505 64.9499C9.6505 66.3165 10.0505 67.5331 10.9505 68.5998C11.8504 69.6664 12.9671 70.2664 14.3004 70.3997C17.2669 70.6664 20.1168 70.4497 22.8501 69.7497L19.6002 61C18.8336 61.3 18.1002 61.5167 17.4003 61.65Z" fill="#BF7958"/>
<path d="M26.0001 57.1C24.9001 57.9333 23.8502 58.6666 22.8502 59.2999L26.7001 68.3997C28.0667 67.7997 29.4167 67.0664 30.75 66.1997C33.4165 64.4664 35.9831 62.1998 38.4497 59.3999C39.383 58.3333 39.8163 57.1 39.7497 55.7C39.683 54.2668 39.133 53.1001 38.0997 52.2002C37.1331 51.2002 35.9498 50.7335 34.5498 50.8002C33.1832 50.8669 32.0499 51.4335 31.1499 52.5001C29.4833 54.3668 27.7667 55.9 26.0001 57.1Z" fill="#3DBF7B"/>
<path d="M22.8501 69.7496L23.3001 70.7995L27.25 69.6996L26.7 68.3996L22.8501 59.2999L22.5001 58.3999L19.1002 59.6999L19.6002 60.9998L22.8501 69.7496Z" fill="#25A863"/>
<path d="M35.2502 76.5C35.2168 77.9333 35.4168 79.45 35.8502 81.05H61.1502C61.5835 79.45 61.7835 77.9333 61.7502 76.5H35.2502Z" fill="#676AC6"/>
<path d="M35.1 71.55H38.05C38.55 68.7166 37.0333 66.05 33.5 63.55L33.7 64.35C34.4 66.5833 34.8667 68.9833 35.1 71.55ZM63.3 64.35L63.5 63.55C59.9667 66.05 58.4667 68.7166 59 71.55H61.95C62.1833 68.9833 62.6333 66.5833 63.3 64.35ZM58.45 63.95C58.45 63.3833 57.5 62.8833 55.6 62.45C53.6333 62.1166 51.2667 61.95 48.5 61.95C45.7333 61.95 43.3667 62.1166 41.4 62.45C39.5 62.8833 38.55 63.3833 38.55 63.95C38.55 64.5166 39.5 64.9666 41.4 65.3C43.3667 65.7333 45.7333 65.95 48.5 65.95C51.2667 65.95 53.6333 65.7333 55.6 65.3C57.5 64.9666 58.45 64.5166 58.45 63.95Z" fill="#25A863"/>
<path d="M63.1002 71.55H61.9502H59.0002H38.0502H35.1002H33.9502L34.7002 76.5H35.2502H61.7502H62.3502L63.1002 71.55Z" fill="#3C3E41"/>
<path d="M66.7502 57.2C67.4169 53.8333 66.7169 52.0833 64.6502 51.95C64.4835 51.95 64.3169 51.95 64.1502 51.95H32.8502C30.4169 51.8166 29.5502 53.5666 30.2502 57.2C31.7169 59.3 32.8669 61.6833 33.7002 64.35L33.5002 63.55C37.0335 66.05 38.5502 68.7166 38.0502 71.55H59.0002C58.4669 68.7166 59.9669 66.05 63.5002 63.55L63.3002 64.35C64.1335 61.6833 65.2835 59.3 66.7502 57.2ZM55.6002 62.45C57.5002 62.8833 58.4502 63.3833 58.4502 63.95C58.4502 64.5166 57.5002 64.9666 55.6002 65.3C53.6335 65.7333 51.2669 65.95 48.5002 65.95C45.7335 65.95 43.3669 65.7333 41.4002 65.3C39.5002 64.9666 38.5502 64.5166 38.5502 63.95C38.5502 63.3833 39.5002 62.8833 41.4002 62.45C43.3669 62.1166 45.7335 61.95 48.5002 61.95C51.2669 61.95 53.6335 62.1166 55.6002 62.45Z" fill="#3DBF7B"/>
<path d="M59.0502 51.8C58.8502 53.9334 57.8502 55.7667 56.0502 57.3C53.9502 59.0667 51.4335 59.95 48.5002 59.95C45.5669 59.95 43.0502 59.0667 40.9502 57.3C39.1502 55.8 38.1669 54 38.0002 51.9C37.6335 52.7334 37.4502 53.6 37.4502 54.5C37.4502 54.6667 37.4669 54.8334 37.5002 55C37.6002 57.0667 38.6502 58.8167 40.6502 60.25C42.8169 61.8834 45.4335 62.7 48.5002 62.7C51.5669 62.7 54.2002 61.8834 56.4002 60.25C58.4002 58.8167 59.4502 57.0667 59.5502 55C59.5835 54.8334 59.6002 54.6667 59.6002 54.5C59.6002 53.5667 59.4169 52.6667 59.0502 51.8Z" fill="white"/>
<path d="M59.1004 51C59.1004 48.5334 58.0837 46.4 56.0504 44.6C53.9504 42.9 51.4337 42.05 48.5004 42.05C45.5671 42.05 43.0504 42.9 40.9504 44.6C38.9171 46.4 37.9004 48.5334 37.9004 51C37.9004 51.1667 37.9171 51.3334 37.9504 51.5C37.9504 51.6334 37.9671 51.7667 38.0004 51.9C38.1671 54 39.1504 55.8 40.9504 57.3C43.0504 59.0667 45.5671 59.95 48.5004 59.95C51.4337 59.95 53.9504 59.0667 56.0504 57.3C57.8504 55.7667 58.8504 53.9334 59.0504 51.8C59.0504 51.7 59.0504 51.6 59.0504 51.5C59.0837 51.3334 59.1004 51.1667 59.1004 51Z" fill="#BF7958"/>
<path d="M89.8185 64.9477L88.9601 64.5376C85.0143 63.2624 81.4557 63.4468 78.2842 65.0908C84.718 60.9745 88.5846 60.9178 89.8838 64.9206L89.8185 64.9477Z" fill="#A8603F"/>
<path d="M75.2202 72.4805L78.2842 65.0906C81.4557 63.4467 85.0144 63.2623 88.9601 64.5375L89.8185 64.9476L89.8839 64.9205C90.9128 65.311 92.0058 65.7643 93.1631 66.2802L93.4865 66.4143C94.3794 66.7845 94.6873 67.6519 94.4102 69.0165C94.0189 71.0915 93.4377 73.0156 92.6664 74.7887C90.7461 79.3331 84.9307 78.5637 75.2202 72.4805Z" fill="#BF7958"/>
<path d="M63.6446 43.5499C59.7254 40.9499 54.9771 39.6499 49.3998 39.6499C43.8225 39.6499 39.024 40.9499 35.0043 43.5499C31.0851 46.2166 29.1255 49.3999 29.1255 53.0999C29.1255 56.7999 31.0851 59.9499 35.0043 62.5499C39.024 65.2166 43.8225 66.5499 49.3998 66.5499C54.9771 66.5499 59.7254 65.2166 63.6446 62.5499C67.6643 59.9499 69.6742 56.7999 69.6742 53.0999C69.6742 49.3999 67.6643 46.2166 63.6446 43.5499Z" fill="url(#paint0_radial_19_19697)"/>
<path d="M76.5988 29.5422C76.7936 24.7322 74.8932 20.3309 70.8976 16.3384C66.5436 11.9683 60.9732 9.3854 54.1863 8.58962C47.3995 7.79385 41.3827 9.01815 36.1358 12.2625C31.3582 15.2263 28.5078 19.0705 27.5846 23.7951C27.3161 29.2342 29.1378 34.1632 33.0498 38.5822C37.3456 43.4489 42.8869 46.2801 49.6737 47.0759C56.4605 47.8717 62.5065 46.3991 67.8116 42.6581C72.6728 39.2678 75.6019 34.8959 76.5988 29.5422Z" fill="#3C3E41"/>
<path d="M76.8171 28.1078C77.5236 22.0824 75.7289 16.6363 71.4331 11.7696C67.1296 6.96912 61.5844 4.17099 54.7975 3.37521C48.0107 2.57943 41.9686 4.01893 36.6713 7.69369C31.3993 11.4386 28.4101 16.3237 27.7036 22.3491C27.6454 22.8457 27.6057 23.3276 27.5844 23.795C28.5076 19.0704 31.358 15.2262 36.1356 12.2624C41.3825 9.01801 47.3993 7.7937 54.1861 8.58948C60.973 9.38526 66.5434 11.9682 70.8974 16.3383C74.893 20.3308 76.7934 24.732 76.5986 29.5421C76.686 29.0825 76.7589 28.6044 76.8171 28.1078Z" fill="#454A51"/>
<path d="M28.3416 25.4947C26.6032 26.8683 25.602 28.6807 25.338 30.9319C25.0818 33.117 25.6405 35.0787 27.014 36.8172C28.3798 38.6218 30.1552 39.6523 32.3403 39.9085C34.4922 40.1608 36.4578 39.569 38.2371 38.1331C39.9756 36.7595 40.9729 34.9802 41.2291 32.7952C41.4931 30.544 40.9383 28.5491 39.5647 26.8107C38.1619 25.0352 36.3846 24.0214 34.2327 23.769C32.0476 23.5128 30.084 24.0881 28.3416 25.4947ZM29.5107 34.8445C28.6925 33.8088 28.361 32.6289 28.5162 31.3046C28.6676 30.0134 29.267 28.9091 30.3143 27.9915C31.35 27.1732 32.5299 26.8417 33.8542 26.9969C35.2116 27.1561 36.2828 27.7516 37.068 28.7833C37.8747 29.9183 38.2023 31.1314 38.0509 32.4226C37.8956 33.7468 37.3001 34.8181 36.2645 35.6364C35.258 36.4917 34.0761 36.8397 32.7188 36.6806C31.3945 36.5253 30.3252 35.9133 29.5107 34.8445ZM63.7622 41.126C65.128 42.9307 66.9034 43.9611 69.0885 44.2173C71.2404 44.4696 73.206 43.8778 74.9853 42.4419C76.7238 41.0684 77.7211 39.2891 77.9773 37.1041C78.2413 34.8528 77.6865 32.858 76.3129 31.1195C74.9101 29.3441 73.1328 28.3302 70.9809 28.0779C68.7958 27.8217 66.8322 28.3969 65.0898 29.8036C63.3514 31.1771 62.3502 32.9895 62.0862 35.2408C61.83 37.4258 62.3887 39.3875 63.7622 41.126ZM67.0625 32.3003C68.0982 31.482 69.2781 31.1505 70.6024 31.3058C71.9266 31.461 72.9979 32.0565 73.8162 33.0922C74.6229 34.2272 74.9505 35.4402 74.7991 36.7314C74.6438 38.0557 74.0483 39.1269 73.0127 39.9452C71.9731 40.7966 70.7912 41.1447 69.4669 40.9894C68.1427 40.8341 67.0734 40.2221 66.2589 39.1533C65.4407 38.1177 65.1091 36.9377 65.2644 35.6134C65.4158 34.3223 66.0152 33.2179 67.0625 32.3003Z" fill="#BF7958"/>
<path d="M28.5163 31.3046C28.361 32.6289 28.6925 33.8089 29.5108 34.8445C30.3252 35.9133 31.3946 36.5253 32.7188 36.6806C34.0762 36.8398 35.2581 36.4917 36.2645 35.6364C37.3002 34.8181 37.8957 33.7469 38.051 32.4226C38.2023 31.1315 37.8747 29.9184 37.0681 28.7834C36.2829 27.7516 35.2116 27.1561 33.8542 26.997C32.53 26.8417 31.35 27.1732 30.3143 27.9915C29.267 28.9091 28.6677 30.0135 28.5163 31.3046ZM70.6024 31.3058C69.2782 31.1505 68.0982 31.482 67.0626 32.3003C66.0152 33.2179 65.4159 34.3223 65.2645 35.6135C65.1092 36.9377 65.4407 38.1177 66.259 39.1534C67.0734 40.2222 68.1428 40.8342 69.467 40.9895C70.7913 41.1447 71.9732 40.7967 73.0127 39.9453C74.0484 39.127 74.6439 38.0557 74.7992 36.7314C74.9505 35.4403 74.6229 34.2272 73.8163 33.0922C72.998 32.0566 71.9267 31.4611 70.6024 31.3058Z" fill="#A8603F"/>
<path d="M69.252 43.6828L74.1624 21.5541L32.5972 16.6804L32.2555 39.3448C33.0383 44.4037 36.0816 48.2174 41.3852 50.7858C44.0536 52.072 46.7159 52.8373 49.3722 53.0816C52.046 53.4622 54.8132 53.3336 57.6736 52.6957C63.4606 51.4277 67.3201 48.4234 69.252 43.6828Z" fill="#BF7958"/>
<path d="M53.2522 40.5985C54.0017 40.2165 54.4115 39.7275 54.4813 39.1316C54.5512 38.5357 54.2676 37.9487 53.6306 37.3706C53.019 36.8626 52.2331 36.5523 51.273 36.4397C50.3791 36.3349 49.5759 36.4588 48.8633 36.8116C48.1429 37.2306 47.7478 37.738 47.678 38.3339C47.6081 38.9298 47.877 39.4983 48.4848 40.0395C49.0848 40.6468 49.8318 41.0029 50.7257 41.1077C51.6858 41.2203 52.5279 41.0505 53.2522 40.5985Z" fill="#955435"/>
<path d="M38.9103 34.537C38.9258 34.4046 38.9394 34.2887 38.951 34.1894C39.0869 33.0306 39.5841 32.0821 40.4426 31.3437C41.1492 30.7553 41.9592 30.4308 42.8725 30.3701L37.1616 29.7004C38.424 30.956 39.0069 32.5682 38.9103 34.537ZM45.2646 37.4468C45.8058 36.839 46.1346 36.0385 46.251 35.0453C46.3636 34.0852 46.2289 33.2304 45.8469 32.4808C45.4649 31.7312 44.9263 31.3157 44.2311 31.2342C43.569 31.1565 42.982 31.4401 42.4701 32.0849C41.925 32.7257 41.5963 33.5262 41.4837 34.4863C41.3672 35.4795 41.5019 36.3344 41.8878 37.0508C42.2366 37.7965 42.7421 38.2082 43.4043 38.2858C44.0995 38.3674 44.7196 38.0877 45.2646 37.4468ZM63.9299 37.1182C63.9182 37.2175 63.9046 37.3334 63.8891 37.4658C64.2506 35.5281 65.174 34.0925 66.6595 33.1592L60.9983 32.4954C61.8728 32.7657 62.5857 33.2688 63.1371 34.0047C63.8015 34.9216 64.0657 35.9595 63.9299 37.1182ZM56.6299 36.2623C56.5134 37.2555 56.6481 38.1103 57.034 38.8268C57.3829 39.5725 57.9049 39.9861 58.6001 40.0676C59.2623 40.1452 59.8658 39.8636 60.4109 39.2227C60.952 38.6149 61.2808 37.8144 61.3972 36.8212C61.5098 35.8612 61.3751 35.0063 60.9931 34.2567C60.6112 33.5072 60.0891 33.0936 59.427 33.0159C58.7317 32.9344 58.1282 33.216 57.6163 33.8608C57.0713 34.5017 56.7425 35.3022 56.6299 36.2623Z" fill="#3C3E41"/>
<path d="M43.2755 30.3671C43.143 30.3515 43.0087 30.3526 42.8724 30.3701C41.9591 30.4309 41.1491 30.7554 40.4424 31.3438C39.5839 32.0822 39.0868 33.0307 38.9509 34.1894C38.9393 34.2888 38.9257 34.4046 38.9101 34.5371C38.8599 35.538 39.1378 36.46 39.7437 37.3029C40.4373 38.2569 41.3635 38.8018 42.5222 38.9376C43.6479 39.0696 44.6419 38.7499 45.5042 37.9784C46.3958 37.2439 46.9096 36.2973 47.0454 35.1385C47.1813 33.9798 46.9005 32.94 46.203 32.0192C45.5424 31.0692 44.6494 30.5281 43.5238 30.3962C43.4244 30.3845 43.3417 30.3748 43.2755 30.3671ZM46.2509 35.0454C46.1344 36.0386 45.8056 36.8391 45.2645 37.4469C44.7195 38.0877 44.0994 38.3674 43.4041 38.2859C42.742 38.2083 42.2365 37.7966 41.8876 37.0509C41.5018 36.3344 41.3671 35.4796 41.4835 34.4864C41.5961 33.5263 41.9249 32.7258 42.4699 32.0849C42.9818 31.4402 43.5688 31.1566 44.231 31.2342C44.9262 31.3157 45.4648 31.7313 45.8468 32.4809C46.2288 33.2305 46.3635 34.0853 46.2509 35.0454ZM60.9982 32.4954C60.8696 32.4468 60.7391 32.4147 60.6067 32.3992C60.5074 32.3875 60.4081 32.3759 60.3087 32.3643C59.1831 32.2323 58.2057 32.554 57.3764 33.3293C56.4848 34.0638 55.9711 35.0104 55.8352 36.1692C55.6993 37.3279 55.9802 38.3677 56.6777 39.2885C57.3051 40.2347 58.1816 40.7737 59.3072 40.9057C60.4991 41.0455 61.5427 40.7315 62.4382 39.9639C63.2227 39.284 63.7063 38.4513 63.889 37.4659C63.9045 37.3335 63.9181 37.2176 63.9297 37.1183C64.0656 35.9596 63.8013 34.9217 63.1369 34.0048C62.5856 33.2689 61.8726 32.7658 60.9982 32.4954ZM57.0339 38.8268C56.648 38.1104 56.5133 37.2555 56.6298 36.2623C56.7423 35.3023 57.0711 34.5018 57.6161 33.8609C58.128 33.2161 58.7316 32.9345 59.4269 33.016C60.089 33.0936 60.611 33.5072 60.993 34.2568C61.375 35.0064 61.5097 35.8612 61.3971 36.8213C61.2806 37.8145 60.9519 38.615 60.4107 39.2228C59.8657 39.8637 59.2621 40.1453 58.6 40.0677C57.9048 39.9862 57.3827 39.5725 57.0339 38.8268Z" fill="white"/>
<path d="M52.4482 46.5956L52.8208 43.4174L45.2229 42.5265C44.9911 42.4994 44.7662 42.5569 44.5482 42.6991C44.3048 42.7713 44.153 42.9213 44.0927 43.1492C44.0071 43.3069 43.9818 43.5221 44.017 43.7947C44.0113 44.1297 44.0864 44.4909 44.2423 44.8783C44.3807 45.1295 44.5337 45.3991 44.7012 45.6873L52.4482 46.5956Z" fill="white"/>
<path d="M55.9492 43.7842L52.8206 43.4174L52.448 46.5956L44.7011 45.6873C44.857 46.0747 45.0869 46.4037 45.3908 46.6743C46.5345 48.0837 48.0333 48.8971 49.8872 49.1145C51.675 49.3241 53.3028 48.8941 54.7707 47.8245L54.8758 47.7864C55.4268 47.3812 55.9047 46.8834 56.3095 46.2932C56.5508 45.9524 56.7406 45.6222 56.8787 45.3028C56.9428 45.0418 56.9515 44.8247 56.9047 44.6514C56.8657 44.4119 56.7527 44.2308 56.5657 44.1082C56.3864 43.9194 56.181 43.8114 55.9492 43.7842Z" fill="#A8603F"/>
<path d="M72.8189 30.005L74.7903 21.7786L74.244 21.7146L74.343 20.8703L31.9336 15.8977L31.6883 23.5713C38.8217 24.2735 44.2448 23.5334 47.9575 21.3509C50.8999 26.0253 54.3019 28.6393 58.1637 29.1928L59.9649 26.2827C64.2402 28.4621 68.5248 29.7029 72.8189 30.005Z" fill="#3C3E41"/>
<path d="M70.972 20.4247C70.5277 19.6343 69.949 18.8448 69.236 18.0564C65.9261 14.5135 60.9439 12.352 54.2895 11.5717C47.6351 10.7915 42.3065 11.7273 38.3038 14.3792C38.0195 14.5137 37.7811 14.6871 37.5884 14.8994C36.9712 15.2969 36.4456 15.7723 36.0116 16.3255C35.5522 16.8086 35.4268 17.4484 35.6355 18.2447C40.1935 16.2956 46.2135 15.7597 53.6956 16.637C61.1114 17.5065 66.8296 19.402 70.8501 22.3234C71.2334 21.63 71.2741 20.9971 70.972 20.4247Z" fill="#71A2BE"/>
<path d="M35.8242 30.8022C36.2836 30.319 36.5209 29.726 36.5362 29.023L36.5486 23.3357L31.6323 22.7593L31.6494 29.0541C31.638 29.724 31.8865 30.3237 32.3949 30.8531C32.8781 31.3125 33.4565 31.5314 34.1303 31.5097L34.1799 31.5155C34.8498 31.527 35.3979 31.2892 35.8242 30.8022Z" fill="#3C3E41"/>
<path d="M67.2757 32.6274C67.1279 33.3148 67.2216 33.9467 67.5568 34.523C67.892 35.0993 68.3867 35.4594 69.0411 35.6032L69.0908 35.609C69.7413 35.786 70.3546 35.7069 70.9309 35.3717C71.5481 34.9742 71.9286 34.4483 72.0724 33.7939L73.5452 27.6738L68.5792 27.0915L67.2757 32.6274Z" fill="#3C3E41"/>
<path d="M38.7344 25.3037L37.8094 27.6117L47.0844 29.6557L47.8636 27.7334L38.7344 25.3037Z" fill="#3C3E41"/>
<path d="M66.5946 31.138L66.4768 28.7078L57.138 28.0658L57.2469 30.1426L66.5946 31.138Z" fill="#3C3E41"/>
<path d="M71.4733 39.7646C71.1541 40.1971 71.0336 40.6528 71.1116 41.1318L71.6565 45.0721C71.7346 45.5511 71.9733 45.9483 72.3726 46.2636C72.7758 46.5458 73.2335 46.6498 73.7456 46.5756L73.7953 46.5814C74.2743 46.5033 74.6714 46.2646 74.9868 45.8653C75.306 45.4329 75.4285 44.9606 75.3543 44.4485L74.8036 40.5579C74.7255 40.0788 74.4703 39.6797 74.0378 39.3605C73.6015 39.0745 73.1604 38.9724 72.7145 39.0543L72.6648 39.0485C72.1527 39.1227 71.7555 39.3614 71.4733 39.7646Z" fill="#EEA160"/>
<path d="M31.0998 35.0309C30.9185 34.5733 30.5874 34.2492 30.1063 34.0585L30.0566 34.0527C29.6087 33.8659 29.1393 33.8613 28.6487 34.0387C28.1541 34.2492 27.8135 34.5784 27.6267 35.0264L26.2406 38.6899C26.05 39.1709 26.0599 39.6587 26.2704 40.1533C26.4848 40.6147 26.7994 40.9369 27.2143 41.1198L27.2639 41.1256C27.745 41.3163 28.2143 41.3209 28.6719 41.1397C29.1664 40.9292 29.5071 40.5999 29.6939 40.152L31.1354 36.4446C31.3222 35.9967 31.3103 35.5254 31.0998 35.0309Z" fill="#EEA160"/>
<path d="M7.2816 60.8476L8.14 60.4375C12.0858 59.1623 15.6444 59.3467 18.8159 60.9907C12.3821 56.8744 8.51551 56.8177 7.21626 60.8205L7.2816 60.8476Z" fill="#A8603F"/>
<path d="M21.8799 68.3804L18.8159 60.9905C15.6444 59.3466 12.0857 59.1622 8.13995 60.4374L7.28155 60.8475L7.21621 60.8204C6.18734 61.2109 5.09425 61.6642 3.93695 62.1801L3.61364 62.3142C2.7207 62.6844 2.41278 63.5518 2.6899 64.9164C3.08117 66.9914 3.66245 68.9155 4.43372 70.6886C6.35404 75.233 12.1694 74.4636 21.8799 68.3804Z" fill="#BF7958"/>
<defs>
<radialGradient id="paint0_radial_19_19697" cx="0" cy="0" r="1" gradientUnits="userSpaceOnUse" gradientTransform="translate(49.3998 53.0999) scale(20.4816 13.5875)">
<stop stop-opacity="0.301961"/>
<stop offset="1" stop-opacity="0"/>
</radialGradient>
</defs>
</svg>
