<svg width="78" height="97" viewBox="0 0 78 97" fill="none" xmlns="http://www.w3.org/2000/svg">
<g clip-path="url(#clip0_19_19785)">
<path d="M51.1002 12.35C45.9002 8.28334 39.6169 6.25 32.2502 6.25C24.9169 6.25 18.6169 8.28334 13.3502 12.35C11.3169 13.95 9.68353 15.6833 8.4502 17.55C7.61686 19.9833 7.2002 22.5833 7.2002 25.35C7.2002 25.4167 7.2002 25.4667 7.2002 25.5C7.2002 25.6667 7.2002 25.8167 7.2002 25.95C7.23353 27.7167 7.35019 29.4333 7.55019 31.1L8.35019 43.25C8.35019 43.65 8.36686 44.05 8.40019 44.45C8.60019 46.8833 9.15019 49.1667 10.0502 51.3C11.1835 54.1 12.9169 56.6667 15.2502 59C19.8835 63.6667 25.5002 66 32.1002 66C38.6669 66 44.2669 63.6667 48.9002 59C51.4002 56.5333 53.2335 53.9167 54.4002 51.15C54.8335 50.1167 55.1669 49.0667 55.4002 48C56.7002 42.4333 57.2835 36.9667 57.1502 31.6C57.1169 30.6 57.1335 29.6333 57.2002 28.7C57.2002 28.5333 57.2169 28.35 57.2502 28.15C57.2835 27.2833 57.3002 26.4 57.3002 25.5C57.3002 25.4667 57.3002 25.4167 57.3002 25.35C57.3002 22.5833 56.8835 19.9833 56.0502 17.55C54.7835 15.6833 53.1335 13.95 51.1002 12.35Z" fill="#BF7958"/>
<path d="M32.2502 6.25005C39.6169 6.25005 45.9002 8.28338 51.1002 12.35C53.1335 13.95 54.7835 15.6834 56.0502 17.55C54.8502 14.0167 52.8169 10.8334 49.9502 8.00005C45.0502 3.20005 39.1502 0.800049 32.2502 0.800049C25.3502 0.800049 19.4335 3.20005 14.5002 8.00005C11.6335 10.8667 9.61686 14.05 8.4502 17.55C9.68353 15.6834 11.3169 13.95 13.3502 12.35C18.6169 8.28338 24.9169 6.25005 32.2502 6.25005Z" fill="#DB855C"/>
<path d="M45.2998 87.95L45.4498 82.95H36.0498V87.95H45.2498H45.2998Z" fill="#FFD7B1"/>
<path d="M50.8998 96.95L50.9998 93.95C47.7665 93.05 45.8498 91.05 45.2498 87.95H36.0498V96.95H50.8998Z" fill="#BF7958"/>
<path d="M45.9 73.75C45.9 72.15 45.2667 70.7833 44 69.65C42.7667 68.5166 41.25 67.95 39.45 67.95C37.6833 67.95 36.1667 68.5166 34.9 69.65C33.6333 70.7833 33 72.15 33 73.75C34.9667 75.35 35.9833 78.4166 36.05 82.95H45.45L45.9 73.75Z" fill="#EEA160"/>
<path d="M18.7002 87.95L18.5502 82.95H27.9502V87.95H18.7502H18.7002Z" fill="#FFD7B1"/>
<path d="M13.1002 96.95L13.0002 93.95C16.2335 93.05 18.1502 91.05 18.7502 87.95H27.9502V96.95H13.1002Z" fill="#BF7958"/>
<path d="M18.1 73.75C18.1 72.15 18.7333 70.7833 20 69.65C21.2333 68.5166 22.75 67.95 24.55 67.95C26.3167 67.95 27.8333 68.5166 29.1 69.65C30.3667 70.7833 31 72.15 31 73.75C29.0333 75.35 28.0167 78.4166 27.95 82.95H18.55L18.1 73.75Z" fill="#EEA160"/>
<path d="M58.4947 61.8749C59.4899 62.7972 60.4768 63.493 61.4553 63.9622C63.6291 64.9933 65.3384 65.7619 66.5832 66.268C67.8044 66.7333 68.2938 67.6754 68.0517 69.0944C67.7859 70.4725 67.0803 71.5603 65.9349 72.3577C64.7982 73.1228 63.5525 73.393 62.1979 73.168C58.6901 72.6077 55.4891 71.3531 52.5949 69.4043L58.4947 61.8749Z" fill="#FFD7B1"/>
<path d="M52.5948 69.4043C50.7475 68.1847 49.0262 66.6882 47.4309 64.9149C45.3037 62.5504 43.3951 59.6924 41.705 56.3408C41.1118 55.0776 41.0242 53.7945 41.4423 52.4917C41.8777 51.1245 42.6991 50.1195 43.9066 49.4768C45.1227 48.8019 46.3822 48.6736 47.685 49.0917C48.9878 49.5098 49.9563 50.3387 50.5903 51.5784C51.6849 53.8041 52.9462 55.7295 54.3742 57.3545C55.7741 59.2134 57.1475 60.7203 58.4946 61.8749L52.5948 69.4043Z" fill="#79ADCB"/>
<path d="M57.4186 59.516L60.3663 61.6517L53.4366 71.2863L49.9188 69.1531L57.4186 59.516Z" fill="#5A93B4"/>
<path d="M10.6499 68.7C10.0166 69.9 9.5999 71.0333 9.3999 72.1C8.96657 74.4666 8.66657 76.3166 8.4999 77.65C8.36657 78.95 7.58324 79.6666 6.1499 79.8C4.7499 79.9 3.51657 79.5 2.4499 78.6C1.41657 77.7 0.833238 76.5666 0.699905 75.2C0.333238 71.6666 0.716573 68.25 1.8499 64.95L10.6499 68.7Z" fill="#FFD7B1"/>
<path d="M1.8501 64.9499C2.5501 62.8499 3.5501 60.7999 4.8501 58.7999C6.58344 56.1332 8.8501 53.5499 11.6501 51.0499C12.7168 50.1499 13.9334 49.7332 15.3001 49.7999C16.7334 49.8665 17.9168 50.3999 18.8501 51.3999C19.8168 52.3999 20.2668 53.5832 20.2001 54.9499C20.1334 56.3165 19.5834 57.4665 18.5501 58.3999C16.6834 60.0332 15.1501 61.7499 13.9501 63.5499C12.5168 65.3832 11.4168 67.0999 10.6501 68.6999L1.8501 64.9499Z" fill="#79ADCB"/>
<path d="M12.6499 67.0498L11.3499 70.4498L0.249908 66.2498L1.39991 62.2998L12.6499 67.0498Z" fill="#5A93B4"/>
<path d="M16.5 61.6001L16.7 62.4001C17.8 65.9668 18.3167 69.9834 18.25 74.4501C22.5833 69.7501 22 65.4668 16.5 61.6001ZM46.35 62.4001L46.55 61.6001C41.05 65.4668 40.4667 69.7501 44.8 74.4501C44.7333 69.9834 45.25 65.9668 46.35 62.4001Z" fill="#5A93B4"/>
<path d="M44.2002 79.0502C44.6335 77.4502 44.8335 75.9169 44.8002 74.4502H18.2502C18.2168 75.9169 18.4168 77.4502 18.8502 79.0502H44.2002Z" fill="#EEA160"/>
<path d="M46.5502 61.6001L46.3502 62.4001C47.1835 59.7334 48.3169 57.3501 49.7502 55.2501C50.4169 51.9168 49.7335 50.1834 47.7002 50.0501C47.5335 50.0501 47.3669 50.0501 47.2002 50.0501H15.8502C13.4169 49.9168 12.5502 51.6501 13.2502 55.2501C14.7169 57.3501 15.8669 59.7334 16.7002 62.4001L16.5002 61.6001C22.0002 65.4668 22.5835 69.7501 18.2502 74.4501H44.8002C40.4669 69.7501 41.0502 65.4668 46.5502 61.6001ZM41.5002 62.0001C41.5002 62.5334 40.5335 62.9668 38.6002 63.3001C36.6335 63.7334 34.2669 63.9501 31.5002 63.9501C28.7669 63.9501 26.4169 63.7334 24.4502 63.3001C22.5169 62.9668 21.5502 62.5334 21.5502 62.0001C21.5502 61.4334 22.5169 60.9334 24.4502 60.5001C26.4169 60.1668 28.7669 60.0001 31.5002 60.0001C34.2669 60.0001 36.6335 60.1668 38.6002 60.5001C40.5335 60.9334 41.5002 61.4334 41.5002 62.0001Z" fill="#79ADCB"/>
<path d="M38.6003 63.3C40.5336 62.9667 41.5003 62.5333 41.5003 62C41.5003 61.4333 40.5336 60.9333 38.6003 60.5C36.6336 60.1667 34.267 60 31.5003 60C28.767 60 26.417 60.1667 24.4503 60.5C22.517 60.9333 21.5503 61.4333 21.5503 62C21.5503 62.5333 22.517 62.9667 24.4503 63.3C26.417 63.7333 28.767 63.95 31.5003 63.95C34.267 63.95 36.6336 63.7333 38.6003 63.3Z" fill="#69A1C2"/>
<path d="M46 76.05V71.05H18V76.05H46Z" fill="#BF7958"/>
<path d="M44.8 83.8H44.85C45.5167 83.8 46.0667 83.5667 46.5 83.1C46.9333 82.6 47.0833 82.0167 46.95 81.35L46.05 75.8H41L41.9 81.35C42.0333 82.0167 42.3667 82.6 42.9 83.1C43.4667 83.5667 44.1 83.8 44.8 83.8Z" fill="#BF7958"/>
<path d="M42 49.05C42 46.55 40.9833 44.4 38.95 42.6C36.8833 40.9 34.4 40.05 31.5 40.05C28.6 40.05 26.1167 40.9 24.05 42.6C22.0167 44.4 21 46.55 21 49.05C21 49.2167 21.0167 49.3834 21.05 49.55C21.15 51.8167 22.15 53.75 24.05 55.35C26.1167 57.15 28.6 58.05 31.5 58.05C34.4 58.05 36.8833 57.15 38.95 55.35C40.85 53.75 41.85 51.8167 41.95 49.55C41.9833 49.3834 42 49.2167 42 49.05Z" fill="#F0C49A"/>
<path d="M20.1 46.05L16 49.8C22.3 59.9667 30.2833 68.3834 39.95 75.05L44 71.35C35.1667 65.0167 27.2 56.5834 20.1 46.05Z" fill="#BF7958"/>
<path d="M71.1497 59.55L70.1997 59.5C66.0664 59.8334 62.8498 61.3668 60.5499 64.1001C64.9164 57.8335 68.4663 56.3001 71.1997 59.5L71.1497 59.55Z" fill="#F0C49A"/>
<path d="M60.55 72.0999L60.5499 64.1C62.8498 61.3667 66.0664 59.8333 70.1997 59.5L71.1496 59.5499L71.1996 59.4999C72.2996 59.4666 73.4829 59.4666 74.7496 59.4999H75.0996C76.0662 59.4999 76.6829 60.1832 76.9496 61.5498C77.3829 63.6164 77.583 65.6164 77.5497 67.5497C77.5164 72.483 71.8499 73.9997 60.55 72.0999Z" fill="#FFD7B1"/>
<path d="M13.9998 84.4999L14.0498 83.5499C13.7165 79.4166 12.1832 76.1999 9.44983 73.8999C15.7165 78.2666 17.2498 81.8166 14.0498 84.5499L13.9998 84.4999Z" fill="#F0C49A"/>
<path d="M1.44971 73.8999H9.44971C12.183 76.1999 13.7164 79.4166 14.0497 83.5499L13.9997 84.4999L14.0497 84.5499C14.083 85.6499 14.083 86.8332 14.0497 88.0999V88.4499C14.0497 89.4166 13.3664 90.0332 11.9997 90.2999C9.93304 90.7332 7.93304 90.9332 5.99971 90.8999C1.06637 90.8666 -0.450289 85.1999 1.44971 73.8999Z" fill="#FFD7B1"/>
<path d="M46.6446 41.5499C42.7254 38.9499 37.9771 37.6499 32.3998 37.6499C26.8225 37.6499 22.024 38.9499 18.0043 41.5499C14.0851 44.2166 12.1255 47.3999 12.1255 51.0999C12.1255 54.7999 14.0851 57.9499 18.0043 60.5499C22.024 63.2166 26.8225 64.5499 32.3998 64.5499C37.9771 64.5499 42.7254 63.2166 46.6446 60.5499C50.6643 57.9499 52.6742 54.7999 52.6742 51.0999C52.6742 47.3999 50.6643 44.2166 46.6446 41.5499Z" fill="url(#paint0_radial_19_19785)"/>
<path d="M50.1776 22.2804C47.9852 22.4621 46.1744 23.4149 44.7452 25.1388C43.3161 26.8627 42.6938 28.8375 42.8782 31.0632C43.0627 33.2888 44.0017 35.1342 45.6951 36.5993C47.3885 38.0644 49.3315 38.7061 51.5239 38.5244C53.7164 38.3427 55.5272 37.3899 56.9563 35.666C58.3854 33.9421 59.0078 31.9673 58.8233 29.7416C58.6388 27.516 57.6999 25.6706 56.0064 24.2055C54.313 22.7404 52.3701 22.0987 50.1776 22.2804ZM51.2555 35.2856C49.9267 35.3957 48.7574 35.0077 47.7474 34.1214C46.7402 33.2684 46.1801 32.1608 46.0672 30.7989C45.9599 29.5033 46.33 28.3187 47.1775 27.2451C48.0278 26.2046 49.1173 25.6294 50.446 25.5192C51.7748 25.4091 52.9608 25.7958 54.004 26.6793C54.9835 27.6015 55.5269 28.7104 55.6343 30.006C55.7472 31.3679 55.3937 32.5511 54.5739 33.5556C53.6904 34.5988 52.5842 35.1755 51.2555 35.2856Z" fill="#FFD7B1"/>
<path d="M47.7475 34.1215C48.7574 35.0077 49.9268 35.3958 51.2556 35.2857C52.5843 35.1755 53.6904 34.5989 54.5739 33.5557C55.3938 32.5512 55.7472 31.368 55.6344 30.006C55.527 28.7105 54.9835 27.6016 54.004 26.6794C52.9608 25.7959 51.7749 25.4092 50.4461 25.5193C49.1174 25.6294 48.0278 26.2047 47.1776 27.2452C46.33 28.3188 45.9599 29.5034 46.0673 30.7989C46.1802 32.1609 46.7402 33.2684 47.7475 34.1215Z" fill="#E7B687"/>
<path d="M7.87219 28.1947C6.44306 29.9186 5.82072 31.8934 6.00519 34.1191C6.18965 36.3448 7.1286 38.1901 8.82205 39.6552C10.5155 41.1204 12.4584 41.7621 14.6509 41.5803C16.8101 41.4014 18.6209 40.4486 20.0832 38.7219C21.5124 36.998 22.1347 35.0232 21.9503 32.7976C21.7658 30.5719 20.8268 28.7265 19.1334 27.2614C17.4067 25.799 15.4638 25.1573 13.3046 25.3363C11.1121 25.518 9.30133 26.4708 7.87219 28.1947ZM10.8744 37.1773C9.90035 36.3215 9.35691 35.2126 9.24403 33.8507C9.13665 32.5551 9.49012 31.3719 10.3044 30.301C11.1547 29.2606 12.2442 28.6853 13.573 28.5751C14.935 28.4623 16.1043 28.8503 17.0811 29.7393C18.0938 30.6588 18.6539 31.7663 18.7612 33.0619C18.8741 34.4238 18.504 35.6084 17.651 36.6157C16.8339 37.6533 15.7444 38.2286 14.3824 38.3415C13.0537 38.4516 11.8843 38.0636 10.8744 37.1773Z" fill="#FFD7B1"/>
<path d="M9.24407 33.8507C9.35696 35.2127 9.9004 36.3216 10.8744 37.1774C11.8844 38.0636 13.0537 38.4517 14.3825 38.3416C15.7445 38.2287 16.834 37.6534 17.651 36.6157C18.5041 35.6085 18.8742 34.4239 18.7613 33.0619C18.6539 31.7664 18.0939 30.6589 17.0811 29.7394C16.1044 28.8504 14.935 28.4623 13.573 28.5752C12.2443 28.6853 11.1548 29.2606 10.3045 30.301C9.49017 31.3719 9.1367 32.5552 9.24407 33.8507Z" fill="#E7B687"/>
<path d="M51.5821 38.0178L51.9993 15.2057L10.293 18.6624L14.46 41.0944C16.2322 45.9312 19.9872 49.065 25.7249 50.496C28.5646 51.264 31.3105 51.5047 33.9625 51.218C36.6587 51.0614 39.3442 50.3706 42.0187 49.1455C47.4426 46.7895 50.6304 43.0802 51.5821 38.0178Z" fill="#FFD7B1"/>
<path d="M35.289 38.1642C35.948 37.6413 36.2514 37.0643 36.1991 36.4331C36.1495 35.8352 35.7553 35.316 35.0164 34.8755C34.3162 34.4987 33.4845 34.3502 32.5211 34.4301C31.6242 34.5044 30.8615 34.7851 30.2329 35.272C29.6098 35.8253 29.323 36.401 29.3726 36.9989C29.4249 37.63 29.8025 38.1506 30.5054 38.5606C31.2111 39.0038 32.0124 39.1883 32.9093 39.114C33.8727 39.0341 34.6659 38.7175 35.289 38.1642Z" fill="#E7B687"/>
<path d="M20.0265 35.0139C20.0155 34.881 20.0059 34.7647 19.9976 34.6651C19.8985 33.4692 20.1966 32.4243 20.8918 31.5306C21.4679 30.8139 22.1989 30.3519 23.0848 30.1447L17.3545 30.6196C18.8378 31.567 19.7285 33.0317 20.0265 35.0139ZM26.8313 36.6072C27.2413 35.9043 27.405 35.0546 27.3224 34.058C27.2398 33.0614 26.9371 32.2336 26.4142 31.5746C25.8913 30.9155 25.2811 30.6149 24.5835 30.6727C23.9523 30.725 23.4331 31.1192 23.0258 31.8554C22.6186 32.5915 22.4563 33.4579 22.5389 34.4544C22.6215 35.451 22.9228 36.2622 23.443 36.888C23.9686 37.5803 24.547 37.9003 25.1781 37.848C25.8757 37.7902 26.4268 37.3766 26.8313 36.6072Z" fill="#BF7958"/>
<path d="M23.4794 30.0619C23.3465 30.0729 23.215 30.1005 23.0849 30.1448C22.199 30.352 21.468 30.8139 20.8919 31.5306C20.1967 32.4244 19.8986 33.4692 19.9977 34.6651C20.006 34.7648 20.0156 34.881 20.0266 35.0139C20.1757 36.005 20.6307 36.8536 21.3916 37.5598C22.2632 38.3907 23.2969 38.7565 24.4928 38.6574C25.589 38.5666 26.482 38.041 27.1717 37.0808C27.9001 36.1842 28.2161 35.1546 28.1198 33.992C28.0206 32.7961 27.538 31.8159 26.672 31.0516C25.8391 30.2844 24.8746 29.9463 23.7783 30.0371C23.6787 30.0454 23.579 30.0536 23.4794 30.0619ZM27.3225 34.058C27.4051 35.0546 27.2414 35.9044 26.8314 36.6073C26.4269 37.3766 25.8759 37.7902 25.1783 37.848C24.5471 37.9004 23.9687 37.5804 23.4431 36.8881C22.9229 36.2623 22.6216 35.4511 22.539 34.4545C22.4564 33.4579 22.6187 32.5916 23.026 31.8554C23.4332 31.1193 23.9524 30.7251 24.5836 30.6728C25.2812 30.6149 25.8914 30.9156 26.4143 31.5746C26.9372 32.2337 27.2399 33.0615 27.3225 34.058Z" fill="white"/>
<path d="M45.0615 32.5878C45.0698 32.6875 45.0794 32.8037 45.0904 32.9366C45.0581 30.9325 45.6789 29.3424 46.9528 28.1666L41.2724 28.6373C42.1803 28.6959 42.9773 29.0312 43.6636 29.6433C44.4964 30.4104 44.9624 31.3919 45.0615 32.5878ZM37.7368 33.1949C37.8194 34.1914 38.1207 35.0026 38.6409 35.6285C39.1665 36.3208 39.7615 36.6394 40.4259 36.5843C41.0903 36.5292 41.6247 36.117 42.0292 35.3477C42.4392 34.6447 42.6029 33.795 42.5203 32.7984C42.4377 31.8019 42.135 30.974 41.6121 30.315C41.0892 29.6559 40.4956 29.3539 39.8312 29.409C39.1668 29.4641 38.631 29.8597 38.2238 30.5958C37.8165 31.332 37.6542 32.1983 37.7368 33.1949Z" fill="#BF7958"/>
<path d="M41.2725 28.6375C41.1368 28.6153 41.0026 28.6097 40.8697 28.6207C40.7701 28.6289 40.6704 28.6372 40.5707 28.6454C39.4745 28.7363 38.5788 29.2286 37.8836 30.1224C37.1552 31.019 36.8405 32.0652 36.9396 33.2611C37.036 34.4237 37.5172 35.3873 38.3833 36.1517C39.2217 36.9852 40.189 37.3566 41.2852 37.2657C42.4811 37.1666 43.4405 36.6356 44.1634 35.6726C44.7977 34.8507 45.1067 33.9388 45.0906 32.9367C45.0795 32.8038 45.0699 32.6876 45.0617 32.5879C44.9625 31.392 44.4965 30.4105 43.6637 29.6434C42.9775 29.0313 42.1804 28.696 41.2725 28.6375ZM38.641 35.6286C38.1208 35.0028 37.8195 34.1916 37.7369 33.195C37.6543 32.1984 37.8166 31.3321 38.2239 30.5959C38.6311 29.8598 39.1669 29.4642 39.8313 29.4091C40.4957 29.3541 41.0893 29.6561 41.6122 30.3151C42.1351 30.9742 42.4378 31.802 42.5204 32.7985C42.603 33.7951 42.4393 34.6448 42.0293 35.3478C41.6248 36.1171 41.0904 36.5293 40.426 36.5844C39.7616 36.6395 39.1666 36.3209 38.641 35.6286Z" fill="white"/>
<path d="M46.4763 25.4467L46.274 23.0051L36.8652 22.6812L37.0346 24.7241L46.4763 25.4467Z" fill="#BF7958"/>
<path d="M17.4431 27.4517L17.6455 29.8933L26.8395 27.6262L26.666 25.5334L17.4431 27.4517Z" fill="#BF7958"/>
<path d="M26.8203 42.5285C26.7676 42.7001 26.7855 42.916 26.874 43.1762C26.9347 43.5057 27.0799 43.8448 27.3095 44.1937C27.4948 44.4125 27.6982 44.6465 27.9195 44.8957L35.6928 44.2515L35.4285 41.0624L27.8047 41.6943C27.5722 41.7136 27.3631 41.8145 27.1776 41.9971C26.9533 42.1161 26.8342 42.2932 26.8203 42.5285Z" fill="white"/>
<path d="M38.5677 40.8024L35.4285 41.0625L35.6928 44.2516L27.9196 44.8958C28.1492 45.2447 28.4397 45.5216 28.7912 45.7266C30.1913 46.8816 31.8215 47.382 33.6818 47.2278C35.4756 47.0791 36.986 46.3352 38.2129 44.9959L38.3084 44.9378C38.7681 44.4315 39.1379 43.849 39.4178 43.1903C39.5868 42.8083 39.7074 42.4471 39.7795 42.1067C39.7907 41.8382 39.7562 41.6237 39.676 41.4631C39.5903 41.236 39.4437 41.081 39.2361 40.9978C39.023 40.8482 38.8002 40.7831 38.5677 40.8024Z" fill="#BF7958"/>
<path d="M51.9869 33.2179L52.3606 23.805C44.6841 24.8091 36.3668 22.7224 27.4087 17.5447C31.3547 26.8169 39.5474 32.0413 51.9869 33.2179Z" fill="#DB855C"/>
<path d="M52.3609 23.805L52.7388 14.442L9.48779 18.0266L10.7716 25.6465C17.9026 24.9217 23.4484 22.2211 27.4089 17.5447C36.3671 22.7224 44.6844 24.8092 52.3609 23.805Z" fill="#BF7958"/>
<path d="M48.6487 14.7309C48.0567 14.0441 47.3331 13.385 46.478 12.7535C42.5319 9.93647 37.2204 8.80468 30.5434 9.35807C23.8664 9.91146 18.8289 11.8843 15.4308 15.2765C15.2121 15.4618 15.0293 15.6777 14.8824 15.924C14.323 16.4386 13.8854 17.01 13.5696 17.6383C13.215 18.2028 13.2189 18.8547 13.5811 19.5939C17.6626 16.7806 23.4571 15.0628 30.9646 14.4406C38.4056 13.8239 44.3859 14.549 48.9053 16.6161C49.1437 15.8605 49.0582 15.2321 48.6487 14.7309Z" fill="#71A2BE"/>
</g>
<defs>
<radialGradient id="paint0_radial_19_19785" cx="0" cy="0" r="1" gradientUnits="userSpaceOnUse" gradientTransform="translate(32.3998 51.0999) scale(20.4816 13.5875)">
<stop stop-opacity="0.301961"/>
<stop offset="1" stop-opacity="0"/>
</radialGradient>
<clipPath id="clip0_19_19785">
<rect width="78" height="97" fill="white"/>
</clipPath>
</defs>
</svg>
