<svg width="69" height="90" viewBox="0 0 69 90" fill="none" xmlns="http://www.w3.org/2000/svg">
<path d="M33.75 84.9V81.5H16V84.85V84.9H33.7H33.75Z" fill="#E0C1A2"/>
<path d="M33.7 89.8501V84.9001H16V84.8501C14.8 85.4501 13.7167 86.4001 12.75 87.7001V89.8501H33.7Z" fill="#AA7E5C"/>
<path d="M24.9 66.8501H24.85C22.3833 66.8501 20.3 67.6834 18.6 69.3501C16.8667 71.0501 16 73.1168 16 75.5501V81.5001H33.75V75.5501C33.75 73.1168 32.9 71.0501 31.2 69.3501C29.4667 67.6834 27.3667 66.8501 24.9 66.8501Z" fill="#ECCFB1"/>
<path d="M36.8999 84.9V81.5H54.6499V84.85V84.9H36.9499H36.8999Z" fill="#E0C1A2"/>
<path d="M36.9499 89.8501V84.9001H54.6499V84.8501C55.8499 85.4501 56.9332 86.4001 57.8999 87.7001V89.8501H36.9499Z" fill="#AA7E5C"/>
<path d="M45.7499 66.8501H45.7999C48.2666 66.8501 50.3499 67.6834 52.0499 69.3501C53.7832 71.0501 54.6499 73.1168 54.6499 75.5501V81.5001H36.8999V75.5501C36.8999 73.1168 37.7499 71.0501 39.4499 69.3501C41.1832 67.6834 43.2832 66.8501 45.7499 66.8501Z" fill="#ECCFB1"/>
<path d="M36.6001 63.9L41.2501 50.7L32.1001 51.0999L36.6001 63.9Z" fill="#FAFAFA"/>
<path d="M43.5501 44.1499L41.2501 50.6999L36.6001 63.8999L43.8001 55.7499L46.1001 53.0999L48.5501 50.3499L43.5501 44.1499ZM32.1001 51.0999L29.6501 44.1499L24.6501 50.3499L36.6001 63.8999L32.1001 51.0999ZM16.3501 71.0499V75.1499H55.3501V71.0499H16.3501Z" fill="#8E643A"/>
<path d="M41.2501 50.6999L43.5501 44.1499H29.6501L32.1001 51.0999L41.2501 50.6999Z" fill="#25A65B"/>
<path d="M43.8001 55.7499L36.6001 63.8999L24.6501 50.3499L29.6501 44.1499H16.3501V71.0499H55.3501V44.1499H43.5501L48.5501 50.3499L46.1001 53.0999H51.5501V55.7499H43.8001Z" fill="#C48A51"/>
<path d="M51.55 53.0999H46.1L43.8 55.7499H51.55V53.0999Z" fill="#B17D49"/>
<path d="M46.8294 63.2082C46.6326 63.5984 46.4482 64.0175 46.2763 64.4654C45.9074 64.5175 45.5507 64.6382 45.2063 64.8274C44.8762 65.0275 44.5964 65.2648 44.3668 65.5395C43.9034 65.4839 43.4565 65.4483 43.0261 65.4325C41.9349 65.3804 41.3473 65.5113 41.2632 65.8251C41.1731 66.1613 41.6136 66.5796 42.5846 67.0801C42.9681 67.2735 43.3872 67.4578 43.8419 67.6331C43.8819 67.9814 43.9974 68.3127 44.1883 68.6269C44.3886 68.9738 44.626 69.2536 44.9003 69.4663C44.8446 69.9539 44.809 70.4008 44.7934 70.8071C44.7292 71.9431 44.8653 72.5562 45.2015 72.6462C45.5154 72.7303 45.9285 72.2644 46.4409 71.2485C46.6434 70.8837 46.839 70.4677 47.0276 70.0003C47.3556 69.9525 47.6756 69.8341 47.9877 69.6449C48.3178 69.473 48.5946 69.2468 48.8182 68.9664C49.3086 69.0501 49.7637 69.0999 50.1836 69.1161C51.3196 69.1802 51.9326 69.0441 52.0227 68.7079C52.1068 68.3941 51.6409 67.9809 50.625 67.4685C50.2561 67.2637 49.8401 67.0682 49.3767 66.8818C49.3242 66.5283 49.2005 66.1828 49.0057 65.8454C48.8267 65.5353 48.6088 65.2727 48.3519 65.0576C48.4189 64.5662 48.4606 64.0968 48.4769 63.6496C48.529 62.5584 48.3982 61.9708 48.0844 61.8867C47.7481 61.7966 47.3298 62.2371 46.8294 63.2082Z" fill="#E05848"/>
<path d="M22.5716 54.297C22.2584 54.548 22.0193 54.8495 21.8545 55.2015C21.6896 55.5535 21.6079 55.9098 21.6095 56.2704C21.1389 56.4666 20.7376 56.6763 20.4058 56.8997C19.4746 57.4862 19.0513 57.9318 19.1358 58.2365C19.2666 58.5503 19.8725 58.6447 20.9537 58.5198C21.3509 58.4533 21.799 58.3728 22.2978 58.2782C22.5115 58.5361 22.7806 58.7568 23.105 58.9403C23.457 59.1052 23.8364 59.1914 24.2432 59.1988C24.4208 59.6418 24.6213 60.0292 24.8446 60.3611C25.4407 61.3662 25.8956 61.8033 26.2094 61.6725C26.5417 61.5694 26.6269 60.9496 26.4647 59.8132C26.3983 59.4159 26.3271 58.9817 26.251 58.5106C26.4718 58.2415 26.66 57.9541 26.8159 57.6483C26.9807 57.2963 27.0948 56.9583 27.1581 56.6345C27.5915 56.383 28.0066 56.1639 28.4033 55.9773C29.3622 55.3722 29.7762 54.9127 29.6454 54.599C29.5609 54.2943 28.9642 54.2137 27.8554 54.3572C27.3933 54.3869 26.9128 54.4491 26.414 54.5437C26.2003 54.2858 25.9174 54.0744 25.5653 53.9095C25.241 53.726 24.9216 53.6396 24.6074 53.6502C24.3649 53.1705 24.1365 52.7416 23.9222 52.3635C23.3357 51.4323 22.8763 51.0183 22.5439 51.1214C22.2302 51.2522 22.1496 51.8489 22.3021 52.9114C22.3409 53.3273 22.4307 53.7891 22.5716 54.297Z" fill="#E05848"/>
<path d="M34.7502 68.45C34.7835 68.35 34.7835 68.25 34.7502 68.15L33.0502 64.45C33.0502 64.4166 33.0335 64.3833 33.0002 64.35L30.3002 61.25C30.2669 61.1833 30.1835 61.15 30.0502 61.15C29.9502 61.1166 29.8502 61.1333 29.7502 61.2L29.1002 61.65C29.0335 61.6833 28.9835 61.75 28.9502 61.85C28.9502 61.95 28.9669 62.05 29.0002 62.15L30.8002 66C30.8335 66.0333 30.8502 66.0666 30.8502 66.1L33.4502 69.05C33.5169 69.1166 33.6169 69.15 33.7502 69.15C33.8502 69.1833 33.9502 69.1666 34.0502 69.1L34.6002 68.7C34.6669 68.6333 34.7169 68.55 34.7502 68.45Z" fill="#B17D49"/>
<path d="M19.6929 44.4777L19.6446 44.4647C19.2738 44.3031 18.9113 44.1748 18.5571 44.0799C15.3285 43.1215 11.7932 45.304 7.95123 50.6276L5.13664 53.9843L7.97128 54.4168L11.8435 55.0339L13.5343 58.3831L17.2771 57.9378L20.3674 60.1205L21.6162 61.0624C21.293 59.9986 21.4746 58.677 22.1609 57.0975L23.6295 54.1277C24.5141 52.3716 24.5749 50.5349 23.8117 48.6176C23.0408 46.7294 21.6679 45.3494 19.6929 44.4777Z" fill="#AF7B48"/>
<path d="M20.3674 60.1204L17.277 57.9377L13.5343 58.383L11.8435 55.0338L7.97125 54.4167C5.84411 59.4191 4.4232 63.7565 3.7085 67.4287C5.22102 69.6402 7.36 71.3812 10.1254 72.6516C13.7335 69.4602 17.1475 65.2831 20.3674 60.1204Z" fill="#2ECC71"/>
<path d="M17.5118 74.5313C17.2067 71.0332 16.4551 68.3644 15.257 66.525L5.27588 66.4906C4.45137 66.4768 4.02472 66.8456 3.99592 67.5971L3.99847 68.1672C3.64945 76.4248 5.85185 80.5693 10.6057 80.6007C12.2869 80.6371 14.0081 80.4598 15.7692 80.069C16.9376 79.8299 17.5287 79.2981 17.5425 78.4736L17.5589 78.2191C17.5515 77.2164 17.5355 76.2458 17.5108 75.3075L17.4979 75.3558L17.5118 74.5313ZM5.20404 70.0431C5.24948 69.7447 5.70287 69.4693 6.56418 69.2169C7.39331 68.956 8.40699 68.7789 9.60523 68.6859C10.827 68.6337 11.8373 68.6628 12.6359 68.7732C13.4903 68.9331 13.8991 69.1462 13.8622 69.4124C13.849 69.7194 13.4278 70.0034 12.5987 70.2644C11.7609 70.5576 10.7268 70.7464 9.4964 70.8308C8.29817 70.9239 7.28795 70.8947 6.46576 70.7435C5.61137 70.5836 5.19079 70.3501 5.20404 70.0431Z" fill="#2ECC71"/>
<path d="M6.56421 69.217C5.70289 69.4694 5.24951 69.7448 5.20407 70.0432C5.19082 70.3502 5.61139 70.5837 6.46579 70.7436C7.28798 70.8948 8.29819 70.924 9.49643 70.8309C10.7269 70.7465 11.761 70.5577 12.5987 70.2645C13.4278 70.0035 13.849 69.7195 13.8623 69.4125C13.8991 69.1463 13.4903 68.9332 12.6359 68.7733C11.8373 68.6629 10.8271 68.6338 9.60526 68.686C8.40702 68.779 7.39334 68.9561 6.56421 69.217ZM17.5109 75.3076C20.2577 73.0413 19.5064 70.1138 15.2571 66.5251C16.4552 68.3645 17.2067 71.0333 17.5118 74.5314L17.4979 75.3559L17.5109 75.3076Z" fill="#29B665"/>
<path d="M49.4573 43.4777L49.5056 43.4647C49.8764 43.3031 50.2389 43.1748 50.593 43.0799C53.8216 42.1215 57.3569 44.304 61.1989 49.6276L64.0135 52.9843L61.1789 53.4168L57.3067 54.0339L55.6158 57.3831L51.8731 56.9378L48.7827 59.1205L47.5339 60.0624C47.8571 58.9986 47.6756 57.677 46.9893 56.0975L45.5206 53.1277C44.636 51.3716 44.5753 49.5349 45.3384 47.6176C46.1093 45.7294 47.4823 44.3494 49.4573 43.4777Z" fill="#AF7B48"/>
<path d="M48.7827 59.1204L51.8731 56.9377L55.6159 57.383L57.3067 54.0338L61.1789 53.4167C63.306 58.4191 64.7269 62.7565 65.4416 66.4287C63.9291 68.6402 61.7901 70.3812 59.0247 71.6516C55.4166 68.4602 52.0026 64.2831 48.7827 59.1204Z" fill="#2ECC71"/>
<path d="M51.6882 73.9812C51.9932 70.4831 52.7448 67.8143 53.9429 65.9749L63.9241 65.9406C64.7486 65.9267 65.1752 66.2955 65.204 67.047L65.2015 67.6171C65.5505 75.8748 63.3481 80.0193 58.5943 80.0507C56.9131 80.087 55.1919 79.9098 53.4307 79.5189C52.2624 79.2798 51.6713 78.748 51.6574 77.9235L51.641 77.6691C51.6484 76.6663 51.6644 75.6958 51.6891 74.7574L51.702 74.8057L51.6882 73.9812ZM63.9959 69.493C63.9505 69.1946 63.4971 68.9192 62.6358 68.6669C61.8066 68.4059 60.793 68.2289 59.5947 68.1358C58.3729 68.0836 57.3627 68.1127 56.5641 68.2232C55.7097 68.3831 55.3009 68.5961 55.3377 68.8623C55.351 69.1694 55.7721 69.4534 56.6013 69.7143C57.439 70.0075 58.4731 70.1963 59.7035 70.2807C60.9018 70.3738 61.912 70.3447 62.7342 70.1934C63.5886 70.0335 64.0092 69.8001 63.9959 69.493Z" fill="#2ECC71"/>
<path d="M62.6357 68.667C63.4971 68.9193 63.9504 69.1947 63.9959 69.4931C64.0091 69.8002 63.5886 70.0336 62.7342 70.1935C61.912 70.3448 60.9018 70.3739 59.7035 70.2808C58.4731 70.1964 57.439 70.0076 56.6012 69.7144C55.7721 69.4535 55.3509 69.1695 55.3377 68.8624C55.3009 68.5962 55.7097 68.3832 56.564 68.2233C57.3627 68.1128 58.3729 68.0837 59.5947 68.1359C60.7929 68.229 61.8066 68.406 62.6357 68.667ZM51.6891 74.7575C48.9423 72.4912 49.6936 69.5637 53.9429 65.975C52.7448 67.8144 51.9932 70.4832 51.6882 73.9813L51.702 74.8058L51.6891 74.7575Z" fill="#29B665"/>
<path d="M25.0999 46.7L34.6999 51.25L44.2999 46.7H25.0999Z" fill="#25A65B"/>
<path d="M54 21.5C53.5666 18.5334 51.8666 17.05 48.8999 17.05H18.5499C15.6166 17.05 13.9166 18.5668 13.45 21.6C12.45 28.4668 12.45 35.3335 13.45 42.2001C13.9166 45.2001 15.6166 46.7001 18.5499 46.7001H25.1H44.2999H48.8999C51.8666 46.7001 53.5833 45.1835 54.0499 42.1501C55.0833 35.4168 55.0666 28.5334 54 21.5Z" fill="#2ECC71"/>
<path d="M27.6 36.55C28.6333 36.55 29.4833 36.1667 30.15 35.4C30.7621 34.7879 31.1121 34.0712 31.2 33.25H23.95C24.0601 34.0712 24.3934 34.7879 24.95 35.4C25.6833 36.1667 26.5666 36.55 27.6 36.55ZM46.2 36.55C47.2333 36.55 48.0833 36.1667 48.75 35.4C49.3621 34.7879 49.7121 34.0712 49.8 33.25H42.55C42.6601 34.0712 42.9934 34.7879 43.55 35.4C44.2833 36.1667 45.1666 36.55 46.2 36.55Z" fill="white"/>
<path d="M32.35 28.5C32.3167 28.2 32.2 27.9667 32 27.8C31.8 27.6 31.5667 27.5167 31.3 27.55C28.6667 27.7834 26.1834 27.65 23.85 27.15C23.55 27.0834 23.2834 27.1167 23.05 27.25C22.8167 27.3834 22.6834 27.6 22.65 27.9C22.5834 28.1667 22.6167 28.4167 22.75 28.65C22.8834 28.8834 23.1 29.0334 23.4 29.1C25.9 29.6334 28.5834 29.7834 31.45 29.55C31.7167 29.5167 31.95 29.4 32.15 29.2C32.3167 29 32.3834 28.7667 32.35 28.5ZM50.4 27.3C50.1667 27.1667 49.9 27.1334 49.6 27.2C47.2667 27.7 44.7834 27.8334 42.15 27.6C41.8834 27.5667 41.65 27.65 41.45 27.85C41.25 28.0167 41.1334 28.25 41.1 28.55C41.0667 28.8167 41.1334 29.05 41.3 29.25C41.5 29.45 41.7334 29.5667 42 29.6C44.8667 29.8334 47.55 29.6834 50.05 29.15C50.35 29.0834 50.5667 28.9334 50.7 28.7C50.8334 28.4667 50.8667 28.2167 50.8 27.95C50.7667 27.65 50.6334 27.4334 50.4 27.3Z" fill="#7E8991"/>
<path d="M42.5001 39.25C42.5668 38.9833 42.5501 38.7166 42.4501 38.45L39.6001 40.45L41.7501 43V42.95C41.9501 42.75 42.0668 42.5 42.1001 42.2L42.5001 39.25Z" fill="#7F7058"/>
<path d="M30.6501 38.85C30.3834 39.1167 30.2501 39.4334 30.2501 39.8C30.2167 40.1667 30.3001 40.5 30.5001 40.8C30.7334 41.1 31.0334 41.3 31.4001 41.4L40.2501 43.45C40.5167 43.5167 40.7834 43.5167 41.0501 43.45C41.3167 43.35 41.5501 43.2 41.7501 43L39.6001 40.45L42.4501 38.45C42.4167 38.4167 42.4001 38.3834 42.4001 38.35C42.2667 38.05 42.0501 37.8334 41.7501 37.7C41.4834 37.5334 41.2001 37.4667 40.9001 37.5L31.6001 38.4C31.2001 38.4334 30.8834 38.5834 30.6501 38.85Z" fill="white"/>
<path d="M19.3071 36.246C19.2886 36.3565 19.2979 36.4577 19.3347 36.5498L21.1575 40.3889C21.176 40.4257 21.1944 40.4625 21.2128 40.4994L23.809 43.427C23.8826 43.519 23.9747 43.5651 24.0852 43.5651C24.1957 43.5835 24.2969 43.5651 24.389 43.5098L24.9414 43.0956C25.015 43.0403 25.0703 42.9667 25.1071 42.8746C25.1255 42.7641 25.1163 42.6629 25.0795 42.5708L23.4223 38.8422C23.4039 38.8238 23.3855 38.7962 23.3671 38.7593L20.6604 35.666C20.6052 35.5923 20.5223 35.5463 20.4118 35.5279C20.3013 35.5095 20.2001 35.5279 20.108 35.5831L19.4728 36.025C19.3991 36.0803 19.3439 36.1539 19.3071 36.246Z" fill="#28B162"/>
<path d="M22.6 21.15L25.05 17.05L19.55 22.65L20.95 23.9L22.6 21.15ZM51.7001 23.55L43.6001 25L44.2001 26.3L51.7001 23.55ZM54.4501 34.85L54.8 36.3C60.1769 28.1831 62.0102 19.0998 60.3 9.05004H54.9501C57.4412 17.6584 57.2745 26.2584 54.4501 34.85ZM27.55 7.40004L30.4501 10.3C36.2141 6.85317 42.5308 4.50316 49.4 3.25004C43.5566 2.36488 37.8899 2.71488 32.4 4.30004L35.25 0.400039C29.1024 -0.679909 24.1357 0.753424 20.35 4.70004L16.7001 8.40004L13.8 7.15004L9.05005 18.25C9.62127 19.7417 10.0379 21.175 10.3 22.55L27.55 7.40004Z" fill="#717B83"/>
<path d="M36.9501 24L35.2501 19.3L25.0501 17.05L22.6001 21.15L36.9501 24Z" fill="black" fill-opacity="0.101961"/>
<path d="M54.95 9.05H52.45L54.3 4.3C52.6535 3.86081 51.0202 3.51081 49.4 3.25C42.5308 4.50312 36.2141 6.85313 30.45 10.3L27.55 7.4L10.3 22.55C10.927 25.5141 10.877 28.2141 10.15 30.65C9.12423 34.2293 10.3409 37.446 13.8 40.3L18.55 32.3L16.45 25.8L19.55 22.65L25.05 17.05L35.25 19.3L36.95 24L37.7 26.05L43.6 25L51.7 23.55L54.45 34.85C57.2745 26.2583 57.4412 17.6583 54.95 9.05Z" fill="#6B747B"/>
</svg>
