<svg width="120" height="80" viewBox="0 0 120 80" fill="none" xmlns="http://www.w3.org/2000/svg">
<mask id="mask0_6_19331" style="mask-type:luminance" maskUnits="userSpaceOnUse" x="0" y="0" width="120" height="80">
<path d="M112.5 0H7.5C3.35786 0 0 2.98477 0 6.66667V73.3333C0 77.0152 3.35786 80 7.5 80H112.5C116.642 80 120 77.0152 120 73.3333V6.66667C120 2.98477 116.642 0 112.5 0Z" fill="white"/>
</mask>
<g mask="url(#mask0_6_19331)">
<mask id="mask1_6_19331" style="mask-type:luminance" maskUnits="userSpaceOnUse" x="0" y="0" width="120" height="80">
<path d="M120 0H0V80H120V0Z" fill="white"/>
</mask>
<g mask="url(#mask1_6_19331)">
<path fill-rule="evenodd" clip-rule="evenodd" d="M0 0V80H120V0H0Z" fill="#FFB400"/>
<mask id="mask2_6_19331" style="mask-type:luminance" maskUnits="userSpaceOnUse" x="0" y="0" width="120" height="80">
<path fill-rule="evenodd" clip-rule="evenodd" d="M0 0V80H120V0H0Z" fill="white"/>
</mask>
<g mask="url(#mask2_6_19331)">
<path fill-rule="evenodd" clip-rule="evenodd" d="M0 0V20H120V0H0Z" fill="#C51918"/>
<path fill-rule="evenodd" clip-rule="evenodd" d="M0 60V80H120V60H0Z" fill="#C51918"/>
<path d="M22.98 34.24H18.78V53.6533H22.98V34.24Z" fill="#F1F9FF"/>
<path fill-rule="evenodd" clip-rule="evenodd" d="M24.66 30.88H17.1V32.7467H18.36V34.24H23.4V32.7467H24.66V30.88Z" fill="#C88A02"/>
<path fill-rule="evenodd" clip-rule="evenodd" d="M23.4 54.7733H24.66V56.64H17.1V54.7733H18.36V53.28H23.4V54.7733Z" fill="#C88A02"/>
<path d="M20.88 31.2533C22.5037 31.2533 23.82 30.334 23.82 29.2C23.82 28.066 22.5037 27.1467 20.88 27.1467C19.2563 27.1467 17.94 28.066 17.94 29.2C17.94 30.334 19.2563 31.2533 20.88 31.2533Z" fill="#AD1619"/>
<path fill-rule="evenodd" clip-rule="evenodd" d="M17.1 56.64H24.66V59.6267C24.66 59.6267 23.715 59.2533 22.77 59.2533C21.825 59.2533 20.88 59.6267 20.88 59.6267C20.88 59.6267 19.935 59.2533 18.99 59.2533C18.045 59.2533 17.1 59.6267 17.1 59.6267V56.64Z" fill="#005BBF"/>
<mask id="mask3_6_19331" style="mask-type:luminance" maskUnits="userSpaceOnUse" x="17" y="56" width="8" height="4">
<path fill-rule="evenodd" clip-rule="evenodd" d="M17.1 56.64H24.66V59.6267C24.66 59.6267 23.715 59.2533 22.77 59.2533C21.825 59.2533 20.88 59.6267 20.88 59.6267C20.88 59.6267 19.935 59.2533 18.99 59.2533C18.045 59.2533 17.1 59.6267 17.1 59.6267V56.64Z" fill="white"/>
</mask>
<g mask="url(#mask3_6_19331)">
<path d="M17.0315 59.0397L16.8665 58.682C17.5474 58.4127 18.2308 58.2777 18.9152 58.2777C19.3573 58.2777 19.5882 58.3323 19.9807 58.4877C20.3255 58.624 20.5042 58.6663 20.8813 58.6663C21.2584 58.6663 21.4371 58.624 21.7819 58.4877C22.1744 58.3323 22.4053 58.2777 22.8474 58.2777C23.5318 58.2777 24.2152 58.4127 24.8961 58.682L24.7311 59.0397C24.1012 58.7907 23.4738 58.6663 22.8474 58.6663C22.4704 58.6663 22.2916 58.709 21.9469 58.8453C21.5544 59.0007 21.3235 59.0553 20.8813 59.0553C20.4391 59.0553 20.2083 59.0007 19.8157 58.8453C19.4709 58.709 19.2922 58.6663 18.9152 58.6663C18.2888 58.6663 17.6614 58.7907 17.0315 59.0397Z" fill="white"/>
<path d="M17.0315 57.9197L16.8665 57.562C17.5474 57.2927 18.2308 57.1577 18.9152 57.1577C19.3573 57.1577 19.5882 57.2123 19.9807 57.3677C20.3255 57.504 20.5042 57.5467 20.8813 57.5467C21.2584 57.5467 21.4371 57.504 21.7819 57.3677C22.1744 57.2123 22.4053 57.1577 22.8474 57.1577C23.5318 57.1577 24.2152 57.2927 24.8961 57.562L24.7311 57.9197C24.1012 57.6707 23.4738 57.5467 22.8474 57.5467C22.4704 57.5467 22.2916 57.589 21.9469 57.7253C21.5544 57.8807 21.3235 57.9353 20.8813 57.9353C20.4391 57.9353 20.2083 57.8807 19.8157 57.7253C19.4709 57.589 19.2922 57.5467 18.9152 57.5467C18.2888 57.5467 17.6614 57.6707 17.0315 57.9197Z" fill="white"/>
</g>
<path d="M64.14 34.24H59.94V53.6533H64.14V34.24Z" fill="#F1F9FF"/>
<path fill-rule="evenodd" clip-rule="evenodd" d="M65.82 30.88H58.26V32.7467H59.52V34.24H64.56V32.7467H65.82V30.88Z" fill="#C88A02"/>
<path fill-rule="evenodd" clip-rule="evenodd" d="M64.56 54.7733H65.82V56.64H58.26V54.7733H59.52V53.28H64.56V54.7733Z" fill="#C88A02"/>
<path d="M62.04 31.2533C63.6637 31.2533 64.98 30.334 64.98 29.2C64.98 28.066 63.6637 27.1467 62.04 27.1467C60.4163 27.1467 59.1 28.066 59.1 29.2C59.1 30.334 60.4163 31.2533 62.04 31.2533Z" fill="#AD1619"/>
<path fill-rule="evenodd" clip-rule="evenodd" d="M58.26 56.64H65.82V59.6267C65.82 59.6267 64.875 59.2533 63.93 59.2533C62.985 59.2533 62.04 59.6267 62.04 59.6267C62.04 59.6267 61.095 59.2533 60.15 59.2533C59.205 59.2533 58.26 59.6267 58.26 59.6267V56.64Z" fill="#005BBF"/>
<mask id="mask4_6_19331" style="mask-type:luminance" maskUnits="userSpaceOnUse" x="58" y="56" width="8" height="4">
<path fill-rule="evenodd" clip-rule="evenodd" d="M58.26 56.64H65.82V59.6267C65.82 59.6267 64.875 59.2533 63.93 59.2533C62.985 59.2533 62.04 59.6267 62.04 59.6267C62.04 59.6267 61.095 59.2533 60.15 59.2533C59.205 59.2533 58.26 59.6267 58.26 59.6267V56.64Z" fill="white"/>
</mask>
<g mask="url(#mask4_6_19331)">
<path d="M58.1918 59.0397L58.0268 58.682C58.7074 58.4127 59.391 58.2777 60.0754 58.2777C60.5175 58.2777 60.7481 58.3323 61.1408 58.4877C61.4858 58.624 61.6643 58.6663 62.0415 58.6663C62.4184 58.6663 62.5973 58.624 62.9419 58.4877C63.3345 58.3323 63.5655 58.2777 64.0076 58.2777C64.692 58.2777 65.3753 58.4127 66.0563 58.682L65.8913 59.0397C65.2613 58.7907 64.6339 58.6663 64.0076 58.6663C63.6304 58.6663 63.4519 58.709 63.1069 58.8453C62.7143 59.0007 62.4836 59.0553 62.0415 59.0553C61.5994 59.0553 61.3684 59.0007 60.9758 58.8453C60.6311 58.709 60.4523 58.6663 60.0754 58.6663C59.4488 58.6663 58.8214 58.7907 58.1918 59.0397Z" fill="white"/>
<path d="M58.1918 57.9197L58.0268 57.562C58.7074 57.2927 59.391 57.1577 60.0754 57.1577C60.5175 57.1577 60.7481 57.2123 61.1408 57.3677C61.4858 57.504 61.6643 57.5467 62.0415 57.5467C62.4184 57.5467 62.5973 57.504 62.9419 57.3677C63.3345 57.2123 63.5655 57.1577 64.0076 57.1577C64.692 57.1577 65.3753 57.2927 66.0563 57.562L65.8913 57.9197C65.2613 57.6707 64.6339 57.5467 64.0076 57.5467C63.6304 57.5467 63.4519 57.589 63.1069 57.7253C62.7143 57.8807 62.4836 57.9353 62.0415 57.9353C61.5994 57.9353 61.3684 57.8807 60.9758 57.7253C60.6311 57.589 60.4523 57.5467 60.0754 57.5467C59.4488 57.5467 58.8214 57.6707 58.1918 57.9197Z" fill="white"/>
</g>
<path fill-rule="evenodd" clip-rule="evenodd" d="M18.7048 52.2663C19.462 51.4503 19.8854 50.708 19.8854 49.9197C19.8854 49.4223 19.719 48.993 19.4274 48.6423L19.4767 48.6227C19.4721 48.6243 20.3074 48.3007 20.5982 48.1767C21.1388 47.9463 21.615 47.7023 22.0793 47.4023C22.3758 47.2107 22.773 47.0017 23.3784 46.7127C23.4831 46.663 23.7666 46.529 23.9475 46.4437L24.101 46.3713C24.3953 46.2317 24.6144 46.1247 24.818 46.0197C25.4524 45.6927 25.8716 45.4223 26.1923 45.061C26.9516 44.205 26.7941 43.0447 25.7298 42.4003C25.2084 42.085 24.5048 41.904 23.4735 41.7613L23.2602 41.732C22.9079 41.6837 22.2309 41.5907 21.9984 41.558C21.5048 41.4893 21.0645 41.425 20.6718 41.364C23.2539 40.982 26.9411 41.1223 28.563 41.8667L30.1043 39.213C26.7994 37.696 19.2689 37.851 16.4559 39.573C14.3927 40.836 14.6695 42.7453 16.8162 43.5673C17.7132 43.911 18.8826 44.1387 21.0465 44.4477C20.6839 44.6347 20.3832 44.8057 20.1031 44.9867C19.819 45.1703 19.5146 45.3263 19.1455 45.4837C18.9689 45.559 18.4462 45.763 18.2065 45.8563L18.0859 45.9037C16.3373 46.6103 15.4887 47.588 15.7423 49.353L15.8796 50.3083L16.1258 50.3757L18.7048 52.2663ZM16.5434 49.7973L16.538 49.8113L16.5421 49.8013L16.5434 49.7973ZM62.6471 49.9197C62.6471 50.708 63.0709 51.4503 63.828 52.2663L66.4069 50.3757L66.6533 50.3083L66.7905 49.353C67.044 47.588 66.1954 46.6103 64.4468 45.9037L64.3264 45.8567C64.0868 45.763 63.564 45.559 63.3874 45.4837C63.018 45.3263 62.7135 45.1703 62.4296 44.9867C62.1495 44.8057 61.8488 44.6347 61.4861 44.4477C63.6503 44.1387 64.8195 43.911 65.7165 43.5673C67.8634 42.7453 68.1401 40.836 66.0769 39.573C63.264 37.851 55.7333 37.696 52.4284 39.213L53.9696 41.8667C55.5915 41.1223 59.2789 40.982 61.8608 41.364C61.4681 41.425 61.0279 41.4893 60.5344 41.558C60.3019 41.5907 59.6254 41.6837 59.2729 41.732L59.0591 41.7613C58.0279 41.904 57.3244 42.085 56.8028 42.4003C55.7385 43.0447 55.581 44.205 56.3404 45.061C56.661 45.4223 57.0803 45.6927 57.7148 46.0197C57.9184 46.1247 58.1374 46.2317 58.4318 46.3713L58.5844 46.4433C58.7655 46.5287 59.0494 46.6627 59.1544 46.7127C59.7596 47.0017 60.1571 47.2107 60.4534 47.4023C60.9176 47.7023 61.3939 47.9463 61.9346 48.1767C62.2253 48.3007 63.0604 48.6243 63.0559 48.6227L63.1054 48.6423C62.8136 48.993 62.6471 49.4223 62.6471 49.9197Z" fill="#AD1619"/>
<path d="M22.2126 41.3333L23.4523 41.5613V43.2037C22.1319 44.1403 18.78 45.7187 18.78 45.7187V41.3333H22.2126Z" fill="#F1F9FF"/>
<path d="M61.1798 41.3333L59.94 41.5613V43.2037C61.2604 44.1403 64.6121 45.7187 64.6121 45.7187V41.3333H61.1798Z" fill="#F1F9FF"/>
<path fill-rule="evenodd" clip-rule="evenodd" d="M55.41 24.0199V23.4733C53.2496 22.0952 50.9873 21.4061 48.6229 21.4061C46.3564 20.5145 44.0621 20.1684 41.7401 20.3678L41.7413 20.3582C38.25 20.0546 34.7318 21.4061 34.7318 21.4061C31.1854 21.4061 27.945 23.4733 27.945 23.4733V24.0199L32.181 27.8017C32.181 27.8017 33.3735 31.4417 41.724 30.5863V30.5953C41.724 30.5953 47.2526 30.4613 47.6411 30.3463C47.7956 30.301 47.9554 30.2593 48.1185 30.217C49.2015 29.9359 50.4379 29.6151 51.1736 27.8017L55.41 24.0199ZM41.724 20.5351C41.6033 21.7941 40.9151 29.3839 41.724 30.5607V20.5351Z" fill="#AD1619"/>
<path fill-rule="evenodd" clip-rule="evenodd" d="M31.1764 27.1653L31.179 27.1537L28.1989 24.6615L28.4869 24.3895L31.2833 26.7282L31.3549 26.4356C31.8124 26.5241 32.1465 26.5566 32.3415 26.5382V26.0308L32.9614 26.329C33.2663 26.4757 33.7031 26.5151 34.278 26.432C34.7006 26.3709 34.9856 25.9348 35.0786 25.0056L35.2669 23.1297L35.898 24.9275C36.1838 25.741 36.6195 26.0997 37.2398 26.0997C37.8454 26.0997 38.0888 25.9023 38.1158 25.4047L38.1919 23.9934L38.91 25.2539C39.1688 25.708 39.5254 25.9141 40.0328 25.9141C40.758 25.9141 41.2425 25.3765 41.2425 24.533H41.2564H42.0825H42.0964C42.0964 25.3765 42.5809 25.9141 43.3061 25.9141C43.8135 25.9141 44.1701 25.708 44.4289 25.2539L45.147 23.9934L45.2231 25.4047C45.2501 25.9023 45.4935 26.0997 46.0991 26.0997C46.7194 26.0997 47.1551 25.741 47.4409 24.9275L48.072 23.1297L48.2603 25.0056C48.3533 25.9348 48.6383 26.3709 49.0609 26.432C49.6358 26.5151 50.0726 26.4757 50.3775 26.329L50.9974 26.0308V26.5382C51.1924 26.5566 51.5265 26.5241 51.984 26.4356L52.1168 26.9785L55.2128 24.3895L55.5004 24.6615L51.648 27.8832C51.0859 28.8033 50.8031 29.4106 50.8031 29.6628C50.8031 30.0477 49.6766 30.276 47.478 30.5107C45.7556 30.6947 43.7231 30.818 42.0604 30.8363L41.8496 30.8383L41.6389 30.8387C39.9761 30.8203 37.9436 30.6947 36.2213 30.5107C34.023 30.276 32.8965 30.0477 32.8965 29.6628C32.8965 29.6151 32.8864 29.5547 32.8661 29.4818C32.6445 29.2309 32.4885 28.8203 32.3846 28.45C32.2875 28.2768 32.1761 28.0877 32.0513 27.8832L31.1978 27.1694L31.1764 27.1653ZM51.8216 27.2254C51.1339 27.3336 50.637 27.3227 50.3738 27.1319C49.9613 27.2385 49.4779 27.2488 48.9259 27.1689C48.336 27.0836 47.9258 26.735 47.6786 26.1567C47.3558 26.522 46.9481 26.7475 46.4595 26.8204C49.1471 27.1592 51.03 27.6354 51.03 27.6354C51.03 27.6354 50.9835 27.9893 50.8706 28.4053C50.9903 28.1875 51.1316 27.9455 51.2951 27.6784L51.3356 27.6318L51.8216 27.2254ZM45.1913 26.6785C44.9576 26.5752 44.7709 26.4255 44.6359 26.2326C44.4356 26.3899 44.2076 26.5049 43.9545 26.5759C44.3771 26.6047 44.7904 26.6394 45.1913 26.6785ZM42.4718 26.5033C42.1448 26.3689 41.8725 26.1537 41.6693 25.8779C41.4679 26.1517 41.1983 26.3659 40.8739 26.5004C41.0659 26.4953 41.259 26.4918 41.4533 26.4898L41.6216 26.4886L41.79 26.4881C42.0188 26.4904 42.246 26.4967 42.4718 26.5033ZM32.3333 27.6062L31.9414 27.2787C32.4116 27.3202 32.7596 27.2808 32.9651 27.1319C33.3776 27.2385 33.861 27.2488 34.413 27.1689C35.0025 27.0836 35.4131 26.735 35.6603 26.1567C35.9738 26.5114 36.3671 26.7343 36.837 26.8137C34.5199 27.1031 32.7908 27.4968 32.3333 27.6062ZM39.366 26.5707C38.9591 26.5976 38.5609 26.6301 38.1735 26.6668C38.3951 26.5641 38.5729 26.4184 38.703 26.2326C38.8988 26.3861 39.1204 26.4994 39.366 26.5707ZM49.6988 29.6701C49.9931 29.7925 50.229 29.6704 50.4154 29.4361C50.3993 29.5008 50.3891 29.5593 50.385 29.6117C50.3606 29.6261 50.3228 29.6433 50.2733 29.6618C50.1349 29.7135 49.9234 29.7686 49.6485 29.8244C49.1085 29.9339 48.3394 30.0427 47.4281 30.14C45.6484 30.33 43.5323 30.455 41.8496 30.465C40.1674 30.455 38.0513 30.33 36.2715 30.14C35.3599 30.0427 34.5911 29.9339 34.0508 29.8244C33.8205 29.7776 33.6345 29.7314 33.4991 29.6872C33.5141 29.6822 33.5291 29.6765 33.5445 29.6701C34.4618 29.2885 40.5289 28.9304 41.6216 28.8686C42.714 28.9304 48.7811 29.2885 49.6988 29.6701Z" fill="#C88A02"/>
<path d="M41.6707 17.8236C42.3666 17.8236 42.9307 17.3221 42.9307 16.7036C42.9307 16.085 42.3666 15.5836 41.6707 15.5836C40.9749 15.5836 40.4107 16.085 40.4107 16.7036C40.4107 17.3221 40.9749 17.8236 41.6707 17.8236Z" fill="#005BBF"/>
<path fill-rule="evenodd" clip-rule="evenodd" d="M40.41 24.6947C40.9898 24.6947 41.46 24.444 41.46 24.1347C41.46 24.444 41.9299 24.6947 42.51 24.6947C43.0898 24.6947 43.56 24.444 43.56 24.1347C43.56 23.8255 43.0898 23.5747 42.51 23.5747C42.3638 23.5747 42.225 23.5906 42.0986 23.6193C42.129 23.4662 42.1279 23.2907 42.0881 23.109C41.9775 22.603 41.6108 22.2406 41.2691 22.2996C40.9275 22.3586 40.7404 22.8167 40.851 23.3227C40.878 23.4456 40.92 23.56 40.9729 23.662C40.8101 23.6068 40.617 23.5747 40.41 23.5747C39.8299 23.5747 39.36 23.8255 39.36 24.1347C39.36 24.444 39.8299 24.6947 40.41 24.6947ZM35.16 24.5081C35.16 24.8174 34.6898 25.0681 34.11 25.0681C33.5299 25.0681 33.06 24.8174 33.06 24.5081C33.06 24.1988 33.5299 23.9481 34.11 23.9481C34.317 23.9481 34.5101 23.9801 34.6729 24.0354C34.62 23.9334 34.578 23.8189 34.551 23.696C34.4404 23.19 34.6275 22.732 34.9691 22.673C35.3108 22.614 35.6775 22.9763 35.7881 23.4823C35.8279 23.664 35.829 23.8396 35.7986 23.9927C35.925 23.964 36.0638 23.9481 36.21 23.9481C36.7898 23.9481 37.26 24.1988 37.26 24.5081C37.26 24.8174 36.7898 25.0681 36.21 25.0681C35.6299 25.0681 35.16 24.8174 35.16 24.5081ZM46.6995 24.8013C47.274 24.873 47.7788 24.6829 47.8271 24.3766C47.7788 24.6829 48.2051 24.9893 48.7793 25.0611C49.3534 25.1328 49.8581 24.9427 49.9069 24.6364C49.9553 24.3301 49.5289 24.0237 48.9548 23.952C48.81 23.9339 48.6698 23.9324 48.5404 23.9452C48.5944 23.7974 48.6206 23.6234 48.6098 23.4385C48.5794 22.9238 48.273 22.5196 47.9258 22.5358C47.5781 22.552 47.3213 22.9824 47.3513 23.4971C47.3588 23.6222 47.3824 23.7407 47.4191 23.8483C47.2665 23.7734 47.0801 23.7178 46.875 23.6922C46.3009 23.6204 45.7961 23.8106 45.7478 24.1168C45.699 24.4231 46.1254 24.7295 46.6995 24.8013ZM53.049 25.8012C52.8859 26.0743 52.3384 26.0995 51.8261 25.8575C51.3143 25.6155 51.0315 25.1979 51.195 24.9248C51.3581 24.6518 51.9056 24.6266 52.4179 24.8686C52.6009 24.955 52.7543 25.0639 52.869 25.1806C52.8758 25.0684 52.8994 24.9499 52.9406 24.8301C53.1101 24.3372 53.517 24.0109 53.85 24.1013C54.1826 24.1917 54.315 24.6646 54.1455 25.1576C53.976 25.6505 53.5688 25.9768 53.2358 25.8864C53.1679 25.8679 53.1083 25.8334 53.0576 25.7859L53.049 25.8012ZM29.9951 25.9156C30.1586 26.1886 30.7061 26.2138 31.218 25.9718C31.7299 25.7298 32.0126 25.3123 31.8491 25.0392C31.686 24.7661 31.1385 24.7409 30.6263 24.9829C30.4436 25.0694 30.2899 25.1783 30.1751 25.295C30.1684 25.1828 30.1448 25.0642 30.1039 24.9445C29.934 24.4515 29.5271 24.1252 29.1941 24.2157C28.8615 24.3061 28.7291 24.779 28.8986 25.2719C29.0685 25.7649 29.4754 26.0912 29.8084 26.0008C29.8763 25.9823 29.9359 25.9477 29.9865 25.9003C29.9891 25.9054 29.9921 25.9105 29.9951 25.9156Z" fill="#C88A02"/>
<path fill-rule="evenodd" clip-rule="evenodd" d="M41.2005 13.5887H42.0754V14.08H42.6472V14.8578H42.0754V16.4133H42.6472V17.1911H40.62V16.4133H41.2005V14.8578H40.62V14.08H41.2005V13.5887Z" fill="#C88A02"/>
<path d="M42.72 17.8133H41.04V22.6667H42.72V17.8133Z" fill="#C88A02"/>
<path d="M34.2769 18.6261L34.2697 18.9994C30.5456 18.9416 28.4092 19.4247 27.867 20.3875C27.3064 21.383 27.4106 22.593 28.1962 24.0304L27.8186 24.1936C26.9805 22.6599 26.8657 21.3313 27.4916 20.2204C28.1355 19.0769 30.3952 18.5659 34.2769 18.6261Z" fill="white"/>
<path d="M34.9976 21.9366L34.7824 22.2571C33.9713 21.8267 33.5651 21.0921 33.5651 20.0798C33.5651 18.6248 34.4085 17.7717 36.2734 17.1878C37.464 16.8152 39.09 16.968 41.1563 17.6339L41.013 17.9849C39.0293 17.3456 37.4948 17.2014 36.4129 17.5399C34.7025 18.0755 33.9851 18.801 33.9851 20.0798C33.9851 20.9682 34.3226 21.5783 34.9976 21.9366Z" fill="white"/>
<path d="M28.7254 23.4579L27.933 23.7054C27.1106 21.6242 27.3454 20.2108 28.7505 19.6012C29.9888 19.0639 31.7933 18.8453 34.173 18.931L34.1389 19.6771C31.8859 19.5959 30.2093 19.799 29.1191 20.2721C28.1955 20.6728 28.0268 21.6894 28.7254 23.4579Z" fill="#C88A02"/>
<path d="M37.9845 18.129C36.0641 18.129 35.2755 18.5448 34.8248 19.7724C34.5379 20.5547 34.8161 21.2224 35.7191 21.8457L35.2039 22.4355C34.035 21.6285 33.6229 20.6402 34.0264 19.5408C34.6005 17.9763 35.7274 17.3823 37.9845 17.3823C39.4643 17.3823 40.6166 17.7278 41.4191 18.431L41.5444 18.5407V22.1406H40.7044V18.8598C40.0778 18.3759 39.1774 18.129 37.9845 18.129Z" fill="#C88A02"/>
<path d="M48.9337 18.9995L48.9409 19.3727C52.665 19.3149 54.8014 19.798 55.3436 20.7609C55.9043 21.7563 55.8 22.9664 55.0144 24.4038L55.392 24.5669C56.2301 23.0332 56.3449 21.7046 55.719 20.5937C55.0751 19.4503 52.8154 18.9392 48.9337 18.9995Z" fill="white"/>
<path d="M47.6186 22.0142L47.8339 22.3348C48.645 21.9043 49.0507 21.1697 49.0507 20.1574C49.0507 18.7025 48.2077 17.8493 46.3425 17.2654C45.1522 16.8928 43.5262 17.0456 41.46 17.7115L41.6029 18.0625C43.5866 17.4232 45.1215 17.279 46.203 17.6176C47.9137 18.1531 48.6307 18.8787 48.6307 20.1574C48.6307 21.0458 48.2936 21.6559 47.6186 22.0142Z" fill="white"/>
<path d="M54.747 23.8313L55.5397 24.0787C56.3617 21.9975 56.127 20.5842 54.7219 19.9745C53.484 19.4373 51.6795 19.2186 49.2997 19.3043L49.3339 20.0504C51.5869 19.9692 53.2631 20.1723 54.3536 20.6455C55.2769 21.0462 55.446 22.0628 54.747 23.8313Z" fill="#C88A02"/>
<path d="M45.4395 18.1867C47.3603 18.1867 48.1489 18.6024 48.5993 19.8301C48.8865 20.6124 48.6079 21.2801 47.7053 21.9034L48.2201 22.4931C49.3894 21.6862 49.8015 20.6979 49.398 19.5985C48.8239 18.034 47.697 17.44 45.4395 17.44C43.9601 17.44 42.8074 17.7855 42.0049 18.4887L41.8796 18.5984V22.1983H42.7196V18.9175C43.3466 18.4336 44.247 18.1867 45.4395 18.1867Z" fill="#C88A02"/>
<path opacity="0.3" fill-rule="evenodd" clip-rule="evenodd" d="M28.02 30.88H55.32V52.6827C55.32 52.6827 53.292 60 41.67 60C30.048 60 28.02 52.49 28.02 52.49V30.88Z" fill="#E1E5E8"/>
<mask id="mask5_6_19331" style="mask-type:luminance" maskUnits="userSpaceOnUse" x="28" y="30" width="28" height="30">
<path fill-rule="evenodd" clip-rule="evenodd" d="M28.02 30.88H55.32V52.6827C55.32 52.6827 53.292 60 41.67 60C30.048 60 28.02 52.49 28.02 52.49V30.88Z" fill="white"/>
</mask>
<g mask="url(#mask5_6_19331)">
<path d="M41.88 44.32H28.02V58.88H41.88V44.32Z" fill="#FFC034"/>
<path d="M31.38 45.0667H29.7V58.88H31.38V45.0667Z" fill="#AD1619"/>
<path d="M37.26 45.0667H35.58V58.88H37.26V45.0667Z" fill="#AD1619"/>
<path d="M34.32 45.0667H32.64V58.88H34.32V45.0667Z" fill="#AD1619"/>
<path d="M40.2 45.0667H38.52V58.88H40.2V45.0667Z" fill="#AD1619"/>
<path d="M41.88 30.5067H28.02V44.6933H41.88V30.5067Z" fill="#AD1619"/>
<path d="M55.32 43.9467H41.46V58.1333H55.32V43.9467Z" fill="#AD1619"/>
<path d="M56.16 30.88H41.46V44.6933H56.16V30.88Z" fill="#F1F9FF"/>
<path fill-rule="evenodd" clip-rule="evenodd" d="M33.9 32H35.16V35.0973H36V33.5487H37.26V35.0973H38.52V37.033H37.26V40.5177H38.52V42.4533H30.96V40.5177H32.22V37.033H30.96V35.0973H31.8V33.5487H33.06V35.0973H33.9V32Z" fill="#C88A02"/>
<path d="M48.6705 32.65L49.5308 31.8317L51.3364 33.331L50.4765 34.1493L48.6705 32.65Z" fill="#C88A02"/>
<path fill-rule="evenodd" clip-rule="evenodd" d="M53.85 53.8003V45.6267H43.35V53.7317L43.3665 53.795C43.8983 55.808 45.7084 56.8267 48.6 56.8267C51.489 56.8267 53.2988 55.8343 53.8324 53.865L53.85 53.8003ZM48.6 55.7067C46.2799 55.7067 45.0128 55.012 44.61 53.5997V46.7467H52.59V53.6647C52.1884 55.0307 50.9209 55.7067 48.6 55.7067Z" fill="#FFC034"/>
<path fill-rule="evenodd" clip-rule="evenodd" d="M49.0335 46.3097H48.1586V50.0153L44.7094 46.6807L44.091 47.186L47.2103 50.2017H44.3839V51.3217H46.5551H47.2789L44.091 54.404L44.7094 54.9093L48.1586 51.5747V55.906H49.0335V51.9643L52.0796 54.9093L52.698 54.404L49.5098 51.3217H53.0685V50.2017H49.5788L52.698 47.186L52.0796 46.6807L49.0335 49.6257V46.3097Z" fill="#FFC034"/>
<path fill-rule="evenodd" clip-rule="evenodd" d="M50.5601 58.1423C50.5601 58.1423 41.6644 58.764 41.6644 53.664C41.6644 53.664 41.5796 58.1423 32.2909 58.1423V62.1683H50.5601V58.1423Z" fill="#F1F9FF"/>
<path d="M41.67 47.3066C43.4097 47.3066 44.82 45.9695 44.82 44.32C44.82 42.6705 43.4097 41.3333 41.67 41.3333C39.9303 41.3333 38.52 42.6705 38.52 44.32C38.52 45.9695 39.9303 47.3066 41.67 47.3066Z" fill="#005BBF" stroke="#AD1619" stroke-width="1.16667"/>
</g>
</g>
</g>
<path style="mix-blend-mode:overlay" d="M112.5 0H7.5C3.35786 0 0 2.98477 0 6.66667V73.3333C0 77.0152 3.35786 80 7.5 80H112.5C116.642 80 120 77.0152 120 73.3333V6.66667C120 2.98477 116.642 0 112.5 0Z" fill="url(#paint0_linear_6_19331)"/>
<g style="mix-blend-mode:multiply">
<path d="M112.5 1.66666H7.5C4.3934 1.66666 1.875 3.90524 1.875 6.66666V73.3333C1.875 76.0948 4.3934 78.3333 7.5 78.3333H112.5C115.607 78.3333 118.125 76.0948 118.125 73.3333V6.66666C118.125 3.90524 115.607 1.66666 112.5 1.66666Z" stroke="black" stroke-opacity="0.1"/>
</g>
</g>
<defs>
<linearGradient id="paint0_linear_6_19331" x1="120" y1="80" x2="120" y2="0" gradientUnits="userSpaceOnUse">
<stop offset="0.0242052" stop-opacity="0.3"/>
<stop offset="1" stop-color="white" stop-opacity="0.7"/>
</linearGradient>
</defs>
</svg>
