<svg width="120" height="80" viewBox="0 0 120 80" fill="none" xmlns="http://www.w3.org/2000/svg">
<mask id="mask0_6_19972" style="mask-type:luminance" maskUnits="userSpaceOnUse" x="0" y="0" width="120" height="80">
<path d="M112.5 0H7.5C3.35786 0 0 2.98477 0 6.66667V73.3333C0 77.0152 3.35786 80 7.5 80H112.5C116.642 80 120 77.0152 120 73.3333V6.66667C120 2.98477 116.642 0 112.5 0Z" fill="white"/>
</mask>
<g mask="url(#mask0_6_19972)">
<mask id="mask1_6_19972" style="mask-type:luminance" maskUnits="userSpaceOnUse" x="0" y="0" width="120" height="80">
<path d="M120 0H0V80H120V0Z" fill="white"/>
</mask>
<g mask="url(#mask1_6_19972)">
<path fill-rule="evenodd" clip-rule="evenodd" d="M0 0V80H120V0H0Z" fill="#F7FCFF"/>
<mask id="mask2_6_19972" style="mask-type:luminance" maskUnits="userSpaceOnUse" x="0" y="0" width="120" height="80">
<path fill-rule="evenodd" clip-rule="evenodd" d="M0 0V80H120V0H0Z" fill="white"/>
</mask>
<g mask="url(#mask2_6_19972)">
<path fill-rule="evenodd" clip-rule="evenodd" d="M0 0V40H120V0H0Z" fill="#E31D1C"/>
</g>
</g>
<path style="mix-blend-mode:overlay" d="M112.5 0H7.5C3.35786 0 0 2.98477 0 6.66667V73.3333C0 77.0152 3.35786 80 7.5 80H112.5C116.642 80 120 77.0152 120 73.3333V6.66667C120 2.98477 116.642 0 112.5 0Z" fill="url(#paint0_linear_6_19972)"/>
<g style="mix-blend-mode:multiply">
<path d="M112.5 1.66666H7.5C4.3934 1.66666 1.875 3.90524 1.875 6.66666V73.3333C1.875 76.0947 4.3934 78.3333 7.5 78.3333H112.5C115.607 78.3333 118.125 76.0947 118.125 73.3333V6.66666C118.125 3.90524 115.607 1.66666 112.5 1.66666Z" stroke="black" stroke-opacity="0.1"/>
</g>
</g>
<defs>
<linearGradient id="paint0_linear_6_19972" x1="120" y1="80" x2="120" y2="0" gradientUnits="userSpaceOnUse">
<stop offset="0.0242052" stop-opacity="0.3"/>
<stop offset="1" stop-color="white" stop-opacity="0.7"/>
</linearGradient>
</defs>
</svg>
