<svg width="120" height="80" viewBox="0 0 120 80" fill="none" xmlns="http://www.w3.org/2000/svg">
<mask id="mask0_6_19669" style="mask-type:luminance" maskUnits="userSpaceOnUse" x="0" y="0" width="120" height="80">
<path d="M112.5 0H7.5C3.35786 0 0 2.98477 0 6.66667V73.3333C0 77.0152 3.35786 80 7.5 80H112.5C116.642 80 120 77.0152 120 73.3333V6.66667C120 2.98477 116.642 0 112.5 0Z" fill="white"/>
</mask>
<g mask="url(#mask0_6_19669)">
<mask id="mask1_6_19669" style="mask-type:luminance" maskUnits="userSpaceOnUse" x="0" y="0" width="120" height="80">
<path d="M120 0H0V80H120V0Z" fill="white"/>
</mask>
<g mask="url(#mask1_6_19669)">
<path fill-rule="evenodd" clip-rule="evenodd" d="M0 0V80H120V0H0Z" fill="#2E42A5"/>
<mask id="mask2_6_19669" style="mask-type:luminance" maskUnits="userSpaceOnUse" x="0" y="0" width="120" height="80">
<path fill-rule="evenodd" clip-rule="evenodd" d="M0 0V80H120V0H0Z" fill="white"/>
</mask>
<g mask="url(#mask2_6_19669)">
<mask id="mask3_6_19669" style="mask-type:luminance" maskUnits="userSpaceOnUse" x="0" y="0" width="120" height="80">
<path d="M120 0H0V80H120V0Z" fill="white"/>
</mask>
<g mask="url(#mask3_6_19669)">
<path d="M-13.3617 74.2847L13.0446 84.2117L120.599 10.7929L134.528 -3.95876L106.29 -7.27661L62.4213 24.3616L27.1113 45.6784L-13.3617 74.2847Z" fill="white"/>
<path d="M-9.7467 81.2397L3.70609 87.0003L129.526 -5.32938H110.637L-9.7467 81.2397Z" fill="#F50100"/>
<path d="M133.362 74.2847L106.956 84.2117L-0.599116 10.7929L-14.5278 -3.95876L13.7099 -7.27661L57.579 24.3616L92.889 45.6784L133.362 74.2847Z" fill="white"/>
<path d="M132.461 79.2763L119.008 85.037L65.4326 45.5056L49.5484 41.089L-15.8682 -3.90829H3.02115L68.4011 40.021L85.7674 45.317L132.461 79.2763Z" fill="#F50100"/>
<path fill-rule="evenodd" clip-rule="evenodd" d="M74.1667 -6.66666H45.8332V26.6667H-7.39679V53.3333H45.8332V86.6667H74.1667V53.3333H127.603V26.6667H74.1667V-6.66666Z" fill="#F50100"/>
<mask id="mask4_6_19669" style="mask-type:luminance" maskUnits="userSpaceOnUse" x="-8" y="-7" width="136" height="94">
<path fill-rule="evenodd" clip-rule="evenodd" d="M74.1667 -6.66666H45.8332V26.6667H-7.39679V53.3333H45.8332V86.6667H74.1667V53.3333H127.603V26.6667H74.1667V-6.66666Z" fill="white"/>
</mask>
<g mask="url(#mask4_6_19669)">
<path d="M45.8332 -6.66668V-13.3333H38.3332V-6.66668H45.8332ZM74.1667 -6.66668H81.6667V-13.3333H74.1667V-6.66668ZM45.8332 26.6667V33.3333H53.3332V26.6667H45.8332ZM-7.39678 26.6667V20H-14.8968V26.6667H-7.39678ZM-7.39678 53.3333H-14.8968V60H-7.39678V53.3333ZM45.8332 53.3333H53.3332V46.6667H45.8332V53.3333ZM45.8332 86.6667H38.3332V93.3333H45.8332V86.6667ZM74.1667 86.6667V93.3333H81.6667V86.6667H74.1667ZM74.1667 53.3333V46.6667H66.6667V53.3333H74.1667ZM127.603 53.3333V60H135.103V53.3333H127.603ZM127.603 26.6667H135.103V20H127.603V26.6667ZM74.1667 26.6667H66.6667V33.3333H74.1667V26.6667ZM45.8332 -1.04904e-05H74.1667V-13.3333H45.8332V-1.04904e-05ZM53.3332 26.6667V-6.66668H38.3332V26.6667H53.3332ZM-7.39678 33.3333H45.8332V20H-7.39678V33.3333ZM0.10322 53.3333V26.6667H-14.8968V53.3333H0.10322ZM45.8332 46.6667H-7.39678V60H45.8332V46.6667ZM53.3332 86.6667V53.3333H38.3332V86.6667H53.3332ZM74.1667 80H45.8332V93.3333H74.1667V80ZM66.6667 53.3333V86.6667H81.6667V53.3333H66.6667ZM127.603 46.6667H74.1667V60H127.603V46.6667ZM120.103 26.6667V53.3333H135.103V26.6667H120.103ZM74.1667 33.3333H127.603V20H74.1667V33.3333ZM66.6667 -6.66668V26.6667H81.6667V-6.66668H66.6667Z" fill="white"/>
</g>
</g>
</g>
</g>
<path style="mix-blend-mode:overlay" d="M112.5 0H7.5C3.35786 0 0 2.98477 0 6.66667V73.3333C0 77.0152 3.35786 80 7.5 80H112.5C116.642 80 120 77.0152 120 73.3333V6.66667C120 2.98477 116.642 0 112.5 0Z" fill="url(#paint0_linear_6_19669)"/>
<g style="mix-blend-mode:multiply">
<path d="M112.5 1.66666H7.5C4.3934 1.66666 1.875 3.90523 1.875 6.66666V73.3333C1.875 76.0947 4.3934 78.3333 7.5 78.3333H112.5C115.607 78.3333 118.125 76.0947 118.125 73.3333V6.66666C118.125 3.90523 115.607 1.66666 112.5 1.66666Z" stroke="black" stroke-opacity="0.1"/>
</g>
</g>
<defs>
<linearGradient id="paint0_linear_6_19669" x1="120" y1="80" x2="120" y2="0" gradientUnits="userSpaceOnUse">
<stop offset="0.0242052" stop-opacity="0.3"/>
<stop offset="1" stop-color="white" stop-opacity="0.7"/>
</linearGradient>
</defs>
</svg>
