<svg width="120" height="80" viewBox="0 0 120 80" fill="none" xmlns="http://www.w3.org/2000/svg">
<mask id="mask0_6_19721" style="mask-type:luminance" maskUnits="userSpaceOnUse" x="0" y="0" width="120" height="80">
<path d="M112.5 0H7.5C3.35786 0 0 2.98477 0 6.66667V73.3333C0 77.0152 3.35786 80 7.5 80H112.5C116.642 80 120 77.0152 120 73.3333V6.66667C120 2.98477 116.642 0 112.5 0Z" fill="white"/>
</mask>
<g mask="url(#mask0_6_19721)">
<mask id="mask1_6_19721" style="mask-type:luminance" maskUnits="userSpaceOnUse" x="0" y="0" width="120" height="80">
<path d="M120 0H0V80H120V0Z" fill="white"/>
</mask>
<g mask="url(#mask1_6_19721)">
<path fill-rule="evenodd" clip-rule="evenodd" d="M0 0V80H120V0H0Z" fill="#F7FCFF"/>
<mask id="mask2_6_19721" style="mask-type:luminance" maskUnits="userSpaceOnUse" x="0" y="0" width="120" height="80">
<path fill-rule="evenodd" clip-rule="evenodd" d="M0 0V80H120V0H0Z" fill="white"/>
</mask>
<g mask="url(#mask2_6_19721)">
<path d="M60.0001 60.7318C72.0103 60.7318 81.7465 51.5409 81.7465 40.2033C81.7465 28.8657 72.0103 19.6748 60.0001 19.6748C47.9899 19.6748 38.2537 28.8657 38.2537 40.2033C38.2537 51.5409 47.9899 60.7318 60.0001 60.7318Z" fill="#3D58DB"/>
<mask id="mask3_6_19721" style="mask-type:luminance" maskUnits="userSpaceOnUse" x="38" y="19" width="44" height="42">
<path d="M60.0001 60.7318C72.0103 60.7318 81.7465 51.5409 81.7465 40.2033C81.7465 28.8657 72.0103 19.6748 60.0001 19.6748C47.9899 19.6748 38.2537 28.8657 38.2537 40.2033C38.2537 51.5409 47.9899 60.7318 60.0001 60.7318Z" fill="white"/>
</mask>
<g mask="url(#mask3_6_19721)">
<path fill-rule="evenodd" clip-rule="evenodd" d="M82.5072 41.7756C82.5072 41.7756 81.2866 32.096 72.2465 31.5703C63.2067 31.045 60.7692 38.669 60.2472 40.689C59.7256 42.709 58.4052 48.0973 48.8874 48.0973C39.3695 48.0973 38.5107 34.3956 38.5107 34.3956V18.2397H82.5072V41.7756Z" fill="#E31D1C"/>
</g>
<path fill-rule="evenodd" clip-rule="evenodd" d="M27.3724 6.84058L30.8036 9.59901L14.9027 26.1053L11.4716 23.3469L27.3724 6.84058ZM33.0311 11.3044L36.4624 14.0629L21.1314 30.33L17.7003 27.5717L33.0311 11.3044ZM42.0953 18.5817L38.664 15.8233L23.2904 32.214L26.7214 34.9723L42.0953 18.5817Z" fill="#272727"/>
<path fill-rule="evenodd" clip-rule="evenodd" d="M95.1138 5.68395L91.6822 8.43205L97.6349 14.6415L101.067 11.8934L95.1138 5.68395ZM105.695 17.1061L102.263 19.8542L108.216 26.0636L111.648 23.3155L105.695 17.1061ZM80.3549 17.376L83.7865 14.6279L89.7397 20.8374L86.3077 23.5855L80.3549 17.376ZM94.3679 26.05L90.9359 28.7981L96.8887 35.0077L100.321 32.2593L94.3679 26.05ZM86.2334 12.7707L89.665 10.0226L106.235 27.9588L102.803 30.707L86.2334 12.7707Z" fill="#272727"/>
<path fill-rule="evenodd" clip-rule="evenodd" d="M97.706 47.477L94.2455 44.7183L88.2425 50.952L91.703 53.7107L97.706 47.477ZM87.6136 58.447L84.1527 55.6883L78.1501 61.922L81.6106 64.6807L87.6136 58.447ZM105.174 53.4427L108.635 56.2017L102.632 62.4353L99.1715 59.6763L105.174 53.4427ZM99.0361 67.426L95.5756 64.667L89.5726 70.9007L93.0335 73.6597L99.0361 67.426ZM89.8745 59.9267L93.3353 62.6857L87.0691 69.342L83.6086 66.5833L89.8745 59.9267ZM103.616 51.594L100.155 48.8353L93.8888 55.4917L97.3497 58.2507L103.616 51.594Z" fill="#272727"/>
<path fill-rule="evenodd" clip-rule="evenodd" d="M24.0246 49.633L27.4565 46.8817L42.7737 62.483L39.3417 65.2343L24.0246 49.633ZM27.5975 63.2783L31.0295 60.5273L37.4997 66.846L34.0673 69.597L27.5975 63.2783ZM16.1603 55.636L12.7283 58.387L28.1251 74.1983L31.5571 71.4473L16.1603 55.636ZM18.6023 53.8407L22.0343 51.0897L27.6432 56.9357L24.2111 59.687L18.6023 53.8407Z" fill="#272727"/>
</g>
</g>
<path style="mix-blend-mode:overlay" d="M112.5 0H7.5C3.35786 0 0 2.98477 0 6.66667V73.3333C0 77.0152 3.35786 80 7.5 80H112.5C116.642 80 120 77.0152 120 73.3333V6.66667C120 2.98477 116.642 0 112.5 0Z" fill="url(#paint0_linear_6_19721)"/>
<g style="mix-blend-mode:multiply">
<path d="M112.5 1.66666H7.5C4.3934 1.66666 1.875 3.90524 1.875 6.66666V73.3333C1.875 76.0947 4.3934 78.3333 7.5 78.3333H112.5C115.607 78.3333 118.125 76.0947 118.125 73.3333V6.66666C118.125 3.90524 115.607 1.66666 112.5 1.66666Z" stroke="black" stroke-opacity="0.1"/>
</g>
</g>
<defs>
<linearGradient id="paint0_linear_6_19721" x1="120" y1="80" x2="120" y2="0" gradientUnits="userSpaceOnUse">
<stop offset="0.0242052" stop-opacity="0.3"/>
<stop offset="1" stop-color="white" stop-opacity="0.7"/>
</linearGradient>
</defs>
</svg>
