<svg enable-background="new 0 0 128 128" viewBox="0 0 128 128" xmlns="http://www.w3.org/2000/svg" xmlns:xlink="http://www.w3.org/1999/xlink"><clipPath id="a"><path d="m3.9 4h120.6v58.4h-120.6z"/></clipPath><linearGradient id="b" gradientTransform="matrix(-1 0 0 1 -367.691 -713.8898)" gradientUnits="userSpaceOnUse" x1="-461.2024" x2="-429.8694" y1="712.9722" y2="762.9726"><stop offset=".1848" stop-color="#1e88e5"/><stop offset=".806" stop-color="#1565c0"/></linearGradient><clipPath id="c"><path d="m3.9 4h120.6v58.4h-120.6z"/></clipPath><linearGradient id="d" gradientTransform="matrix(-1 0 0 1 -367.691 -713.8898)" gradientUnits="userSpaceOnUse" x1="-458.961" x2="-432.0859" y1="719.79" y2="761.79"><stop offset=".461" stop-color="#eee"/><stop offset="1" stop-color="#bdbdbd"/></linearGradient><clipPath id="e"><path d="m3.9 4h120.6v58.4h-120.6z"/></clipPath><linearGradient id="f" gradientTransform="matrix(-1 0 0 1 -367.691 -713.8898)" gradientUnits="userSpaceOnUse" x1="-467.9198" x2="-442.9199" y1="717.9441" y2="758.6946"><stop offset=".2565" stop-color="#e53935"/><stop offset=".8859" stop-color="#c62828"/></linearGradient><clipPath id="g"><path d="m3.9 4h120.6v58.4h-120.6z"/></clipPath><clipPath id="h"><path d="m3.9 4h120.6v58.4h-120.6z"/></clipPath><clipPath id="i"><path d="m3.9 4h120.6v58.4h-120.6z"/></clipPath><clipPath id="j"><path d="m3.9 4h120.6v58.4h-120.6z"/></clipPath><linearGradient id="k" gradientUnits="userSpaceOnUse" x1="34.7911" x2="66.1241" y1="-.9137" y2="49.0868"><stop offset=".1355" stop-color="#64b5f6"/><stop offset=".9462" stop-color="#2196f3"/></linearGradient><clipPath id="l"><path d="m3.9 4h120.6v58.4h-120.6z"/></clipPath><linearGradient id="m" gradientUnits="userSpaceOnUse" x1="38.2089" x2="65.0839" y1="1.4915" y2="43.4911"><stop offset=".2104" stop-color="#fafafa"/><stop offset=".7737" stop-color="#e0e0e0"/></linearGradient><clipPath id="n"><path d="m3.9 4h120.6v58.4h-120.6z"/></clipPath><linearGradient id="o" gradientUnits="userSpaceOnUse" x1="48.2315" x2="73.2315" y1="4.0711" y2="44.8217"><stop offset=".2579" stop-color="#ef5350"/><stop offset=".89" stop-color="#e53935"/></linearGradient><clipPath id="p"><path d="m3.9 4h120.6v58.4h-120.6z"/></clipPath><radialGradient id="q" cx="43" cy="57.5" gradientUnits="userSpaceOnUse" r="72.577"><stop offset=".2972" stop-color="#ffeb3b"/><stop offset=".9544" stop-color="#fbc02d"/></radialGradient><radialGradient id="r" cx="50.02" cy="61.305" gradientUnits="userSpaceOnUse" r="54.464"><stop offset=".0977" stop-color="#fdd835"/><stop offset=".9508" stop-color="#f9a825"/></radialGradient><path clip-path="url(#a)" d="m48.4 46.2h31.5l30-48.4h-31.5z" fill="url(#b)"/><path clip-path="url(#c)" d="m59.3 46.2h13.4l30-48.5h-13.4z" fill="url(#d)"/><path clip-path="url(#e)" d="m68.6 46.2h11.3l30-48.5h-11.2z" fill="url(#f)"/><g clip-path="url(#g)" opacity=".2"><path d="m104.5.8-26.3 42.4h-24.4l26.3-42.4zm5.4-3h-31.5l-30 48.4h31.4z" fill="#424242"/></g><path clip-path="url(#h)" d="m82 34h-36c-4.4 0-8 3.6-8 8v16c0 2.2 1.8 4 4 4 2.2 0 5-1.8 5-4v-10c0-1.1.9-2 2-2h30c1.1 0 2 .9 2 2v9.9c0 2 2.3 3.7 4.2 4 .3 0 .5.1.8.1 2.2 0 4-1.8 4-4v-16c0-4.4-3.6-8-8-8z" fill="#fdd835"/><g clip-path="url(#i)" opacity=".2"><path d="m82 36c3.3 0 6 2.7 6 6v16c0 1.1-.9 2-2 2-.1 0-.3 0-.4 0-1.2-.2-2.6-1.3-2.6-2.1v-9.9c0-2.2-1.8-4-4-4h-30c-2.2 0-4 1.8-4 4v10c0 .9-1.6 2-3 2-1.1 0-2-.9-2-2v-16c0-3.3 2.7-6 6-6zm0-2h-36c-4.4 0-8 3.6-8 8v16c0 2.2 1.8 4 4 4 2.2 0 5-1.8 5-4v-10c0-1.1.9-2 2-2h30c1.1 0 2 .9 2 2v9.9c0 2 2.3 3.7 4.2 4 .3 0 .5.1.8.1 2.2 0 4-1.8 4-4v-16c0-4.4-3.6-8-8-8z" fill="#424242"/></g><path clip-path="url(#j)" d="m79.9 46.2h-31.5l-30-48.4h31.5z" fill="url(#k)"/><path clip-path="url(#l)" d="m73 46.2h-13.4l-30-48.5h13.4z" fill="url(#m)"/><path clip-path="url(#n)" d="m79.8 46.2h-11.2l-30-48.5h11.2z" fill="url(#o)"/><g clip-path="url(#p)" opacity=".2"><path d="m48.2.8 26.3 42.4h-24.4l-26.3-42.4zm1.7-3h-31.5l30 48.4h31.4c.1 0-29.9-48.4-29.9-48.4z" fill="#424242"/></g><circle cx="64" cy="86" fill="url(#q)" r="38"/><path d="m64 51c19.3 0 35 15.7 35 35s-15.7 35-35 35-35-15.7-35-35 15.7-35 35-35m0-3c-21 0-38 17-38 38s17 38 38 38 38-17 38-38-17-38-38-38z" fill="#424242" opacity=".2"/><path d="m66.2 57.2 6.9 13.9c.4.7 1.1 1.2 1.8 1.3l15.4 2.2c.2 0 .4.1.6.2-4-10.1-13.6-17.4-25-18.2.1.3.2.4.3.6z" fill="url(#r)"/><path d="m37.7 74.7 15.4-2.2c.8-.1 1.5-.6 1.8-1.3l6.9-13.9c.1-.2.2-.3.3-.5-11.4.7-21 8-25 18.1.2-.1.4-.2.6-.2z" fill="url(#r)"/><path d="m45.6 107.2 2.6-15.3c.1-.8-.1-1.6-.7-2.2l-11.1-10.8c-.2-.2-.3-.3-.4-.5-.6 2.3-.9 4.7-.9 7.2 0 9 4.1 17 10.5 22.3-.1-.2-.1-.5 0-.7z" fill="url(#r)"/><path d="m92 78.4c-.1.2-.2.4-.4.5l-11.1 10.8c-.6.6-.8 1.4-.7 2.2l2.6 15.3c0 .2.1.5 0 .7 6.4-5.3 10.5-13.3 10.5-22.3 0-2.5-.3-4.9-.9-7.2z" fill="url(#r)"/><path d="m78.9 109.8-13.7-7.2c-.7-.4-1.6-.4-2.3 0l-13.7 7.2c-.2.1-.5.2-.7.2 4.5 2.9 9.8 4.5 15.6 4.5s11.1-1.7 15.6-4.5c-.4-.1-.6-.1-.8-.2z" fill="url(#r)"/><g fill="#424242"><path d="m71.3 60.7c5.7 1.7 10.7 5.3 14.1 10.3l-9.8-1.4zm-5.4-4c.1.2.2.3.3.5l6.9 13.9c.4.7 1.1 1.2 1.8 1.3l15.4 2.2c.2 0 .4.1.6.2-4.1-10-13.7-17.4-25-18.1z" opacity=".2"/><path d="m56.7 60.7-4.4 8.8-9.7 1.5c3.4-5 8.4-8.6 14.1-10.3zm5.4-4c-11.4.7-21 8-25 18.1.2-.1.4-.2.6-.2l15.4-2.2c.8-.1 1.5-.6 1.8-1.3l6.9-13.9c.1-.2.2-.3.3-.5z" opacity=".2"/><path d="m38.1 84.7 7.1 6.9-1.7 9.8c-3.5-4.4-5.4-10-5.4-15.8 0-.3 0-.6 0-.9m-2.1-6.3c-.6 2.3-.9 4.7-.9 7.2 0 9 4.1 17 10.5 22.3 0-.2 0-.5 0-.7l2.6-15.3c.1-.8-.1-1.6-.7-2.2l-11.1-10.8c-.2-.2-.3-.4-.4-.5z" opacity=".2"/><path d="m89.9 84.7v.9c0 5.8-1.9 11.4-5.4 15.9l-1.7-9.8zm2.1-6.3c-.1.2-.2.4-.4.5l-11.1 10.8c-.6.6-.8 1.4-.7 2.2l2.6 15.3c0 .2.1.5 0 .7 6.4-5.3 10.5-13.3 10.5-22.3 0-2.5-.3-4.9-.9-7.2z" opacity=".2"/><path d="m64 105.3 8.9 4.7c-2.8 1-5.8 1.6-8.9 1.6s-6-.5-8.9-1.6zm0-3.1c-.4 0-.8.1-1.1.3l-13.7 7.2c-.2.1-.5.2-.7.2 4.5 2.9 9.8 4.5 15.6 4.5s11.1-1.7 15.6-4.5c-.2 0-.4-.1-.7-.2l-13.7-7.2c-.5-.2-.9-.3-1.3-.3z" opacity=".2"/></g></svg>