<svg enable-background="new 0 0 128 128" viewBox="0 0 128 128" xmlns="http://www.w3.org/2000/svg" xmlns:xlink="http://www.w3.org/1999/xlink"><radialGradient id="a" cx="63.25" cy="41.25" gradientUnits="userSpaceOnUse" r="80.076"><stop offset="0" stop-color="#ffee58"/><stop offset=".053" stop-color="#ffee54"/><stop offset=".3561" stop-color="#ffec42"/><stop offset=".571" stop-color="#ffeb3b"/><stop offset="1" stop-color="#fbc02d"/></radialGradient><linearGradient id="b"><stop offset="0" stop-color="#ffcc80"/><stop offset=".0161" stop-color="#ffcc80" stop-opacity=".9839"/><stop offset="1" stop-color="#ffcc80" stop-opacity="0"/></linearGradient><linearGradient id="c" gradientUnits="userSpaceOnUse" x1="64" x2="64" xlink:href="#b" y1="119.25" y2="35.247"/><linearGradient id="d" gradientUnits="userSpaceOnUse" x1="46.215" x2="20.222" xlink:href="#b" y1="78" y2="78"/><linearGradient id="e" gradientTransform="matrix(-1 0 0 1 177.33 0)" gradientUnits="userSpaceOnUse" x1="95.546" x2="69.554" xlink:href="#b" y1="78" y2="78"/><radialGradient id="f" cx="63.751" cy="11.75" gradientTransform="matrix(0 1 -1.8835 0 85.882 -52.001)" gradientUnits="userSpaceOnUse" r="38.375"><stop offset="0" stop-color="#f44336"/><stop offset=".3423" stop-color="#f04036"/><stop offset=".6613" stop-color="#e53935"/><stop offset="1" stop-color="#d32f2f"/></radialGradient><radialGradient id="g" cx="64" cy="1.25" gradientUnits="userSpaceOnUse" r="118.31"><stop offset="0" stop-color="#fff176"/><stop offset=".0243" stop-color="#fff172"/><stop offset=".2465" stop-color="#ffee54"/><stop offset=".4366" stop-color="#ffec42"/><stop offset=".571" stop-color="#ffeb3b"/><stop offset="1" stop-color="#fdd835"/></radialGradient><linearGradient id="h"><stop offset="0" stop-color="#9ccc65"/><stop offset=".2538" stop-color="#96c760"/><stop offset=".5994" stop-color="#84b851"/><stop offset=".9952" stop-color="#689f38"/></linearGradient><radialGradient id="i" cx="24.869" cy="102.96" gradientTransform="matrix(0 1 1.1617 0 -96.872 78.095)" gradientUnits="userSpaceOnUse" r="21.378" xlink:href="#h"/><radialGradient id="j" cx="105.04" cy="101.96" gradientTransform="matrix(0 1 -1.1617 0 223.49 -3.0721)" gradientUnits="userSpaceOnUse" r="21.378" xlink:href="#h"/><path d="m8 40h112v76h-112z" fill="url(#a)"/><path d="m8 40h112v76h-112z" fill="url(#c)"/><path d="m8 40h35.06v76h-35.06z" fill="url(#d)" opacity=".5"/><path d="m84.94 116h35.06v-76h-35.06z" fill="url(#e)" opacity=".5"/><path d="m117 43v76h3c.55 0 1 .45 1 1v1h-114v-1c0-.55.45-1 1-1h3v-76zm3-3h-112v76c-2.21 0-4 1.79-4 4v4h120v-4c0-2.21-1.79-4-4-4z" fill="#424242" opacity=".2"/><path d="m121.73 44h-115.46c-1.2 0-2.13-1.05-1.98-2.25l6.93-26.75c.46-1.76 2.05-3 3.87-3h97.81c1.82 0 3.41 1.23 3.87 3l6.94 26.76c.16 1.19-.77 2.24-1.98 2.24z" fill="url(#f)"/><path d="m112.91 15c.46 0 .85.31.97.75l6.54 25.25h-112.84l6.55-25.25c.11-.44.51-.75.97-.75zm0-3h-97.82c-1.82 0-3.41 1.23-3.87 3l-6.94 26.75c-.15 1.2.78 2.25 1.99 2.25h115.47c1.2 0 2.13-1.05 1.98-2.25l-6.94-26.75c-.46-1.77-2.05-3-3.87-3z" fill="#424242" opacity=".2"/><path d="m64 4-24 24v88h48v-88z" fill="url(#g)"/><path d="m57 96h14v20h-14z" fill="#4fc3f7"/><g fill="#eee"><path d="m56 96h2v20h-2z"/><path d="m70 96h2v20h-2z"/></g><path d="m21.22 51h9.9v20h-9.9z" fill="#4fc3f7"/><g fill="#eee"><path d="m32 50h-12v22h12zm-1.94 20h-8v-8h8zm0-10h-8v-8h8z"/><path d="m33 72h-14c-.28 0-.5-.22-.5-.5v-1c0-.28.22-.5.5-.5h14c.28 0 .5.22.5.5v1c0 .28-.22.5-.5.5z"/><path d="m33 52h-14c-.28 0-.5-.22-.5-.5v-1c0-.28.22-.5.5-.5h14c.28 0 .5.22.5.5v1c0 .28-.22.5-.5.5z"/></g><path d="m46.72 61h9.9v20h-9.9z" fill="#4fc3f7"/><path d="m57.5 60h-12v22h12zm-1.94 20h-8v-8h8zm0-10h-8v-8h8z" fill="#eee"/><path d="m58.5 82h-14c-.28 0-.5-.22-.5-.5v-1c0-.28.22-.5.5-.5h14c.28 0 .5.22.5.5v1c0 .28-.22.5-.5.5z" fill="#eee"/><path d="m58.5 62h-14c-.28 0-.5-.22-.5-.5v-1c0-.28.22-.5.5-.5h14c.28 0 .5.22.5.5v1c0 .28-.22.5-.5.5z" fill="#eee"/><path d="m70.72 61h9.9v20h-9.9z" fill="#4fc3f7"/><path d="m81.5 60h-12v22h12zm-1.94 20h-8v-8h8zm0-10h-8v-8h8z" fill="#eee"/><path d="m82.5 82h-14c-.28 0-.5-.22-.5-.5v-1c0-.28.22-.5.5-.5h14c.28 0 .5.22.5.5v1c0 .28-.22.5-.5.5z" fill="#eee"/><path d="m82.5 62h-14c-.28 0-.5-.22-.5-.5v-1c0-.28.22-.5.5-.5h14c.28 0 .5.22.5.5v1c0 .28-.22.5-.5.5z" fill="#eee"/><path d="m21.22 81h9.9v20h-9.9z" fill="#4fc3f7"/><path d="m32 80h-12v22h12zm-1.94 20h-8v-8h8zm0-10h-8v-8h8z" fill="#eee"/><path d="m33 102h-14c-.28 0-.5-.22-.5-.5v-1c0-.28.22-.5.5-.5h14c.28 0 .5.22.5.5v1c0 .28-.22.5-.5.5z" fill="#eee"/><path d="m33 82h-14c-.28 0-.5-.22-.5-.5v-1c0-.28.22-.5.5-.5h14c.28 0 .5.22.5.5v1c0 .28-.22.5-.5.5z" fill="#eee"/><path d="m97.26 51h9.9v20h-9.9z" fill="#4fc3f7"/><path d="m108.04 50h-12v22h12zm-1.94 20h-8v-8h8zm0-10h-8v-8h8z" fill="#eee"/><path d="m109.04 72h-14c-.28 0-.5-.22-.5-.5v-1c0-.28.22-.5.5-.5h14c.28 0 .5.22.5.5v1c0 .28-.22.5-.5.5z" fill="#eee"/><path d="m109.04 52h-14c-.28 0-.5-.22-.5-.5v-1c0-.28.22-.5.5-.5h14c.28 0 .5.22.5.5v1c0 .28-.22.5-.5.5z" fill="#eee"/><path d="m97.26 81h9.9v20h-9.9z" fill="#4fc3f7"/><path d="m108.04 80h-12v22h12zm-1.94 20h-8v-8h8zm0-10h-8v-8h8z" fill="#eee"/><path d="m109.04 102h-14c-.28 0-.5-.22-.5-.5v-1c0-.28.22-.5.5-.5h14c.28 0 .5.22.5.5v1c0 .28-.22.5-.5.5z" fill="#eee"/><path d="m109.04 82h-14c-.28 0-.5-.22-.5-.5v-1c0-.28.22-.5.5-.5h14c.28 0 .5.22.5.5v1c0 .28-.22.5-.5.5z" fill="#eee"/><path d="m64 55.31c-8.27 0-15-6.73-15-15s6.73-15 15-15 15 6.73 15 15c0 8.28-6.73 15-15 15z" fill="#e0e0e0"/><path d="m64 26.31c7.73 0 14 6.27 14 14s-6.27 14-14 14-14-6.27-14-14 6.27-14 14-14m0-2c-8.82 0-16 7.18-16 16s7.18 16 16 16 16-7.18 16-16-7.18-16-16-16z" fill="#aaa19f"/><path d="m77 40.32c0 7.18-5.82 13-13 13s-13-5.82-13-13 5.82-13 13-13c7.18-.01 13 5.81 13 13z" fill="#eee"/><g fill="#9e9e9e"><path d="m65 31.36c0 .55-.45 1-1 1s-1-.45-1-1 .45-1 1-1c.56 0 1 .45 1 1z"/><path d="m71.09 34.65c-.39.39-1.02.39-1.41 0s-.39-1.03 0-1.42 1.02-.39 1.41 0 .39 1.03 0 1.42z"/><path d="m73.06 41.27c-.55 0-1-.45-1-1s.45-1 1-1 1 .45 1 1-.45 1-1 1z"/><path d="m69.77 47.36c-.39-.39-.39-1.02 0-1.42.39-.39 1.03-.39 1.42 0s.39 1.03 0 1.42c-.4.39-1.03.39-1.42 0z"/><path d="m63.15 49.33c0-.55.45-1 1-1s1 .45 1 1-.45 1-1 1c-.56 0-1.01-.45-1-1z"/><path d="m57.06 46.04c.39-.39 1.02-.39 1.41 0s.39 1.02 0 1.41-1.03.39-1.41 0c-.39-.39-.39-1.02 0-1.41z"/><path d="m55.09 39.41c.55 0 1 .44 1 1 0 .55-.45 1-1 1s-1-.45-1-1 .45-1 1-1z"/><path d="m58.38 33.33c.39.39.39 1.02 0 1.42-.39.39-1.03.39-1.42 0s-.39-1.02 0-1.42c.39-.39 1.03-.39 1.42 0z"/></g><g fill="#616161"><circle cx="64.05" cy="40.25" r="1.98"/><path d="m64.14 40.86c-.73 0-1.32-.59-1.32-1.32v-7.98c0-.73.59-1.32 1.32-1.32s1.32.59 1.32 1.32v7.98c0 .73-.59 1.32-1.32 1.32z"/><path d="m64.52 39.66c.52.52.52 1.35 0 1.87l-3.31 3.31c-.52.52-1.35.52-1.87 0s-.52-1.35 0-1.87l3.31-3.31c.52-.51 1.36-.51 1.87 0z"/></g><path d="m8.05 118.63c-1.13-1.36-1.67-3.08-1.53-4.86.22-2.89 2.36-5.4 5.21-6.09.52-.13 1.06-.19 1.59-.19.42 0 .85.04 1.28.12.06.01.12.02.19.02.44 0 .83-.29.96-.72.84-2.89 3.53-4.91 6.54-4.91 2.37 0 4.54 1.21 5.79 3.22.19.3.51.47.85.47.08 0 .16-.01.24-.03.53-.13 1.08-.2 1.62-.2.41 0 .83.04 1.24.11 2.92.53 5.25 3 5.53 5.87.09.93-.08 1.85-.5 2.58-.22.4-.18.94.15 1.26.65.65.68 1.76.37 2.52-.1.25-.4.82-.91.82h-28.62z" fill="url(#i)"/><path d="m22.28 103c2.02 0 3.87 1.03 4.94 2.75.37.6 1.02.94 1.7.94.16 0 .32-.02.48-.06.46-.11.92-.17 1.39-.17.35 0 .71.03 1.06.1 2.49.45 4.48 2.55 4.72 4.98.07.73-.06 1.44-.37 2-.57 1.01-.19 1.95.3 2.44.2.2.3.54.28.92-.02.37-.15.62-.23.72h-28c-.77-1.1-1.13-2.42-1.03-3.79.19-2.47 2.02-4.6 4.45-5.19.45-.11.9-.16 1.35-.16.36 0 .73.03 1.09.1.13.02.25.04.37.04.87 0 1.67-.57 1.92-1.44.72-2.46 3.02-4.18 5.58-4.18m0-2c-3.56 0-6.56 2.38-7.5 5.62-.47-.09-.96-.14-1.46-.14-.59 0-1.2.07-1.83.22-3.27.8-5.71 3.63-5.97 6.98-.18 2.3.65 4.41 2.08 5.94h29.07c1.99 0 2.91-3.39 1.24-5.05-.01-.01.84-1.24.64-3.22-.33-3.38-3.01-6.15-6.35-6.76-.48-.09-.95-.13-1.41-.13-.64 0-1.27.08-1.86.23-1.38-2.21-3.84-3.69-6.65-3.69z" fill="#689f38"/><path d="m29.97 109.79s.07-2.14-1.65-4.43" style="fill:none;stroke:#689f38;stroke-linecap:round;stroke-linejoin:round;stroke-miterlimit:10;stroke-width:2"/><path d="m14.91 107.52c2.02.03 4 1.62 4.3 3.57" style="fill:none;stroke:#689f38;stroke-linecap:round;stroke-linejoin:round;stroke-miterlimit:10;stroke-width:2"/><path d="m16.99 111.98c1.78-.81 4.17-.68 6.01.26" style="fill:none;stroke:#689f38;stroke-linecap:round;stroke-linejoin:round;stroke-miterlimit:10;stroke-width:2"/><path d="m91.11 117.63c-.52 0-.81-.57-.91-.82-.31-.75-.28-1.87.38-2.53.32-.32.36-.86.14-1.25-.41-.73-.59-1.65-.5-2.58.28-2.87 2.61-5.34 5.53-5.87.41-.07.83-.11 1.24-.11.54 0 1.09.07 1.62.2.08.02.16.03.24.03.34 0 .66-.17.85-.47 1.26-2.02 3.42-3.22 5.79-3.22 3.01 0 5.7 2.02 6.54 4.91.13.43.52.72.96.72.06 0 .12-.01.19-.02.43-.08.86-.12 1.28-.12.53 0 1.07.06 1.59.19 2.85.69 4.99 3.2 5.21 6.09.14 1.79-.41 3.5-1.53 4.86h-28.62z" fill="url(#j)"/><path d="m105.49 102c2.57 0 4.86 1.72 5.58 4.19.25.87 1.05 1.44 1.92 1.44.12 0 .25-.01.37-.04.36-.07.73-.1 1.09-.1.45 0 .91.06 1.35.16 2.43.59 4.26 2.73 4.45 5.19.1 1.37-.26 2.69-1.03 3.79h-28c-.08-.11-.2-.36-.23-.72-.02-.38.08-.72.27-.92.5-.49.88-1.43.31-2.45-.31-.56-.44-1.27-.37-2 .24-2.44 2.22-4.53 4.72-4.98.35-.06.71-.1 1.06-.1.47 0 .93.06 1.39.17.16.04.32.06.48.06.68 0 1.33-.35 1.7-.94 1.07-1.72 2.92-2.75 4.94-2.75m0-2c-2.8 0-5.26 1.48-6.64 3.7-.6-.15-1.22-.23-1.86-.23-.46 0-.93.04-1.41.13-3.35.6-6.02 3.37-6.35 6.76-.2 1.99.66 3.21.64 3.22-1.67 1.67-.75 5.05 1.24 5.05h29.07c1.43-1.53 2.25-3.64 2.08-5.94-.26-3.35-2.7-6.19-5.97-6.98-.62-.15-1.23-.22-1.83-.22-.5 0-.99.05-1.46.14-.95-3.25-3.95-5.63-7.51-5.63z" fill="#689f38"/><path d="m97.81 108.79s-.07-2.14 1.65-4.43" style="fill:none;stroke:#689f38;stroke-linecap:round;stroke-linejoin:round;stroke-miterlimit:10;stroke-width:2"/><path d="m112.87 106.52c-2.02.03-4 1.62-4.3 3.57" style="fill:none;stroke:#689f38;stroke-linecap:round;stroke-linejoin:round;stroke-miterlimit:10;stroke-width:2"/><path d="m110.79 110.98c-1.78-.81-4.17-.68-6.01.26" style="fill:none;stroke:#689f38;stroke-linecap:round;stroke-linejoin:round;stroke-miterlimit:10;stroke-width:2"/><path d="m124 124h-120v-4c0-2.21 1.79-4 4-4h112c2.21 0 4 1.79 4 4z" fill="#78909c"/><path d="m72.05 96h-16.1c-1.08 0-1.95-.87-1.95-1.95v-.1c0-1.08.87-1.95 1.95-1.95h16.1c1.08 0 1.95.87 1.95 1.95v.1c0 1.08-.87 1.95-1.95 1.95z" fill="#eee"/><path d="m120 116h-.38v3h.38c.55 0 1 .45 1 1v1h-114v-1c0-.46.32-.84.75-.95v-3.03c-2.09.14-3.75 1.86-3.75 3.98v4h120v-4c0-2.21-1.79-4-4-4z" fill="#424242" opacity=".2"/><path d="m92 36c-.51 0-1.02-.2-1.41-.59l-26.59-26.58-26.59 26.58c-.78.78-2.05.78-2.83 0s-.78-2.05 0-2.83l28-28c.78-.78 2.05-.78 2.83 0l28 28c.78.78.78 2.05 0 2.83-.39.39-.9.59-1.41.59z" fill="#c62828"/></svg>