<svg width="84" height="80" viewBox="0 0 84 80" fill="none" xmlns="http://www.w3.org/2000/svg">
<path d="M83 14C82.8333 7.33333 79.3167 4 72.45 4H13.5C6.66667 4 3.16667 7.33333 3 14V69.95C3.16667 76.65 6.66667 80 13.5 80H72.45C79.3167 80 82.8333 76.65 83 69.95V14Z" fill="url(#paint0_linear_1_25819)"/>
<path d="M83 10.5C83 3.5 79.4833 0 72.45 0H13.5C6.5 0 3 3.5 3 10.5V14C3.16667 7.33333 6.66667 4 13.5 4H72.45C79.3167 4 82.8333 7.33333 83 14V10.5Z" fill="url(#paint1_linear_1_25819)"/>
<mask id="path-3-outside-1_1_25819" maskUnits="userSpaceOnUse" x="51" y="22" width="15" height="22" fill="black">
<rect fill="white" x="51" y="22" width="15" height="22"/>
<path d="M64.7737 24.7383C64.883 24.7383 64.9768 24.7617 65.0549 24.8086C65.1409 24.8555 65.1838 24.9375 65.1838 25.0547C65.1838 25.1953 65.1565 25.3438 65.1018 25.5C65.0471 25.6484 64.9807 25.8008 64.9026 25.957C64.8245 26.1133 64.7463 26.2656 64.6682 26.4141C64.5901 26.5625 64.5237 26.7031 64.469 26.8359C64.008 28.0156 63.6682 29.2305 63.4495 30.4805C63.2307 31.7227 63.1213 32.9883 63.1213 34.2773C63.1213 35.0195 63.1565 35.7773 63.2268 36.5508C63.2971 37.3242 63.4143 38.0938 63.5784 38.8594C63.7424 39.6172 63.9534 40.3594 64.2112 41.0859C64.4768 41.8203 64.801 42.5156 65.1838 43.1719L64.9495 43.2422C64.1916 42.4375 63.551 41.5469 63.0276 40.5703C62.5041 39.6016 62.1057 38.582 61.8323 37.5117C61.6213 38.1992 61.3713 38.8789 61.0823 39.5508C60.7932 40.2227 60.4377 40.8242 60.0159 41.3555C59.6018 41.8945 59.1135 42.3281 58.551 42.6562C57.9963 42.9844 57.344 43.1484 56.594 43.1484C56.0237 43.1484 55.5198 43.0312 55.0823 42.7969C54.6448 42.5703 54.262 42.2617 53.9338 41.8711C53.6057 41.4883 53.3284 41.0469 53.1018 40.5469C52.883 40.0547 52.7034 39.543 52.5627 39.0117C52.4221 38.4805 52.3205 37.9531 52.258 37.4297C52.2034 36.8984 52.176 36.4141 52.176 35.9766C52.176 34.8594 52.262 33.7344 52.4338 32.6016C52.6057 31.4688 52.8596 30.3594 53.1955 29.2734C53.5393 28.1797 53.9651 27.125 54.4729 26.1094C54.9807 25.0859 55.5745 24.125 56.2541 23.2266L56.5002 23.3555C56.2112 23.8711 55.9455 24.4336 55.7034 25.043C55.469 25.6523 55.258 26.2891 55.0705 26.9531C54.883 27.6094 54.719 28.2852 54.5784 28.9805C54.4377 29.668 54.3205 30.3555 54.2268 31.043C54.1409 31.7305 54.0745 32.4023 54.0276 33.0586C53.9807 33.7148 53.9573 34.3359 53.9573 34.9219C53.9573 35.2812 53.9651 35.7031 53.9807 36.1875C54.0041 36.6641 54.051 37.1602 54.1213 37.6758C54.1916 38.1914 54.2971 38.6992 54.4377 39.1992C54.5784 39.6992 54.7698 40.1445 55.012 40.5352C55.2541 40.9336 55.5549 41.2539 55.9143 41.4961C56.2737 41.7383 56.7073 41.8594 57.2151 41.8594C57.7151 41.8594 58.1643 41.7695 58.5627 41.5898C58.9612 41.418 59.3127 41.1797 59.6174 40.875C59.9221 40.5703 60.1838 40.2148 60.4026 39.8086C60.6291 39.4102 60.8166 38.9844 60.9651 38.5312C61.1135 38.0781 61.2307 37.6133 61.3166 37.1367C61.4104 36.6602 61.4768 36.1953 61.5159 35.7422C61.469 35.2891 61.4455 34.832 61.4455 34.3711C61.4455 33.7305 61.4768 33.0469 61.5393 32.3203C61.6096 31.5859 61.7112 30.8516 61.844 30.1172C61.9846 29.3828 62.1604 28.668 62.3713 27.9727C62.5823 27.2695 62.8323 26.625 63.1213 26.0391C63.2151 25.8672 63.3127 25.7031 63.4143 25.5469C63.5237 25.3906 63.6409 25.2539 63.7659 25.1367C63.8987 25.0117 64.0471 24.9141 64.2112 24.8438C64.3752 24.7734 64.5627 24.7383 64.7737 24.7383Z"/>
</mask>
<path d="M64.7737 24.7383C64.883 24.7383 64.9768 24.7617 65.0549 24.8086C65.1409 24.8555 65.1838 24.9375 65.1838 25.0547C65.1838 25.1953 65.1565 25.3438 65.1018 25.5C65.0471 25.6484 64.9807 25.8008 64.9026 25.957C64.8245 26.1133 64.7463 26.2656 64.6682 26.4141C64.5901 26.5625 64.5237 26.7031 64.469 26.8359C64.008 28.0156 63.6682 29.2305 63.4495 30.4805C63.2307 31.7227 63.1213 32.9883 63.1213 34.2773C63.1213 35.0195 63.1565 35.7773 63.2268 36.5508C63.2971 37.3242 63.4143 38.0938 63.5784 38.8594C63.7424 39.6172 63.9534 40.3594 64.2112 41.0859C64.4768 41.8203 64.801 42.5156 65.1838 43.1719L64.9495 43.2422C64.1916 42.4375 63.551 41.5469 63.0276 40.5703C62.5041 39.6016 62.1057 38.582 61.8323 37.5117C61.6213 38.1992 61.3713 38.8789 61.0823 39.5508C60.7932 40.2227 60.4377 40.8242 60.0159 41.3555C59.6018 41.8945 59.1135 42.3281 58.551 42.6562C57.9963 42.9844 57.344 43.1484 56.594 43.1484C56.0237 43.1484 55.5198 43.0312 55.0823 42.7969C54.6448 42.5703 54.262 42.2617 53.9338 41.8711C53.6057 41.4883 53.3284 41.0469 53.1018 40.5469C52.883 40.0547 52.7034 39.543 52.5627 39.0117C52.4221 38.4805 52.3205 37.9531 52.258 37.4297C52.2034 36.8984 52.176 36.4141 52.176 35.9766C52.176 34.8594 52.262 33.7344 52.4338 32.6016C52.6057 31.4688 52.8596 30.3594 53.1955 29.2734C53.5393 28.1797 53.9651 27.125 54.4729 26.1094C54.9807 25.0859 55.5745 24.125 56.2541 23.2266L56.5002 23.3555C56.2112 23.8711 55.9455 24.4336 55.7034 25.043C55.469 25.6523 55.258 26.2891 55.0705 26.9531C54.883 27.6094 54.719 28.2852 54.5784 28.9805C54.4377 29.668 54.3205 30.3555 54.2268 31.043C54.1409 31.7305 54.0745 32.4023 54.0276 33.0586C53.9807 33.7148 53.9573 34.3359 53.9573 34.9219C53.9573 35.2812 53.9651 35.7031 53.9807 36.1875C54.0041 36.6641 54.051 37.1602 54.1213 37.6758C54.1916 38.1914 54.2971 38.6992 54.4377 39.1992C54.5784 39.6992 54.7698 40.1445 55.012 40.5352C55.2541 40.9336 55.5549 41.2539 55.9143 41.4961C56.2737 41.7383 56.7073 41.8594 57.2151 41.8594C57.7151 41.8594 58.1643 41.7695 58.5627 41.5898C58.9612 41.418 59.3127 41.1797 59.6174 40.875C59.9221 40.5703 60.1838 40.2148 60.4026 39.8086C60.6291 39.4102 60.8166 38.9844 60.9651 38.5312C61.1135 38.0781 61.2307 37.6133 61.3166 37.1367C61.4104 36.6602 61.4768 36.1953 61.5159 35.7422C61.469 35.2891 61.4455 34.832 61.4455 34.3711C61.4455 33.7305 61.4768 33.0469 61.5393 32.3203C61.6096 31.5859 61.7112 30.8516 61.844 30.1172C61.9846 29.3828 62.1604 28.668 62.3713 27.9727C62.5823 27.2695 62.8323 26.625 63.1213 26.0391C63.2151 25.8672 63.3127 25.7031 63.4143 25.5469C63.5237 25.3906 63.6409 25.2539 63.7659 25.1367C63.8987 25.0117 64.0471 24.9141 64.2112 24.8438C64.3752 24.7734 64.5627 24.7383 64.7737 24.7383Z" fill="#242020"/>
<path d="M65.0549 24.8086L64.7977 25.2373L64.8065 25.2426L64.8155 25.2475L65.0549 24.8086ZM65.1018 25.5L65.571 25.6729L65.5737 25.6652L65.1018 25.5ZM64.469 26.8359L64.0066 26.6455L64.0033 26.654L64.469 26.8359ZM63.4495 30.4805L63.9419 30.5672L63.942 30.5667L63.4495 30.4805ZM63.5784 38.8594L63.0895 38.9641L63.0897 38.9652L63.5784 38.8594ZM64.2112 41.0859L63.7399 41.2531L63.741 41.256L64.2112 41.0859ZM65.1838 43.1719L65.3275 43.6508L65.9356 43.4684L65.6157 42.9199L65.1838 43.1719ZM64.9495 43.2422L64.5855 43.585L64.7972 43.8099L65.0931 43.7211L64.9495 43.2422ZM63.0276 40.5703L63.4683 40.3341L63.4675 40.3326L63.0276 40.5703ZM61.8323 37.5117L62.3167 37.388L61.8762 35.6638L61.3543 37.3651L61.8323 37.5117ZM60.0159 41.3555L59.6243 41.0445L59.6193 41.0509L60.0159 41.3555ZM58.551 42.6562L58.2991 42.2244L58.2964 42.2259L58.551 42.6562ZM55.0823 42.7969L55.3184 42.3561L55.3122 42.3529L55.0823 42.7969ZM53.9338 41.8711L54.3167 41.5495L54.3135 41.5457L53.9338 41.8711ZM53.1018 40.5469L52.6449 40.7499L52.6464 40.7532L53.1018 40.5469ZM52.258 37.4297L51.7606 37.4809L51.7616 37.489L52.258 37.4297ZM53.1955 29.2734L52.7185 29.1235L52.7179 29.1257L53.1955 29.2734ZM54.4729 26.1094L54.9201 26.333L54.9208 26.3316L54.4729 26.1094ZM56.2541 23.2266L56.4861 22.7836L56.1109 22.5871L55.8554 22.9249L56.2541 23.2266ZM56.5002 23.3555L56.9364 23.6L57.1879 23.1512L56.7322 22.9126L56.5002 23.3555ZM55.7034 25.043L55.2387 24.8583L55.2367 24.8635L55.7034 25.043ZM55.0705 26.9531L55.5513 27.0905L55.5517 27.089L55.0705 26.9531ZM54.5784 28.9805L55.0682 29.0807L55.0684 29.0796L54.5784 28.9805ZM54.2268 31.043L53.7314 30.9754L53.7307 30.981L54.2268 31.043ZM53.9807 36.1875L53.4809 36.2036L53.4813 36.2121L53.9807 36.1875ZM55.012 40.5352L55.4392 40.2754L55.4369 40.2717L55.012 40.5352ZM58.5627 41.5898L58.3647 41.1307L58.3572 41.1341L58.5627 41.5898ZM60.4026 39.8086L59.9678 39.5614L59.9623 39.5715L60.4026 39.8086ZM60.9651 38.5312L60.4899 38.3756L60.9651 38.5312ZM61.3166 37.1367L60.826 37.0402L60.8246 37.048L61.3166 37.1367ZM61.5159 35.7422L62.014 35.7851L62.0181 35.7379L62.0132 35.6907L61.5159 35.7422ZM61.5393 32.3203L61.0415 32.2727L61.0411 32.2775L61.5393 32.3203ZM61.844 30.1172L61.3529 30.0231L61.352 30.0282L61.844 30.1172ZM62.3713 27.9727L62.8498 28.1178L62.8502 28.1163L62.3713 27.9727ZM63.1213 26.0391L62.6824 25.7996L62.6775 25.8086L62.6729 25.8179L63.1213 26.0391ZM63.4143 25.5469L63.0047 25.2601L62.9998 25.2672L62.9951 25.2744L63.4143 25.5469ZM63.7659 25.1367L64.1078 25.5015L64.1085 25.5008L63.7659 25.1367ZM64.7737 25.2383C64.7927 25.2383 64.8023 25.2403 64.8047 25.2409C64.8067 25.2414 64.8034 25.2408 64.7977 25.2373L65.3122 24.3798C65.1421 24.2778 64.9554 24.2383 64.7737 24.2383V25.2383ZM64.8155 25.2475C64.7769 25.2265 64.7358 25.189 64.7087 25.1373C64.684 25.0902 64.6838 25.056 64.6838 25.0547H65.6838C65.6838 24.7976 65.5755 24.523 65.2943 24.3696L64.8155 25.2475ZM64.6838 25.0547C64.6838 25.1301 64.6692 25.2225 64.6299 25.3348L65.5737 25.6652C65.6438 25.465 65.6838 25.2605 65.6838 25.0547H64.6838ZM64.6326 25.3271C64.5849 25.4566 64.5261 25.592 64.4554 25.7334L65.3498 26.1806C65.4353 26.0096 65.5093 25.8403 65.571 25.6729L64.6326 25.3271ZM64.4554 25.7334C64.3787 25.8867 64.3022 26.0359 64.2257 26.1812L65.1107 26.6469C65.1905 26.4953 65.2702 26.3399 65.3498 26.1806L64.4554 25.7334ZM64.2257 26.1812C64.1415 26.3412 64.0682 26.4961 64.0066 26.6456L64.9313 27.0263C64.9792 26.9101 65.0387 26.7838 65.1107 26.6469L64.2257 26.1812ZM64.0033 26.654C63.5302 27.8647 63.1814 29.1116 62.9569 30.3943L63.942 30.5667C64.155 29.3493 64.4859 28.1666 64.9347 27.0179L64.0033 26.654ZM62.957 30.3938C62.7331 31.6652 62.6213 32.9599 62.6213 34.2773H63.6213C63.6213 33.0167 63.7283 31.7801 63.9419 30.5672L62.957 30.3938ZM62.6213 34.2773C62.6213 35.0353 62.6572 35.8083 62.7288 36.596L63.7247 36.5055C63.6557 35.7464 63.6213 35.0037 63.6213 34.2773H62.6213ZM62.7288 36.596C62.801 37.3896 62.9212 38.179 63.0895 38.9641L64.0673 38.7546C63.9074 38.0085 63.7932 37.2588 63.7247 36.5055L62.7288 36.596ZM63.0897 38.9652C63.2582 39.7437 63.475 40.5064 63.74 41.2531L64.6824 40.9187C64.4317 40.2124 64.2266 39.4907 64.067 38.7536L63.0897 38.9652ZM63.741 41.256C64.0166 42.018 64.3535 42.7408 64.7519 43.4238L65.6157 42.9199C65.2485 42.2905 64.937 41.6226 64.6814 40.9159L63.741 41.256ZM65.0402 42.693L64.8058 42.7633L65.0931 43.7211L65.3275 43.6508L65.0402 42.693ZM65.3134 42.8994C64.5858 42.1268 63.971 41.272 63.4683 40.3341L62.5869 40.8065C63.131 41.8217 63.7974 42.7482 64.5855 43.585L65.3134 42.8994ZM63.4675 40.3326C62.9636 39.4 62.58 38.4187 62.3167 37.388L61.3478 37.6355C61.6314 38.7453 62.0447 39.8031 62.5877 40.808L63.4675 40.3326ZM61.3543 37.3651C61.1487 38.035 60.905 38.6976 60.623 39.3532L61.5416 39.7484C61.8377 39.0602 62.0939 38.3635 62.3103 37.6584L61.3543 37.3651ZM60.623 39.3532C60.35 39.9876 60.0166 40.5505 59.6243 41.0445L60.4074 41.6664C60.8588 41.098 61.2364 40.4577 61.5416 39.7484L60.623 39.3532ZM59.6193 41.0509C59.243 41.5408 58.8031 41.9303 58.2991 42.2244L58.803 43.0881C59.4239 42.7259 59.9606 42.2482 60.4124 41.66L59.6193 41.0509ZM58.2964 42.2259C57.8307 42.5014 57.2693 42.6484 56.594 42.6484V43.6484C57.4187 43.6484 58.162 43.4673 58.8056 43.0866L58.2964 42.2259ZM56.594 42.6484C56.0937 42.6484 55.6731 42.5462 55.3184 42.3561L54.8462 43.2376C55.3665 43.5163 55.9537 43.6484 56.594 43.6484V42.6484ZM55.3122 42.3529C54.9353 42.1577 54.6039 41.8915 54.3167 41.5495L53.551 42.1927C53.92 42.632 54.3542 42.9829 54.8523 43.2409L55.3122 42.3529ZM54.3135 41.5457C54.0187 41.2018 53.766 40.8012 53.5572 40.3405L52.6464 40.7532C52.8907 41.2925 53.1927 41.7748 53.5542 42.1965L54.3135 41.5457ZM53.5587 40.3438C53.351 39.8764 53.18 39.3898 53.0461 38.8838L52.0794 39.1397C52.2267 39.6961 52.4151 40.233 52.6449 40.7499L53.5587 40.3438ZM53.0461 38.8838C52.9112 38.3741 52.8141 37.8697 52.7545 37.3704L51.7616 37.489C51.827 38.0365 51.933 38.5868 52.0794 39.1397L53.0461 38.8838ZM52.7554 37.3785C52.7021 36.8607 52.676 36.3937 52.676 35.9766H51.676C51.676 36.4344 51.7046 36.9362 51.7607 37.4809L52.7554 37.3785ZM52.676 35.9766C52.676 34.8851 52.76 33.7852 52.9282 32.6766L51.9395 32.5266C51.7639 33.6836 51.676 34.8336 51.676 35.9766H52.676ZM52.9282 32.6766C53.0963 31.5682 53.3447 30.4831 53.6732 29.4212L52.7179 29.1257C52.3745 30.2356 52.1151 31.3693 51.9395 32.5266L52.9282 32.6766ZM53.6725 29.4234C54.0084 28.3547 54.4243 27.3246 54.9201 26.333L54.0257 25.8858C53.5059 26.9254 53.0702 28.0047 52.7185 29.1235L53.6725 29.4234ZM54.9208 26.3316C55.4149 25.3357 55.9923 24.4014 56.6529 23.5282L55.8554 22.9249C55.1566 23.8486 54.5465 24.8361 54.025 25.8871L54.9208 26.3316ZM56.0221 23.6695L56.2682 23.7984L56.7322 22.9126L56.4861 22.7836L56.0221 23.6695ZM56.0641 23.111C55.7631 23.6478 55.4882 24.2306 55.2387 24.8583L56.168 25.2276C56.4029 24.6366 56.6592 24.0943 56.9364 23.6L56.0641 23.111ZM55.2367 24.8635C54.9965 25.4879 54.7808 26.1393 54.5894 26.8173L55.5517 27.089C55.7353 26.4389 55.9415 25.8167 56.17 25.2225L55.2367 24.8635ZM54.5898 26.8158C54.3985 27.4851 54.2314 28.1737 54.0883 28.8814L55.0684 29.0796C55.2066 28.3966 55.3676 27.7336 55.5513 27.0905L54.5898 26.8158ZM54.0885 28.8803C53.9457 29.5785 53.8266 30.2769 53.7314 30.9754L54.7222 31.1105C54.8145 30.4341 54.9298 29.7575 55.0682 29.0807L54.0885 28.8803ZM53.7307 30.981C53.6437 31.6768 53.5764 32.3575 53.5288 33.023L54.5263 33.0942C54.5725 32.4472 54.638 31.7842 54.7229 31.105L53.7307 30.981ZM53.5288 33.023C53.4812 33.6897 53.4573 34.3227 53.4573 34.9219H54.4573C54.4573 34.3492 54.4802 33.74 54.5263 33.0942L53.5288 33.023ZM53.4573 34.9219C53.4573 35.2881 53.4652 35.7156 53.481 36.2036L54.4804 36.1714C54.4649 35.6907 54.4573 35.2744 54.4573 34.9219H53.4573ZM53.4813 36.2121C53.5055 36.7042 53.5538 37.2147 53.6259 37.7433L54.6167 37.6082C54.5482 37.1056 54.5028 36.6239 54.4801 36.1629L53.4813 36.2121ZM53.6259 37.7433C53.6993 38.2818 53.8095 38.8123 53.9564 39.3346L54.9191 39.0638C54.7847 38.5861 54.6839 38.101 54.6167 37.6082L53.6259 37.7433ZM53.9564 39.3346C54.1081 39.874 54.3171 40.3634 54.587 40.7986L55.4369 40.2717C55.2224 39.9257 55.0486 39.5245 54.9191 39.0638L53.9564 39.3346ZM54.5847 40.7949C54.8615 41.2503 55.2112 41.6252 55.6349 41.9107L56.1937 41.0815C55.8987 40.8826 55.6468 40.6169 55.4392 40.2754L54.5847 40.7949ZM55.6349 41.9107C56.0902 42.2176 56.6252 42.3594 57.2151 42.3594V41.3594C56.7893 41.3594 56.4571 41.259 56.1937 41.0815L55.6349 41.9107ZM57.2151 42.3594C57.7758 42.3594 58.2966 42.2584 58.7683 42.0456L58.3572 41.1341C58.032 41.2807 57.6544 41.3594 57.2151 41.3594V42.3594ZM58.7608 42.0489C59.2168 41.8522 59.6213 41.5783 59.971 41.2286L59.2639 40.5214C59.0042 40.7811 58.7055 40.9837 58.3647 41.1307L58.7608 42.0489ZM59.971 41.2286C60.3124 40.8871 60.6026 40.4917 60.8428 40.0456L59.9623 39.5715C59.765 39.938 59.5318 40.2535 59.2639 40.5214L59.971 41.2286ZM60.8372 40.0557C61.081 39.6271 61.2818 39.1705 61.4402 38.6869L60.4899 38.3756C60.3515 38.7982 60.1773 39.1932 59.9679 39.5614L60.8372 40.0557ZM61.4402 38.6869C61.596 38.2115 61.7187 37.7243 61.8087 37.2255L60.8246 37.048C60.7427 37.5022 60.6311 37.9447 60.4899 38.3756L61.4402 38.6869ZM61.8072 37.2332C61.9042 36.7401 61.9733 36.2574 62.014 35.7851L61.0177 35.6992C60.9803 36.1332 60.9165 36.5802 60.826 37.0402L61.8072 37.2332ZM62.0132 35.6907C61.9681 35.2549 61.9455 34.8151 61.9455 34.3711H60.9455C60.9455 34.849 60.9698 35.3232 61.0185 35.7936L62.0132 35.6907ZM61.9455 34.3711C61.9455 33.7466 61.976 33.0774 62.0375 32.3632L61.0411 32.2775C60.9776 33.0164 60.9455 33.7144 60.9455 34.3711H61.9455ZM62.037 32.368C62.106 31.6476 62.2056 30.927 62.336 30.2062L61.352 30.0282C61.2167 30.7761 61.1132 31.5243 61.0416 32.2727L62.037 32.368ZM62.3351 30.2112C62.4725 29.4936 62.6441 28.7958 62.8498 28.1178L61.8929 27.8275C61.6767 28.5401 61.4967 29.272 61.3529 30.0232L62.3351 30.2112ZM62.8502 28.1163C63.0541 27.4366 63.2944 26.8184 63.5697 26.2603L62.6729 25.8179C62.3702 26.4316 62.1104 27.1024 61.8924 27.829L62.8502 28.1163ZM63.5603 26.2785C63.6482 26.1173 63.7393 25.9643 63.8335 25.8194L62.9951 25.2744C62.8862 25.4419 62.782 25.6171 62.6824 25.7996L63.5603 26.2785ZM63.8239 25.8336C63.9157 25.7025 64.0107 25.5926 64.1078 25.5015L63.4239 24.772C63.2711 24.9152 63.1317 25.0788 63.0047 25.2601L63.8239 25.8336ZM64.1085 25.5008C64.1997 25.415 64.299 25.3501 64.4081 25.3033L64.0142 24.3842C63.7952 24.478 63.5977 24.6084 63.4232 24.7726L64.1085 25.5008ZM64.4081 25.3033C64.4997 25.2641 64.6183 25.2383 64.7737 25.2383V24.2383C64.5071 24.2383 64.2508 24.2828 64.0142 24.3842L64.4081 25.3033Z" fill="#242020" mask="url(#path-3-outside-1_1_25819)"/>
<mask id="path-5-outside-2_1_25819" maskUnits="userSpaceOnUse" x="20" y="22" width="15" height="22" fill="black">
<rect fill="white" x="20" y="22" width="15" height="22"/>
<path d="M33.7737 24.7383C33.883 24.7383 33.9768 24.7617 34.0549 24.8086C34.1409 24.8555 34.1838 24.9375 34.1838 25.0547C34.1838 25.1953 34.1565 25.3438 34.1018 25.5C34.0471 25.6484 33.9807 25.8008 33.9026 25.957C33.8245 26.1133 33.7463 26.2656 33.6682 26.4141C33.5901 26.5625 33.5237 26.7031 33.469 26.8359C33.008 28.0156 32.6682 29.2305 32.4495 30.4805C32.2307 31.7227 32.1213 32.9883 32.1213 34.2773C32.1213 35.0195 32.1565 35.7773 32.2268 36.5508C32.2971 37.3242 32.4143 38.0938 32.5784 38.8594C32.7424 39.6172 32.9534 40.3594 33.2112 41.0859C33.4768 41.8203 33.801 42.5156 34.1838 43.1719L33.9495 43.2422C33.1916 42.4375 32.551 41.5469 32.0276 40.5703C31.5041 39.6016 31.1057 38.582 30.8323 37.5117C30.6213 38.1992 30.3713 38.8789 30.0823 39.5508C29.7932 40.2227 29.4377 40.8242 29.0159 41.3555C28.6018 41.8945 28.1135 42.3281 27.551 42.6562C26.9963 42.9844 26.344 43.1484 25.594 43.1484C25.0237 43.1484 24.5198 43.0312 24.0823 42.7969C23.6448 42.5703 23.262 42.2617 22.9338 41.8711C22.6057 41.4883 22.3284 41.0469 22.1018 40.5469C21.883 40.0547 21.7034 39.543 21.5627 39.0117C21.4221 38.4805 21.3205 37.9531 21.258 37.4297C21.2034 36.8984 21.176 36.4141 21.176 35.9766C21.176 34.8594 21.262 33.7344 21.4338 32.6016C21.6057 31.4688 21.8596 30.3594 22.1955 29.2734C22.5393 28.1797 22.9651 27.125 23.4729 26.1094C23.9807 25.0859 24.5745 24.125 25.2541 23.2266L25.5002 23.3555C25.2112 23.8711 24.9455 24.4336 24.7034 25.043C24.469 25.6523 24.258 26.2891 24.0705 26.9531C23.883 27.6094 23.719 28.2852 23.5784 28.9805C23.4377 29.668 23.3205 30.3555 23.2268 31.043C23.1409 31.7305 23.0745 32.4023 23.0276 33.0586C22.9807 33.7148 22.9573 34.3359 22.9573 34.9219C22.9573 35.2812 22.9651 35.7031 22.9807 36.1875C23.0041 36.6641 23.051 37.1602 23.1213 37.6758C23.1916 38.1914 23.2971 38.6992 23.4377 39.1992C23.5784 39.6992 23.7698 40.1445 24.012 40.5352C24.2541 40.9336 24.5549 41.2539 24.9143 41.4961C25.2737 41.7383 25.7073 41.8594 26.2151 41.8594C26.7151 41.8594 27.1643 41.7695 27.5627 41.5898C27.9612 41.418 28.3127 41.1797 28.6174 40.875C28.9221 40.5703 29.1838 40.2148 29.4026 39.8086C29.6291 39.4102 29.8166 38.9844 29.9651 38.5312C30.1135 38.0781 30.2307 37.6133 30.3166 37.1367C30.4104 36.6602 30.4768 36.1953 30.5159 35.7422C30.469 35.2891 30.4455 34.832 30.4455 34.3711C30.4455 33.7305 30.4768 33.0469 30.5393 32.3203C30.6096 31.5859 30.7112 30.8516 30.844 30.1172C30.9846 29.3828 31.1604 28.668 31.3713 27.9727C31.5823 27.2695 31.8323 26.625 32.1213 26.0391C32.2151 25.8672 32.3127 25.7031 32.4143 25.5469C32.5237 25.3906 32.6409 25.2539 32.7659 25.1367C32.8987 25.0117 33.0471 24.9141 33.2112 24.8438C33.3752 24.7734 33.5627 24.7383 33.7737 24.7383Z"/>
</mask>
<path d="M33.7737 24.7383C33.883 24.7383 33.9768 24.7617 34.0549 24.8086C34.1409 24.8555 34.1838 24.9375 34.1838 25.0547C34.1838 25.1953 34.1565 25.3438 34.1018 25.5C34.0471 25.6484 33.9807 25.8008 33.9026 25.957C33.8245 26.1133 33.7463 26.2656 33.6682 26.4141C33.5901 26.5625 33.5237 26.7031 33.469 26.8359C33.008 28.0156 32.6682 29.2305 32.4495 30.4805C32.2307 31.7227 32.1213 32.9883 32.1213 34.2773C32.1213 35.0195 32.1565 35.7773 32.2268 36.5508C32.2971 37.3242 32.4143 38.0938 32.5784 38.8594C32.7424 39.6172 32.9534 40.3594 33.2112 41.0859C33.4768 41.8203 33.801 42.5156 34.1838 43.1719L33.9495 43.2422C33.1916 42.4375 32.551 41.5469 32.0276 40.5703C31.5041 39.6016 31.1057 38.582 30.8323 37.5117C30.6213 38.1992 30.3713 38.8789 30.0823 39.5508C29.7932 40.2227 29.4377 40.8242 29.0159 41.3555C28.6018 41.8945 28.1135 42.3281 27.551 42.6562C26.9963 42.9844 26.344 43.1484 25.594 43.1484C25.0237 43.1484 24.5198 43.0312 24.0823 42.7969C23.6448 42.5703 23.262 42.2617 22.9338 41.8711C22.6057 41.4883 22.3284 41.0469 22.1018 40.5469C21.883 40.0547 21.7034 39.543 21.5627 39.0117C21.4221 38.4805 21.3205 37.9531 21.258 37.4297C21.2034 36.8984 21.176 36.4141 21.176 35.9766C21.176 34.8594 21.262 33.7344 21.4338 32.6016C21.6057 31.4688 21.8596 30.3594 22.1955 29.2734C22.5393 28.1797 22.9651 27.125 23.4729 26.1094C23.9807 25.0859 24.5745 24.125 25.2541 23.2266L25.5002 23.3555C25.2112 23.8711 24.9455 24.4336 24.7034 25.043C24.469 25.6523 24.258 26.2891 24.0705 26.9531C23.883 27.6094 23.719 28.2852 23.5784 28.9805C23.4377 29.668 23.3205 30.3555 23.2268 31.043C23.1409 31.7305 23.0745 32.4023 23.0276 33.0586C22.9807 33.7148 22.9573 34.3359 22.9573 34.9219C22.9573 35.2812 22.9651 35.7031 22.9807 36.1875C23.0041 36.6641 23.051 37.1602 23.1213 37.6758C23.1916 38.1914 23.2971 38.6992 23.4377 39.1992C23.5784 39.6992 23.7698 40.1445 24.012 40.5352C24.2541 40.9336 24.5549 41.2539 24.9143 41.4961C25.2737 41.7383 25.7073 41.8594 26.2151 41.8594C26.7151 41.8594 27.1643 41.7695 27.5627 41.5898C27.9612 41.418 28.3127 41.1797 28.6174 40.875C28.9221 40.5703 29.1838 40.2148 29.4026 39.8086C29.6291 39.4102 29.8166 38.9844 29.9651 38.5312C30.1135 38.0781 30.2307 37.6133 30.3166 37.1367C30.4104 36.6602 30.4768 36.1953 30.5159 35.7422C30.469 35.2891 30.4455 34.832 30.4455 34.3711C30.4455 33.7305 30.4768 33.0469 30.5393 32.3203C30.6096 31.5859 30.7112 30.8516 30.844 30.1172C30.9846 29.3828 31.1604 28.668 31.3713 27.9727C31.5823 27.2695 31.8323 26.625 32.1213 26.0391C32.2151 25.8672 32.3127 25.7031 32.4143 25.5469C32.5237 25.3906 32.6409 25.2539 32.7659 25.1367C32.8987 25.0117 33.0471 24.9141 33.2112 24.8438C33.3752 24.7734 33.5627 24.7383 33.7737 24.7383Z" fill="#242020"/>
<path d="M34.0549 24.8086L33.7977 25.2373L33.8065 25.2426L33.8155 25.2475L34.0549 24.8086ZM34.1018 25.5L34.571 25.6729L34.5737 25.6652L34.1018 25.5ZM33.469 26.8359L33.0066 26.6455L33.0033 26.654L33.469 26.8359ZM32.4495 30.4805L32.9419 30.5672L32.942 30.5667L32.4495 30.4805ZM32.5784 38.8594L32.0895 38.9641L32.0897 38.9652L32.5784 38.8594ZM33.2112 41.0859L32.7399 41.2531L32.741 41.256L33.2112 41.0859ZM34.1838 43.1719L34.3275 43.6508L34.9356 43.4684L34.6157 42.9199L34.1838 43.1719ZM33.9495 43.2422L33.5855 43.585L33.7972 43.8099L34.0931 43.7211L33.9495 43.2422ZM32.0276 40.5703L32.4683 40.3341L32.4675 40.3326L32.0276 40.5703ZM30.8323 37.5117L31.3167 37.388L30.8762 35.6638L30.3543 37.3651L30.8323 37.5117ZM29.0159 41.3555L28.6243 41.0445L28.6193 41.0509L29.0159 41.3555ZM27.551 42.6562L27.2991 42.2244L27.2964 42.2259L27.551 42.6562ZM24.0823 42.7969L24.3184 42.3561L24.3122 42.3529L24.0823 42.7969ZM22.9338 41.8711L23.3167 41.5495L23.3135 41.5457L22.9338 41.8711ZM22.1018 40.5469L21.6449 40.7499L21.6464 40.7532L22.1018 40.5469ZM21.258 37.4297L20.7606 37.4809L20.7616 37.489L21.258 37.4297ZM22.1955 29.2734L21.7185 29.1235L21.7179 29.1257L22.1955 29.2734ZM23.4729 26.1094L23.9201 26.333L23.9208 26.3316L23.4729 26.1094ZM25.2541 23.2266L25.4861 22.7836L25.1109 22.5871L24.8554 22.9249L25.2541 23.2266ZM25.5002 23.3555L25.9364 23.6L26.1879 23.1512L25.7322 22.9126L25.5002 23.3555ZM24.7034 25.043L24.2387 24.8583L24.2367 24.8635L24.7034 25.043ZM24.0705 26.9531L24.5513 27.0905L24.5517 27.089L24.0705 26.9531ZM23.5784 28.9805L24.0682 29.0807L24.0684 29.0796L23.5784 28.9805ZM23.2268 31.043L22.7314 30.9754L22.7307 30.981L23.2268 31.043ZM22.9807 36.1875L22.4809 36.2036L22.4813 36.2121L22.9807 36.1875ZM24.012 40.5352L24.4392 40.2754L24.4369 40.2717L24.012 40.5352ZM27.5627 41.5898L27.3647 41.1307L27.3572 41.1341L27.5627 41.5898ZM29.4026 39.8086L28.9678 39.5614L28.9623 39.5715L29.4026 39.8086ZM29.9651 38.5312L29.4899 38.3756L29.9651 38.5312ZM30.3166 37.1367L29.826 37.0402L29.8246 37.048L30.3166 37.1367ZM30.5159 35.7422L31.014 35.7851L31.0181 35.7379L31.0132 35.6907L30.5159 35.7422ZM30.5393 32.3203L30.0415 32.2727L30.0411 32.2775L30.5393 32.3203ZM30.844 30.1172L30.3529 30.0231L30.352 30.0282L30.844 30.1172ZM31.3713 27.9727L31.8498 28.1178L31.8502 28.1163L31.3713 27.9727ZM32.1213 26.0391L31.6824 25.7996L31.6775 25.8086L31.6729 25.8179L32.1213 26.0391ZM32.4143 25.5469L32.0047 25.2601L31.9998 25.2672L31.9951 25.2744L32.4143 25.5469ZM32.7659 25.1367L33.1078 25.5015L33.1085 25.5008L32.7659 25.1367ZM33.7737 25.2383C33.7927 25.2383 33.8023 25.2403 33.8047 25.2409C33.8067 25.2414 33.8034 25.2408 33.7977 25.2373L34.3122 24.3798C34.1421 24.2778 33.9554 24.2383 33.7737 24.2383V25.2383ZM33.8155 25.2475C33.7769 25.2265 33.7358 25.189 33.7087 25.1373C33.684 25.0902 33.6838 25.056 33.6838 25.0547H34.6838C34.6838 24.7976 34.5755 24.523 34.2943 24.3696L33.8155 25.2475ZM33.6838 25.0547C33.6838 25.1301 33.6692 25.2225 33.6299 25.3348L34.5737 25.6652C34.6438 25.465 34.6838 25.2605 34.6838 25.0547H33.6838ZM33.6326 25.3271C33.5849 25.4566 33.5261 25.592 33.4554 25.7334L34.3498 26.1806C34.4353 26.0096 34.5093 25.8403 34.571 25.6729L33.6326 25.3271ZM33.4554 25.7334C33.3787 25.8867 33.3022 26.0359 33.2257 26.1812L34.1107 26.6469C34.1905 26.4953 34.2702 26.3399 34.3498 26.1806L33.4554 25.7334ZM33.2257 26.1812C33.1415 26.3412 33.0682 26.4961 33.0066 26.6456L33.9313 27.0263C33.9792 26.9101 34.0387 26.7838 34.1107 26.6469L33.2257 26.1812ZM33.0033 26.654C32.5302 27.8647 32.1814 29.1116 31.9569 30.3943L32.942 30.5667C33.155 29.3493 33.4859 28.1666 33.9347 27.0179L33.0033 26.654ZM31.957 30.3938C31.7331 31.6652 31.6213 32.9599 31.6213 34.2773H32.6213C32.6213 33.0167 32.7283 31.7801 32.9419 30.5672L31.957 30.3938ZM31.6213 34.2773C31.6213 35.0353 31.6572 35.8083 31.7288 36.596L32.7247 36.5055C32.6557 35.7464 32.6213 35.0037 32.6213 34.2773H31.6213ZM31.7288 36.596C31.801 37.3896 31.9212 38.179 32.0895 38.9641L33.0673 38.7546C32.9074 38.0085 32.7932 37.2588 32.7247 36.5055L31.7288 36.596ZM32.0897 38.9652C32.2582 39.7437 32.475 40.5064 32.74 41.2531L33.6824 40.9187C33.4317 40.2124 33.2266 39.4907 33.067 38.7536L32.0897 38.9652ZM32.741 41.256C33.0166 42.018 33.3535 42.7408 33.7519 43.4238L34.6157 42.9199C34.2485 42.2905 33.937 41.6226 33.6814 40.9159L32.741 41.256ZM34.0402 42.693L33.8058 42.7633L34.0931 43.7211L34.3275 43.6508L34.0402 42.693ZM34.3134 42.8994C33.5858 42.1268 32.971 41.272 32.4683 40.3341L31.5869 40.8065C32.131 41.8217 32.7974 42.7482 33.5855 43.585L34.3134 42.8994ZM32.4675 40.3326C31.9636 39.4 31.58 38.4187 31.3167 37.388L30.3478 37.6355C30.6314 38.7453 31.0447 39.8031 31.5877 40.808L32.4675 40.3326ZM30.3543 37.3651C30.1487 38.035 29.905 38.6976 29.623 39.3532L30.5416 39.7484C30.8377 39.0602 31.0939 38.3635 31.3103 37.6584L30.3543 37.3651ZM29.623 39.3532C29.35 39.9876 29.0166 40.5505 28.6243 41.0445L29.4074 41.6664C29.8588 41.098 30.2364 40.4577 30.5416 39.7484L29.623 39.3532ZM28.6193 41.0509C28.243 41.5408 27.8031 41.9303 27.2991 42.2244L27.803 43.0881C28.4239 42.7259 28.9606 42.2482 29.4124 41.66L28.6193 41.0509ZM27.2964 42.2259C26.8307 42.5014 26.2693 42.6484 25.594 42.6484V43.6484C26.4187 43.6484 27.162 43.4673 27.8056 43.0866L27.2964 42.2259ZM25.594 42.6484C25.0937 42.6484 24.6731 42.5462 24.3184 42.3561L23.8462 43.2376C24.3665 43.5163 24.9537 43.6484 25.594 43.6484V42.6484ZM24.3122 42.3529C23.9353 42.1577 23.6039 41.8915 23.3167 41.5495L22.551 42.1927C22.92 42.632 23.3542 42.9829 23.8523 43.2409L24.3122 42.3529ZM23.3135 41.5457C23.0187 41.2018 22.766 40.8012 22.5572 40.3405L21.6464 40.7532C21.8907 41.2925 22.1927 41.7748 22.5542 42.1965L23.3135 41.5457ZM22.5587 40.3438C22.351 39.8764 22.18 39.3898 22.0461 38.8838L21.0794 39.1397C21.2267 39.6961 21.4151 40.233 21.6449 40.7499L22.5587 40.3438ZM22.0461 38.8838C21.9112 38.3741 21.8141 37.8697 21.7545 37.3704L20.7616 37.489C20.827 38.0365 20.933 38.5868 21.0794 39.1397L22.0461 38.8838ZM21.7554 37.3785C21.7021 36.8607 21.676 36.3937 21.676 35.9766H20.676C20.676 36.4344 20.7046 36.9362 20.7607 37.4809L21.7554 37.3785ZM21.676 35.9766C21.676 34.8851 21.76 33.7852 21.9282 32.6766L20.9395 32.5266C20.7639 33.6836 20.676 34.8336 20.676 35.9766H21.676ZM21.9282 32.6766C22.0963 31.5682 22.3447 30.4831 22.6732 29.4212L21.7179 29.1257C21.3745 30.2356 21.1151 31.3693 20.9395 32.5266L21.9282 32.6766ZM22.6725 29.4234C23.0084 28.3547 23.4243 27.3246 23.9201 26.333L23.0257 25.8858C22.5059 26.9254 22.0702 28.0047 21.7185 29.1235L22.6725 29.4234ZM23.9208 26.3316C24.4149 25.3357 24.9923 24.4014 25.6529 23.5282L24.8554 22.9249C24.1566 23.8486 23.5465 24.8361 23.025 25.8871L23.9208 26.3316ZM25.0221 23.6695L25.2682 23.7984L25.7322 22.9126L25.4861 22.7836L25.0221 23.6695ZM25.0641 23.111C24.7631 23.6478 24.4882 24.2306 24.2387 24.8583L25.168 25.2276C25.4029 24.6366 25.6592 24.0943 25.9364 23.6L25.0641 23.111ZM24.2367 24.8635C23.9965 25.4879 23.7808 26.1393 23.5894 26.8173L24.5517 27.089C24.7353 26.4389 24.9415 25.8167 25.17 25.2225L24.2367 24.8635ZM23.5898 26.8158C23.3985 27.4851 23.2314 28.1737 23.0883 28.8814L24.0684 29.0796C24.2066 28.3966 24.3676 27.7336 24.5513 27.0905L23.5898 26.8158ZM23.0885 28.8803C22.9457 29.5785 22.8266 30.2769 22.7314 30.9754L23.7222 31.1105C23.8145 30.4341 23.9298 29.7575 24.0682 29.0807L23.0885 28.8803ZM22.7307 30.981C22.6437 31.6768 22.5764 32.3575 22.5288 33.023L23.5263 33.0942C23.5725 32.4472 23.638 31.7842 23.7229 31.105L22.7307 30.981ZM22.5288 33.023C22.4812 33.6897 22.4573 34.3227 22.4573 34.9219H23.4573C23.4573 34.3492 23.4802 33.74 23.5263 33.0942L22.5288 33.023ZM22.4573 34.9219C22.4573 35.2881 22.4652 35.7156 22.481 36.2036L23.4804 36.1714C23.4649 35.6907 23.4573 35.2744 23.4573 34.9219H22.4573ZM22.4813 36.2121C22.5055 36.7042 22.5538 37.2147 22.6259 37.7433L23.6167 37.6082C23.5482 37.1056 23.5028 36.6239 23.4801 36.1629L22.4813 36.2121ZM22.6259 37.7433C22.6993 38.2818 22.8095 38.8123 22.9564 39.3346L23.9191 39.0638C23.7847 38.5861 23.6839 38.101 23.6167 37.6082L22.6259 37.7433ZM22.9564 39.3346C23.1081 39.874 23.3171 40.3634 23.587 40.7986L24.4369 40.2717C24.2224 39.9257 24.0486 39.5245 23.9191 39.0638L22.9564 39.3346ZM23.5847 40.7949C23.8615 41.2503 24.2112 41.6252 24.6349 41.9107L25.1937 41.0815C24.8987 40.8826 24.6468 40.6169 24.4392 40.2754L23.5847 40.7949ZM24.6349 41.9107C25.0902 42.2176 25.6252 42.3594 26.2151 42.3594V41.3594C25.7893 41.3594 25.4571 41.259 25.1937 41.0815L24.6349 41.9107ZM26.2151 42.3594C26.7758 42.3594 27.2966 42.2584 27.7683 42.0456L27.3572 41.1341C27.032 41.2807 26.6544 41.3594 26.2151 41.3594V42.3594ZM27.7608 42.0489C28.2168 41.8522 28.6213 41.5783 28.971 41.2286L28.2639 40.5214C28.0042 40.7811 27.7055 40.9837 27.3647 41.1307L27.7608 42.0489ZM28.971 41.2286C29.3124 40.8871 29.6026 40.4917 29.8428 40.0456L28.9623 39.5715C28.765 39.938 28.5318 40.2535 28.2639 40.5214L28.971 41.2286ZM29.8372 40.0557C30.081 39.6271 30.2818 39.1705 30.4402 38.6869L29.4899 38.3756C29.3515 38.7982 29.1773 39.1932 28.9679 39.5614L29.8372 40.0557ZM30.4402 38.6869C30.596 38.2115 30.7187 37.7243 30.8087 37.2255L29.8246 37.048C29.7427 37.5022 29.6311 37.9447 29.4899 38.3756L30.4402 38.6869ZM30.8072 37.2332C30.9042 36.7401 30.9733 36.2574 31.014 35.7851L30.0177 35.6992C29.9803 36.1332 29.9165 36.5802 29.826 37.0402L30.8072 37.2332ZM31.0132 35.6907C30.9681 35.2549 30.9455 34.8151 30.9455 34.3711H29.9455C29.9455 34.849 29.9698 35.3232 30.0185 35.7936L31.0132 35.6907ZM30.9455 34.3711C30.9455 33.7466 30.976 33.0774 31.0375 32.3632L30.0411 32.2775C29.9776 33.0164 29.9455 33.7144 29.9455 34.3711H30.9455ZM31.037 32.368C31.106 31.6476 31.2056 30.927 31.336 30.2062L30.352 30.0282C30.2167 30.7761 30.1132 31.5243 30.0416 32.2727L31.037 32.368ZM31.3351 30.2112C31.4725 29.4936 31.6441 28.7958 31.8498 28.1178L30.8929 27.8275C30.6767 28.5401 30.4967 29.272 30.3529 30.0232L31.3351 30.2112ZM31.8502 28.1163C32.0541 27.4366 32.2944 26.8184 32.5697 26.2603L31.6729 25.8179C31.3702 26.4316 31.1104 27.1024 30.8924 27.829L31.8502 28.1163ZM32.5603 26.2785C32.6482 26.1173 32.7393 25.9643 32.8335 25.8194L31.9951 25.2744C31.8862 25.4419 31.782 25.6171 31.6824 25.7996L32.5603 26.2785ZM32.8239 25.8336C32.9157 25.7025 33.0107 25.5926 33.1078 25.5015L32.4239 24.772C32.2711 24.9152 32.1317 25.0788 32.0047 25.2601L32.8239 25.8336ZM33.1085 25.5008C33.1997 25.415 33.299 25.3501 33.4081 25.3033L33.0142 24.3842C32.7952 24.478 32.5977 24.6084 32.4232 24.7726L33.1085 25.5008ZM33.4081 25.3033C33.4997 25.2641 33.6183 25.2383 33.7737 25.2383V24.2383C33.5071 24.2383 33.2508 24.2828 33.0142 24.3842L33.4081 25.3033Z" fill="#242020" mask="url(#path-5-outside-2_1_25819)"/>
<mask id="path-7-outside-3_1_25819" maskUnits="userSpaceOnUse" x="36.6567" y="46.3117" width="13" height="11" fill="black">
<rect fill="white" x="36.6567" y="46.3117" width="13" height="11"/>
<path d="M49.5002 49.3742C49.5002 49.8039 49.4572 50.2883 49.3713 50.8273C49.2853 51.3586 49.1603 51.8976 48.9963 52.4445C48.84 52.9914 48.6486 53.5226 48.422 54.0383C48.2033 54.5539 47.9533 55.0148 47.672 55.4211C47.3986 55.8195 47.1017 56.1398 46.7814 56.382C46.4689 56.6242 46.1408 56.7453 45.797 56.7453C45.5939 56.7453 45.3947 56.6242 45.1994 56.382C45.0119 56.1476 44.8283 55.839 44.6486 55.4562C44.4767 55.0734 44.3166 54.6476 44.1681 54.1789C44.0197 53.7101 43.883 53.2453 43.758 52.7843C43.6408 53.214 43.5119 53.6633 43.3713 54.132C43.2306 54.6008 43.0588 55.0304 42.8556 55.4211C42.6525 55.8039 42.4142 56.1203 42.1408 56.3703C41.8674 56.6203 41.5431 56.7453 41.1681 56.7453C40.926 56.7453 40.7033 56.632 40.5002 56.4054C40.3049 56.1789 40.1252 55.8937 39.9611 55.55C39.8049 55.1984 39.6603 54.8117 39.5275 54.3898C39.4025 53.9601 39.2931 53.5461 39.1994 53.1476C39.1135 52.7414 39.0392 52.3742 38.9767 52.0461C38.9142 51.7179 38.8674 51.4758 38.8361 51.3195C38.8283 51.2961 38.8166 51.2375 38.801 51.1437C38.7853 51.05 38.7658 50.9523 38.7424 50.8508C38.7189 50.7492 38.6877 50.6593 38.6486 50.5812C38.6174 50.4953 38.5861 50.4523 38.5549 50.4523C38.422 50.4523 38.2658 50.4953 38.0861 50.5812C37.9142 50.6593 37.7736 50.7297 37.6642 50.7922L37.5939 50.675C37.7033 50.5578 37.8361 50.4367 37.9924 50.3117C38.1564 50.1789 38.3283 50.0578 38.508 49.9484C38.6955 49.839 38.883 49.7492 39.0705 49.6789C39.2658 49.6086 39.4455 49.5734 39.6095 49.5734C39.7502 49.5734 39.8752 49.6359 39.9845 49.7609C40.1017 49.8781 40.1994 50.0304 40.2775 50.2179C40.3556 50.4054 40.422 50.6164 40.4767 50.8508C40.5392 51.0773 40.5861 51.3039 40.6174 51.5304C40.6564 51.7492 40.6838 51.9484 40.6994 52.1281C40.7228 52.3078 40.7424 52.4445 40.758 52.5383C40.7658 52.6008 40.7853 52.7297 40.8166 52.925C40.8478 53.1125 40.8869 53.3351 40.9338 53.5929C40.9806 53.8429 41.0314 54.1086 41.0861 54.3898C41.1486 54.6633 41.215 54.9172 41.2853 55.1515C41.3556 55.3781 41.426 55.5695 41.4963 55.7258C41.5744 55.8742 41.6486 55.9484 41.7189 55.9484C41.9377 55.9484 42.1408 55.8117 42.3283 55.5383C42.5158 55.257 42.6838 54.9093 42.8322 54.4953C42.9885 54.0812 43.1252 53.6398 43.2424 53.1711C43.3595 52.7023 43.4533 52.2726 43.5236 51.882C43.4455 51.5695 43.3791 51.2922 43.3244 51.05C43.2697 50.8 43.2228 50.6008 43.1838 50.4523C43.1681 50.4211 43.1603 50.3664 43.1603 50.2883C43.1603 50.1789 43.1994 50.0773 43.2775 49.9836C43.3556 49.8898 43.4533 49.8078 43.5705 49.7375C43.6877 49.6672 43.8088 49.6125 43.9338 49.5734C44.0588 49.5343 44.1681 49.5148 44.2619 49.5148C44.4181 49.5148 44.547 49.589 44.6486 49.7375C44.7502 49.8781 44.8322 50.0461 44.8947 50.2414C44.9572 50.4367 45.0041 50.6359 45.0353 50.839C45.0744 51.0343 45.1056 51.1867 45.1291 51.2961C45.1369 51.3508 45.1603 51.5031 45.1994 51.7531C45.2463 52.0031 45.3049 52.3 45.3752 52.6437C45.4455 52.9875 45.5197 53.3547 45.5978 53.7453C45.6838 54.1281 45.7697 54.4836 45.8556 54.8117C45.9494 55.1398 46.0392 55.4133 46.1252 55.632C46.2111 55.8429 46.2892 55.9484 46.3595 55.9484C46.5705 55.9484 46.7658 55.8781 46.9455 55.7375C47.1252 55.589 47.2853 55.3976 47.426 55.1633C47.5744 54.9211 47.6994 54.6476 47.801 54.3429C47.9103 54.0304 48.0002 53.7062 48.0705 53.3703C48.1486 53.0343 48.2033 52.7023 48.2345 52.3742C48.2736 52.0383 48.2931 51.7258 48.2931 51.4367C48.2931 51.1945 48.2775 50.9328 48.2463 50.6515C48.215 50.3625 48.1642 50.0773 48.0939 49.7961C48.0236 49.5148 47.9299 49.2453 47.8127 48.9875C47.7033 48.7218 47.5705 48.4953 47.4142 48.3078C47.258 48.1125 47.0783 47.964 46.8752 47.8625C46.672 47.7609 46.4416 47.7258 46.1838 47.757L46.1603 47.6515C46.3635 47.55 46.5783 47.4718 46.8049 47.4172C47.0314 47.3625 47.2658 47.3351 47.508 47.3351C48.172 47.3351 48.6681 47.5187 48.9963 47.8859C49.3322 48.2453 49.5002 48.7414 49.5002 49.3742Z"/>
</mask>
<path d="M49.5002 49.3742C49.5002 49.8039 49.4572 50.2883 49.3713 50.8273C49.2853 51.3586 49.1603 51.8976 48.9963 52.4445C48.84 52.9914 48.6486 53.5226 48.422 54.0383C48.2033 54.5539 47.9533 55.0148 47.672 55.4211C47.3986 55.8195 47.1017 56.1398 46.7814 56.382C46.4689 56.6242 46.1408 56.7453 45.797 56.7453C45.5939 56.7453 45.3947 56.6242 45.1994 56.382C45.0119 56.1476 44.8283 55.839 44.6486 55.4562C44.4767 55.0734 44.3166 54.6476 44.1681 54.1789C44.0197 53.7101 43.883 53.2453 43.758 52.7843C43.6408 53.214 43.5119 53.6633 43.3713 54.132C43.2306 54.6008 43.0588 55.0304 42.8556 55.4211C42.6525 55.8039 42.4142 56.1203 42.1408 56.3703C41.8674 56.6203 41.5431 56.7453 41.1681 56.7453C40.926 56.7453 40.7033 56.632 40.5002 56.4054C40.3049 56.1789 40.1252 55.8937 39.9611 55.55C39.8049 55.1984 39.6603 54.8117 39.5275 54.3898C39.4025 53.9601 39.2931 53.5461 39.1994 53.1476C39.1135 52.7414 39.0392 52.3742 38.9767 52.0461C38.9142 51.7179 38.8674 51.4758 38.8361 51.3195C38.8283 51.2961 38.8166 51.2375 38.801 51.1437C38.7853 51.05 38.7658 50.9523 38.7424 50.8508C38.7189 50.7492 38.6877 50.6593 38.6486 50.5812C38.6174 50.4953 38.5861 50.4523 38.5549 50.4523C38.422 50.4523 38.2658 50.4953 38.0861 50.5812C37.9142 50.6593 37.7736 50.7297 37.6642 50.7922L37.5939 50.675C37.7033 50.5578 37.8361 50.4367 37.9924 50.3117C38.1564 50.1789 38.3283 50.0578 38.508 49.9484C38.6955 49.839 38.883 49.7492 39.0705 49.6789C39.2658 49.6086 39.4455 49.5734 39.6095 49.5734C39.7502 49.5734 39.8752 49.6359 39.9845 49.7609C40.1017 49.8781 40.1994 50.0304 40.2775 50.2179C40.3556 50.4054 40.422 50.6164 40.4767 50.8508C40.5392 51.0773 40.5861 51.3039 40.6174 51.5304C40.6564 51.7492 40.6838 51.9484 40.6994 52.1281C40.7228 52.3078 40.7424 52.4445 40.758 52.5383C40.7658 52.6008 40.7853 52.7297 40.8166 52.925C40.8478 53.1125 40.8869 53.3351 40.9338 53.5929C40.9806 53.8429 41.0314 54.1086 41.0861 54.3898C41.1486 54.6633 41.215 54.9172 41.2853 55.1515C41.3556 55.3781 41.426 55.5695 41.4963 55.7258C41.5744 55.8742 41.6486 55.9484 41.7189 55.9484C41.9377 55.9484 42.1408 55.8117 42.3283 55.5383C42.5158 55.257 42.6838 54.9093 42.8322 54.4953C42.9885 54.0812 43.1252 53.6398 43.2424 53.1711C43.3595 52.7023 43.4533 52.2726 43.5236 51.882C43.4455 51.5695 43.3791 51.2922 43.3244 51.05C43.2697 50.8 43.2228 50.6008 43.1838 50.4523C43.1681 50.4211 43.1603 50.3664 43.1603 50.2883C43.1603 50.1789 43.1994 50.0773 43.2775 49.9836C43.3556 49.8898 43.4533 49.8078 43.5705 49.7375C43.6877 49.6672 43.8088 49.6125 43.9338 49.5734C44.0588 49.5343 44.1681 49.5148 44.2619 49.5148C44.4181 49.5148 44.547 49.589 44.6486 49.7375C44.7502 49.8781 44.8322 50.0461 44.8947 50.2414C44.9572 50.4367 45.0041 50.6359 45.0353 50.839C45.0744 51.0343 45.1056 51.1867 45.1291 51.2961C45.1369 51.3508 45.1603 51.5031 45.1994 51.7531C45.2463 52.0031 45.3049 52.3 45.3752 52.6437C45.4455 52.9875 45.5197 53.3547 45.5978 53.7453C45.6838 54.1281 45.7697 54.4836 45.8556 54.8117C45.9494 55.1398 46.0392 55.4133 46.1252 55.632C46.2111 55.8429 46.2892 55.9484 46.3595 55.9484C46.5705 55.9484 46.7658 55.8781 46.9455 55.7375C47.1252 55.589 47.2853 55.3976 47.426 55.1633C47.5744 54.9211 47.6994 54.6476 47.801 54.3429C47.9103 54.0304 48.0002 53.7062 48.0705 53.3703C48.1486 53.0343 48.2033 52.7023 48.2345 52.3742C48.2736 52.0383 48.2931 51.7258 48.2931 51.4367C48.2931 51.1945 48.2775 50.9328 48.2463 50.6515C48.215 50.3625 48.1642 50.0773 48.0939 49.7961C48.0236 49.5148 47.9299 49.2453 47.8127 48.9875C47.7033 48.7218 47.5705 48.4953 47.4142 48.3078C47.258 48.1125 47.0783 47.964 46.8752 47.8625C46.672 47.7609 46.4416 47.7258 46.1838 47.757L46.1603 47.6515C46.3635 47.55 46.5783 47.4718 46.8049 47.4172C47.0314 47.3625 47.2658 47.3351 47.508 47.3351C48.172 47.3351 48.6681 47.5187 48.9963 47.8859C49.3322 48.2453 49.5002 48.7414 49.5002 49.3742Z" fill="#242020"/>
<path d="M49.3713 50.8273L49.5193 50.8513L49.5194 50.8509L49.3713 50.8273ZM48.9963 52.4445L48.8526 52.4014L48.852 52.4033L48.9963 52.4445ZM48.422 54.0383L48.2847 53.9779L48.284 53.9797L48.422 54.0383ZM47.672 55.4211L47.5487 55.3357L47.5484 55.3362L47.672 55.4211ZM46.7814 56.382L46.691 56.2623L46.6895 56.2634L46.7814 56.382ZM45.1994 56.382L45.0823 56.4757L45.0826 56.4762L45.1994 56.382ZM44.6486 55.4562L44.5118 55.5177L44.5128 55.52L44.6486 55.4562ZM43.758 52.7843L43.9028 52.7451L43.7584 52.2128L43.6133 52.7449L43.758 52.7843ZM42.8556 55.4211L42.9881 55.4914L42.9887 55.4903L42.8556 55.4211ZM40.5002 56.4054L40.3865 56.5034L40.3885 56.5056L40.5002 56.4054ZM39.9611 55.55L39.824 55.6109L39.8257 55.6146L39.9611 55.55ZM39.5275 54.3898L39.3835 54.4317L39.3844 54.4349L39.5275 54.3898ZM39.1994 53.1476L39.0526 53.1787L39.0534 53.182L39.1994 53.1476ZM38.8361 51.3195L38.9832 51.2901L38.9814 51.2809L38.9784 51.2721L38.8361 51.3195ZM38.6486 50.5812L38.5076 50.6325L38.5106 50.6406L38.5144 50.6483L38.6486 50.5812ZM38.0861 50.5812L38.1482 50.7178L38.1508 50.7165L38.0861 50.5812ZM37.6642 50.7922L37.5356 50.8693L37.6112 50.9953L37.7387 50.9224L37.6642 50.7922ZM37.5939 50.675L37.4843 50.5726L37.4072 50.6552L37.4653 50.7521L37.5939 50.675ZM37.9924 50.3117L38.0861 50.4288L38.0867 50.4283L37.9924 50.3117ZM38.508 49.9484L38.4324 49.8188L38.43 49.8203L38.508 49.9484ZM39.0705 49.6789L39.0197 49.5377L39.0178 49.5384L39.0705 49.6789ZM39.9845 49.7609L39.8714 49.8599L39.8785 49.867L39.9845 49.7609ZM40.4767 50.8508L40.3305 50.8849L40.3321 50.8906L40.4767 50.8508ZM40.6174 51.5304L40.4687 51.551L40.4697 51.5568L40.6174 51.5304ZM40.6994 52.1281L40.5498 52.1411L40.5507 52.1475L40.6994 52.1281ZM40.758 52.5383L40.907 52.5196L40.9059 52.5136L40.758 52.5383ZM40.8166 52.925L40.6685 52.9487L40.6686 52.9496L40.8166 52.925ZM40.9338 53.5929L40.7862 53.6198L40.7863 53.6206L40.9338 53.5929ZM41.0861 54.3898L40.9388 54.4185L40.9399 54.4232L41.0861 54.3898ZM41.2853 55.1515L41.1416 55.1946L41.1421 55.196L41.2853 55.1515ZM41.4963 55.7258L41.3592 55.7874L41.3635 55.7956L41.4963 55.7258ZM42.3283 55.5383L42.452 55.6231L42.4531 55.6215L42.3283 55.5383ZM42.8322 54.4953L42.6918 54.4423L42.691 54.4447L42.8322 54.4953ZM43.5236 51.882L43.6712 51.9086L43.6769 51.8769L43.6691 51.8456L43.5236 51.882ZM43.3244 51.05L43.1779 51.082L43.1781 51.083L43.3244 51.05ZM43.1838 50.4523L43.3288 50.4141L43.3249 50.3991L43.3179 50.3852L43.1838 50.4523ZM44.6486 49.7375L44.5248 49.8222L44.527 49.8253L44.6486 49.7375ZM45.0353 50.839L44.8869 50.8619L44.8882 50.8685L45.0353 50.839ZM45.1291 51.2961L45.2779 51.2748L45.2758 51.2646L45.1291 51.2961ZM45.1994 51.7531L45.0511 51.7763L45.052 51.7807L45.1994 51.7531ZM45.5978 53.7453L45.4507 53.7747L45.4515 53.7781L45.5978 53.7453ZM45.8556 54.8117L45.7105 54.8497L45.7114 54.8529L45.8556 54.8117ZM46.1252 55.632L45.9856 55.6869L45.9863 55.6886L46.1252 55.632ZM46.9455 55.7375L47.038 55.8556L47.041 55.8531L46.9455 55.7375ZM47.426 55.1633L47.2981 55.0849L47.2973 55.0861L47.426 55.1633ZM47.801 54.3429L47.6594 54.2934L47.6587 54.2955L47.801 54.3429ZM48.0705 53.3703L47.9243 53.3363L47.9237 53.3396L48.0705 53.3703ZM48.2345 52.3742L48.0855 52.3569L48.0852 52.36L48.2345 52.3742ZM48.2463 50.6515L48.0971 50.6677L48.0972 50.6681L48.2463 50.6515ZM47.8127 48.9875L47.6739 49.0446L47.6761 49.0495L47.8127 48.9875ZM47.4142 48.3078L47.2971 48.4015L47.299 48.4038L47.4142 48.3078ZM46.1838 47.757L46.0373 47.7895L46.0668 47.9223L46.2018 47.9059L46.1838 47.757ZM46.1603 47.6515L46.0932 47.5174L45.9885 47.5697L46.0139 47.6841L46.1603 47.6515ZM48.9963 47.8859L48.8844 47.9859L48.8867 47.9883L48.9963 47.8859ZM49.3502 49.3742C49.3502 49.7942 49.3081 50.2705 49.2231 50.8037L49.5194 50.8509C49.6063 50.306 49.6502 49.8136 49.6502 49.3742H49.3502ZM49.2232 50.8034C49.1384 51.3278 49.0149 51.8604 48.8526 52.4014L49.1399 52.4876C49.3058 51.9348 49.4323 51.3894 49.5193 50.8513L49.2232 50.8034ZM48.852 52.4033C48.6976 52.9437 48.5085 53.4686 48.2847 53.9779L48.5594 54.0986C48.7887 53.5767 48.9824 53.039 49.1405 52.4857L48.852 52.4033ZM48.284 53.9797C48.0687 54.4871 47.8234 54.9389 47.5487 55.3357L47.7954 55.5064C48.0832 55.0908 48.3379 54.6206 48.5601 54.0968L48.284 53.9797ZM47.5484 55.3362C47.2823 55.7239 46.9961 56.0316 46.691 56.2624L46.8719 56.5017C47.2074 56.248 47.515 55.9151 47.7957 55.5059L47.5484 55.3362ZM46.6895 56.2634C46.3992 56.4885 46.1027 56.5953 45.797 56.5953V56.8953C46.1789 56.8953 46.5386 56.7599 46.8733 56.5006L46.6895 56.2634ZM45.797 56.5953C45.6591 56.5953 45.4984 56.5138 45.3162 56.2878L45.0826 56.4762C45.2911 56.7346 45.5287 56.8953 45.797 56.8953V56.5953ZM45.3165 56.2883C45.1387 56.066 44.9609 55.7686 44.7844 55.3925L44.5128 55.52C44.6957 55.9095 44.8851 56.2292 45.0823 56.4757L45.3165 56.2883ZM44.7855 55.3948C44.6163 55.018 44.4581 54.5978 44.3111 54.1336L44.0251 54.2242C44.175 54.6975 44.3372 55.1288 44.5118 55.5177L44.7855 55.3948ZM44.3111 54.1336C44.1633 53.6668 44.0272 53.2039 43.9028 52.7451L43.6132 52.8236C43.7388 53.2866 43.8761 53.7535 44.0251 54.2242L44.3111 54.1336ZM43.6133 52.7449C43.4964 53.1732 43.3679 53.6212 43.2276 54.0889L43.5149 54.1751C43.6559 53.7053 43.7852 53.2548 43.9027 52.8238L43.6133 52.7449ZM43.2276 54.0889C43.0894 54.5496 42.9209 54.9705 42.7226 55.3519L42.9887 55.4903C43.1966 55.0904 43.3719 54.6519 43.5149 54.1751L43.2276 54.0889ZM42.7231 55.3508C42.5267 55.7209 42.2984 56.0229 42.0396 56.2596L42.242 56.481C42.5301 56.2176 42.7783 55.8868 42.9881 55.4914L42.7231 55.3508ZM42.0396 56.2596C41.7942 56.484 41.5062 56.5953 41.1681 56.5953V56.8953C41.5801 56.8953 41.9406 56.7566 42.242 56.481L42.0396 56.2596ZM41.1681 56.5953C40.979 56.5953 40.7944 56.5089 40.6119 56.3053L40.3885 56.5056C40.6122 56.7551 40.8729 56.8953 41.1681 56.8953V56.5953ZM40.6138 56.3075C40.4292 56.0933 40.2563 55.8202 40.0965 55.4854L39.8257 55.6146C39.9941 55.9673 40.1806 56.2644 40.3866 56.5034L40.6138 56.3075ZM40.0982 55.4891C39.9445 55.1434 39.802 54.762 39.6706 54.3448L39.3844 54.4349C39.5187 54.8614 39.6652 55.2535 39.824 55.6109L40.0982 55.4891ZM39.6715 54.3479C39.5472 53.9205 39.4385 53.509 39.3454 53.1133L39.0534 53.182C39.1478 53.5832 39.2578 53.9998 39.3835 54.4317L39.6715 54.3479ZM39.3461 53.1166C39.2604 52.7111 39.1864 52.3449 39.1241 52.018L38.8294 52.0741C38.8921 52.4035 38.9665 52.7717 39.0526 53.1787L39.3461 53.1166ZM39.1241 52.018C39.0616 51.6898 39.0146 51.447 38.9832 51.2901L38.689 51.3489C38.7201 51.5045 38.7669 51.7461 38.8294 52.0741L39.1241 52.018ZM38.9784 51.2721C38.9785 51.2723 38.9775 51.2691 38.9754 51.2606C38.9736 51.2527 38.9713 51.2421 38.9686 51.2286C38.9631 51.2015 38.9566 51.1652 38.9489 51.1191L38.653 51.1684C38.6679 51.2581 38.6815 51.3299 38.6938 51.3669L38.9784 51.2721ZM38.9489 51.1191C38.9327 51.022 38.9126 50.9213 38.8885 50.817L38.5962 50.8845C38.619 50.9833 38.6379 51.0779 38.653 51.1684L38.9489 51.1191ZM38.8885 50.817C38.8629 50.7061 38.828 50.6047 38.7828 50.5141L38.5144 50.6483C38.5473 50.714 38.5749 50.7923 38.5962 50.8845L38.8885 50.817ZM38.7896 50.53C38.7721 50.4818 38.7508 50.4344 38.723 50.3963C38.6987 50.3629 38.6441 50.3023 38.5549 50.3023V50.6023C38.5264 50.6023 38.5051 50.5921 38.4933 50.584C38.4827 50.5767 38.4789 50.5707 38.4804 50.5728C38.4816 50.5744 38.485 50.5796 38.4902 50.5903C38.4953 50.6007 38.5011 50.6146 38.5076 50.6325L38.7896 50.53ZM38.5549 50.3023C38.3913 50.3023 38.2121 50.3547 38.0214 50.4459L38.1508 50.7165C38.3195 50.6359 38.4528 50.6023 38.5549 50.6023V50.3023ZM38.024 50.4447C37.8498 50.5239 37.7047 50.5963 37.5898 50.6619L37.7387 50.9224C37.8426 50.863 37.9787 50.7948 38.1482 50.7178L38.024 50.4447ZM37.7929 50.715L37.7225 50.5978L37.4653 50.7521L37.5356 50.8693L37.7929 50.715ZM37.7036 50.7773C37.807 50.6666 37.9342 50.5503 38.0861 50.4288L37.8987 50.1946C37.7381 50.323 37.5996 50.449 37.4843 50.5726L37.7036 50.7773ZM38.0867 50.4283C38.2456 50.2997 38.412 50.1824 38.586 50.0765L38.43 49.8203C38.2446 49.9331 38.0672 50.0581 37.898 50.1951L38.0867 50.4283ZM38.5836 50.078C38.7644 49.9725 38.9442 49.8864 39.1232 49.8193L39.0178 49.5384C38.8218 49.612 38.6266 49.7056 38.4324 49.8188L38.5836 50.078ZM39.1213 49.82C39.3044 49.7541 39.4667 49.7234 39.6095 49.7234V49.4234C39.4243 49.4234 39.2272 49.4631 39.0197 49.5377L39.1213 49.82ZM39.6095 49.7234C39.699 49.7234 39.7851 49.7608 39.8717 49.8597L40.0974 49.6621C39.9652 49.5111 39.8014 49.4234 39.6095 49.4234V49.7234ZM39.8785 49.867C39.9791 49.9676 40.0668 50.1023 40.1391 50.2756L40.416 50.1602C40.332 49.9586 40.2244 49.7886 40.0906 49.6548L39.8785 49.867ZM40.1391 50.2756C40.2135 50.4542 40.2775 50.6571 40.3307 50.8848L40.6228 50.8167C40.5666 50.5757 40.4978 50.3566 40.416 50.1602L40.1391 50.2756ZM40.3321 50.8906C40.3929 51.111 40.4384 51.3311 40.4688 51.5509L40.766 51.5099C40.7338 51.2767 40.6855 51.0436 40.6213 50.8109L40.3321 50.8906ZM40.4697 51.5568C40.5081 51.7721 40.5348 51.9668 40.55 52.1411L40.8488 52.1151C40.8327 51.93 40.8047 51.7263 40.765 51.5041L40.4697 51.5568ZM40.5507 52.1475C40.5742 52.3277 40.594 52.4665 40.61 52.5629L40.9059 52.5136C40.8908 52.4225 40.8715 52.2879 40.8481 52.1087L40.5507 52.1475ZM40.6091 52.5569C40.6173 52.6224 40.6373 52.7539 40.6685 52.9487L40.9647 52.9013C40.9334 52.7055 40.9143 52.5791 40.9068 52.5196L40.6091 52.5569ZM40.6686 52.9496C40.7 53.1381 40.7392 53.3615 40.7862 53.6198L41.0813 53.5661C41.0346 53.3088 40.9956 53.0869 40.9645 52.9003L40.6686 52.9496ZM40.7863 53.6206C40.8333 53.871 40.8841 54.1369 40.9389 54.4184L41.2334 54.3612C41.1787 54.0802 41.128 53.8149 41.0812 53.5653L40.7863 53.6206ZM40.9399 54.4232C41.003 54.6995 41.0703 54.9566 41.1417 55.1946L41.429 55.1084C41.3598 54.8777 41.2942 54.627 41.2323 54.3564L40.9399 54.4232ZM41.1421 55.196C41.2136 55.4263 41.2859 55.6238 41.3595 55.7873L41.6331 55.6642C41.566 55.5152 41.4977 55.3298 41.4286 55.1071L41.1421 55.196ZM41.3635 55.7956C41.4059 55.8762 41.4523 55.9466 41.5045 55.9988C41.556 56.0503 41.6281 56.0984 41.7189 56.0984V55.7984C41.7395 55.7984 41.7393 55.8094 41.7166 55.7867C41.6946 55.7646 41.6647 55.7237 41.629 55.6559L41.3635 55.7956ZM41.7189 56.0984C42.0089 56.0984 42.2517 55.9152 42.452 55.6231L42.2046 55.4534C42.0299 55.7081 41.8664 55.7984 41.7189 55.7984V56.0984ZM42.4531 55.6215C42.6491 55.3275 42.822 54.9682 42.9734 54.5459L42.691 54.4447C42.5455 54.8505 42.3825 55.1865 42.2035 55.455L42.4531 55.6215ZM42.9725 54.5482C43.131 54.1283 43.2694 53.6813 43.3879 53.2074L43.0968 53.1347C42.9809 53.5983 42.8459 54.0342 42.6919 54.4423L42.9725 54.5482ZM43.3879 53.2074C43.5057 52.7361 43.6002 52.3031 43.6712 51.9086L43.376 51.8554C43.3064 52.2421 43.2134 52.6685 43.0968 53.1347L43.3879 53.2074ZM43.6691 51.8456C43.5912 51.5339 43.5251 51.2577 43.4707 51.0169L43.1781 51.083C43.2331 51.3266 43.2998 51.6051 43.3781 51.9184L43.6691 51.8456ZM43.4709 51.0179C43.416 50.767 43.3687 50.5655 43.3288 50.4141L43.0387 50.4905C43.077 50.636 43.1234 50.8329 43.1779 51.082L43.4709 51.0179ZM43.3179 50.3852C43.3203 50.3899 43.3175 50.3862 43.3147 50.3666C43.3121 50.3485 43.3103 50.3229 43.3103 50.2883H43.0103C43.0103 50.3677 43.0169 50.454 43.0496 50.5194L43.3179 50.3852ZM43.3103 50.2883C43.3103 50.2181 43.3343 50.1497 43.3928 50.0796L43.1623 49.8875C43.0645 50.0049 43.0103 50.1397 43.0103 50.2883H43.3103ZM43.3928 50.0796C43.4589 50.0002 43.5432 49.9288 43.6477 49.8661L43.4933 49.6088C43.3634 49.6868 43.2524 49.7794 43.1623 49.8875L43.3928 50.0796ZM43.6477 49.8661C43.7551 49.8016 43.8653 49.7519 43.9785 49.7166L43.889 49.4302C43.7522 49.473 43.6203 49.5327 43.4933 49.6088L43.6477 49.8661ZM43.9785 49.7166C44.0943 49.6804 44.188 49.6648 44.2619 49.6648V49.3648C44.1483 49.3648 44.0232 49.3883 43.889 49.4302L43.9785 49.7166ZM44.2619 49.6648C44.3606 49.6648 44.4463 49.7074 44.5248 49.8222L44.7724 49.6528C44.6478 49.4706 44.4757 49.3648 44.2619 49.3648V49.6648ZM44.527 49.8253C44.6178 49.951 44.6933 50.1042 44.7518 50.2871L45.0376 50.1957C44.9711 49.988 44.8825 49.8052 44.7702 49.6496L44.527 49.8253ZM44.7518 50.2871C44.8119 50.4749 44.857 50.6665 44.8871 50.8618L45.1836 50.8162C45.1511 50.6054 45.1025 50.3985 45.0376 50.1957L44.7518 50.2871ZM44.8882 50.8685C44.9274 51.064 44.9588 51.2171 44.9824 51.3275L45.2758 51.2646C45.2525 51.1563 45.2214 51.0047 45.1824 50.8096L44.8882 50.8685ZM44.9806 51.3173C44.9886 51.3732 45.0122 51.5267 45.0512 51.7763L45.3476 51.7299C45.3085 51.4795 45.2852 51.3283 45.2776 51.2749L44.9806 51.3173ZM45.052 51.7807C45.099 52.0318 45.1578 52.3295 45.2282 52.6738L45.5221 52.6137C45.4519 52.2704 45.3935 51.9744 45.3468 51.7255L45.052 51.7807ZM45.2282 52.6738C45.2985 53.0173 45.3727 53.3843 45.4507 53.7747L45.7449 53.7159C45.6668 53.3251 45.5925 52.9577 45.5221 52.6137L45.2282 52.6738ZM45.4515 53.7781C45.5377 54.1624 45.6241 54.5196 45.7105 54.8497L46.0007 54.7737C45.9153 54.4475 45.8298 54.0938 45.7442 53.7124L45.4515 53.7781ZM45.7114 54.8529C45.806 55.1838 45.8973 55.4621 45.9856 55.6869L46.2648 55.5772C46.1812 55.3644 46.0928 55.0959 45.9999 54.7705L45.7114 54.8529ZM45.9863 55.6886C46.031 55.7985 46.0776 55.891 46.1277 55.9586C46.172 56.0184 46.2482 56.0984 46.3595 56.0984V55.7984C46.4006 55.7984 46.4026 55.8257 46.3688 55.78C46.3407 55.7421 46.3052 55.6764 46.2641 55.5754L45.9863 55.6886ZM46.3595 56.0984C46.6068 56.0984 46.8342 56.0151 47.0379 55.8556L46.853 55.6193C46.6974 55.7411 46.5342 55.7984 46.3595 55.7984V56.0984ZM47.041 55.8531C47.2359 55.6921 47.4067 55.4869 47.5546 55.2404L47.2973 55.0861C47.164 55.3083 47.0145 55.4859 46.85 55.6218L47.041 55.8531ZM47.5538 55.2416C47.709 54.9885 47.8385 54.7045 47.9433 54.3904L47.6587 54.2955C47.5602 54.5907 47.4398 54.8536 47.2981 55.0849L47.5538 55.2416ZM47.9425 54.3925C48.0541 54.0736 48.1457 53.7431 48.2173 53.401L47.9237 53.3396C47.8546 53.6693 47.7665 53.9873 47.6594 54.2934L47.9425 54.3925ZM48.2166 53.4043C48.2962 53.0621 48.352 52.7235 48.3839 52.3884L48.0852 52.36C48.0546 52.6811 48.0011 53.0066 47.9244 53.3363L48.2166 53.4043ZM48.3835 52.3915C48.4232 52.0508 48.4431 51.7324 48.4431 51.4367H48.1431C48.1431 51.7191 48.1241 52.0257 48.0856 52.3569L48.3835 52.3915ZM48.4431 51.4367C48.4431 51.1881 48.4271 50.9208 48.3954 50.635L48.0972 50.6681C48.1279 50.9447 48.1431 51.2009 48.1431 51.4367H48.4431ZM48.3954 50.6354C48.3634 50.3395 48.3114 50.0476 48.2394 49.7597L47.9484 49.8324C48.017 50.107 48.0666 50.3854 48.0971 50.6677L48.3954 50.6354ZM48.2394 49.7597C48.167 49.4698 48.0703 49.1917 47.9492 48.9254L47.6761 49.0495C47.7895 49.2989 47.8802 49.5598 47.9484 49.8324L48.2394 49.7597ZM47.9514 48.9304C47.8372 48.6531 47.697 48.4128 47.5295 48.2118L47.299 48.4038C47.444 48.5778 47.5694 48.7906 47.674 49.0446L47.9514 48.9304ZM47.5314 48.2141C47.3629 48.0036 47.1667 47.8405 46.9423 47.7283L46.8081 47.9966C46.9899 48.0875 47.153 48.2214 47.2971 48.4015L47.5314 48.2141ZM46.9423 47.7283C46.7092 47.6118 46.4484 47.5738 46.1657 47.6081L46.2018 47.9059C46.4347 47.8777 46.6349 47.9101 46.8081 47.9966L46.9423 47.7283ZM46.3302 47.7245L46.3068 47.619L46.0139 47.6841L46.0373 47.7895L46.3302 47.7245ZM46.2274 47.7857C46.4201 47.6893 46.6242 47.6151 46.8401 47.563L46.7697 47.2713C46.5324 47.3286 46.3068 47.4106 46.0932 47.5174L46.2274 47.7857ZM46.8401 47.563C47.0547 47.5112 47.2772 47.4851 47.508 47.4851V47.1851C47.2544 47.1851 47.0082 47.2138 46.7697 47.2713L46.8401 47.563ZM47.508 47.4851C48.1449 47.4851 48.5937 47.6605 48.8844 47.9859L49.1081 47.786C48.7426 47.3769 48.1992 47.1851 47.508 47.1851V47.4851ZM48.8867 47.9883C49.1899 48.3127 49.3502 48.7681 49.3502 49.3742H49.6502C49.6502 48.7146 49.4746 48.1779 49.1058 47.7835L48.8867 47.9883Z" fill="black" mask="url(#path-7-outside-3_1_25819)"/>
<g filter="url(#filter0_f_1_25819)">
<ellipse cx="66" cy="54" rx="11" ry="8" fill="#FFBEC0"/>
</g>
<g filter="url(#filter1_f_1_25819)">
<ellipse cx="65.5" cy="54.5" rx="5.5" ry="4.5" fill="#FFBEC0"/>
</g>
<path d="M61.9557 50.9778C60.7958 53.0244 60.1026 54.2037 60 55.4667M66.0148 50C64.1994 52.8812 63.1047 54.4466 62.3247 58M70 51.6C69.3857 52.55 68.8854 52.9636 68.9668 54.4444" stroke="#E2636C" stroke-width="0.5" stroke-linecap="round"/>
<g filter="url(#filter2_f_1_25819)">
<ellipse cx="18" cy="54" rx="11" ry="8" fill="#FFBEC0"/>
</g>
<g filter="url(#filter3_f_1_25819)">
<ellipse cx="17.5" cy="54.5" rx="5.5" ry="4.5" fill="#FFBEC0"/>
</g>
<path d="M22 50.3419C21.0908 53.222 20.5681 54.8319 20.0537 57.8632" stroke="#E2636C" stroke-width="0.5" stroke-linecap="round"/>
<path d="M15.0537 50L13.6285 53.4202C13.5719 53.556 13.5132 53.6899 13.4533 53.8243C13.1581 54.4878 12.2274 56.6475 12 58" stroke="#E2636C" stroke-width="0.5" stroke-linecap="round"/>
<path d="M17.2349 51.8462C17.2349 51.8462 16.9161 53.791 16.396 54.4444" stroke="#E2636C" stroke-width="0.5" stroke-linecap="round"/>
<defs>
<filter id="filter0_f_1_25819" x="48" y="39" width="36" height="30" filterUnits="userSpaceOnUse" color-interpolation-filters="sRGB">
<feFlood flood-opacity="0" result="BackgroundImageFix"/>
<feBlend mode="normal" in="SourceGraphic" in2="BackgroundImageFix" result="shape"/>
<feGaussianBlur stdDeviation="3.5" result="effect1_foregroundBlur_1_25819"/>
</filter>
<filter id="filter1_f_1_25819" x="58.6" y="48.6" width="13.8" height="11.8" filterUnits="userSpaceOnUse" color-interpolation-filters="sRGB">
<feFlood flood-opacity="0" result="BackgroundImageFix"/>
<feBlend mode="normal" in="SourceGraphic" in2="BackgroundImageFix" result="shape"/>
<feGaussianBlur stdDeviation="0.7" result="effect1_foregroundBlur_1_25819"/>
</filter>
<filter id="filter2_f_1_25819" x="0" y="39" width="36" height="30" filterUnits="userSpaceOnUse" color-interpolation-filters="sRGB">
<feFlood flood-opacity="0" result="BackgroundImageFix"/>
<feBlend mode="normal" in="SourceGraphic" in2="BackgroundImageFix" result="shape"/>
<feGaussianBlur stdDeviation="3.5" result="effect1_foregroundBlur_1_25819"/>
</filter>
<filter id="filter3_f_1_25819" x="10.6" y="48.6" width="13.8" height="11.8" filterUnits="userSpaceOnUse" color-interpolation-filters="sRGB">
<feFlood flood-opacity="0" result="BackgroundImageFix"/>
<feBlend mode="normal" in="SourceGraphic" in2="BackgroundImageFix" result="shape"/>
<feGaussianBlur stdDeviation="0.7" result="effect1_foregroundBlur_1_25819"/>
</filter>
<linearGradient id="paint0_linear_1_25819" x1="43" y1="-1.09798e-07" x2="43" y2="80" gradientUnits="userSpaceOnUse">
<stop stop-color="#FFCD59"/>
<stop offset="1" stop-color="#F7A41B"/>
</linearGradient>
<linearGradient id="paint1_linear_1_25819" x1="42.75" y1="-0.25" x2="42.75" y2="43.25" gradientUnits="userSpaceOnUse">
<stop stop-color="#FFE383"/>
<stop offset="1" stop-color="#FFB43C"/>
</linearGradient>
</defs>
</svg>
