<svg enable-background="new 0 0 128 128" viewBox="0 0 128 128" xmlns="http://www.w3.org/2000/svg" xmlns:xlink="http://www.w3.org/1999/xlink"><linearGradient id="a" gradientUnits="userSpaceOnUse" x1="88.061" x2="88.061" y1="6" y2="48.207"><stop offset=".4739" stop-color="#aed581"/><stop offset="1" stop-color="#8bc34a"/></linearGradient><mask id="b" height="52.25" maskUnits="userSpaceOnUse" width="29" x="75.5" y="71.75"/><linearGradient id="c" gradientUnits="userSpaceOnUse" x1="73.663" x2="101" y1="97.875" y2="97.875"><stop offset=".3169" stop-color="#e91e63"/><stop offset=".8143" stop-color="#f06292" stop-opacity=".3"/></linearGradient><path d="m52.05 36h71.89v88h-71.89z" fill="#f06292"/><g fill="#f48fb1"><path d="m72.08 36h12v88h-12z"/><path d="m92.04 36h12v88h-12z"/><path d="m111.93 36h12v88h-12z"/><path d="m52.05 36h12v88h-12z"/></g><path d="m120.93 39v82h-65.88v-82zm3-3h-71.88v88h71.89v-88z" fill="#424242" opacity=".2"/><circle cx="111.05" cy="45.83" fill="#ad1457" r="4"/><circle cx="65.05" cy="45.83" fill="#ad1457" r="4"/><path d="m114.05 30.12c0-14.36-11.64-25.99-25.99-25.99-14.36 0-25.99 11.64-25.99 25.99v14.96c0 1.66 1.34 3 3 3s3-1.34 3-3v-3h-.01v-11.47c0-10.83 8.4-20.06 19.22-20.47 11.37-.43 20.76 8.7 20.76 19.98v11.96h-.07v2.96c0 1.68 1.36 3.04 3.04 3.04s3.04-1.36 3.04-3.04z" fill="url(#a)"/><path d="m88.06 5.13c13.78 0 24.99 11.21 24.99 24.99v14.92c0 1.12-.91 2.04-2.04 2.04s-2.04-.91-2.04-2.04v-2.59c.05-.12.07-.24.07-.37v-11.96c0-11.58-9.42-20.99-20.99-20.99-.27 0-.54.01-.81.02-11.12.42-20.17 10.05-20.17 21.46v11.47c0 .04 0 .08.01.12v2.87c0 1.1-.9 2-2 2s-2-.9-2-2v-14.95c-.01-13.78 11.2-24.99 24.98-24.99m0-1c-14.36 0-25.99 11.64-25.99 25.99v14.96c0 1.66 1.34 3 3 3s3-1.34 3-3v-3h-.01v-11.47c0-10.83 8.4-20.06 19.22-20.47.26-.01.52-.01.77-.01 11.03 0 19.99 8.97 19.99 19.99v11.96h-.07v2.96c0 1.68 1.36 3.04 3.04 3.04s3.04-1.36 3.04-3.04v-14.92c0-14.35-11.63-25.99-25.99-25.99z" fill="#424242" opacity=".2"/><path d="m104.5 124h-29v-52.25z" fill="url(#c)" mask="url(#b)" opacity=".4"/><path d="m4 72.11h72v52h-72z" fill="#c5e1a5"/><path d="m34 50.21h12v72h-12z" fill="#aed581" transform="matrix(0 1 -1 0 126.21 46.206)"/><path d="m34 74.21h12v72h-12z" fill="#aed581" transform="matrix(0 1 -1 0 150.21 70.206)"/><circle cx="60.05" cy="80.83" fill="#7cb342" r="4"/><circle cx="20.05" cy="80.83" fill="#7cb342" r="4"/><path d="m16.98 85.11c0 12.72 10.23 23.03 22.84 23.03s22.84-10.31 22.84-23.03v-4.39c0-1.47-1.18-2.66-2.64-2.66s-2.64 1.19-2.64 2.66v2.65h.01v1.3c0 9.59-7.38 17.77-16.89 18.14-10 .38-18.25-7.71-18.25-17.7v-1.74h.06v-2.63c0-1.49-1.19-2.69-2.67-2.69-1.47 0-2.67 1.2-2.67 2.69v4.37z" fill="#f06292"/><path d="m60.02 79.06c.9 0 1.64.75 1.64 1.66v4.39c0 12.15-9.8 22.03-21.84 22.03s-21.84-9.88-21.84-22.03v-4.36c0-.93.75-1.69 1.67-1.69s1.67.76 1.67 1.69v2.27c-.04.11-.06.23-.06.35v1.74c0 10.32 8.33 18.71 18.57 18.71.24 0 .48 0 .72-.01 9.84-.38 17.85-8.96 17.85-19.13v-1.3c0-.04 0-.08-.01-.12v-2.54c-.01-.91.72-1.66 1.63-1.66m0-1c-1.46 0-2.64 1.19-2.64 2.66v2.65h.01v1.3c0 9.59-7.38 17.77-16.89 18.14-.23.01-.45.01-.68.01-9.69 0-17.57-7.95-17.57-17.71v-1.74h.06v-2.63c0-1.49-1.19-2.69-2.67-2.69-1.47 0-2.67 1.2-2.67 2.69v4.36c0 12.72 10.23 23.03 22.84 23.03s22.84-10.31 22.84-23.03v-4.39c.01-1.46-1.17-2.65-2.63-2.65z" fill="#424242" opacity=".2"/><path d="m73 75.11v46h-66v-46zm3-3h-72v52h72z" fill="#424242" opacity=".2"/></svg>